<svg width="80" height="143" viewBox="0 0 80 143" fill="none" xmlns="http://www.w3.org/2000/svg">
<path d="M23.1912 17.0047H2.089C0.935217 17.0047 0.000328964 16.0696 0.000328964 14.9161C0.000328964 13.7626 0.935217 12.8274 2.089 12.8274H23.1912C24.345 12.8274 25.2799 13.7626 25.2799 14.9161C25.2799 16.0696 24.3447 17.0047 23.1912 17.0047Z" fill="#4F667A"/>
<path d="M23.1912 26.6485H12.6401C11.4863 26.6485 10.5514 25.7134 10.5514 24.5599C10.5514 23.4064 11.4863 22.4712 12.6401 22.4712H23.1912C24.345 22.4712 25.2799 23.4064 25.2799 24.5599C25.2799 25.7134 24.3447 26.6485 23.1912 26.6485Z" fill="#4F667A"/>
<path d="M2.08863 32.2183H23.1909C24.3447 32.2183 25.2795 33.1534 25.2795 34.3069C25.2795 35.4604 24.3447 36.3956 23.1909 36.3956H2.08863C0.934851 36.3956 -3.72472e-05 35.4604 -3.72472e-05 34.3069C-3.72472e-05 33.1534 0.935129 32.2183 2.08863 32.2183Z" fill="#4F667A"/>
<path d="M23.1912 46.0392H12.6401C11.4863 46.0392 10.5514 45.104 10.5514 43.9505C10.5514 42.797 11.4863 41.8618 12.6401 41.8618H23.1912C24.345 41.8618 25.2799 42.797 25.2799 43.9505C25.2799 45.104 24.3447 46.0392 23.1912 46.0392Z" fill="#4F667A"/>
<path d="M2.08863 51.4658H23.1909C24.3447 51.4658 25.2795 52.401 25.2795 53.5545C25.2795 54.708 24.3447 55.6432 23.1909 55.6432H2.08863C0.934851 55.6432 -3.72472e-05 54.708 -3.72472e-05 53.5545C-3.72472e-05 52.401 0.935129 51.4658 2.08863 51.4658Z" fill="#FF3750"/>
<path d="M23.1912 65.2867H12.6401C11.4863 65.2867 10.5514 64.3515 10.5514 63.198C10.5514 62.0445 11.4863 61.1094 12.6401 61.1094H23.1912C24.345 61.1094 25.2799 62.0445 25.2799 63.198C25.2799 64.3515 24.3447 65.2867 23.1912 65.2867Z" fill="#FF3750"/>
<path d="M2.08863 70.8948H23.1909C24.3447 70.8948 25.2795 71.8299 25.2795 72.9834C25.2795 74.1369 24.3447 75.0721 23.1909 75.0721H2.08863C0.934851 75.0721 -3.72472e-05 74.1369 -3.72472e-05 72.9834C-3.72472e-05 71.8299 0.935129 70.8948 2.08863 70.8948V70.8948Z" fill="#FF3750"/>
<path d="M12.6401 80.5386H23.1912C24.345 80.5386 25.2799 81.4737 25.2799 82.6272C25.2799 83.7807 24.345 84.7159 23.1912 84.7159H12.6401C11.4863 84.7159 10.5514 83.7807 10.5514 82.6272C10.5514 81.4737 11.4863 80.5386 12.6401 80.5386Z" fill="#FF3750"/>
<path d="M20.059 112.849C20.059 120.87 23.206 128.386 28.915 134.02C34.5238 139.551 41.9204 142.581 49.7877 142.581C49.9298 142.581 50.0718 142.581 50.2138 142.578C51.4726 142.559 52.7175 142.464 53.9484 142.288C60.2367 141.403 66.0794 138.518 70.6884 133.953C76.1969 128.5 79.3327 121.26 79.5165 113.571C79.7643 103.15 74.5371 93.383 65.8037 87.7937V16.0131C65.8037 8.62759 60.7797 2.39501 53.9679 0.554193C52.6367 0.192158 51.2359 0 49.7905 0C40.9624 0 33.7774 7.18224 33.7774 16.0131V87.7937C25.2863 93.2354 20.059 102.724 20.059 112.849Z" fill="#E9F5FF"/>
<path d="M20.0591 112.849C20.0591 120.87 23.206 128.386 28.915 134.02C34.5238 139.551 41.9205 142.581 49.7878 142.581C54.9927 142.581 58.1425 142.581 58.1425 142.581C56.7277 142.581 55.3269 142.483 53.9484 142.288C47.6713 141.408 41.8675 138.557 37.2697 134.02C31.5579 128.386 28.4137 120.87 28.4137 112.849C28.4137 102.724 33.641 101.64 42.1321 96.1985V16.0131C42.1321 8.62759 47.1588 2.39501 53.9679 0.554193C52.6367 0.192158 51.2359 0 49.7906 0C40.9625 0 33.7774 7.18224 33.7774 16.0131V87.7937C25.2863 93.2354 20.0591 102.724 20.0591 112.849Z" fill="#CDEAF7"/>
<path d="M28.4137 112.892C28.4137 118.656 30.675 124.062 34.7827 128.111C38.8125 132.088 44.1428 134.268 49.81 134.268C49.9075 134.268 50.0022 134.268 50.0969 134.266C51.1662 134.252 52.2245 134.154 53.2661 133.984C57.5966 133.269 61.6124 131.225 64.8094 128.058C68.7751 124.134 71.0337 118.932 71.1646 113.415C71.3484 105.626 67.2824 98.3462 60.5541 94.4139C58.6409 93.2972 57.449 91.2224 57.449 89.0057V16.0554C57.449 13.0867 55.7502 10.5051 53.2716 9.23523C52.2273 8.69774 51.0437 8.39697 49.7905 8.39697C45.5686 8.39697 42.1348 11.8335 42.1348 16.0554V89.0057C42.1348 91.2224 40.9429 93.2972 39.0297 94.4139C32.4824 98.2404 28.4137 105.32 28.4137 112.892Z" fill="#FF6E6E"/>
<path d="M28.4137 112.891C28.4137 118.656 30.675 124.062 34.7827 128.111C38.8124 132.088 44.1427 134.268 49.81 134.268C49.9075 134.268 50.0021 134.268 50.0968 134.265C51.1662 134.252 52.2245 134.154 53.266 133.984C48.93 133.277 44.9309 131.255 41.7449 128.111C37.6372 124.062 35.3759 118.656 35.3759 112.891C35.3759 105.319 39.4446 98.2401 45.9919 94.4137C47.9051 93.2969 49.0971 91.2222 49.0971 89.0054V16.0552C49.0971 13.0865 50.7958 10.5077 53.2716 9.23498C52.2273 8.6975 51.0437 8.39673 49.7905 8.39673C45.5686 8.39673 42.1348 11.8333 42.1348 16.0552V89.0054C42.1348 91.2222 40.9429 93.2969 39.0297 94.4137C32.4824 98.2401 28.4137 105.319 28.4137 112.891V112.891Z" fill="#F44E92"/>
<path d="M42.1349 16.0552V53.5H57.449V16.0552C57.449 13.0865 55.7502 10.5049 53.2716 9.23498C52.2273 8.6975 51.0437 8.39673 49.7905 8.39673C45.5686 8.39673 42.1349 11.8333 42.1349 16.0552Z" fill="#4F667A"/>
<path d="M42.1348 16.0552V53.5H49.0971V16.0552C49.0971 13.0865 50.7958 10.5077 53.2716 9.23498C52.2273 8.6975 51.0437 8.39673 49.7905 8.39673C45.5686 8.39673 42.1348 11.8333 42.1348 16.0552Z" fill="#3A5366"/>
</svg>
