<svg width="205" height="392" viewBox="0 0 205 392" fill="none" xmlns="http://www.w3.org/2000/svg">
<path d="M59.7824 66.8345H5.38489C2.41066 66.8345 0.00069675 64.4239 0.00069675 61.4504C0.00069675 58.4768 2.41066 56.0662 5.38489 56.0662H59.7824C62.7567 56.0662 65.1666 58.4768 65.1666 61.4504C65.1666 64.4239 62.7559 66.8345 59.7824 66.8345Z" fill="#4F667A"/>
<path d="M59.7824 91.6944H32.5836C29.6094 91.6944 27.1995 89.2837 27.1995 86.3102C27.1995 83.3367 29.6094 80.926 32.5836 80.926H59.7824C62.7567 80.926 65.1666 83.3367 65.1666 86.3102C65.1666 89.2837 62.7559 91.6944 59.7824 91.6944Z" fill="#4F667A"/>
<path d="M5.38415 106.052H59.7817C62.7559 106.052 65.1659 108.463 65.1659 111.436C65.1659 114.41 62.7559 116.821 59.7817 116.821H5.38415C2.40993 116.821 -3.56717e-05 114.41 -3.56717e-05 111.436C-3.56717e-05 108.463 2.41065 106.052 5.38415 106.052Z" fill="#4F667A"/>
<path d="M59.7824 141.68H32.5836C29.6094 141.68 27.1995 139.27 27.1995 136.296C27.1995 133.323 29.6094 130.912 32.5836 130.912H59.7824C62.7567 130.912 65.1666 133.323 65.1666 136.296C65.1666 139.27 62.7559 141.68 59.7824 141.68Z" fill="#4F667A"/>
<path d="M5.38415 155.668H59.7817C62.7559 155.668 65.1659 158.079 65.1659 161.053C65.1659 164.026 62.7559 166.437 59.7817 166.437H5.38415C2.40993 166.437 -3.56717e-05 164.026 -3.56717e-05 161.053C-3.56717e-05 158.079 2.41065 155.668 5.38415 155.668Z" fill="#4F667A"/>
<path d="M59.7824 191.297H32.5836C29.6094 191.297 27.1995 188.886 27.1995 185.913C27.1995 182.939 29.6094 180.528 32.5836 180.528H59.7824C62.7567 180.528 65.1666 182.939 65.1666 185.913C65.1666 188.886 62.7559 191.297 59.7824 191.297Z" fill="#4F667A"/>
<path d="M5.38415 205.753H59.7817C62.7559 205.753 65.1659 208.164 65.1659 211.137C65.1659 214.111 62.7559 216.521 59.7817 216.521H5.38415C2.40993 216.521 -3.56717e-05 214.111 -3.56717e-05 211.137C-3.56717e-05 208.164 2.41065 205.753 5.38415 205.753V205.753Z" fill="#FF3750"/>
<path d="M32.5836 230.613H59.7824C62.7567 230.613 65.1666 233.023 65.1666 235.997C65.1666 238.97 62.7567 241.381 59.7824 241.381H32.5836C29.6094 241.381 27.1995 238.97 27.1995 235.997C27.1995 233.023 29.6094 230.613 32.5836 230.613Z" fill="#FF3750"/>
<path d="M51.7083 314.904C51.7083 335.58 59.8205 354.956 74.5373 369.479C88.9956 383.736 108.063 391.547 128.343 391.547C128.709 391.547 129.076 391.547 129.442 391.539C132.687 391.489 135.896 391.245 139.069 390.793C155.279 388.51 170.34 381.072 182.221 369.306C196.421 355.25 204.504 336.585 204.978 316.764C205.617 289.9 192.142 264.724 169.629 250.316V44.279C169.629 25.2405 156.678 9.17411 139.119 4.42885C135.687 3.49559 132.076 3.00024 128.35 3.00024C105.593 3.00024 87.0717 21.5147 87.0717 44.279V250.316C65.1832 264.343 51.7083 288.802 51.7083 314.904Z" fill="#E9F5FF"/>
<path d="M51.7083 313.904C51.7083 334.579 59.8205 353.955 74.5372 368.478C88.9956 382.736 108.063 390.546 128.343 390.546C141.761 390.546 149.88 390.546 149.88 390.546C146.233 390.546 142.622 390.295 139.069 389.792C122.887 387.524 107.926 380.173 96.074 368.478C81.35 353.955 73.245 334.579 73.245 313.904C73.245 287.802 86.7199 285.009 108.608 270.981V44.2788C108.608 25.2403 121.566 9.17387 139.119 4.4286C135.687 3.49535 132.076 3 128.35 3C105.593 3 87.0716 21.5144 87.0716 44.2788V249.315C65.1831 263.343 51.7083 287.802 51.7083 313.904Z" fill="#CDEAF7"/>
<path d="M73.2451 314.012C73.2451 328.872 79.0744 342.806 89.6633 353.244C100.051 363.496 113.792 369.117 128.401 369.117C128.652 369.117 128.896 369.117 129.14 369.11C131.897 369.074 134.625 368.823 137.31 368.385C148.473 366.54 158.825 361.271 167.066 353.108C177.289 342.993 183.111 329.583 183.449 315.361C183.923 295.282 173.441 276.516 156.097 266.38C151.165 263.501 148.093 258.153 148.093 252.438V64.3863C148.093 56.7336 143.713 50.0787 137.324 46.8051C134.632 45.4196 131.581 44.6443 128.35 44.6443C117.467 44.6443 108.616 53.5031 108.616 64.3863V252.438C108.616 258.153 105.543 263.501 100.611 266.38C83.7335 276.243 73.2451 294.492 73.2451 314.012Z" fill="#FF6E6E"/>
<path d="M73.2451 314.012C73.2451 328.872 79.0743 342.806 89.6632 353.244C100.051 363.496 113.792 369.117 128.401 369.117C128.652 369.117 128.896 369.117 129.14 369.11C131.897 369.074 134.625 368.823 137.31 368.385C126.132 366.561 115.823 361.349 107.611 353.244C97.0216 342.806 91.1924 328.872 91.1924 314.012C91.1924 294.492 101.681 276.243 118.558 266.38C123.49 263.501 126.563 258.153 126.563 252.438V64.3863C126.563 56.7336 130.942 50.0859 137.324 46.8051C134.632 45.4196 131.581 44.6443 128.35 44.6443C117.467 44.6443 108.616 53.5031 108.616 64.3863V252.438C108.616 258.153 105.543 263.501 100.611 266.38C83.7335 276.243 73.2451 294.492 73.2451 314.012V314.012Z" fill="#F44E92"/>
<path d="M108.616 44.3863V211H148.093V44.3863C148.093 36.7336 143.713 30.0787 137.324 26.8051C134.632 25.4196 131.581 24.6443 128.351 24.6443C117.467 24.6443 108.616 33.5031 108.616 44.3863Z" fill="#4F667A"/>
<path d="M108.616 44.3863V211H126.563V44.3863C126.563 36.7336 130.942 30.0859 137.324 26.8051C134.632 25.4196 131.581 24.6443 128.35 24.6443C117.467 24.6443 108.616 33.5031 108.616 44.3863Z" fill="#3A5366"/>
</svg>
