<svg width="113" height="143" viewBox="0 0 113 143" fill="none" xmlns="http://www.w3.org/2000/svg">
<path d="M35.8458 17.0047H14.7435C13.5898 17.0047 12.6549 16.0696 12.6549 14.9161C12.6549 13.7626 13.5898 12.8274 14.7435 12.8274H35.8458C36.9996 12.8274 37.9344 13.7626 37.9344 14.9161C37.9344 16.0696 36.9993 17.0047 35.8458 17.0047Z" fill="#4F667A"/>
<path d="M35.8458 26.6485H25.2947C24.1409 26.6485 23.206 25.7134 23.206 24.5599C23.206 23.4064 24.1409 22.4712 25.2947 22.4712H35.8458C36.9996 22.4712 37.9344 23.4064 37.9344 24.5599C37.9344 25.7134 36.9993 26.6485 35.8458 26.6485Z" fill="#4F667A"/>
<path d="M14.7432 32.2183H35.8454C36.9992 32.2183 37.9341 33.1534 37.9341 34.3069C37.9341 35.4604 36.9992 36.3956 35.8454 36.3956H14.7432C13.5894 36.3956 12.6545 35.4604 12.6545 34.3069C12.6545 33.1534 13.5897 32.2183 14.7432 32.2183Z" fill="#4F667A"/>
<path d="M35.8458 46.0392H25.2947C24.1409 46.0392 23.206 45.104 23.206 43.9505C23.206 42.797 24.1409 41.8618 25.2947 41.8618H35.8458C36.9996 41.8618 37.9344 42.797 37.9344 43.9505C37.9344 45.104 36.9993 46.0392 35.8458 46.0392Z" fill="#4F667A"/>
<path d="M14.7432 51.4658H35.8454C36.9992 51.4658 37.9341 52.401 37.9341 53.5545C37.9341 54.708 36.9992 55.6432 35.8454 55.6432H14.7432C13.5894 55.6432 12.6545 54.708 12.6545 53.5545C12.6545 52.401 13.5897 51.4658 14.7432 51.4658Z" fill="#4F667A"/>
<path d="M35.8458 65.2867H25.2947C24.1409 65.2867 23.206 64.3515 23.206 63.198C23.206 62.0445 24.1409 61.1094 25.2947 61.1094H35.8458C36.9996 61.1094 37.9344 62.0445 37.9344 63.198C37.9344 64.3515 36.9993 65.2867 35.8458 65.2867Z" fill="#4F667A"/>
<path d="M14.7432 70.8948H35.8454C36.9992 70.8948 37.9341 71.8299 37.9341 72.9834C37.9341 74.1369 36.9992 75.0721 35.8454 75.0721H14.7432C13.5894 75.0721 12.6545 74.1369 12.6545 72.9834C12.6545 71.8299 13.5897 70.8948 14.7432 70.8948V70.8948Z" fill="#FF3750"/>
<path d="M25.2947 80.5386H35.8458C36.9996 80.5386 37.9344 81.4737 37.9344 82.6272C37.9344 83.7807 36.9996 84.7159 35.8458 84.7159H25.2947C24.1409 84.7159 23.206 83.7807 23.206 82.6272C23.206 81.4737 24.1409 80.5386 25.2947 80.5386Z" fill="#FF3750"/>
<path d="M32.7136 112.849C32.7136 120.87 35.8605 128.386 41.5695 134.02C47.1783 139.551 54.575 142.581 62.4423 142.581C62.5843 142.581 62.7263 142.581 62.8684 142.578C64.1271 142.559 65.372 142.464 66.6029 142.288C72.8912 141.403 78.7339 138.518 83.3429 133.953C88.8514 128.5 91.9872 121.26 92.171 113.571C92.4189 103.15 87.1916 93.383 78.4582 87.7937V16.0131C78.4582 8.62759 73.4343 2.39501 66.6224 0.554193C65.2912 0.192158 63.8904 0 62.4451 0C53.617 0 46.4319 7.18224 46.4319 16.0131V87.7937C37.9408 93.2354 32.7136 102.724 32.7136 112.849Z" fill="#E9F5FF"/>
<path d="M32.7136 112.849C32.7136 120.87 35.8605 128.386 41.5696 134.02C47.1783 139.551 54.575 142.581 62.4423 142.581C67.6473 142.581 70.797 142.581 70.797 142.581C69.3823 142.581 67.9815 142.483 66.603 142.288C60.3258 141.408 54.5221 138.557 49.9242 134.02C44.2124 128.386 41.0683 120.87 41.0683 112.849C41.0683 102.724 46.2955 101.64 54.7867 96.1985V16.0131C54.7867 8.62759 59.8134 2.39501 66.6224 0.554193C65.2913 0.192158 63.8905 0 62.4451 0C53.617 0 46.432 7.18224 46.432 16.0131V87.7937C37.9408 93.2354 32.7136 102.724 32.7136 112.849Z" fill="#CDEAF7"/>
<path d="M41.0682 112.892C41.0682 118.656 43.3296 124.062 47.4373 128.111C51.467 132.088 56.7973 134.269 62.4645 134.269C62.562 134.269 62.6567 134.268 62.7514 134.266C63.8208 134.252 64.879 134.154 65.9206 133.984C70.2511 133.269 74.2669 131.225 77.464 128.058C81.4297 124.134 83.6882 118.932 83.8191 113.415C84.0029 105.626 79.937 98.3462 73.2087 94.4139C71.2954 93.2972 70.1035 91.2224 70.1035 89.0057V16.0554C70.1035 13.0867 68.4047 10.5051 65.9262 9.23523C64.8818 8.69774 63.6983 8.39697 62.4451 8.39697C58.2232 8.39697 54.7894 11.8335 54.7894 16.0554V89.0057C54.7894 91.2224 53.5975 93.2972 51.6842 94.4139C45.137 98.2404 41.0682 105.32 41.0682 112.892Z" fill="#FF6E6E"/>
<path d="M41.0682 112.891C41.0682 118.656 43.3295 124.062 47.4373 128.111C51.467 132.088 56.7973 134.268 62.4645 134.268C62.562 134.268 62.6567 134.268 62.7514 134.265C63.8208 134.252 64.879 134.154 65.9206 133.984C61.5845 133.277 57.5854 131.255 54.3995 128.111C50.2918 124.062 48.0304 118.656 48.0304 112.891C48.0304 105.319 52.0992 98.2401 58.6464 94.4137C60.5597 93.2969 61.7516 91.2222 61.7516 89.0054V16.0552C61.7516 13.0865 63.4504 10.5077 65.9261 9.23498C64.8818 8.6975 63.6982 8.39673 62.445 8.39673C58.2231 8.39673 54.7894 11.8333 54.7894 16.0552V89.0054C54.7894 91.2222 53.5974 93.2969 51.6842 94.4137C45.1369 98.2401 41.0682 105.319 41.0682 112.891V112.891Z" fill="#F44E92"/>
<path d="M54.7894 16.0552V73H70.1035V16.0552C70.1035 13.0865 68.4047 10.5049 65.9262 9.23498C64.8818 8.6975 63.6983 8.39673 62.4451 8.39673C58.2232 8.39673 54.7894 11.8333 54.7894 16.0552Z" fill="#4F667A"/>
<path d="M54.7894 16.0552V73H61.7516V16.0552C61.7516 13.0865 63.4504 10.5077 65.9261 9.23498C64.8818 8.6975 63.6982 8.39673 62.445 8.39673C58.2231 8.39673 54.7894 11.8333 54.7894 16.0552Z" fill="#3A5366"/>
<path d="M112 15H1" stroke="black" stroke-opacity="0.25" stroke-linecap="round" stroke-dasharray="3 4"/>
<path d="M112 34H1" stroke="black" stroke-opacity="0.25" stroke-linecap="round" stroke-dasharray="3 4"/>
<path d="M112 54H1" stroke="black" stroke-opacity="0.25" stroke-linecap="round" stroke-dasharray="3 4"/>
<path d="M112 73H1" stroke="black" stroke-opacity="0.25" stroke-linecap="round" stroke-dasharray="3 4"/>
</svg>
