<svg width="9" height="13" viewBox="0 0 9 13" fill="none" xmlns="http://www.w3.org/2000/svg">
<path d="M1.01902 10.9246C0.701258 11.1903 0.659054 11.6633 0.924758 11.9811C1.19046 12.2989 1.66346 12.3411 1.98122 12.0754L1.01902 10.9246ZM7.50012 6.48302L7.98122 7.05838C8.15162 6.91589 8.2501 6.7052 8.25012 6.48308C8.25014 6.26095 8.1517 6.05024 7.98132 5.90773L7.50012 6.48302ZM2.02394 0.924715C1.70622 0.658959 1.23322 0.701085 0.967461 1.01881C0.701705 1.33653 0.743831 1.80953 1.06155 2.07528L2.02394 0.924715ZM1.98122 12.0754L7.98122 7.05838L7.01902 5.90765L1.01902 10.9246L1.98122 12.0754ZM7.98132 5.90773L2.02394 0.924715L1.06155 2.07528L7.01893 7.0583L7.98132 5.90773Z" fill="#F0B4A0"/>
</svg>
