<svg width="18" height="18" viewBox="0 0 18 18" fill="none" xmlns="http://www.w3.org/2000/svg">
<rect x="0.5" y="0.5" width="17" height="17" rx="8.5" stroke="black" stroke-opacity="0.6"/>
<path d="M11.313 5.38992C11.5283 5.21706 11.5628 4.90235 11.3899 4.68701C11.2171 4.47166 10.9024 4.43722 10.687 4.61008L11.313 5.38992ZM6 9.01359L5.68701 8.62367C5.56879 8.71856 5.50001 8.86196 5.5 9.01355C5.49999 9.16513 5.56875 9.30854 5.68694 9.40345L6 9.01359ZM10.6514 13.3899C10.8667 13.5628 11.1815 13.5284 11.3543 13.3131C11.5272 13.0977 11.4929 12.783 11.2775 12.6101L10.6514 13.3899ZM10.687 4.61008L5.68701 8.62367L6.31299 9.4035L11.313 5.38992L10.687 4.61008ZM5.68694 9.40345L10.6514 13.3899L11.2775 12.6101L6.31306 8.62372L5.68694 9.40345Z" fill="black" fill-opacity="0.6"/>
</svg>
