<svg width="8" height="12" viewBox="0 0 8 12" fill="none" xmlns="http://www.w3.org/2000/svg">
<path d="M0.518901 10.4246C0.201136 10.6903 0.158932 11.1633 0.424636 11.4811C0.690339 11.7989 1.16333 11.8411 1.4811 11.5754L0.518901 10.4246ZM7 5.98302L7.4811 6.55838C7.6515 6.41589 7.74998 6.2052 7.75 5.98308C7.75002 5.76095 7.65157 5.55024 7.48119 5.40773L7 5.98302ZM1.52382 0.424715C1.2061 0.158959 0.733095 0.201085 0.467339 0.518806C0.201583 0.836527 0.243709 1.30953 0.561429 1.57528L1.52382 0.424715ZM1.4811 11.5754L7.4811 6.55838L6.5189 5.40765L0.518901 10.4246L1.4811 11.5754ZM7.48119 5.40773L1.52382 0.424715L0.561429 1.57528L6.51881 6.5583L7.48119 5.40773Z" fill="#F0B4A0"/>
</svg>
