<svg width="316" height="33" viewBox="0 0 316 33" fill="none" xmlns="http://www.w3.org/2000/svg">
<path d="M59.5339 20.9343V17.8045H55.2156V20.9343H54.0601V13.7502H55.2156V16.7711H59.5339V13.7502H60.6894V20.9343H59.5339Z" fill="black"/>
<path d="M66.193 21.0438C63.882 21.0438 62.2048 19.6374 62.2048 17.3825C62.2048 15.1903 63.8523 13.698 66.193 13.698C68.5371 13.698 70.1812 15.1903 70.1812 17.3825C70.1845 19.6374 68.5041 21.0438 66.193 21.0438ZM66.193 14.7545C64.4267 14.7545 63.4132 15.8671 63.4132 17.3825C63.4132 18.8978 64.4267 19.9873 66.193 19.9873C67.9593 19.9873 68.9729 18.8978 68.9729 17.3825C68.9729 15.8638 67.9593 14.7545 66.193 14.7545Z" fill="black"/>
<path d="M78.0718 21.0438C75.457 21.0438 73.9747 19.6143 73.9747 17.4353C73.9747 15.2662 75.6089 13.698 78.019 13.698C79.0887 13.698 79.9801 13.9159 80.7658 14.2758L80.4159 15.2563C79.7292 14.9526 78.9863 14.7545 78.1279 14.7545C76.3286 14.7545 75.1863 15.8869 75.1863 17.3693C75.1863 18.9507 76.223 19.984 78.151 19.984C78.9137 19.984 79.6895 19.8091 80.4192 19.5053L80.8021 20.4859C79.8282 20.9018 78.9005 21.0438 78.0718 21.0438Z" fill="black"/>
<path d="M87.5141 20.9348V17.805H83.1957V20.9348H82.0402V13.7507H83.1957V16.7716H87.5141V13.7507H88.6696V20.9348H87.5141Z" fill="black"/>
<path d="M90.5944 20.9348V13.7507H91.7499V20.9348H90.5944Z" fill="black"/>
<path d="M103.454 20.9348V15.7778H103.431L100.532 19.2675H100.38L97.4812 15.7778H97.4581V20.9348H96.3026V13.7507H97.2633L100.456 17.597H100.479L103.672 13.7507H104.609V20.9348H103.454Z" fill="black"/>
<path d="M106.544 20.9348V13.7507H107.699V20.9348H106.544Z" fill="black"/>
<path d="M116.016 20.9348L110.783 15.659H110.76V20.9348H109.604V13.7507H110.532L115.689 18.9506H115.712V13.7507H116.868V20.9348H116.016Z" fill="black"/>
<path d="M124.266 20.9348V17.805H119.948V20.9348H118.792V13.7507H119.948V16.7716H124.266V13.7507H125.422V20.9348H124.266Z" fill="black"/>
<path d="M133.695 21.0438C131.08 21.0438 129.598 19.6143 129.598 17.4353C129.598 15.2662 131.232 13.698 133.642 13.698C134.712 13.698 135.603 13.9159 136.389 14.2758L136.039 15.2563C135.353 14.9526 134.61 14.7545 133.751 14.7545C131.952 14.7545 130.81 15.8869 130.81 17.3693C130.81 18.9507 131.846 19.984 133.774 19.984C134.537 19.984 135.313 19.8091 136.043 19.5053L136.426 20.4859C135.448 20.9018 134.524 21.0438 133.695 21.0438Z" fill="black"/>
<path d="M137.687 20.9348V13.7507H138.842V20.9348H137.687Z" fill="black"/>
<path d="M143.679 14.7874V20.9348H142.523V14.7874H139.853V13.7507H146.35V14.7874H143.679Z" fill="black"/>
<path d="M151.246 18.2077V20.9315H150.09V18.2077L146.931 13.7507H148.281L150.678 17.1612H150.701L152.989 13.7507H154.32L151.246 18.2077Z" fill="black"/>
<path d="M54.1855 32.3614L56.5098 27.6567H56.8862L59.2797 32.3614H58.6888L57.9426 30.8691H55.4896L54.7633 32.3614H54.1855ZM55.7141 30.4069H57.7115L56.7013 28.4029H56.6881L55.7141 30.4069Z" fill="black"/>
<path d="M61.812 32.3612V27.6797H62.2313L65.9422 31.4467H65.9554V27.6797H66.4803V32.3612H66.1172L62.3502 28.5381H62.337V32.3612H61.812Z" fill="black"/>
<path d="M68.3522 28.3105C68.8276 27.8615 69.4549 27.6436 70.2275 27.6436C71 27.6436 71.6273 27.8648 72.1027 28.3105C72.5781 28.7595 72.8191 29.3339 72.8191 30.0437C72.8191 30.7701 72.5781 31.3511 72.1027 31.7836C71.6273 32.2161 71 32.4307 70.2275 32.4307C69.4549 32.4307 68.8276 32.2161 68.3522 31.7836C67.8768 31.3511 67.6358 30.7668 67.6358 30.0437C67.6358 29.3339 67.8768 28.7562 68.3522 28.3105ZM71.7131 31.4304C72.0829 31.0738 72.2678 30.6116 72.2678 30.0437C72.2678 29.4759 72.0829 29.0137 71.7131 28.6505C71.35 28.2873 70.8548 28.1091 70.2275 28.1091C69.6035 28.1091 69.105 28.2873 68.7352 28.6505C68.372 29.0137 68.1872 29.4759 68.1872 30.0437C68.1872 30.6116 68.372 31.0738 68.7352 31.4304C69.0984 31.7869 69.5936 31.9619 70.2275 31.9619C70.8548 31.9619 71.3533 31.7836 71.7131 31.4304Z" fill="black"/>
<path d="M73.978 32.3612V27.6797H75.3844C75.7905 27.6797 76.1173 27.716 76.3649 27.7919C77.0054 27.9966 77.3257 28.4027 77.3257 29.0003C77.3257 29.7101 76.8073 30.1855 75.8895 30.3077V30.3209C75.9886 30.3638 76.0942 30.476 76.2098 30.6708L76.5927 31.2816C76.7347 31.5028 76.8767 31.658 77.012 31.7636C77.154 31.8693 77.3026 31.9188 77.4676 31.9188C77.5601 31.9188 77.6525 31.9056 77.7384 31.8825L77.844 32.3315C77.7318 32.3744 77.5898 32.3942 77.4181 32.3942C77.1606 32.3942 76.9262 32.315 76.7083 32.1598C76.5465 32.0476 76.3881 31.8825 76.2329 31.6679C76.0777 31.4533 75.949 31.2552 75.8499 31.0769C75.6584 30.7138 75.3943 30.3935 75.1467 30.3935H74.5062V32.3546H73.978V32.3612ZM74.5029 29.928H75.249C75.6056 29.928 75.873 29.8983 76.0513 29.8488C76.5267 29.7068 76.7677 29.4229 76.7677 28.9904C76.7677 28.6272 76.5399 28.3664 76.2197 28.2508C76.0348 28.1815 75.7575 28.1452 75.3811 28.1452H74.4996V29.928H74.5029Z" fill="black"/>
<path d="M78.6595 32.3612V27.6797H80.3366C80.9111 27.6797 81.3898 27.7424 81.7662 27.8778C82.7104 28.198 83.2585 28.9012 83.2585 29.9445C83.2585 31.1099 82.6048 31.8924 81.4459 32.2027C81.0696 32.3084 80.6206 32.3579 80.089 32.3579H78.6595V32.3612ZM79.1844 31.8924H80.0659C80.5644 31.8924 80.9771 31.8495 81.304 31.757C82.235 31.4929 82.7038 30.8887 82.7038 29.9379C82.7038 29.1356 82.334 28.6008 81.5879 28.3334C81.2677 28.2112 80.8286 28.1485 80.2673 28.1485H79.1877V31.8924H79.1844Z" fill="black"/>
<path d="M85.5166 32.3614L87.8409 27.6567H88.2172L90.6108 32.3614H90.0198L89.2737 30.8691H86.8207L86.0944 32.3614H85.5166ZM87.0419 30.4069H89.0393L88.029 28.4029H88.0158L87.0419 30.4069Z" fill="black"/>
<path d="M91.4594 32.3612V27.6797H91.8786L95.5895 31.4467H95.6027V27.6797H96.1276V32.3612H95.7645L91.9975 28.5381H91.9843V32.3612H91.4594Z" fill="black"/>
<path d="M98.0458 28.3235C98.5576 27.8679 99.241 27.6401 100.099 27.6401C100.746 27.6401 101.37 27.7623 101.968 28.0099L101.806 28.4589C101.281 28.2245 100.72 28.1089 100.122 28.1089C99.4259 28.1089 98.8712 28.2872 98.4585 28.6504C98.0458 29.0136 97.8411 29.4758 97.8411 30.0502C97.8411 31.252 98.6302 31.9618 100.159 31.9618C100.677 31.9618 101.139 31.8825 101.552 31.7208V30.3705H99.8121V29.9017H102.08V32.0344C101.876 32.1401 101.582 32.2325 101.205 32.3117C100.829 32.391 100.466 32.4339 100.119 32.4339C99.2014 32.4339 98.4981 32.2193 98.0161 31.8033C97.5341 31.3774 97.2898 30.7997 97.2898 30.0832C97.2832 29.3602 97.5407 28.7791 98.0458 28.3235Z" fill="black"/>
<path d="M103.427 32.3612V27.6797H103.952V31.8924H106.623V32.3612H103.427Z" fill="black"/>
<path d="M107.429 32.3612V27.6797H107.954V32.3612H107.429Z" fill="black"/>
<path d="M108.789 32.3614L111.113 27.6567H111.489L113.883 32.3614H113.292L112.546 30.8691H110.093L109.367 32.3614H108.789ZM110.317 30.4069H112.315L111.305 28.4029H111.291L110.317 30.4069Z" fill="black"/>
<path d="M116.415 32.3612V27.6797H119.641V28.1485H116.94V29.7398H119.377V30.202H116.94V31.8924H119.684V32.3612H116.415Z" fill="black"/>
<path d="M120.697 32.3612V27.6797H122.374C122.949 27.6797 123.428 27.7424 123.804 27.8778C124.748 28.198 125.296 28.9012 125.296 29.9445C125.296 31.1099 124.643 31.8924 123.484 32.2027C123.107 32.3084 122.658 32.3579 122.127 32.3579H120.697V32.3612ZM121.222 31.8924H122.104C122.602 31.8924 123.015 31.8495 123.342 31.757C124.273 31.4929 124.742 30.8887 124.742 29.9379C124.742 29.1356 124.372 28.6008 123.626 28.3334C123.305 28.2112 122.866 28.1485 122.305 28.1485H121.226V31.8924H121.222Z" fill="black"/>
<path d="M126.376 27.6765H126.901V30.2418C126.901 30.5983 126.937 30.8723 127.006 31.0671C127.228 31.6581 127.782 31.9552 128.654 31.9552C129.512 31.9552 130.054 31.6713 130.282 31.1035C130.361 30.8988 130.404 30.628 130.404 30.2781V27.6765H130.935V30.3144C130.935 30.6842 130.886 31.0044 130.787 31.2751C130.49 32.051 129.776 32.434 128.654 32.434C127.495 32.434 126.772 32.0279 126.495 31.2256C126.415 30.9714 126.373 30.6776 126.373 30.3507V27.6765H126.376Z" fill="black"/>
<path d="M132.761 28.3301C133.253 27.8679 133.907 27.6401 134.715 27.6401C135.306 27.6401 135.868 27.7524 136.399 27.9802L136.237 28.4292C135.762 28.2146 135.27 28.1089 134.758 28.1089C134.098 28.1089 133.563 28.2872 133.167 28.6504C132.777 29.007 132.576 29.4659 132.576 30.037C132.576 31.2388 133.358 31.9618 134.752 31.9618C135.234 31.9618 135.732 31.8627 136.237 31.6547L136.416 32.1037C135.874 32.3249 135.306 32.4306 134.702 32.4306C133.85 32.4306 133.19 32.216 132.718 31.8C132.256 31.3741 132.021 30.7964 132.021 30.0799C132.021 29.3668 132.269 28.7858 132.761 28.3301Z" fill="black"/>
<path d="M137.013 32.3614L139.337 27.6567H139.714L142.107 32.3614H141.516L140.77 30.8691H138.317L137.591 32.3614H137.013ZM138.538 30.4069H140.536L139.526 28.4029H139.512L138.538 30.4069Z" fill="black"/>
<path d="M141.698 28.1453V27.6765H145.884V28.1453H144.052V32.358H143.527V28.1453H141.698Z" fill="black"/>
<path d="M146.7 32.3612V27.6797H147.225V32.3612H146.7Z" fill="black"/>
<path d="M149.093 28.3105C149.569 27.8615 150.196 27.6436 150.969 27.6436C151.744 27.6436 152.368 27.8648 152.844 28.3105C153.319 28.7595 153.56 29.3339 153.56 30.0437C153.56 30.7701 153.319 31.3511 152.844 31.7836C152.368 32.2161 151.741 32.4307 150.969 32.4307C150.193 32.4307 149.569 32.2161 149.093 31.7836C148.618 31.3511 148.377 30.7668 148.377 30.0437C148.377 29.3339 148.618 28.7562 149.093 28.3105ZM152.454 31.4304C152.824 31.0738 153.009 30.6116 153.009 30.0437C153.009 29.4759 152.824 29.0137 152.454 28.6505C152.091 28.2873 151.596 28.1091 150.969 28.1091C150.345 28.1091 149.846 28.2873 149.476 28.6505C149.113 29.0137 148.928 29.4759 148.928 30.0437C148.928 30.6116 149.113 31.0738 149.476 31.4304C149.84 31.7869 150.335 31.9619 150.969 31.9619C151.596 31.9619 152.091 31.7836 152.454 31.4304Z" fill="black"/>
<path d="M154.719 32.3612V27.6797H155.138L158.849 31.4467H158.862V27.6797H159.387V32.3612H159.024L155.257 28.5381H155.244V32.3612H154.719Z" fill="black"/>
<path d="M162.431 31.5062C162.837 31.8132 163.349 31.9618 163.973 31.9618C164.825 31.9618 165.429 31.6415 165.429 31.0242C165.429 30.6544 165.145 30.4332 164.696 30.3506C164.475 30.3011 164.247 30.2648 164.013 30.2384C163.551 30.1757 162.996 30.0337 162.705 29.7993C162.458 29.6012 162.336 29.3239 162.336 28.9607C162.336 28.1287 163.045 27.6467 164.135 27.6467C164.808 27.6467 165.479 27.8382 165.848 28.0957L165.627 28.5018C165.208 28.2476 164.716 28.1188 164.171 28.1188C163.313 28.1188 162.894 28.4754 162.894 28.9376C162.894 30.3011 165.984 29.1852 165.984 31.0275C165.984 31.4831 165.792 31.8297 165.409 32.0806C165.026 32.3216 164.551 32.4438 163.973 32.4438C163.214 32.4438 162.616 32.2721 162.167 31.9255L162.431 31.5062Z" fill="black"/>
<path d="M167.582 28.3301C168.074 27.8679 168.727 27.6401 169.536 27.6401C170.127 27.6401 170.688 27.7524 171.22 27.9802L171.058 28.4292C170.583 28.2146 170.091 28.1089 169.579 28.1089C168.919 28.1089 168.384 28.2872 167.988 28.6504C167.598 29.007 167.397 29.4659 167.397 30.037C167.397 31.2388 168.179 31.9618 169.572 31.9618C170.055 31.9618 170.553 31.8627 171.058 31.6547L171.236 32.1037C170.695 32.3249 170.127 32.4306 169.523 32.4306C168.671 32.4306 168.011 32.216 167.539 31.8C167.077 31.3741 166.842 30.7964 166.842 30.0799C166.842 29.3668 167.09 28.7858 167.582 28.3301Z" fill="black"/>
<path d="M172.167 32.3612V27.6797H172.692V29.7464H175.825V27.6797H176.35V32.3612H175.825V30.2152H172.692V32.3612H172.167Z" fill="black"/>
<path d="M178.222 28.3105C178.698 27.8615 179.325 27.6436 180.098 27.6436C180.873 27.6436 181.497 27.8648 181.973 28.3105C182.448 28.7595 182.689 29.3339 182.689 30.0437C182.689 30.7701 182.448 31.3511 181.973 31.7836C181.497 32.2161 180.87 32.4307 180.098 32.4307C179.322 32.4307 178.698 32.2161 178.222 31.7836C177.747 31.3511 177.506 30.7668 177.506 30.0437C177.503 29.3339 177.747 28.7562 178.222 28.3105ZM181.583 31.4304C181.953 31.0738 182.138 30.6116 182.138 30.0437C182.138 29.4759 181.953 29.0137 181.583 28.6505C181.22 28.2873 180.725 28.1091 180.098 28.1091C179.474 28.1091 178.975 28.2873 178.605 28.6505C178.242 29.0137 178.057 29.4759 178.057 30.0437C178.057 30.6116 178.242 31.0738 178.605 31.4304C178.969 31.7869 179.464 31.9619 180.098 31.9619C180.722 31.9619 181.22 31.7836 181.583 31.4304Z" fill="black"/>
<path d="M184.294 28.3105C184.769 27.8615 185.396 27.6436 186.169 27.6436C186.942 27.6436 187.569 27.8648 188.044 28.3105C188.52 28.7595 188.761 29.3339 188.761 30.0437C188.761 30.7701 188.52 31.3511 188.044 31.7836C187.569 32.2161 186.942 32.4307 186.169 32.4307C185.396 32.4307 184.769 32.2161 184.294 31.7836C183.818 31.3511 183.577 30.7668 183.577 30.0437C183.574 29.3339 183.818 28.7562 184.294 28.3105ZM187.655 31.4304C188.024 31.0738 188.209 30.6116 188.209 30.0437C188.209 29.4759 188.024 29.0137 187.655 28.6505C187.292 28.2873 186.796 28.1091 186.169 28.1091C185.545 28.1091 185.047 28.2873 184.677 28.6505C184.314 29.0137 184.129 29.4759 184.129 30.0437C184.129 30.6116 184.314 31.0738 184.677 31.4304C185.04 31.7869 185.535 31.9619 186.169 31.9619C186.793 31.9619 187.292 31.7836 187.655 31.4304Z" fill="black"/>
<path d="M189.916 32.3612V27.6797H190.441V31.8924H193.112V32.3612H189.916Z" fill="black"/>
<path d="M58.7416 8.85123C58.2068 9.04601 57.6191 9.09223 57.0942 9.09223H54.2813V1.9082H56.8103C57.256 1.9082 57.6719 1.95112 58.0648 2.05017C58.9463 2.27797 59.5901 2.80291 59.5901 3.83957C59.5901 4.42724 59.3392 4.95217 58.7614 5.27902V5.30213C58.9463 5.33514 59.1114 5.40117 59.2533 5.47711C59.808 5.76104 60.115 6.31569 60.115 6.93636C60.115 8.03246 59.4944 8.5772 58.7416 8.85123ZM57.6851 3.03071C57.4342 2.96468 57.1503 2.94487 56.8136 2.94487H55.4401V4.92906H56.8235C57.1932 4.92906 57.5201 4.89605 57.771 4.797C58.154 4.64513 58.3818 4.3513 58.3818 3.91551C58.3818 3.41038 58.1209 3.14956 57.6851 3.03071ZM58.2629 6.08128C57.9889 5.99544 57.6521 5.96243 57.2824 5.96243H55.4401V8.05557H57.0083C57.4772 8.05557 57.903 8.01265 58.2167 7.89049C58.6426 7.72542 58.9034 7.43159 58.9034 6.94297C58.9034 6.46425 58.6525 6.21334 58.2629 6.08128Z" fill="black"/>
<path d="M66.7939 9.14506C66.2492 9.14506 65.8233 8.95027 65.4733 8.66635C64.4829 7.86078 64.0999 6.31238 63.3703 6.31238H62.7826V9.09223H61.6271V1.9082H63.773C64.3178 1.9082 64.8097 1.94122 65.2224 2.05017C66.16 2.30108 66.9128 2.91186 66.9128 4.04426C66.9128 5.27572 66.0313 5.8964 64.8526 6.09449V6.1176C65.3214 6.37842 65.6153 7.33915 66.193 7.80796C66.4109 7.98294 66.6519 8.09188 66.9557 8.09188C67.0877 8.09188 67.2924 8.06878 67.4575 8.02586L67.6985 9.0064C67.4938 9.08893 67.134 9.14506 66.7939 9.14506ZM64.8889 3.04061C64.5852 2.95477 64.2584 2.94157 63.7995 2.94157H62.7859V5.27572H63.6575C64.1263 5.27572 64.4961 5.25261 64.7899 5.16677C65.3446 5.00169 65.7044 4.65504 65.7044 4.06738C65.7044 3.51933 65.3578 3.17267 64.8889 3.04061Z" fill="black"/>
<path d="M68.7286 9.08906V1.90503H69.8841V9.08906H68.7286Z" fill="black"/>
<path d="M74.7241 2.9417V9.08906H73.5685V2.9417H70.8976V1.90503H77.395V2.9417H74.7241Z" fill="black"/>
<path d="M78.4218 9.08906V1.90503H79.5773V9.08906H78.4218Z" fill="black"/>
<path d="M83.8263 9.19799C82.6378 9.19799 81.6671 8.88104 80.9705 8.42544L81.4922 7.49772C82.1029 7.86749 82.8755 8.14151 83.8362 8.14151C85.0346 8.14151 85.8105 7.75854 85.8105 6.99589C85.8105 5.70831 83.1297 6.31909 81.8421 5.38147C81.4393 5.08763 81.1884 4.65184 81.1884 3.96513C81.1884 2.54879 82.367 1.84888 83.9914 1.84888C85.0908 1.84888 86.1373 2.16582 86.8141 2.5587L86.3684 3.47321C85.7808 3.17938 84.929 2.90535 84.0673 2.90535C82.8127 2.90535 82.4001 3.39727 82.4001 3.8958C82.4001 5.672 87.0221 4.07078 87.0221 6.93647C87.0188 8.52448 85.4836 9.19799 83.8263 9.19799Z" fill="black"/>
<path d="M94.018 9.08906V5.95925H89.7029V9.08906H88.5474V1.90503H89.7029V4.92589H94.018V1.90503H95.1735V9.08906H94.018Z" fill="black"/>
<path d="M103.279 9.12208H102.483L98.7886 1.90503H100.063L102.876 7.49775H102.899L105.58 1.90503H106.844L103.279 9.12208Z" fill="black"/>
<path d="M107.878 9.08906V1.90503H109.033V9.08906H107.878Z" fill="black"/>
<path d="M110.941 9.08906V1.90503H116.065V2.9417H112.097V4.92589H115.696V5.96256H112.097V8.0557H116.131V9.09236H110.941V9.08906Z" fill="black"/>
<path d="M120.786 2.9417V9.08906H119.631V2.9417H116.96V1.90503H123.457V2.9417H120.786Z" fill="black"/>
<path d="M130.896 9.08906L125.663 3.81329H125.64V9.08906H124.484V1.90503H125.412L130.569 7.10487H130.592V1.90503H131.747V9.08906H130.896Z" fill="black"/>
<path d="M139.572 9.08912L138.548 7.0521H135.049L134.078 9.08912H132.781L136.333 1.87207H137.185L140.869 9.08912H139.572ZM136.759 3.4997H136.736L135.538 6.01874H138.024L136.759 3.4997Z" fill="black"/>
<path d="M149.054 9.08906V3.93214H149.031L146.132 7.42181H145.98L143.081 3.93214H143.058V9.08906H141.903V1.90503H142.863L146.056 5.75126H146.079L149.272 1.90503H150.209V9.08906H149.054Z" fill="black"/>
<path d="M152.144 9.08906V1.90503H157.268V2.9417H153.299V4.92589H156.898V5.96256H153.299V8.0557H157.334V9.09236H152.144V9.08906Z" fill="black"/>
<path d="M161.276 9.19799C160.087 9.19799 159.117 8.88104 158.42 8.42544L158.942 7.49772C159.553 7.86749 160.325 8.14151 161.286 8.14151C162.484 8.14151 163.26 7.75854 163.26 6.99589C163.26 5.70831 160.579 6.31909 159.292 5.38147C158.889 5.08763 158.638 4.65184 158.638 3.96513C158.638 2.54879 159.817 1.84888 161.441 1.84888C162.54 1.84888 163.587 2.16582 164.264 2.5587L163.818 3.47321C163.23 3.17938 162.379 2.90535 161.517 2.90535C160.262 2.90535 159.85 3.39727 159.85 3.8958C159.85 5.672 164.472 4.07078 164.472 6.93647C164.468 8.52448 162.933 9.19799 161.276 9.19799Z" fill="black"/>
<path d="M165.994 9.08906V1.90503H171.118V2.9417H167.149V4.92589H170.748V5.96256H167.149V8.0557H171.184V9.09236H165.994V9.08906Z" fill="black"/>
<path d="M175.409 9.08906V1.90503H176.565V9.08906H175.409Z" fill="black"/>
<path d="M184.881 9.08906L179.649 3.81329H179.626V9.08906H178.47V1.90503H179.398L184.555 7.10487H184.578V1.90503H185.733V9.08906H184.881Z" fill="black"/>
<path d="M190.593 2.9417V9.08906H189.438V2.9417H186.767V1.90503H193.264V2.9417H190.593Z" fill="black"/>
<path d="M194.291 9.08906V1.90503H199.415V2.9417H195.446V4.92589H199.045V5.96256H195.446V8.0557H199.481V9.09236H194.291V9.08906Z" fill="black"/>
<path d="M206.209 9.14506C205.664 9.14506 205.238 8.95027 204.888 8.66635C203.898 7.86078 203.515 6.31238 202.785 6.31238H202.198V9.09223H201.042V1.9082H203.188C203.733 1.9082 204.225 1.94122 204.638 2.05017C205.575 2.30108 206.328 2.91186 206.328 4.04426C206.328 5.27572 205.446 5.8964 204.268 6.09449V6.1176C204.737 6.37842 205.03 7.33915 205.608 7.80796C205.826 7.98294 206.067 8.09188 206.371 8.09188C206.503 8.09188 206.708 8.06878 206.873 8.02586L207.114 9.0064C206.909 9.08893 206.549 9.14506 206.209 9.14506ZM204.301 3.04061C203.997 2.95477 203.67 2.94157 203.211 2.94157H202.198V5.27572H203.069C203.538 5.27572 203.908 5.25261 204.202 5.16677C204.756 5.00169 205.116 4.65504 205.116 4.06738C205.12 3.51933 204.77 3.17267 204.301 3.04061Z" fill="black"/>
<path d="M214.552 9.08906L209.319 3.81329H209.296V9.08906H208.14V1.90503H209.068L214.225 7.10487H214.248V1.90503H215.404V9.08906H214.552Z" fill="black"/>
<path d="M223.228 9.08912L222.205 7.0521H218.705L217.735 9.08912H216.437L219.989 1.87207H220.841L224.526 9.08912H223.228ZM220.415 3.4997H220.392L219.194 6.01874H221.68L220.415 3.4997Z" fill="black"/>
<path d="M227.547 2.9417V9.08906H226.391V2.9417H223.72V1.90503H230.217V2.9417H227.547Z" fill="black"/>
<path d="M231.248 9.08906V1.90503H232.403V9.08906H231.248Z" fill="black"/>
<path d="M237.903 9.1981C235.592 9.1981 233.915 7.79167 233.915 5.53675C233.915 3.34457 235.563 1.85229 237.903 1.85229C240.247 1.85229 241.892 3.34457 241.892 5.53675C241.895 7.79167 240.214 9.1981 237.903 9.1981ZM237.903 2.90877C236.137 2.90877 235.123 4.02137 235.123 5.53675C235.123 7.05213 236.137 8.14162 237.903 8.14162C239.67 8.14162 240.683 7.05213 240.683 5.53675C240.683 4.02137 239.67 2.90877 237.903 2.90877Z" fill="black"/>
<path d="M249.822 9.08906L244.589 3.81329H244.566V9.08906H243.41V1.90503H244.338L249.495 7.10487H249.518V1.90503H250.673V9.08906H249.822Z" fill="black"/>
<path d="M258.498 9.08912L257.475 7.0521H253.975L253.004 9.08912H251.707L255.259 1.87207H256.111L259.795 9.08912H258.498ZM255.685 3.4997H255.662L254.464 6.01874H256.95L255.685 3.4997Z" fill="black"/>
<path d="M260.829 9.08906V1.90503H261.984V8.0524H265.887V9.08906H260.829Z" fill="black"/>
<path d="M271.872 9.19799C270.684 9.19799 269.713 8.88104 269.017 8.42544L269.538 7.49772C270.149 7.86749 270.922 8.14151 271.882 8.14151C273.081 8.14151 273.857 7.75854 273.857 6.99589C273.857 5.70831 271.176 6.31909 269.888 5.38147C269.485 5.08763 269.234 4.65184 269.234 3.96513C269.234 2.54879 270.413 1.84888 272.037 1.84888C273.137 1.84888 274.183 2.16582 274.86 2.5587L274.414 3.47321C273.827 3.17938 272.975 2.90535 272.113 2.90535C270.859 2.90535 270.446 3.39727 270.446 3.8958C270.446 5.672 275.068 4.07078 275.068 6.93647C275.065 8.52448 273.53 9.19799 271.872 9.19799Z" fill="black"/>
<path d="M280.235 9.1981C277.62 9.1981 276.138 7.76856 276.138 5.58958C276.138 3.4205 277.772 1.85229 280.182 1.85229C281.252 1.85229 282.143 2.07019 282.929 2.43005L282.579 3.41059C281.892 3.10686 281.15 2.90877 280.291 2.90877C278.492 2.90877 277.35 4.04118 277.35 5.52355C277.35 7.10496 278.386 8.13832 280.314 8.13832C281.077 8.13832 281.853 7.96334 282.582 7.65961L282.965 8.64015C281.991 9.05614 281.064 9.1981 280.235 9.1981Z" fill="black"/>
<path d="M289.677 9.08906V5.95925H285.359V9.08906H284.203V1.90503H285.359V4.92589H289.677V1.90503H290.833V9.08906H289.677Z" fill="black"/>
<path d="M296.336 9.1981C294.025 9.1981 292.348 7.79167 292.348 5.53675C292.348 3.34457 293.996 1.85229 296.336 1.85229C298.68 1.85229 300.325 3.34457 300.325 5.53675C300.328 7.79167 298.647 9.1981 296.336 9.1981ZM296.336 2.90877C294.57 2.90877 293.556 4.02137 293.556 5.53675C293.556 7.05213 294.57 8.14162 296.336 8.14162C298.103 8.14162 299.116 7.05213 299.116 5.53675C299.116 4.02137 298.103 2.90877 296.336 2.90877Z" fill="black"/>
<path d="M305.435 9.1981C303.124 9.1981 301.447 7.79167 301.447 5.53675C301.447 3.34457 303.094 1.85229 305.435 1.85229C307.779 1.85229 309.423 3.34457 309.423 5.53675C309.423 7.79167 307.746 9.1981 305.435 9.1981ZM305.435 2.90877C303.669 2.90877 302.655 4.02137 302.655 5.53675C302.655 7.05213 303.669 8.14162 305.435 8.14162C307.202 8.14162 308.215 7.05213 308.215 5.53675C308.215 4.02137 307.202 2.90877 305.435 2.90877Z" fill="black"/>
<path d="M310.942 9.08906V1.90503H312.098V8.0524H316V9.08906H310.942Z" fill="black"/>
<path d="M4.49818 15.6788C3.25022 13.8662 2.69887 11.1326 4.87785 9.3333C5.92442 8.46831 7.54545 8.63008 8.5392 8.84138C6.49888 13.447 9.4372 16.4051 13.6862 19.01C14.8714 19.7363 15.9675 20.4626 16.9679 21.1592C12.5538 19.6603 7.14267 19.5151 4.49818 15.6788ZM32.7655 19.0133C37.0145 16.4084 39.9561 13.4503 37.9125 8.84468C38.9096 8.63338 40.5273 8.47161 41.5739 9.3366C43.7528 11.1359 43.2015 13.8695 41.9535 15.6821C39.3091 19.5184 33.8979 19.6603 29.4805 21.1625C30.4842 20.4659 31.5803 19.7396 32.7655 19.0133ZM45.9285 16.3258C48.1207 10.6605 42.9539 5.73798 37.6187 7.90046C37.5989 7.91036 37.5262 7.94007 37.4371 7.97639C35.6939 5.36491 31.7982 4.33485 28.9292 6.04172C24.9014 8.4353 25.3207 13.4602 28.6155 14.3978C29.6423 13.8728 31.227 12.1198 31.227 12.1198C31.227 12.1198 30.5931 11.9712 30.0913 11.6873C28.9556 11.0435 28.391 9.65354 28.5726 8.4452C28.9985 5.61583 33.0891 5.48707 34.4427 7.9929C35.2812 9.54459 35.1888 11.4396 34.4328 13.0046C33.6932 14.5298 32.191 15.7877 30.8011 16.7781C28.5858 18.3596 26.3408 19.7264 24.4326 21.6379C24.4326 21.3408 24.4226 21.0404 24.3995 20.7432C24.3665 20.2876 24.317 19.832 24.2576 19.383C24.0166 17.5408 23.7624 15.7547 23.8812 13.8927C23.9736 12.4136 24.2543 10.9444 24.7066 9.52479C25.1325 8.18768 25.8159 6.97274 26.387 5.68846C26.9285 4.46691 27.1134 3.03406 26.387 1.84223C25.6739 0.6702 24.142 0 22.7389 0C19.1337 0 16.7005 4.8829 20.8967 7.3425C21.5768 6.52374 22.3922 5.45736 23.2209 4.665C23.2209 4.665 22.4319 4.53624 22.0291 4.15327C21.5272 3.67785 21.3688 2.91851 21.6461 2.27802C22.0786 1.28097 23.3133 0.987144 24.2543 1.38002C26.6941 2.39688 25.3405 5.22955 24.3533 6.77795C23.2605 8.49802 22.1017 10.1587 21.3358 12.0438C20.7283 13.5295 20.2694 14.4968 20.0812 16.1707C19.959 17.2569 19.8501 18.5643 19.9392 19.8386C18.5625 18.7722 17.0967 17.8214 15.644 16.7848C14.2541 15.7943 12.7519 14.5364 12.0124 13.0112C11.2563 11.4496 11.1672 9.5512 12.0025 7.9995C13.3528 5.49367 17.4466 5.62243 17.8725 8.4518C18.0541 9.66015 17.4895 11.0534 16.3538 11.6939C15.8553 11.9778 15.2181 12.1264 15.2181 12.1264C15.2181 12.1264 16.8028 13.8794 17.8296 14.4044C21.1278 13.4635 21.5438 8.4419 17.5159 6.04832C14.6469 4.34145 10.7512 5.37152 9.00801 7.98299C8.91887 7.94668 8.84624 7.91696 8.82643 7.90706C3.49123 5.74128 -1.6756 10.6671 0.516585 16.3325C1.73153 19.4722 4.87455 21.1526 8.25197 21.5818C11.943 22.0506 17.1495 21.9054 19.7312 23.4835C13.4815 21.4068 5.27073 24.4409 1.23301 20.7366C2.35552 25.3488 6.59792 25.5139 9.58907 24.8173C12.633 24.1108 16.1953 23.2326 19.2195 24.5201C21.306 25.4115 23.2077 27.366 23.2242 27.366C23.2374 27.366 25.1391 25.4082 27.2256 24.5201C30.2498 23.2293 33.8121 24.1074 36.856 24.8173C39.8439 25.5106 44.0896 25.3488 45.2121 20.7366C41.1744 24.4409 32.9636 21.4068 26.7139 23.4835C29.2956 21.9054 34.5021 22.0506 38.1931 21.5818C41.5706 21.146 44.7136 19.4623 45.9285 16.3258Z" fill="black"/>
<path d="M20.834 26.4316C20.834 26.4316 19.586 25.2827 18.1234 24.9295C16.4694 24.53 14.0461 24.53 11.2432 25.5766C9.77399 26.1246 8.52273 26.359 7.09649 26.3755C6.63428 26.8608 5.26086 28.3267 4.07233 29.8652C9.65184 29.7496 14.8385 27.4848 21.2599 28.604C21.4745 27.9767 21.9532 27.6895 21.9532 27.6895C21.9532 27.6895 19.0314 26.4482 16.5354 26.5637C12.6166 26.7453 12.7222 27.333 8.19258 28.0296C12.3128 27.0358 14.6041 24.5828 20.834 26.4316Z" fill="black"/>
<path d="M24.4953 27.6897C24.4953 27.6897 24.9773 27.9802 25.1886 28.6042C31.6133 27.485 36.7999 29.7498 42.3761 29.8653C41.1876 28.3235 39.8142 26.8577 39.352 26.3757C37.9257 26.3592 36.6745 26.1248 35.2053 25.5767C32.4057 24.5268 29.9791 24.5268 28.325 24.9296C26.8625 25.2862 25.6145 26.4318 25.6145 26.4318C31.8444 24.583 34.1356 27.036 38.2493 28.033C33.7197 27.3364 33.8253 26.7487 29.9064 26.5671C27.4138 26.4516 24.4953 27.6897 24.4953 27.6897Z" fill="black"/>
<path d="M24.5679 30.0073L24.1486 30.3837H23.2242H22.2998L21.8805 30.0073C20.7085 29.0829 17.4169 29.3008 15.9048 29.4857C12.6066 29.8851 6.95447 30.9548 4.02936 31.1265L4.03266 31.1331L4.1218 32.1995C10.0216 31.6448 14.1319 30.7567 16.5585 30.5025C17.6744 30.387 19.5695 30.344 21.032 30.9383C21.1278 30.9779 21.2301 31.0803 21.3324 31.1793C21.5867 31.417 21.9333 31.5458 22.2899 31.5458H23.2209H24.1519C24.5085 31.5458 24.8584 31.417 25.1093 31.1793C25.2117 31.0803 25.314 30.9779 25.4098 30.9383C26.8723 30.344 28.7674 30.3837 29.8833 30.5025C32.3099 30.7567 36.4202 31.6448 42.32 32.1995L42.4091 31.1331L42.4124 31.1265C39.4873 30.9548 33.8319 29.8851 30.537 29.4857C29.0315 29.3008 25.7399 29.0829 24.5679 30.0073Z" fill="black"/>
</svg>
