<svg width="75" height="75" viewBox="0 0 75 75" fill="none" xmlns="http://www.w3.org/2000/svg">
<rect width="75" height="75" rx="15" fill="#F0B4A0"/>
<g clip-path="url(#clip0)">
<path d="M37.4962 61.3941C37.1061 61.393 36.7238 61.2845 36.3906 61.0804C35.8226 60.7298 22.3912 52.47 15.2694 42.0145C8.82551 32.4877 10.9083 26.3927 12.7407 23.582C15.6725 19.0923 21.7194 16.8598 27.7968 18.0345C29.7617 18.3746 31.6364 19.1172 33.3048 20.2163C34.9732 21.3155 36.3998 22.7478 37.4962 24.4246C38.5938 22.7476 40.0214 21.3153 41.6908 20.2161C43.3602 19.117 45.2359 18.3745 47.2017 18.0345C53.3096 16.8598 59.3259 19.0923 62.2455 23.5697C64.0779 26.3804 66.1729 32.5 59.7291 41.9591C52.6072 52.4146 39.1758 60.6868 38.6078 61.0251C38.2786 61.2498 37.8936 61.3776 37.4962 61.3941V61.3941ZM24.6084 22.0322C21.133 22.0322 17.9202 23.4959 16.3322 25.9438C14.1883 29.2342 15.0678 34.0621 18.7753 39.5298C24.2725 47.5682 34.1673 54.4811 37.4778 56.6583C40.8372 54.475 50.7382 47.5497 56.2048 39.5298C59.9306 34.0621 60.8102 29.2342 58.648 25.9438C56.7179 22.9424 52.3323 21.4171 48.0079 22.2659C45.8946 22.6472 40.8372 24.2955 39.6156 30.5257C39.5175 31.0123 39.2553 31.4498 38.8735 31.7641C38.4917 32.0783 38.0137 32.25 37.5206 32.25C37.0275 32.25 36.5495 32.0783 36.1677 31.7641C35.7859 31.4498 35.5237 31.0123 35.4256 30.5257C34.149 24.2955 29.1039 22.6472 26.9905 22.2659C26.2056 22.1122 25.408 22.034 24.6084 22.0322V22.0322Z" fill="white"/>
</g>
<defs>
<clipPath id="clip0">
<rect width="53.1818" height="43.6364" fill="white" transform="translate(10.9092 17.7273)"/>
</clipPath>
</defs>
</svg>
