<svg width="75" height="75" viewBox="0 0 75 75" fill="none" xmlns="http://www.w3.org/2000/svg">
<rect width="75" height="75" rx="15" fill="#FF3750"/>
<g clip-path="url(#clip0)">
<path d="M15 45.2927C15.1854 44.5878 15.5812 43.9539 16.136 43.4731C16.4778 43.1959 16.8783 42.9978 17.308 42.8932C17.7377 42.7887 18.1857 42.7803 18.6191 42.8688C19.0525 42.9573 19.4602 43.1404 19.8124 43.4046C20.1646 43.6688 20.4523 44.0074 20.6543 44.3956C21.1344 45.4175 21.6732 46.4116 22.2679 47.3731C24.2717 50.3843 27.1809 52.7024 30.5879 54.0026C33.2921 55.1121 36.2125 55.6158 39.1382 55.4772C42.0639 55.3385 44.9218 54.5611 47.5055 53.2009C50.9787 51.4595 53.7551 48.6153 55.3866 45.1273C55.6678 44.3696 56.1853 43.7192 56.8648 43.2695C57.4172 42.9463 58.0606 42.8072 58.6995 42.8727C59.3385 42.9383 59.939 43.2051 60.4121 43.6335C60.8851 44.0619 61.2055 44.6292 61.3258 45.2513C61.446 45.8733 61.3597 46.5169 61.0796 47.0868C58.8377 52.0914 54.8926 56.1668 49.926 58.6088C45.6236 60.7921 40.7752 61.7108 35.9582 61.2555C30.0203 60.8376 24.4307 58.3367 20.2024 54.2062C18.089 52.1391 16.4109 49.6807 15.2646 46.9723C15.1678 46.7433 15.0904 46.5079 15 46.2661V45.2927Z" fill="white"/>
<path d="M44.0458 24.5646C44.1631 22.5618 44.9904 20.6633 46.3834 19.2007C47.7764 17.7381 49.6464 16.8044 51.6668 16.5627C53.6871 16.321 55.7295 16.7866 57.437 17.8782C59.1445 18.9698 60.4086 20.6181 61.0086 22.535C61.2234 23.2765 61.3427 24.0418 61.3636 24.8127C61.3863 25.1392 61.3426 25.4669 61.235 25.7765C61.1274 26.0861 60.9581 26.3714 60.7371 26.6156C60.516 26.8598 60.2477 27.058 59.9478 27.1986C59.6479 27.3391 59.3226 27.4191 58.9909 27.434C58.6592 27.4488 58.3279 27.3982 58.0163 27.285C57.7048 27.1718 57.4193 26.9984 57.1768 26.7749C56.9342 26.5515 56.7394 26.2825 56.6037 25.9837C56.4681 25.685 56.3945 25.3626 56.3871 25.0354C56.2515 23.1267 55.3156 21.9242 53.5858 21.428C53.083 21.3065 52.5599 21.2911 52.0507 21.3828C51.5415 21.4745 51.0577 21.6713 50.631 21.9603C50.2044 22.2492 49.8446 22.6238 49.5751 23.0595C49.3057 23.4952 49.1327 23.982 49.0675 24.4882C49.0898 25.2968 48.8043 26.0844 48.2671 26.6959C47.8902 27.0509 47.4104 27.2815 46.8944 27.3556C46.3785 27.4296 45.8519 27.3435 45.3879 27.1092C44.9238 26.8749 44.5453 26.504 44.3048 26.048C44.0643 25.592 43.9738 25.0736 44.0458 24.5646V24.5646Z" fill="white"/>
<path d="M24.9014 16.3637C27.2132 16.3416 29.4395 17.224 31.0923 18.8173C32.7451 20.4107 33.6895 22.585 33.7184 24.8636C33.7304 25.486 33.5016 26.0896 33.0784 26.5516C32.6552 27.0137 32.0693 27.2996 31.4399 27.3512C31.1148 27.3881 30.7854 27.3596 30.4717 27.2674C30.158 27.1753 29.8666 27.0213 29.615 26.815C29.3634 26.6086 29.1569 26.3541 29.0079 26.0668C28.8589 25.7795 28.7706 25.4654 28.7484 25.1435C28.7297 24.2518 28.4371 23.3867 27.9093 22.6623C27.4488 22.083 26.8201 21.6558 26.1071 21.4376C25.394 21.2194 24.6304 21.2206 23.9181 21.4411C23.2057 21.6615 22.5785 22.0908 22.1199 22.6715C21.6613 23.2523 21.3932 23.9571 21.3513 24.6918C21.3598 25.0636 21.2921 25.4332 21.1524 25.7787C21.0126 26.1241 20.8037 26.4382 20.5381 26.7023C20.1945 27.0442 19.7524 27.2734 19.2719 27.3588C18.7915 27.4442 18.296 27.3816 17.8529 27.1795C17.3908 27.0025 16.9969 26.6866 16.727 26.2767C16.4571 25.8668 16.3248 25.3835 16.349 24.8954C16.3546 23.0142 16.9895 21.1873 18.1553 19.6978C19.321 18.2083 20.9526 17.1392 22.7972 16.6563C23.249 16.5418 23.7137 16.4718 24.1785 16.4019C24.4186 16.3764 24.6599 16.3637 24.9014 16.3637V16.3637Z" fill="white"/>
</g>
<defs>
<clipPath id="clip0">
<rect width="46.3636" height="45" fill="white" transform="translate(15 16.3636)"/>
</clipPath>
</defs>
</svg>
