<svg width="35" height="25" viewBox="0 0 35 25" fill="none" xmlns="http://www.w3.org/2000/svg">
<path d="M3.38973 11.8152C2.44929 10.4493 2.03381 8.38929 3.67584 7.03337C4.46451 6.38153 5.68608 6.50344 6.43495 6.66267C4.89741 10.1333 7.11166 12.3625 10.3136 14.3255C11.2068 14.8728 12.0328 15.4202 12.7866 15.9451C9.46027 14.8156 5.38256 14.7061 3.38973 11.8152ZM24.6914 14.328C27.8933 12.365 30.1101 10.1358 28.57 6.66515C29.3214 6.50592 30.5405 6.38402 31.3291 7.03585C32.9712 8.39177 32.5557 10.4518 31.6153 11.8176C29.6224 14.7086 25.5447 14.8156 22.2159 15.9476C22.9722 15.4227 23.7982 14.8753 24.6914 14.328ZM34.6107 12.3028C36.2627 8.03351 32.3691 4.32402 28.3486 5.95361C28.3337 5.96107 28.2789 5.98346 28.2118 6.01083C26.8981 4.04288 23.9624 3.26665 21.8004 4.5529C18.7651 6.35665 19.0811 10.1433 21.564 10.8498C22.3378 10.4543 23.532 9.13317 23.532 9.13317C23.532 9.13317 23.0543 9.02122 22.6761 8.80726C21.8203 8.32211 21.3948 7.27469 21.5317 6.36411C21.8526 4.23196 24.9352 4.13493 25.9552 6.02327C26.5872 7.19259 26.5175 8.62066 25.9478 9.79994C25.3905 10.9494 24.2584 11.8973 23.211 12.6436C21.5416 13.8354 19.8498 14.8654 18.4118 16.3059C18.4118 16.082 18.4044 15.8556 18.3869 15.6316C18.3621 15.2883 18.3247 14.945 18.28 14.6066C18.0983 13.2183 17.9068 11.8724 17.9963 10.4692C18.066 9.3546 18.2775 8.24747 18.6183 7.17767C18.9393 6.17006 19.4543 5.2545 19.8847 4.2867C20.2927 3.36616 20.432 2.2864 19.8847 1.38826C19.3473 0.505048 18.1929 0 17.1355 0C14.4187 0 12.5851 3.67964 15.7473 5.53315C16.2598 4.91614 16.8743 4.11254 17.4988 3.51544C17.4988 3.51544 16.9041 3.41841 16.6006 3.12981C16.2225 2.77155 16.103 2.19933 16.312 1.71667C16.6379 0.965314 17.5684 0.74389 18.2775 1.03995C20.1161 1.80623 19.096 3.94087 18.3521 5.10771C17.5286 6.40392 16.6553 7.65535 16.0781 9.07595C15.6204 10.1955 15.2746 10.9245 15.1327 12.1859C15.0407 13.0044 14.9586 13.9896 15.0258 14.9499C13.9883 14.1463 12.8837 13.4298 11.789 12.6486C10.7415 11.9022 9.60954 10.9543 9.05225 9.80492C8.48251 8.62813 8.41534 7.19757 9.04478 6.02824C10.0623 4.13991 13.1474 4.23694 13.4683 6.36909C13.6052 7.27967 13.1797 8.32958 12.3239 8.81223C11.9482 9.0262 11.468 9.13815 11.468 9.13815C11.468 9.13815 12.6622 10.4592 13.436 10.8548C15.9214 10.1458 16.2349 6.36163 13.1996 4.55788C11.0376 3.27162 8.10186 4.04786 6.78823 6.01581C6.72106 5.98844 6.66633 5.96605 6.6514 5.95858C2.63091 4.3265 -1.2627 8.03849 0.389287 12.3078C1.30484 14.6738 3.67335 15.9401 6.2185 16.2636C9 16.6169 12.9235 16.5074 14.869 17.6966C10.1594 16.1317 3.9719 18.4181 0.929169 15.6267C1.77506 19.1023 4.97205 19.2267 7.22611 18.7017C9.51998 18.1693 12.2045 17.5075 14.4834 18.4778C16.0558 19.1496 17.4888 20.6224 17.5012 20.6224C17.5112 20.6224 18.9442 19.1471 20.5166 18.4778C22.7956 17.505 25.48 18.1668 27.7739 18.7017C30.0255 19.2242 33.2249 19.1023 34.0708 15.6267C31.0281 18.4181 24.8406 16.1317 20.131 17.6966C22.0765 16.5074 26 16.6169 28.7815 16.2636C31.3267 15.9352 33.6952 14.6663 34.6107 12.3028Z" fill="black"/>
<path d="M15.7 19.9184C15.7 19.9184 14.7596 19.0526 13.6575 18.7864C12.411 18.4853 10.5849 18.4853 8.47262 19.274C7.3655 19.687 6.42257 19.8636 5.34779 19.8761C4.99948 20.2418 3.9645 21.3464 3.06885 22.5058C7.27344 22.4187 11.182 20.712 16.021 21.5554C16.1827 21.0827 16.5435 20.8663 16.5435 20.8663C16.5435 20.8663 14.3416 19.9308 12.4608 20.0179C9.5076 20.1547 9.58721 20.5976 6.17378 21.1225C9.27871 20.3737 11.0053 18.5251 15.7 19.9184Z" fill="black"/>
<path d="M18.459 20.8663C18.459 20.8663 18.8222 21.0853 18.9814 21.5555C23.823 20.7121 27.7315 22.4188 31.9336 22.5059C31.0379 21.344 30.003 20.2394 29.6547 19.8761C28.5799 19.8637 27.6369 19.687 26.5298 19.2741C24.4201 18.4829 22.5914 18.4829 21.345 18.7864C20.2428 19.0551 19.3024 19.9184 19.3024 19.9184C23.9971 18.5252 25.7237 20.3737 28.8237 21.1251C25.4103 20.6001 25.4899 20.1573 22.5367 20.0204C20.6583 19.9334 18.459 20.8663 18.459 20.8663Z" fill="black"/>
<path d="M18.5138 22.6127L18.1978 22.8963H17.5012H16.8046L16.4886 22.6127C15.6054 21.916 13.1249 22.0802 11.9854 22.2196C9.50001 22.5206 5.24068 23.3267 3.03638 23.4561L3.03887 23.461L3.10604 24.2646C7.55196 23.8467 10.6494 23.1774 12.4781 22.9858C13.319 22.8988 14.747 22.8664 15.8492 23.3142C15.9213 23.3441 15.9985 23.4212 16.0756 23.4959C16.2672 23.675 16.5284 23.772 16.7971 23.772H17.4987H18.2003C18.469 23.772 18.7327 23.675 18.9218 23.4959C18.9989 23.4212 19.076 23.3441 19.1482 23.3142C20.2503 22.8664 21.6784 22.8963 22.5193 22.9858C24.348 23.1774 27.4454 23.8467 31.8913 24.2646L31.9585 23.461L31.961 23.4561C29.7567 23.3267 25.4949 22.5206 23.0119 22.2196C21.8774 22.0802 19.397 21.916 18.5138 22.6127Z" fill="black"/>
</svg>
