<svg width="479" height="155" viewBox="0 0 479 155" fill="none" xmlns="http://www.w3.org/2000/svg">
<path d="M157.752 45.9912V104.304" stroke="#003B5F" stroke-width="0.75"/>
<path d="M172.652 45.9912V104.304" stroke="#003B5F" stroke-width="0.75"/>
<path d="M187.552 64.3501V89.8333" stroke="#003B5F" stroke-width="0.75"/>
<path d="M217.342 12.9517V141.232" stroke="#003B5F" stroke-width="0.75"/>
<path d="M232.242 0V154.184" stroke="#003B5F" stroke-width="0.75"/>
<path d="M202.453 27.854V126.33" stroke="#003B5F" stroke-width="0.75"/>
<path d="M247.143 20.73V133.454" stroke="#003B5F" stroke-width="0.75"/>
<path d="M262.043 45.9912V108.181" stroke="#003B5F" stroke-width="0.75"/>
<path d="M291.844 45.9912V108.181" stroke="#003B5F" stroke-width="0.75"/>
<path d="M321.634 0V154.184" stroke="#003B5F" stroke-width="0.75"/>
<path d="M276.944 64.3501V89.8333" stroke="#003B5F" stroke-width="0.75"/>
<path d="M306.745 64.3501V89.8333" stroke="#003B5F" stroke-width="0.75"/>
<path d="M336.534 12.9517V141.232" stroke="#003B5F" stroke-width="0.75"/>
<path d="M351.435 45.9912V108.181" stroke="#003B5F" stroke-width="0.75"/>
<path d="M366.335 45.9912V108.181" stroke="#003B5F" stroke-width="0.75"/>
<path d="M381.236 12.9517V141.232" stroke="#003B5F" stroke-width="0.75"/>
<path d="M396.136 45.9912V104.304" stroke="#003B5F" stroke-width="0.75"/>
<path d="M411.037 45.9912V104.304" stroke="#003B5F" stroke-width="0.75"/>
<path d="M425.926 64.3501V85.9442" stroke="#003B5F" stroke-width="0.75"/>
<path d="M428.215 75.1421H583" stroke="#003B5F" stroke-width="0.75"/>
<path d="M0 75.1421H154.785" stroke="#003B5F" stroke-width="0.75"/>
</svg>
