<svg width="81" height="72" viewBox="0 0 81 72" fill="none" xmlns="http://www.w3.org/2000/svg">
<g opacity="0.4">
<path d="M32.5409 14.182C34.5666 13.3325 35.416 10.9148 34.5012 8.95452L31.2994 2.22417C30.3846 0.329867 28.1629 -0.520249 26.2026 0.329866C20.6485 2.68222 15.8784 5.75336 12.0885 9.47792C7.44913 13.8553 4.31265 18.8867 2.61373 24.4409C0.914806 30.061 0 37.7056 0 47.4417V67.5021C0 69.6584 1.76427 71.4227 3.92059 71.4227H29.6005C31.7568 71.4227 33.5211 69.6584 33.5211 67.5021V41.8222C33.5211 39.6652 31.7568 37.9016 29.6005 37.9016H17.316C17.4466 31.3013 19.0149 26.0091 21.89 22.0225C24.2423 18.822 27.7709 16.2083 32.5409 14.182Z" fill="#F0B4A0"/>
<path d="M78.6732 14.182C80.6989 13.3326 81.5477 10.9149 80.6335 8.95456L77.4317 2.2902C76.5169 0.395248 74.2952 -0.454214 72.3349 0.395248C66.8461 2.74761 62.1407 5.81874 58.2861 9.47796C53.6461 13.9213 50.4449 18.9527 48.7454 24.5069C47.0464 29.9951 46.1976 37.6409 46.1976 47.4424V67.5028C46.1976 69.6591 47.9619 71.4234 50.1182 71.4234H75.7981C77.9545 71.4234 79.7187 69.6591 79.7187 67.5028V41.8229C79.7187 39.6659 77.9545 37.9023 75.7981 37.9023H63.4483C63.5789 31.302 65.1478 26.0098 68.0223 22.0232C70.3746 18.822 73.9032 16.2083 78.6732 14.182Z" fill="#F0B4A0"/>
</g>
</svg>
