<svg width="33" height="34" viewBox="0 0 33 34" fill="none" xmlns="http://www.w3.org/2000/svg">
<rect y="0.5" width="33" height="33" rx="11" fill="#1E96A5"/>
<path d="M26.2369 18.2656C26.0716 18.0513 25.7639 18.0114 25.5494 18.1767C25.3349 18.342 25.2951 18.6498 25.4604 18.8642C25.9643 19.5179 26.2307 20.301 26.2307 21.1286C26.2307 21.3993 26.4502 21.6188 26.7209 21.6188C26.9916 21.6188 27.2111 21.3993 27.2111 21.1286C27.2111 20.0824 26.8742 19.0924 26.2369 18.2656Z" fill="white"/>
<path d="M24.5896 14.9771C25.5849 14.3053 26.2407 13.1673 26.2407 11.879C26.2407 9.81904 24.5648 8.14316 22.5049 8.14316C20.445 8.14316 18.7691 9.81904 18.7691 11.879C18.7691 13.1667 19.4242 14.3043 20.4188 14.9762C19.6942 15.2214 19.0159 15.5949 18.4137 16.0846C17.9041 15.5945 17.2202 15.3123 16.5 15.3123C15.7799 15.3123 15.096 15.5946 14.5868 16.0846C13.9843 15.5949 13.3059 15.2214 12.5813 14.9761C13.5758 14.3042 14.231 13.1667 14.231 11.8789C14.231 9.81895 12.5551 8.14307 10.4952 8.14307C8.4355 8.14307 6.75986 9.81895 6.75986 11.8789C6.75986 13.1672 7.41548 14.3052 8.4106 14.977C5.85259 15.8461 4.0062 18.2692 4.00068 21.1162C4.00054 21.1206 4 21.1247 4 21.129C4 21.8815 4.42764 22.9922 6.46504 24.0098C7.9168 24.7349 9.91182 25.28 12.2345 25.586C13.5969 25.7657 15.032 25.8568 16.5 25.8568C17.9684 25.8568 19.4037 25.7657 20.7661 25.586C23.0885 25.28 25.0834 24.7349 26.5351 24.0098C28.5724 22.9922 29 21.8815 29 21.129C29 18.2765 27.1516 15.8476 24.5896 14.9771ZM19.7495 11.879C19.7495 10.3596 20.9856 9.12358 22.5049 9.12358C24.0242 9.12358 25.2603 10.3597 25.2603 11.879C25.2603 13.398 24.0242 14.6338 22.5049 14.6338C20.9856 14.6338 19.7495 13.398 19.7495 11.879ZM15.0374 17.0585C15.3705 16.579 15.9171 16.2927 16.5 16.2927C17.0832 16.2927 17.63 16.579 17.963 17.0585C17.9631 17.0586 17.9632 17.0587 17.9632 17.0588C18.171 17.3576 18.2808 17.7084 18.2808 18.0735C18.2808 19.0555 17.4819 19.8544 16.5 19.8544C15.5182 19.8544 14.7196 19.0555 14.7196 18.0735C14.7196 17.7079 14.8293 17.3571 15.0374 17.0585ZM7.74019 11.879C7.74019 10.3596 8.97603 9.12358 10.4951 9.12358C12.0144 9.12358 13.2504 10.3597 13.2504 11.879C13.2504 13.398 12.0144 14.6338 10.4951 14.6338C8.97603 14.6338 7.74019 13.398 7.74019 11.879ZM11.8085 24.5353C9.83174 24.2342 8.14424 23.7526 6.90317 23.1328C5.66685 22.5153 4.98462 21.806 4.98066 21.1348C4.98066 21.1329 4.98096 21.131 4.98096 21.129C4.98091 18.0882 7.45459 15.6143 10.4951 15.6143C11.7887 15.6143 13.0228 16.0611 14.0104 16.8796C13.8323 17.2497 13.7393 17.6554 13.7393 18.0736C13.7393 18.927 14.1285 19.6911 14.7385 20.198C13.0251 20.8946 11.813 22.5757 11.8085 24.5353ZM20.2118 24.6665C19.0194 24.8056 17.7732 24.8765 16.5 24.8765C15.2271 24.8765 13.9811 24.8056 12.7887 24.6665V24.5461C12.7887 22.4997 14.4536 20.8348 16.5 20.8348C18.5467 20.8348 20.2118 22.4997 20.2118 24.5461V24.6665ZM26.097 23.1327C24.856 23.7526 23.1687 24.2342 21.1921 24.5352C21.1876 22.5756 19.9754 20.8947 18.2619 20.198C18.8721 19.691 19.2614 18.9269 19.2614 18.0735C19.2614 17.6558 19.1683 17.25 18.99 16.8796C19.9772 16.061 21.2112 15.6142 22.505 15.6142C25.5458 15.6142 28.0196 18.0881 28.0196 21.1289C28.0196 21.8019 27.3368 22.5135 26.097 23.1327Z" fill="white"/>
<path d="M24.768 17.1143C24.1372 17.1143 24.136 18.0946 24.768 18.0946C25.3988 18.0946 25.3998 17.1143 24.768 17.1143Z" fill="white"/>
</svg>
