<svg width="33" height="33" viewBox="0 0 33 33" fill="none" xmlns="http://www.w3.org/2000/svg">
<rect width="33" height="33" rx="11" fill="#1E96A5"/>
<g clip-path="url(#clip0)">
<path d="M25.9785 7.69531C26.3507 7.69531 26.6523 7.39363 26.6523 7.02148C26.6523 6.64934 26.3507 6.34766 25.9785 6.34766C25.6064 6.34766 25.3047 6.64934 25.3047 7.02148C25.3047 7.39363 25.6064 7.69531 25.9785 7.69531Z" fill="white"/>
<path d="M16.5449 28C21.5761 28 25.8533 24.7111 27.3899 20.1676C27.4859 19.8837 27.3829 19.5706 27.1372 19.3992C26.8914 19.2277 26.5621 19.2391 26.3287 19.4271C24.8759 20.5979 23.1238 21.2168 21.2617 21.2168C16.7783 21.2168 13.1309 17.5894 13.1309 13.1309C13.1309 10.374 14.5991 7.73615 16.9627 6.2469C17.2162 6.08715 17.3338 5.77926 17.2512 5.49122C17.1703 5.20871 16.9159 5.0119 16.6235 5.00328C16.6075 5.00207 16.5791 5 16.5449 5C10.2166 5 5 10.1641 5 16.5C5 22.8336 10.214 28 16.5449 28ZM14.4589 6.56117C12.7332 8.35153 11.7832 10.7113 11.7832 13.1309C11.7832 18.3325 16.0352 22.5645 21.2617 22.5645C22.6302 22.5645 23.9814 22.2618 25.2145 21.6921C23.4137 24.7252 20.1453 26.6523 16.5449 26.6523C10.9221 26.6523 6.34766 22.098 6.34766 16.5C6.34766 11.6134 9.83292 7.52209 14.4589 6.56117Z" fill="white"/>
<path d="M17.8926 10.3906C18.9883 10.3906 19.9141 11.3369 19.9141 12.457C19.9141 12.8292 20.2158 13.1309 20.5879 13.1309C20.96 13.1309 21.2617 12.8292 21.2617 12.457C21.2617 11.3369 22.1874 10.3906 23.2832 10.3906C23.6553 10.3906 23.957 10.0889 23.957 9.7168C23.957 9.34466 23.6553 9.04297 23.2832 9.04297C22.1686 9.04297 21.2617 8.13613 21.2617 7.02148C21.2617 6.64935 20.96 6.34766 20.5879 6.34766C20.2158 6.34766 19.9141 6.64935 19.9141 7.02148C19.9141 8.13613 19.0072 9.04297 17.8926 9.04297C17.5204 9.04297 17.2188 9.34466 17.2188 9.7168C17.2188 10.0889 17.5204 10.3906 17.8926 10.3906ZM20.5879 9.04063C20.7824 9.29965 21.0134 9.52988 21.2731 9.72358C21.0133 9.92164 20.785 10.1534 20.5879 10.419C20.3908 10.1534 20.1626 9.92173 19.9027 9.72358C20.1624 9.52988 20.3933 9.29965 20.5879 9.04063Z" fill="white"/>
<path d="M27.3262 13.1309C27.6983 13.1309 28 12.8292 28 12.457C28 12.0849 27.6983 11.7832 27.3262 11.7832C26.954 11.7832 26.6523 12.0849 26.6523 12.457C26.6523 12.8292 26.954 13.1309 27.3262 13.1309Z" fill="white"/>
</g>
<defs>
<clipPath id="clip0">
<rect width="23" height="23" fill="white" transform="translate(5 5)"/>
</clipPath>
</defs>
</svg>
