<svg width="33" height="34" viewBox="0 0 33 34" fill="none" xmlns="http://www.w3.org/2000/svg">
<rect y="0.5" width="33" height="33" rx="11" fill="#1E96A5"/>
<path d="M26.2893 20.0708L22.7405 16.522V13.8254C22.7405 13.59 22.5497 13.3992 22.3143 13.3992C22.079 13.3992 21.8882 13.59 21.8882 13.8254V15.6698L21.0326 14.8142C21.0462 14.7145 21.0538 14.6128 21.0538 14.5094C21.0538 13.2688 20.0147 12.2595 18.7741 12.2595C18.0967 12.2595 17.4177 12.0085 16.9165 11.5527C16.7917 11.4392 16.6117 11.41 16.4574 11.4782C16.3032 11.5464 16.2037 11.6993 16.2037 11.868V12.4865C15.8898 12.3364 15.544 12.2571 15.1859 12.2571C14.555 12.2571 13.9619 12.5028 13.5159 12.9488C12.9273 13.5374 11.9698 13.5373 11.3812 12.9488C10.9351 12.5027 10.3421 12.2571 9.71123 12.2571C9.31428 12.2571 8.93232 12.3545 8.59247 12.5378V8.6477H21.8882V9.99006C21.8882 10.2254 22.0791 10.4162 22.3144 10.4162C22.5497 10.4162 22.7405 10.2254 22.7405 9.99006V8.22155C22.7405 7.98619 22.5497 7.79541 22.3144 7.79541H18.4861V6.51697C18.4861 6.28161 18.2953 6.09082 18.06 6.09082H12.4206C12.1853 6.09082 11.9944 6.28161 11.9944 6.51697V7.79541H8.16624C7.93092 7.79541 7.74009 7.98619 7.74009 8.22155V18.0229H7.71256C6.94055 18.0229 6.3125 18.6998 6.3125 19.4718C6.3125 20.2438 6.94055 20.9207 7.71256 20.9207H9.51721L7.78837 27.3731C7.75407 27.5011 7.78126 27.6377 7.86193 27.7428C7.9426 27.848 8.06754 27.9096 8.20003 27.9096H10.3219C10.5148 27.9096 10.6837 27.78 10.7336 27.5937L11.5896 24.3988H18.891L19.7471 27.5937C19.797 27.78 19.9658 27.9096 20.1587 27.9096H22.2806C22.413 27.9096 22.538 27.848 22.6187 27.7428C22.6994 27.6377 22.7265 27.5011 22.6923 27.3731L20.9633 20.9207H22.768C22.9198 20.9207 23.0685 20.8957 23.21 20.8486L24.3607 21.9993C24.6266 22.2652 24.9758 22.3981 25.325 22.3981C25.6742 22.3981 26.0234 22.2652 26.2893 21.9993C26.8209 21.4676 26.8209 20.6025 26.2893 20.0708V20.0708ZM12.8467 6.94311H17.6338V7.79541H12.8467V6.94311ZM17.0559 12.6877C17.5707 12.9644 18.179 13.1118 18.7741 13.1118C19.5447 13.1118 20.2015 13.7387 20.2015 14.5093C20.2015 15.2799 19.5746 15.9069 18.8039 15.9069C17.8401 15.9069 17.0559 15.1228 17.0559 14.1589V12.6877H17.0559ZM8.59238 13.5947C8.61033 13.5817 8.62771 13.5676 8.64386 13.5514C8.92891 13.2663 9.30797 13.1093 9.71115 13.1093C10.1144 13.1093 10.4934 13.2663 10.7785 13.5515C11.2389 14.0119 11.8437 14.2421 12.4485 14.2421C13.0532 14.2421 13.658 14.0119 14.1184 13.5515C14.4035 13.2664 14.7825 13.1094 15.1858 13.1094C15.5661 13.1094 15.9248 13.2492 16.2036 13.5043V14.159C16.2036 15.5928 17.3701 16.7593 18.8039 16.7593C18.9045 16.7593 19.0033 16.752 19.1004 16.7391L20.3843 18.0229H8.59238V13.5947ZM9.99496 27.0572H8.75539L10.3996 20.9207H11.6392L9.99496 27.0572ZM11.8179 23.5466L12.5215 20.9207H17.9591L18.6627 23.5466H11.8179ZM21.7252 27.0572H20.4856L18.8414 20.9207H20.081L21.7252 27.0572ZM7.7126 20.0684C7.41055 20.0684 7.16484 19.7739 7.16484 19.4718C7.16484 19.1698 7.41059 18.8752 7.7126 18.8752H21.2366L22.4298 20.0684H7.7126ZM25.6866 21.3966C25.4871 21.5961 25.1627 21.596 24.9634 21.3966L19.988 16.4213C20.281 16.2392 20.5292 15.9916 20.7122 15.6991L25.6866 20.6735C25.886 20.8728 25.886 21.1973 25.6866 21.3966V21.3966Z" fill="white"/>
<path d="M22.3143 11.4814C22.2023 11.4814 22.0923 11.527 22.013 11.6063C21.9338 11.6856 21.8882 11.7955 21.8882 11.9076C21.8882 12.0197 21.9337 12.1296 22.013 12.2089C22.0924 12.2881 22.2023 12.3337 22.3143 12.3337C22.4264 12.3337 22.5364 12.2881 22.6156 12.2089C22.6948 12.1296 22.7405 12.0197 22.7405 11.9076C22.7405 11.7955 22.6949 11.6856 22.6156 11.6063C22.5364 11.527 22.4264 11.4814 22.3143 11.4814Z" fill="white"/>
</svg>
