<svg width="33" height="34" viewBox="0 0 33 34" fill="none" xmlns="http://www.w3.org/2000/svg">
<rect y="0.5" width="33" height="33" rx="11" fill="#1E96A5"/>
<g clip-path="url(#clip0)">
<path d="M23.4922 10.7549C22.8743 9.47051 21.9392 8.32243 20.8297 7.49313C18.1667 5.50278 14.8364 5.5005 12.1704 7.49313C11.0616 8.32187 10.127 9.46905 9.50798 10.7548C7.55359 11.0069 6 12.748 6 14.8704C6 17.1578 7.79476 19.0187 10.0008 19.0187H22.9992C25.2052 19.0187 27 17.1577 27 14.8704C27 12.7492 25.4474 11.0071 23.4922 10.7549V10.7549ZM22.9992 17.7297C22.2243 17.7297 10.5779 17.7297 10.0008 17.7297C8.47324 17.7297 7.23047 16.447 7.23047 14.8704C7.23047 13.3366 8.43986 12.055 9.92638 12.0133C10.1627 12.0067 10.375 11.8577 10.4718 11.6317C11.5843 9.03386 14.0068 7.28847 16.5 7.28847C18.6903 7.28847 20.826 8.63571 22.0663 10.723C22.0613 10.723 19.4488 10.7221 19.4531 10.7221C19.1135 10.7221 18.838 11.0106 18.8379 11.3665C18.8378 11.7224 19.1131 12.0111 19.4529 12.0112C22.1622 12.0122 23.02 12.0119 23.0736 12.0134C24.5601 12.055 25.7695 13.3366 25.7695 14.8704C25.7695 16.447 24.5268 17.7297 22.9992 17.7297Z" fill="white"/>
<path d="M11.4785 20.5263C11.163 20.394 10.805 20.5548 10.6788 20.8853L10.0226 22.6041C9.86091 23.0275 10.1595 23.4882 10.5936 23.4882C10.8377 23.4882 11.0688 23.3349 11.165 23.0829L11.8213 21.3641C11.9475 21.0336 11.794 20.6585 11.4785 20.5263Z" fill="white"/>
<path d="M16.7285 20.5263C16.413 20.394 16.055 20.5548 15.9288 20.8853L15.2726 22.6041C15.1109 23.0275 15.4095 23.4882 15.8436 23.4882C16.0878 23.4882 16.3188 23.3349 16.415 23.0829L17.0713 21.3641C17.1974 21.0336 17.044 20.6585 16.7285 20.5263Z" fill="white"/>
<path d="M13.442 24.993C13.1254 24.8636 12.7687 25.0275 12.6452 25.3591L11.9889 27.1208C11.831 27.5447 12.1316 27.9998 12.5619 27.9998C12.808 27.9998 13.0404 27.8441 13.1353 27.5895L13.7915 25.8278C13.915 25.4961 13.7586 25.1224 13.442 24.993V24.993Z" fill="white"/>
<path d="M19.3483 24.993C19.0317 24.8636 18.675 25.0275 18.5514 25.3591L17.8952 27.1208C17.7373 27.5447 18.0378 27.9998 18.4682 27.9998C18.7142 27.9998 18.9466 27.8441 19.0415 27.5895L19.6978 25.8278C19.8213 25.4961 19.6648 25.1224 19.3483 24.993V24.993Z" fill="white"/>
<path d="M21.9785 20.5263C21.663 20.394 21.305 20.5548 21.1788 20.8853L20.5226 22.6041C20.3609 23.0275 20.6595 23.4882 21.0936 23.4882C21.3378 23.4882 21.5688 23.3349 21.665 23.0829L22.3213 21.3641C22.4474 21.0336 22.294 20.6585 21.9785 20.5263V20.5263Z" fill="white"/>
</g>
<defs>
<clipPath id="clip0">
<rect width="21" height="22" fill="white" transform="translate(6 6)"/>
</clipPath>
</defs>
</svg>
