<svg width="33" height="33" viewBox="0 0 33 33" fill="none" xmlns="http://www.w3.org/2000/svg">
<rect width="33" height="33" rx="11" fill="#1E96A5"/>
<g clip-path="url(#clip0)">
<path d="M22.5477 19.8564C22.284 19.5954 21.8592 19.612 21.6151 19.8833L21.2061 20.3376L20.1956 19.3272C21.4533 17.8612 22.2145 15.9572 22.2145 13.8787C22.2145 9.25876 18.4557 5.5 13.8358 5.5C9.20924 5.5 5.5 9.24382 5.5 13.8787C5.5 18.5046 9.20085 22.2575 13.8358 22.2575C15.9142 22.2575 17.8183 21.4965 19.2842 20.2388L20.3425 21.2971L19.8883 21.8019C19.658 22.0577 19.6694 22.4492 19.9138 22.6912L24.1988 26.9332C24.9546 27.6888 26.1772 27.689 26.9332 26.9332C27.686 26.1804 27.6929 24.9586 26.9308 24.1966L22.5477 19.8564ZM6.78906 13.8787C6.78906 9.96942 9.95012 6.78906 13.8358 6.78906C17.7451 6.78906 20.9254 9.96942 20.9254 13.8787C20.9254 17.7881 17.7451 20.9684 13.8358 20.9684C9.95012 20.9684 6.78906 17.7881 6.78906 13.8787V13.8787ZM26.0216 26.0216C25.7725 26.2707 25.3662 26.2776 25.108 26.0194L21.2574 22.2075L22.121 21.248L26.0216 25.1104C26.2729 25.3616 26.2729 25.7703 26.0216 26.0216V26.0216Z" fill="white"/>
<path d="M19.5453 13.5484C19.4434 13.3777 17.0128 9.36719 13.8358 9.36719C10.6588 9.36719 8.22822 13.3777 8.12617 13.5484C8.00482 13.7518 8.00482 14.0056 8.12617 14.2091C8.22822 14.3798 10.6588 18.3903 13.8358 18.3903C17.0128 18.3903 19.4434 14.3798 19.5453 14.2091C19.6668 14.0056 19.6668 13.7518 19.5453 13.5484ZM13.8358 17.1014C11.841 17.1014 10.0512 14.7594 9.44847 13.8782C10.4156 12.4623 12.115 10.6561 13.8358 10.6561C15.8303 10.6561 17.6199 12.9975 18.223 13.8794C17.2562 15.2952 15.5566 17.1014 13.8358 17.1014Z" fill="white"/>
<path d="M13.8359 11.9453C12.7698 11.9453 11.9023 12.8127 11.9023 13.8789C11.9023 14.9451 12.7698 15.8125 13.8359 15.8125C14.9021 15.8125 15.7695 14.9451 15.7695 13.8789C15.7695 12.8127 14.9021 11.9453 13.8359 11.9453ZM13.8359 14.5234C13.4806 14.5234 13.1914 14.2342 13.1914 13.8789C13.1914 13.5236 13.4806 13.2344 13.8359 13.2344C14.1913 13.2344 14.4805 13.5236 14.4805 13.8789C14.4805 14.2342 14.1913 14.5234 13.8359 14.5234Z" fill="white"/>
</g>
<defs>
<clipPath id="clip0">
<rect width="22" height="22" fill="white" transform="translate(5.5 5.5)"/>
</clipPath>
</defs>
</svg>
