<svg width="75" height="75" viewBox="0 0 75 75" fill="none" xmlns="http://www.w3.org/2000/svg">
<rect width="75" height="75" rx="15" fill="#1E96A5"/>
<g clip-path="url(#clip0)">
<path d="M62.727 14.7677C62.6678 14.4114 62.4707 14.0929 62.1784 13.881C61.886 13.6692 61.5221 13.5811 61.1653 13.6359C60.5085 13.6359 59.8518 13.6725 59.2023 13.6725C57.056 13.7185 54.9143 13.8891 52.7878 14.1836C50.0382 14.5322 47.3079 15.0196 44.6074 15.6439C40.1185 16.6156 35.7589 18.1105 31.6179 20.0979C28.174 21.7293 25.0112 23.8982 22.248 26.5234C20.0182 28.6621 18.3266 31.2991 17.3118 34.2183C16.297 37.1374 15.988 40.2556 16.4101 43.3172C16.8652 46.8039 18.2659 50.0993 20.4601 52.8459C20.8688 53.3643 20.8761 53.357 20.3872 53.8462L13.1846 60.9654C12.9806 61.1565 12.7927 61.3641 12.6227 61.586C12.4542 61.7883 12.3399 62.03 12.2903 62.2886C12.2407 62.5472 12.2576 62.8141 12.3392 63.0644C12.4209 63.3147 12.5647 63.5401 12.7573 63.7196C12.9498 63.899 13.1847 64.0267 13.44 64.0905H14.2281C14.6841 63.9659 15.0946 63.7123 15.4103 63.3603L22.7078 56.0587C23.1164 55.6498 23.1529 55.6425 23.598 56.0148C24.5349 56.7872 25.5528 57.4555 26.6338 58.0082C29.793 59.6751 33.3521 60.4333 36.9159 60.1987C39.7398 60.0415 42.4971 59.2795 45.0015 57.9644C47.2694 56.7531 49.2875 55.1229 50.9489 53.1599C53.2885 50.4297 55.2295 47.3813 56.7139 44.1058C58.2812 40.6917 59.5224 37.137 60.421 33.4892C61.1419 30.6416 61.6999 27.7552 62.0921 24.844C62.3901 22.8363 62.568 20.8126 62.6248 18.7836C62.5994 18.3605 62.6288 17.936 62.7124 17.5204V17.0312C62.6394 16.9655 62.6613 16.8852 62.6613 16.8049V16.4398C62.6613 16.3376 62.6613 16.228 62.7124 16.1477L62.727 14.7677ZM31.3479 23.6684C33.2049 22.681 35.1204 21.8081 37.0837 21.0544C37.4486 20.9157 37.5143 20.9814 37.5143 21.3611C37.5143 26.392 37.5143 31.4228 37.5143 36.461C37.5259 36.5651 37.5149 36.6705 37.4822 36.7701C37.4494 36.8696 37.3957 36.9609 37.3245 37.0378C35.2302 39.1188 33.1504 41.2071 31.0633 43.288C31.0153 43.3183 30.9638 43.3428 30.9101 43.361V42.9229C30.9101 36.7409 30.9101 30.5588 30.9101 24.3767C30.8938 24.2296 30.9255 24.0811 31.0005 23.9534C31.0754 23.8258 31.1896 23.7258 31.326 23.6684H31.3479ZM23.3864 50.9694C23.1967 51.1592 23.1018 51.2469 22.8829 50.9694C21.5222 49.2894 20.5102 47.3546 19.9063 45.2783C19.3023 43.202 19.1184 41.0261 19.3655 38.8778C19.7951 34.6122 21.8713 30.6826 25.1524 27.9253C26.0348 27.1343 26.9684 26.4025 27.9473 25.7348V26.2897C27.9473 32.8174 27.9473 39.3451 27.9473 45.8728C27.9585 46.0369 27.9328 46.2014 27.8722 46.3543C27.8116 46.5072 27.7176 46.6445 27.597 46.7563C26.1813 48.1509 24.7802 49.5602 23.3864 50.9694ZM40.6814 56.4237C38.1006 57.2452 35.3556 57.4082 32.6959 56.8982C30.0361 56.3881 27.5459 55.221 25.4516 53.5031C25.24 53.3424 25.2254 53.2621 25.4516 53.0723C26.9111 51.6119 28.3827 50.1516 29.8666 48.6913C29.927 48.6264 30.0005 48.5753 30.0824 48.5413C30.1642 48.5073 30.2523 48.4912 30.3409 48.4941H50.4745H50.6278C48.0883 52.1961 45.0233 55.1532 40.6814 56.4237ZM55.3273 39.3962C54.568 41.3794 53.6857 43.3132 52.6857 45.1865C52.6447 45.2984 52.5684 45.3938 52.4683 45.4584C52.3682 45.523 52.2498 45.5531 52.1311 45.5442H33.2234H33.0409L33.3401 45.2157C35.3494 43.215 37.327 41.2192 39.273 39.2283C39.3651 39.1272 39.478 39.0475 39.6041 38.9945C39.7301 38.9415 39.8661 38.9167 40.0027 38.9216C44.999 38.9216 49.9953 38.9216 54.9917 38.9216C55.393 38.9216 55.5098 38.9654 55.3273 39.3962ZM56.6336 35.541C56.546 35.833 56.4366 35.9572 56.1082 35.9572C51.7297 35.9572 47.3366 35.9572 42.929 35.9572H42.6882L42.5714 35.8038C42.7235 35.7142 42.8676 35.6116 43.002 35.4972L50.8978 27.6113C51.0835 27.4621 51.2364 27.2762 51.3469 27.0651C51.4574 26.854 51.5231 26.6224 51.54 26.3847C51.5497 26.1122 51.4831 25.8424 51.3475 25.6058C51.2119 25.3693 51.0129 25.1755 50.7729 25.0463C50.5329 24.9171 50.2615 24.8577 49.9896 24.8749C49.7176 24.892 49.4558 24.9851 49.234 25.1434C49.0501 25.2809 48.8791 25.4348 48.7232 25.6034L40.5646 33.774C40.3895 33.7082 40.4551 33.5768 40.4551 33.4746C40.4551 29.0936 40.4551 24.7126 40.4551 20.2878C40.447 20.2292 40.4505 20.1696 40.4656 20.1124C40.4807 20.0552 40.507 20.0016 40.543 19.9547C40.579 19.9078 40.624 19.8686 40.6753 19.8393C40.7266 19.8099 40.7832 19.7911 40.8419 19.784C44.9832 18.5751 49.2183 17.7154 53.503 17.2138C55.4441 16.9874 57.3852 16.8049 59.3409 16.7026C59.6182 16.7026 59.735 16.7026 59.7204 17.0458C59.4117 23.3098 58.3758 29.5165 56.6336 35.541V35.541Z" fill="white"/>
</g>
<defs>
<clipPath id="clip0">
<rect width="50.4545" height="50.4545" fill="white" transform="translate(12.2727 13.6364)"/>
</clipPath>
</defs>
</svg>
