<svg width="80" height="80" viewBox="0 0 80 80" fill="none" xmlns="http://www.w3.org/2000/svg">
<rect y="4.375" width="75.625" height="75.625" rx="15" fill="#1E96A5"/>
<g clip-path="url(#clip0)">
<path d="M63.2494 19.2653C63.1898 18.9061 62.991 18.5848 62.6963 18.3712C62.4015 18.1576 62.0345 18.0688 61.6747 18.1241C61.0125 18.1241 60.3503 18.1609 59.6954 18.1609C57.5313 18.2073 55.3717 18.3794 53.2275 18.6763C50.4549 19.0279 47.7019 19.5193 44.9789 20.1488C40.4526 21.1286 36.0567 22.6359 31.8812 24.6399C28.4085 26.2849 25.2194 28.4719 22.4332 31.1189C20.1847 33.2755 18.479 35.9345 17.4558 38.8779C16.4326 41.8214 16.121 44.9655 16.5466 48.0527C17.0055 51.5685 18.4178 54.8913 20.6304 57.6608C21.0424 58.1836 21.0498 58.1762 20.5568 58.6695L13.2942 65.8479C13.0885 66.0407 12.899 66.25 12.7276 66.4738C12.5578 66.6777 12.4424 66.9215 12.3925 67.1822C12.3425 67.4429 12.3594 67.7121 12.4418 67.9644C12.5242 68.2168 12.6692 68.4441 12.8633 68.6251C13.0575 68.8061 13.2943 68.9347 13.5517 68.9991H14.3464C14.8062 68.8734 15.2201 68.6178 15.5385 68.2629L22.8967 60.9003C23.3088 60.488 23.3456 60.4807 23.7944 60.8562C24.7391 61.6349 25.7655 62.3089 26.8555 62.8661C30.041 64.5469 33.6297 65.3115 37.2233 65.0749C40.0707 64.9163 42.851 64.148 45.3762 62.8219C47.663 61.6006 49.6979 59.9567 51.3732 57.9774C53.7323 55.2244 55.6895 52.1507 57.1862 48.8479C58.7666 45.4054 60.0181 41.821 60.9242 38.1428C61.6512 35.2715 62.2138 32.361 62.6092 29.4256C62.9098 27.4011 63.0891 25.3605 63.1464 23.3147C63.1208 22.8881 63.1505 22.4599 63.2347 22.041V21.5477C63.1611 21.4814 63.1832 21.4004 63.1832 21.3194V20.9513C63.1832 20.8482 63.1832 20.7378 63.2347 20.6568L63.2494 19.2653ZM31.6089 28.2402C33.4813 27.2445 35.4128 26.3643 37.3925 25.6044C37.7604 25.4645 37.8266 25.5308 37.8266 25.9136C37.8266 30.9864 37.8266 36.0592 37.8266 41.1393C37.8383 41.2443 37.8273 41.3506 37.7943 41.451C37.7613 41.5514 37.7071 41.6434 37.6353 41.721C35.5235 43.8193 33.4264 45.925 31.3219 48.0233C31.2735 48.0538 31.2216 48.0785 31.1674 48.0969V47.6552C31.1674 41.4216 31.1674 35.188 31.1674 28.9544C31.151 28.806 31.183 28.6563 31.2585 28.5276C31.3341 28.3989 31.4493 28.2981 31.5868 28.2402H31.6089ZM23.581 55.7687C23.3897 55.9601 23.2941 56.0484 23.0733 55.7687C21.7013 54.0746 20.6809 52.1237 20.0719 50.0302C19.4629 47.9366 19.2775 45.7425 19.5266 43.5763C19.9598 39.2751 22.0533 35.3128 25.3617 32.5325C26.2515 31.735 27.1929 30.9971 28.18 30.3238V30.8833C28.18 37.4654 28.18 44.0475 28.18 50.6296C28.1912 50.7951 28.1653 50.9609 28.1042 51.1151C28.0431 51.2692 27.9483 51.4077 27.8268 51.5205C26.3993 52.9267 24.9865 54.3477 23.581 55.7687ZM41.0201 61.2685C38.4179 62.0967 35.65 62.2612 32.9681 61.7468C30.2862 61.2325 27.7752 60.0557 25.6634 58.3235C25.45 58.1615 25.4353 58.0805 25.6634 57.8891C27.1351 56.4166 28.619 54.9441 30.1152 53.4715C30.1761 53.4062 30.2503 53.3546 30.3328 53.3203C30.4153 53.286 30.5042 53.2698 30.5935 53.2728H50.8949H51.0494C48.4888 57.0056 45.3983 59.9874 41.0201 61.2685ZM55.7881 44.0991C55.0224 46.0987 54.1328 48.0487 53.1245 49.9375C53.0832 50.0504 53.0062 50.1466 52.9053 50.2117C52.8044 50.2768 52.685 50.3072 52.5652 50.2983H33.5H33.316L33.6177 49.967C35.6437 47.9497 37.6378 45.9372 39.6 43.9297C39.6928 43.8278 39.8068 43.7474 39.9338 43.694C40.0609 43.6406 40.1981 43.6155 40.3358 43.6205C45.3738 43.6205 50.4117 43.6205 55.4497 43.6205C55.8544 43.6205 55.9721 43.6647 55.7881 44.0991ZM57.1053 40.2117C57.017 40.5062 56.9066 40.6313 56.5755 40.6313C52.1605 40.6313 47.7308 40.6313 43.2865 40.6313H43.0436L42.9259 40.4767C43.0793 40.3864 43.2245 40.2829 43.36 40.1675L51.3217 32.216C51.5089 32.0655 51.6631 31.878 51.7745 31.6651C51.8859 31.4523 51.9522 31.2187 51.9692 30.9791C51.9791 30.7043 51.9118 30.4322 51.7751 30.1937C51.6384 29.9552 51.4377 29.7598 51.1957 29.6295C50.9537 29.4993 50.6801 29.4394 50.4059 29.4567C50.1316 29.474 49.8677 29.5678 49.644 29.7274C49.4586 29.8661 49.2862 30.0213 49.1289 30.1913L40.9024 38.4299C40.7258 38.3637 40.792 38.2311 40.792 38.1281C40.792 33.7106 40.792 29.293 40.792 24.8314C40.7838 24.7723 40.7873 24.7122 40.8025 24.6545C40.8177 24.5969 40.8443 24.5428 40.8806 24.4955C40.9169 24.4483 40.9622 24.4087 41.014 24.3791C41.0657 24.3495 41.1228 24.3306 41.182 24.3233C45.3578 23.1045 49.6282 22.2376 53.9486 21.7317C55.9059 21.5035 57.8632 21.3194 59.8352 21.2164C60.1148 21.2164 60.2325 21.2164 60.2178 21.5624C59.9065 27.8785 58.862 34.137 57.1053 40.2117Z" fill="white"/>
</g>
<circle cx="71.1666" cy="8.83333" r="7.33333" fill="#FF3750" stroke="#FAF5ED" stroke-width="3"/>
<defs>
<clipPath id="clip0">
<rect width="50.875" height="50.875" fill="white" transform="translate(12.375 18.1251)"/>
</clipPath>
</defs>
</svg>
