<svg width="33" height="34" viewBox="0 0 33 34" fill="none" xmlns="http://www.w3.org/2000/svg">
<rect y="0.5" width="33" height="33" rx="11" fill="#1E96A5"/>
<g clip-path="url(#clip0)">
<path d="M23.3655 27.993C22.8912 27.993 22.5067 27.6086 22.5067 27.1342V21.8097C22.5067 20.0551 23.1753 18.9041 23.7651 17.8887C23.9631 17.5478 24.1502 17.2258 24.3051 16.8944C24.506 16.4648 25.0171 16.2793 25.4468 16.4801C25.8765 16.681 26.062 17.1922 25.8611 17.6218C25.1897 19.0551 24.2243 20.0106 24.2243 21.8097V27.1343C24.2243 27.6086 23.8398 27.993 23.3655 27.993V27.993ZM14.3911 27.1342C14.5239 25.5737 13.4065 24.2249 11.8147 24.2143H11.0853C10.2576 24.2143 9.58033 23.5925 9.50982 22.7678L9.3244 20.5981C9.25574 19.7956 8.59666 19.1904 7.79124 19.1904C7.50165 19.1904 7.35372 18.9978 7.30357 18.915C7.2544 18.8339 7.15422 18.6182 7.28493 18.3681C7.67835 17.6154 8.32305 16.6591 9.20108 15.5258C9.31771 15.3753 9.381 15.1903 9.381 14.9998C9.381 11.0651 11.7177 8.37445 15.6317 7.80227C16.101 7.73365 16.4259 7.2976 16.3572 6.82827C16.2887 6.35897 15.8529 6.03405 15.3833 6.10275C10.8392 6.73105 7.74404 10.0952 7.66727 14.7026C6.80546 15.8307 6.18129 16.7715 5.76267 17.5726C4.98661 18.9841 6.02589 20.8224 7.62652 20.9022L7.79845 22.914C7.91095 24.5795 9.41634 25.9617 11.0853 25.9319C11.0853 25.932 11.8147 25.932 11.8147 25.932C12.2882 25.932 12.6735 26.3172 12.6735 26.7908V27.1343C12.7146 28.2709 14.349 28.2729 14.3911 27.1342V27.1342ZM17.268 18.6751C17.268 19.268 16.7874 19.7486 16.1945 19.7486C14.7721 19.6959 14.7725 17.654 16.1945 17.6016C16.7874 17.6016 17.268 18.0822 17.268 18.6751ZM18.9427 15.7122C18.255 15.7122 17.6974 16.2698 17.6974 16.9575C17.7585 18.6075 20.1271 18.6071 20.1879 16.9575C20.1879 16.2698 19.6304 15.7122 18.9427 15.7122ZM26.1438 13.7987C29.0527 10.9182 26.9642 6.00867 22.8931 6.00781H21.4435C17.3728 6.00901 15.2836 10.9179 18.193 13.7987C19.0534 14.6456 20.1943 15.1116 21.4053 15.1111C23.2736 15.1397 24.6984 15.2037 26.1438 13.7987ZM21.4032 13.3935C19.8472 13.3935 18.5694 12.1349 18.5546 10.5875C18.509 9.04431 19.9034 7.69037 21.4436 7.72545C21.4436 7.72541 22.8932 7.72541 22.8932 7.72541C24.4331 7.6905 25.8279 9.04422 25.7822 10.5875C25.7673 12.135 24.4897 13.3936 22.9331 13.3935C22.9301 13.3933 21.4064 13.3936 21.4032 13.3935V13.3935Z" fill="white"/>
</g>
<defs>
<clipPath id="clip0">
<rect width="22" height="22" fill="white" transform="translate(5.5 6)"/>
</clipPath>
</defs>
</svg>
