<svg width="33" height="34" viewBox="0 0 33 34" fill="none" xmlns="http://www.w3.org/2000/svg">
<rect y="0.5" width="33" height="33" rx="11" fill="#1E96A5"/>
<path d="M17.3119 3.95459H15.6881C10.4838 3.95459 6.25 8.20647 6.25 13.4329V20.5672C6.25 25.7936 10.4838 30.0455 15.6881 30.0455H17.3119C22.5162 30.0455 26.75 25.7936 26.75 20.5672V19.0384C26.75 18.7569 26.5228 18.5288 26.2426 18.5288C25.9623 18.5288 25.7351 18.7569 25.7351 19.0384V20.5672C25.7351 25.2315 21.9564 29.0263 17.3119 29.0263H15.6881C11.0436 29.0263 7.26485 25.2315 7.26485 20.5672V13.4329C7.26485 8.7686 11.0436 4.97377 15.6881 4.97377H17.3119C21.9564 4.97377 25.7351 8.7686 25.7351 13.4329V14.9617C25.7351 15.2432 25.9623 15.4713 26.2426 15.4713C26.5228 15.4713 26.75 15.2432 26.75 14.9617V13.4329C26.75 8.20647 22.5162 3.95459 17.3119 3.95459Z" fill="white"/>
<path d="M17.2745 6.75H15.7255C12.0421 6.75 9.04541 9.80067 9.04541 13.5505V20.4495C9.04541 24.1993 12.0421 27.25 15.7255 27.25H17.2745C20.9579 27.25 23.9545 24.1993 23.9545 20.4495V13.5505C23.9545 9.80067 20.9579 6.75 17.2745 6.75ZM15.7255 26.2644C12.5758 26.2644 10.0135 23.6559 10.0135 20.4495V13.5505C10.0135 10.3441 12.5758 7.73558 15.7255 7.73558H17.2745C20.3917 7.73558 22.9332 10.291 22.9852 13.4519H13.402C13.1346 13.4519 12.9179 13.6725 12.9179 13.9447C12.9179 14.2169 13.1346 14.4375 13.402 14.4375H21.3844C20.6058 15.0529 20.0253 15.9145 19.7564 16.9001C19.1092 16.6042 18.3564 16.5963 17.687 16.9066C16.915 17.2647 16.3897 17.9796 16.2519 18.7987C16.0484 18.7565 15.8406 18.7353 15.6296 18.7353C13.9108 18.7353 12.5123 20.1589 12.5123 21.9088C12.5123 23.6586 13.9108 25.0823 15.6296 25.0823H20.7224C19.7636 25.8236 18.5688 26.2644 17.2745 26.2644H15.7255ZM21.7197 24.0967H15.6296C14.4446 24.0967 13.4804 23.1152 13.4804 21.9088C13.4804 20.7025 14.4446 19.7209 15.6296 19.7209C15.9369 19.7209 16.2343 19.786 16.5136 19.9146C16.672 19.9875 16.8571 19.9683 16.9978 19.8639C17.1387 19.7596 17.2136 19.5864 17.1939 19.4102C17.1186 18.7323 17.4781 18.0866 18.0883 17.8037C18.6521 17.5423 19.3122 17.6481 19.77 18.0735C19.905 18.1991 20.0977 18.2364 20.2684 18.1704C20.4392 18.1042 20.5589 17.9459 20.5778 17.7609C20.7247 16.3313 21.6838 15.1237 22.9864 14.6516V20.4495C22.9864 21.8295 22.5114 23.0985 21.7197 24.0967Z" fill="white"/>
<path d="M15.9072 12.341H17.0932C17.2803 12.341 17.432 12.1324 17.432 11.8751C17.432 11.6177 17.2803 11.4092 17.0932 11.4092H15.9072C15.72 11.4092 15.5684 11.6177 15.5684 11.8751C15.5684 12.1324 15.72 12.341 15.9072 12.341Z" fill="white"/>
</svg>
