<svg width="33" height="33" viewBox="0 0 33 33" fill="none" xmlns="http://www.w3.org/2000/svg">
<rect width="33" height="33" rx="11" fill="#FF3750"/>
<path d="M23.3894 17.1888C23.7698 17.1888 24.0783 16.8804 24.0783 16.4999V15.122C24.0783 14.7416 23.7698 14.4331 23.3894 14.4331C23.0089 14.4331 22.7004 14.7416 22.7004 15.122V16.4999C22.7004 16.8804 23.0089 17.1888 23.3894 17.1888Z" fill="white"/>
<path d="M12.3664 14.4331C11.9859 14.4331 11.6775 14.7416 11.6775 15.122V16.4999C11.6775 16.8804 11.9859 17.1888 12.3664 17.1888C12.7469 17.1888 13.0554 16.8804 13.0554 16.4999V15.122C13.0554 14.7416 12.7469 14.4331 12.3664 14.4331Z" fill="white"/>
<path d="M6.74169 25.4926L15.0089 26.8705C15.2055 26.9033 15.4106 26.8495 15.5674 26.7166C15.722 26.5857 15.8111 26.3934 15.8111 26.1909V25.502H19.9447V27.5688C19.9447 27.8076 20.0683 28.0293 20.2714 28.1549C20.4749 28.2806 20.7285 28.2916 20.9417 28.185L26.4531 25.4293C26.6866 25.3126 26.834 25.074 26.834 24.8131V8.18684C26.834 7.92588 26.6866 7.68737 26.4531 7.57066L20.9417 4.81493C20.7281 4.7081 20.4745 4.71958 20.2714 4.84511C20.0683 4.97059 19.9447 5.19233 19.9447 5.43111V7.49791H15.8111V6.80898C15.8111 6.60648 15.722 6.41422 15.5674 6.28332C15.413 6.15243 15.2086 6.09612 15.0089 6.12942L6.74169 7.50728C6.40948 7.56267 6.16602 7.85009 6.16602 8.18684V24.8131C6.16602 25.1499 6.40948 25.4373 6.74169 25.4926V25.4926ZM21.3225 6.54585L25.4561 8.61265V24.3873L21.3225 26.4541V6.54585ZM19.9447 8.87578V24.1241H15.8111V8.87578H19.9447ZM7.54388 8.77046L14.4332 7.62224V25.3777L7.54388 24.2295V8.77046Z" fill="white"/>
</svg>
