<svg width="33" height="34" viewBox="0 0 33 34" fill="none" xmlns="http://www.w3.org/2000/svg">
<rect y="0.5" width="33" height="33" rx="11" fill="#FF3750"/>
<path d="M25.289 13.4499L23.0106 12.6206C23.8344 11.9399 24.1861 10.8603 23.9339 9.8343C23.4383 7.81854 20.9806 7.05333 19.4278 8.426L17.8547 9.8166L17.5435 7.73106C17.2358 5.6778 14.8587 4.68996 13.1864 5.91341C12.3503 6.52514 11.9055 7.57966 12.1027 8.6504L9.95461 7.86857C8.89777 7.48383 7.72476 8.03077 7.34002 9.08775L6.40984 11.6435C6.28141 11.9963 6.46336 12.3866 6.81628 12.5149C6.95941 12.567 17.2913 16.3275 17.443 16.3827C17.013 16.3827 7.59624 16.3827 7.18195 16.3827C6.80643 16.3827 6.50199 16.6872 6.50199 17.0627V26.5819C6.50199 27.7066 7.41706 28.6217 8.54182 28.6217H13.9814H16.7011H22.1407C23.2655 28.6217 24.1805 27.7066 24.1805 26.5819V18.835L24.7065 19.0265C25.0578 19.1544 25.449 18.9744 25.578 18.6201L26.5083 16.0644C26.8929 15.0074 26.346 13.8346 25.289 13.4499ZM13.3014 27.2618H8.54177C8.16684 27.2618 7.86181 26.9568 7.86181 26.5819V17.7426H13.3014V27.2618ZM16.0211 27.2618H14.6613V17.7426H16.0211V27.2618ZM20.3285 9.44489C21.1172 8.74754 22.3625 9.13873 22.6133 10.159C22.8809 11.2469 21.8294 12.1901 20.777 11.8077C19.8818 11.4819 19.4624 11.3292 18.566 11.003L20.3285 9.44489ZM13.9893 7.01102C14.8391 6.38935 16.0429 6.89381 16.1987 7.93271L16.5473 10.2682C16.2964 10.1768 14.5834 9.5533 14.3366 9.4635C13.2841 9.08021 13.0853 7.67227 13.9893 7.01102ZM14.3096 13.7951L7.92029 11.4696L8.61795 9.55284C8.74619 9.20052 9.1372 9.01829 9.48948 9.14645C10.2045 9.40666 15.0193 11.1591 15.2398 11.2394L14.3096 13.7951ZM16.8654 14.7254L15.5875 14.2603L16.5177 11.7046L17.7956 12.1697L16.8654 14.7254ZM22.8206 26.5819C22.8206 26.9568 22.5155 27.2618 22.1406 27.2618H17.3811V17.7426H21.1792L22.8206 18.3401V26.5819H22.8206ZM25.2302 15.5992L24.5326 17.516L18.1433 15.1905L19.0735 12.6348L24.8239 14.7277C25.1762 14.8559 25.3585 15.2469 25.2302 15.5992Z" fill="white"/>
</svg>
