<svg width="80" height="81" viewBox="0 0 80 81" fill="none" xmlns="http://www.w3.org/2000/svg">
<rect y="4.875" width="75.625" height="75.625" rx="15" fill="#FF3750"/>
<g clip-path="url(#clip0)">
<path d="M15.125 50.5451C15.312 49.8343 15.711 49.1951 16.2705 48.7103C16.6151 48.4308 17.0189 48.2311 17.4522 48.1256C17.8855 48.0202 18.3372 48.0118 18.7742 48.101C19.2112 48.1902 19.6224 48.3748 19.9775 48.6412C20.3326 48.9076 20.6227 49.2491 20.8264 49.6405C21.3106 50.6709 21.8538 51.6733 22.4535 52.6428C24.474 55.6791 27.4074 58.0165 30.8428 59.3275C33.5695 60.4463 36.5143 60.9542 39.4644 60.8144C42.4144 60.6746 45.2962 59.8907 47.9014 58.5192C51.4035 56.7633 54.2031 53.8953 55.8482 50.3783C56.1317 49.6143 56.6535 48.9585 57.3386 48.505C57.8957 48.1791 58.5444 48.0388 59.1887 48.105C59.833 48.1711 60.4385 48.4401 60.9155 48.8721C61.3925 49.3041 61.7156 49.8761 61.8368 50.5033C61.9581 51.1305 61.871 51.7795 61.5886 52.3542C59.3281 57.4004 55.3501 61.5098 50.3421 63.9722C46.0038 66.1736 41.115 67.1 36.2578 66.6409C30.2704 66.2195 24.6343 63.6978 20.3708 59.5328C18.2397 57.4486 16.5477 54.9697 15.3918 52.2387C15.2942 52.0077 15.2161 51.7704 15.125 51.5266V50.5451Z" fill="white"/>
<path d="M44.413 29.6441C44.5312 27.6247 45.3654 25.7104 46.77 24.2356C48.1746 22.7608 50.0602 21.8193 52.0974 21.5756C54.1346 21.3318 56.194 21.8013 57.9157 22.9021C59.6375 24.0028 60.9121 25.6648 61.5171 27.5977C61.7337 28.3454 61.854 29.117 61.8751 29.8943C61.898 30.2236 61.8539 30.554 61.7454 30.8662C61.6369 31.1784 61.4662 31.4661 61.2433 31.7123C61.0204 31.9585 60.7498 32.1584 60.4475 32.3001C60.1451 32.4418 59.8171 32.5225 59.4826 32.5375C59.1482 32.5524 58.814 32.5014 58.4999 32.3872C58.1858 32.2731 57.8979 32.0983 57.6533 31.8729C57.4087 31.6476 57.2123 31.3764 57.0755 31.0751C56.9388 30.7739 56.8645 30.4488 56.8571 30.1189C56.7204 28.1943 55.7767 26.9818 54.0324 26.4814C53.5255 26.3589 52.998 26.3434 52.4845 26.4359C51.9711 26.5284 51.4832 26.7268 51.0531 27.0182C50.6229 27.3095 50.26 27.6873 49.9883 28.1265C49.7166 28.5658 49.5422 29.0568 49.4765 29.5672C49.499 30.3825 49.2111 31.1766 48.6695 31.7932C48.2893 32.1512 47.8056 32.3837 47.2853 32.4584C46.7651 32.5331 46.2341 32.4463 45.7662 32.21C45.2983 31.9738 44.9166 31.5998 44.6741 31.14C44.4316 30.6802 44.3403 30.1574 44.413 29.6441Z" fill="white"/>
<path d="M25.1089 21.375C27.44 21.3527 29.6848 22.2424 31.3514 23.8491C33.018 25.4557 33.9702 27.6482 33.9994 29.9458C34.0115 30.5733 33.7808 31.1819 33.354 31.6479C32.9273 32.1138 32.3366 32.4021 31.702 32.4541C31.3741 32.4913 31.0419 32.4626 30.7257 32.3696C30.4094 32.2767 30.1155 32.1215 29.8618 31.9134C29.6081 31.7053 29.3998 31.4486 29.2496 31.159C29.0994 30.8693 29.0104 30.5526 28.9879 30.228C28.9691 29.3289 28.6741 28.4565 28.1418 27.7261C27.6775 27.1419 27.0436 26.7112 26.3246 26.4912C25.6056 26.2712 24.8357 26.2724 24.1174 26.4947C23.3991 26.717 22.7666 27.1498 22.3042 27.7354C21.8419 28.321 21.5715 29.0316 21.5293 29.7725C21.5378 30.1474 21.4695 30.5201 21.3286 30.8684C21.1877 31.2167 20.9771 31.5335 20.7092 31.7998C20.3628 32.1445 19.917 32.3756 19.4325 32.4617C18.9481 32.5478 18.4485 32.4847 18.0017 32.2809C17.5357 32.1024 17.1385 31.784 16.8664 31.3706C16.5942 30.9573 16.4609 30.47 16.4853 29.9778C16.4909 28.0809 17.1311 26.2388 18.3066 24.7369C19.482 23.2349 21.1272 22.157 22.9872 21.6701C23.4428 21.5546 23.9114 21.484 24.38 21.4135C24.6221 21.3879 24.8654 21.375 25.1089 21.375Z" fill="white"/>
</g>
<circle cx="71.1666" cy="9.33333" r="7.33333" fill="#FF3750" stroke="#FAF5ED" stroke-width="3"/>
<defs>
<clipPath id="clip0">
<rect width="46.75" height="45.375" fill="white" transform="translate(15.125 21.3749)"/>
</clipPath>
</defs>
</svg>
