<svg width="33" height="33" viewBox="0 0 33 33" fill="none" xmlns="http://www.w3.org/2000/svg">
<rect width="33" height="33" rx="11" fill="#FF3750"/>
<g clip-path="url(#clip0)">
<path d="M6.14453 22.3438H6.71957C7.05359 22.3438 7.38206 22.4304 7.67227 22.5948C13.1818 27.2571 12.8498 26.9896 12.9349 27.0408C13.4358 27.3412 14.009 27.5 14.5929 27.5H21.6133C22.6794 27.5 23.5469 26.6326 23.5469 25.5664C23.5469 24.676 22.9416 23.9245 22.1212 23.701C22.209 23.4802 22.2578 23.2399 22.2578 22.9883C22.2578 22.0979 21.6526 21.3464 20.8321 21.1228C20.9199 20.9021 20.9688 20.6618 20.9688 20.4102C20.9688 19.344 20.1013 18.4766 19.0352 18.4766H14.6797L13.0454 16.8424C12.4368 16.2336 11.6274 15.8984 10.7667 15.8984H6.14453C5.78853 15.8984 5.5 16.187 5.5 16.543V21.6992C5.5 22.0552 5.78853 22.3438 6.14453 22.3438ZM20.3242 23.6328H16.4572C16.2853 23.6328 16.1237 23.566 16.002 23.4447C16.1974 23.3512 16.3775 23.2241 16.5351 23.0663C16.7425 22.8589 16.897 22.6125 16.9918 22.3438H20.3242C20.6796 22.3438 20.9688 22.6329 20.9688 22.9883C20.9688 23.3438 20.6796 23.6328 20.3242 23.6328V23.6328ZM19.0352 19.7656C19.3905 19.7656 19.6797 20.0548 19.6797 20.4102C19.6797 20.7655 19.3905 21.0547 19.0352 21.0547H16.9918C16.897 20.786 16.7425 20.5396 16.5351 20.3321L15.9688 19.7656H19.0352ZM6.78906 17.1875H10.7667C11.2832 17.1875 11.7687 17.3886 12.1338 17.7538L15.6237 21.2435C15.7454 21.3654 15.8125 21.5272 15.8125 21.6992C15.8125 21.8713 15.7454 22.0331 15.6237 22.1549C15.3724 22.406 14.9635 22.406 14.7123 22.1549L12.5118 19.9545C12.2602 19.7027 11.852 19.7027 11.6004 19.9545C11.3486 20.2061 11.3486 20.6141 11.6004 20.8659L15.0899 24.3556C15.4543 24.72 15.9387 24.921 16.4542 24.9217C16.4547 24.9217 16.4552 24.9219 16.4557 24.9219H21.6133C21.9686 24.9219 22.2578 25.2109 22.2578 25.5664C22.2578 25.9217 21.9686 26.2109 21.6133 26.2109H14.5929C14.2589 26.2109 13.9304 26.1242 13.6402 25.9598C8.13066 21.2976 8.46266 21.5651 8.37756 21.5139C7.89668 21.2254 7.349 21.0676 6.78906 21.0555V17.1875Z" fill="white"/>
<path d="M26.8555 10.4844H26.2804C25.9446 10.4844 25.6142 10.3968 25.3227 10.2306L20.1406 6.00723C19.8571 5.77644 19.1355 5.5 18.4071 5.5H11.3867C10.2845 5.5 9.45312 6.27579 9.45312 7.30469C9.45312 8.19176 10.048 8.91769 10.8773 9.1312C10.7904 9.35074 10.7422 9.58975 10.7422 9.83984C10.7422 10.7303 11.3474 11.4817 12.1679 11.7053C12.0801 11.926 12.0312 12.1664 12.0312 12.418C12.0312 13.4841 12.8987 14.3516 13.9648 14.3516H18.3203L19.9546 15.9857C20.5632 16.5945 21.3726 16.9297 22.2333 16.9297H26.8555C27.2115 16.9297 27.5 16.6412 27.5 16.2852V11.1289C27.5 10.7729 27.2115 10.4844 26.8555 10.4844ZM12.6758 9.19531H16.5428C16.7147 9.19531 16.8763 9.26212 16.998 9.38347C16.8026 9.47696 16.6225 9.60402 16.4649 9.7618C16.2575 9.96925 16.103 10.2157 16.0082 10.4844H12.6758C12.3204 10.4844 12.0312 10.1952 12.0312 9.83984C12.0312 9.48434 12.3204 9.19531 12.6758 9.19531V9.19531ZM13.9648 13.0625C13.6095 13.0625 13.3203 12.7733 13.3203 12.418C13.3203 12.0626 13.6095 11.7734 13.9648 11.7734H16.0082C16.103 12.0422 16.2575 12.2886 16.4649 12.496L17.0312 13.0625H13.9648ZM26.2109 15.6406H22.2333C21.7168 15.6406 21.2313 15.4395 20.8662 15.0743C20.4565 14.6648 17.728 11.9361 17.3763 11.5846C17.1244 11.3325 17.1244 10.9253 17.3763 10.6732C17.6284 10.4213 18.0356 10.4213 18.2877 10.6732L20.4882 12.8737C20.7398 13.1254 21.148 13.1254 21.3996 12.8737C21.6514 12.6221 21.6514 12.214 21.3996 11.9623L17.9101 8.47256C17.5459 8.10834 17.0618 7.90742 16.5467 7.90642C16.546 7.90642 16.5455 7.90625 16.5448 7.90625C16.5448 7.90625 12.0808 7.90625 11.3867 7.90625C11.0193 7.90625 10.7422 7.6476 10.7422 7.30469C10.7422 6.92418 11.0893 6.78906 11.3867 6.78906H18.4071C18.7481 6.78906 19.0783 6.875 19.3648 7.03798C24.8828 11.5319 24.5472 11.2691 24.6224 11.3142C25.1033 11.6027 25.651 11.7607 26.2109 11.7728V15.6406Z" fill="white"/>
</g>
<defs>
<clipPath id="clip0">
<rect width="22" height="22" fill="white" transform="translate(5.5 5.5)"/>
</clipPath>
</defs>
</svg>
