<svg width="33" height="33" viewBox="0 0 33 33" fill="none" xmlns="http://www.w3.org/2000/svg">
<rect width="33" height="33" rx="11" fill="#FF3750"/>
<g clip-path="url(#clip0)">
<path d="M27.7969 15.4594H25.914C25.8571 15.4594 25.8007 15.4618 25.7446 15.4655C25.3217 15.0881 24.8538 14.7764 24.3534 14.5364C25.4947 13.7258 26.2407 12.3937 26.2407 10.8906C26.2407 8.42651 24.236 6.42188 21.772 6.42188C19.3077 6.42188 17.3031 8.42651 17.3031 10.8906C17.3031 12.0747 17.7664 13.1526 18.5208 13.953H15.2325C15.9869 13.1526 16.45 12.0747 16.45 10.8906C16.45 8.42651 14.4454 6.42188 11.9813 6.42188C9.51727 6.42188 7.51245 8.42651 7.51245 10.8906C7.51245 12.2725 8.14307 13.5097 9.13147 14.3302C8.44702 14.586 7.81201 14.9685 7.25519 15.4655C7.19916 15.4618 7.14294 15.4594 7.086 15.4594H5.20312C4.81476 15.4594 4.5 15.7742 4.5 16.1625V19.9281C4.5 20.3165 4.81476 20.6312 5.20312 20.6312H5.25311V25.9532C5.25311 26.3414 5.56787 26.6563 5.95624 26.6563H27.0438C27.4321 26.6563 27.7469 26.3414 27.7469 25.9532V20.6312H27.7969C28.1852 20.6312 28.5 20.3165 28.5 19.9281V16.1625C28.5 15.7742 28.1852 15.4594 27.7969 15.4594V15.4594ZM27.0938 19.225H25.914C25.2636 19.225 24.7343 18.6958 24.7343 18.0452C24.7343 17.3948 25.2636 16.8657 25.914 16.8657H27.0938V19.225ZM18.7094 10.8906C18.7094 9.20197 20.0832 7.82812 21.7718 7.82812C23.4604 7.82812 24.8344 9.20197 24.8344 10.8906C24.8344 12.5793 23.4606 13.953 21.772 13.953C20.0832 13.953 18.7094 12.5793 18.7094 10.8906ZM11.9813 7.82812C13.6699 7.82812 15.0438 9.20197 15.0438 10.8906C15.0438 12.5792 13.6699 13.953 11.9813 13.953C10.2925 13.953 8.9187 12.5793 8.9187 10.8906C8.9187 9.20197 10.2925 7.82812 11.9813 7.82812ZM5.90625 16.8657H7.086C7.73639 16.8657 8.26575 17.3948 8.26575 18.0454C8.26575 18.6958 7.73639 19.225 7.086 19.225H5.90625V16.8657ZM6.65936 20.6312H7.086C8.51184 20.6312 9.672 19.4713 9.672 18.0452C9.672 17.2557 9.31567 16.548 8.7561 16.0734H8.77277C9.49951 15.6085 10.3447 15.3594 11.2282 15.3594H17.926C16.6249 16.4562 15.7969 18.0972 15.7969 19.9281V25.2501H9.67181V22.1874C9.67181 21.7993 9.35706 21.4843 8.96869 21.4843C8.58051 21.4843 8.26556 21.7993 8.26556 22.1874V25.2499H6.65936V20.6312ZM26.3406 25.2499H24.7343V22.1874C24.7343 21.7993 24.4195 21.4843 24.0311 21.4843C23.6429 21.4843 23.328 21.7993 23.328 22.1874V25.2499H17.2031V19.9281C17.2031 17.4089 19.2526 15.3594 21.772 15.3594C22.6595 15.3594 23.5082 15.6107 24.2368 16.0794C23.6812 16.5542 23.3282 17.259 23.3282 18.0454C23.3282 19.4713 24.4882 20.6312 25.9142 20.6312H26.3406V25.2499Z" fill="white"/>
</g>
<defs>
<clipPath id="clip0">
<rect width="24" height="24" fill="white" transform="translate(4.5 4.5)"/>
</clipPath>
</defs>
</svg>
