<svg width="33" height="33" viewBox="0 0 33 33" fill="none" xmlns="http://www.w3.org/2000/svg">
<rect width="33" height="33" rx="11" fill="#FF3750"/>
<g clip-path="url(#clip0)">
<path d="M27.9186 18.7286C27.144 17.8572 25.8033 17.7767 24.9302 18.5492L23.7665 19.5785V12.9374H24.0009C24.3892 12.9374 24.704 12.6226 24.704 12.2343V8.95309C24.704 8.56478 24.3892 8.24997 24.0009 8.24997H20.6711C20.8515 7.89808 20.954 7.49998 20.954 7.0781C20.954 5.65654 19.7975 4.5 18.3759 4.5C17.6376 4.5 16.9714 4.81242 16.5009 5.3114C16.0305 4.81242 15.3642 4.5 14.6259 4.5C13.2044 4.5 12.0478 5.65654 12.0478 7.0781C12.0478 7.49998 12.1504 7.89808 12.3307 8.24997H9.00099C8.61268 8.24997 8.29787 8.56478 8.29787 8.95309V12.2343C8.29787 12.6226 8.61268 12.9374 9.00099 12.9374H9.23536V18.2606C8.80529 18.4691 8.39846 18.7323 8.02417 19.048L7.4627 19.5214L4.97404 20.5879C4.80266 20.6614 4.66743 20.7999 4.59815 20.9731C4.52887 21.1462 4.53126 21.3398 4.60471 21.5111L7.41719 28.0736C7.53147 28.3402 7.79101 28.4999 8.06378 28.4999C8.15617 28.4999 8.2501 28.4816 8.34043 28.4429L10.7927 27.3919H20.0798C20.9482 27.3919 21.7824 27.0724 22.4285 26.4922L27.7505 21.7136C28.6157 20.9367 28.6911 19.5976 27.9186 18.7286V18.7286ZM22.3603 20.8225L21.4013 21.6708C21.4049 21.6207 21.4067 21.5701 21.4067 21.5191C21.4067 20.356 20.4604 19.4097 19.2962 19.4097L17.2041 19.4132V12.9374H22.3603V20.8225ZM23.2978 11.5312H17.2041V9.65621H23.2978V11.5312ZM18.3759 5.90624C19.0221 5.90624 19.5478 6.43194 19.5478 7.0781C19.5478 7.72427 19.0221 8.24997 18.3759 8.24997H17.2041V7.0781C17.2041 6.43194 17.7297 5.90624 18.3759 5.90624ZM13.4541 7.0781C13.4541 6.43194 13.9798 5.90624 14.6259 5.90624C15.2721 5.90624 15.7978 6.43194 15.7978 7.0781V8.24997H14.6259C13.9798 8.24997 13.4541 7.72427 13.4541 7.0781ZM9.70411 9.65621H15.7978V11.5312H9.70411V9.65621ZM10.6416 12.9374H15.7978V19.3439C14.8253 18.3855 13.5569 17.807 12.1823 17.7034C11.6601 17.6641 11.1429 17.6948 10.6416 17.792V12.9374ZM8.43277 26.8734L6.17426 21.6036L7.46669 21.0497L9.7252 26.3196L8.43277 26.8734ZM26.811 20.6673L21.489 25.446C21.1013 25.7941 20.6009 25.9858 20.0798 25.9858H11.1121L8.6874 20.3282L8.93077 20.1229C9.31106 19.8021 9.73565 19.5529 10.1878 19.3798C10.1974 19.3762 10.2071 19.3729 10.2165 19.3688C10.8029 19.1491 11.4348 19.0573 12.0767 19.1057C13.225 19.1921 14.2756 19.7167 15.0347 20.5826C15.1682 20.7349 15.3609 20.8222 15.5634 20.8222H15.5646L16.471 20.8207C16.481 20.8211 16.4908 20.8222 16.5009 20.8222C16.5117 20.8222 16.5222 20.821 16.5329 20.8206L19.2973 20.816C19.685 20.816 20.0004 21.1314 20.0004 21.5191C20.0004 21.9068 19.685 22.2222 19.2973 22.2222H14.4583C14.07 22.2222 13.7552 22.537 13.7552 22.9253C13.7552 23.3136 14.07 23.6285 14.4583 23.6285H20.5116C21.0268 23.6285 21.5231 23.4404 21.9091 23.099L25.8619 19.6024C26.1558 19.3425 26.6069 19.3696 26.8675 19.6628C27.1275 19.9553 27.1021 20.4059 26.811 20.6673Z" fill="white"/>
</g>
<defs>
<clipPath id="clip0">
<rect width="24" height="24" fill="white" transform="translate(4.5 4.5)"/>
</clipPath>
</defs>
</svg>
