<svg width="33" height="34" viewBox="0 0 33 34" fill="none" xmlns="http://www.w3.org/2000/svg">
<rect y="0.5" width="33" height="33" rx="11" fill="#FF3750"/>
<path d="M22.9453 20.1797H10.0547C8.27771 20.1797 6.83203 21.6254 6.83203 23.4023V27.3555C6.83203 27.7114 7.12061 28 7.47656 28H15.2109C15.5669 28 15.8555 27.7114 15.8555 27.3555V24.0469H17.1445V27.3555C17.1445 27.7114 17.4331 28 17.7891 28H25.5234C25.8794 28 26.168 27.7114 26.168 27.3555V23.4023C26.168 21.6254 24.7223 20.1797 22.9453 20.1797ZM14.5664 26.7109H10.6992V23.4023C10.6992 23.0464 10.4106 22.7578 10.0547 22.7578C9.69873 22.7578 9.41016 23.0464 9.41016 23.4023V26.7109H8.12109V23.4023C8.12109 22.3362 8.9885 21.4688 10.0547 21.4688H12.6328C13.699 21.4688 14.5664 22.3362 14.5664 23.4023V26.7109ZM17.7891 22.7578H15.7906C15.6936 22.2818 15.4913 21.8437 15.2092 21.4688H22.9453C24.0115 21.4688 24.8789 22.3362 24.8789 23.4023V26.7109H23.5898V23.4023C23.5898 23.0464 23.3013 22.7578 22.9453 22.7578C22.5894 22.7578 22.3008 23.0464 22.3008 23.4023V26.7109H18.4336V23.4023C18.4336 23.0464 18.145 22.7578 17.7891 22.7578Z" fill="white"/>
<path d="M15.2109 16.957C15.2109 15.1801 13.7653 13.7344 11.9883 13.7344C10.2113 13.7344 8.76562 15.1801 8.76562 16.957C8.76562 18.734 10.2113 20.1797 11.9883 20.1797C13.7653 20.1797 15.2109 18.734 15.2109 16.957ZM11.9883 18.8906C10.9221 18.8906 10.0547 18.0232 10.0547 16.957C10.0547 15.8908 10.9221 15.0234 11.9883 15.0234C13.0545 15.0234 13.9219 15.8908 13.9219 16.957C13.9219 18.0232 13.0545 18.8906 11.9883 18.8906Z" fill="white"/>
<path d="M24.2344 16.957C24.2344 15.1801 22.7887 13.7344 21.0117 13.7344C19.2347 13.7344 17.7891 15.1801 17.7891 16.957C17.7891 18.734 19.2347 20.1797 21.0117 20.1797C22.7887 20.1797 24.2344 18.734 24.2344 16.957ZM21.0117 18.8906C19.9455 18.8906 19.0781 18.0232 19.0781 16.957C19.0781 15.8908 19.9455 15.0234 21.0117 15.0234C22.0779 15.0234 22.9453 15.8908 22.9453 16.957C22.9453 18.0232 22.0779 18.8906 21.0117 18.8906Z" fill="white"/>
<path d="M11.3438 12.4453H14.944L16.0442 13.5456C16.1701 13.6715 16.335 13.7344 16.5 13.7344C16.665 13.7344 16.8299 13.6715 16.9557 13.5456L18.056 12.4453H21.6562C23.4332 12.4453 24.8789 10.9996 24.8789 9.22266C24.8789 7.44568 23.4332 6 21.6562 6H11.3438C9.56678 6 8.12109 7.44568 8.12109 9.22266C8.12109 10.9996 9.56678 12.4453 11.3438 12.4453ZM11.3438 7.28906H21.6562C22.7224 7.28906 23.5898 8.15647 23.5898 9.22266C23.5898 10.2888 22.7224 11.1562 21.6562 11.1562H17.7891C17.6181 11.1562 17.4542 11.2241 17.3333 11.345L16.5 12.1783L15.6667 11.345C15.5458 11.2241 15.3819 11.1562 15.2109 11.1562H11.3438C10.2776 11.1562 9.41016 10.2888 9.41016 9.22266C9.41016 8.15647 10.2776 7.28906 11.3438 7.28906Z" fill="white"/>
<path d="M12.6328 9.86719C12.9888 9.86719 13.2773 9.57862 13.2773 9.22266C13.2773 8.86669 12.9888 8.57812 12.6328 8.57812C12.2768 8.57812 11.9883 8.86669 11.9883 9.22266C11.9883 9.57862 12.2768 9.86719 12.6328 9.86719Z" fill="white"/>
<path d="M16.5 9.86719C16.856 9.86719 17.1445 9.57862 17.1445 9.22266C17.1445 8.86669 16.856 8.57812 16.5 8.57812C16.144 8.57812 15.8555 8.86669 15.8555 9.22266C15.8555 9.57862 16.144 9.86719 16.5 9.86719Z" fill="white"/>
<path d="M20.3672 9.86719C20.7232 9.86719 21.0117 9.57862 21.0117 9.22266C21.0117 8.86669 20.7232 8.57812 20.3672 8.57812C20.0112 8.57812 19.7227 8.86669 19.7227 9.22266C19.7227 9.57862 20.0112 9.86719 20.3672 9.86719Z" fill="white"/>
</svg>
