<svg width="33" height="33" viewBox="0 0 33 33" fill="none" xmlns="http://www.w3.org/2000/svg">
<rect width="33" height="33" rx="11" fill="#FF3750"/>
<g clip-path="url(#clip0)">
<path d="M24.9853 8.01469C22.7188 5.74823 19.7053 4.5 16.5 4.5C13.2947 4.5 10.2812 5.74823 8.01469 8.01469C5.74823 10.2812 4.5 13.2947 4.5 16.5C4.5 19.7053 5.74823 22.7188 8.01469 24.9853C10.2812 27.2518 13.2947 28.5 16.5 28.5C19.7053 28.5 22.7188 27.2518 24.9853 24.9853C27.2518 22.7188 28.5 19.7053 28.5 16.5C28.5 13.2947 27.2518 10.2812 24.9853 8.01469V8.01469ZM23.9909 23.9909C21.99 25.9918 19.3297 27.0938 16.5 27.0938C13.6703 27.0938 11.01 25.9918 9.00909 23.9909C7.00819 21.99 5.90625 19.3297 5.90625 16.5C5.90625 13.6703 7.00819 11.01 9.00909 9.00909C11.01 7.00819 13.6703 5.90625 16.5 5.90625C19.3297 5.90625 21.99 7.00819 23.9909 9.00909C25.9918 11.01 27.0938 13.6703 27.0938 16.5C27.0938 19.3297 25.9918 21.99 23.9909 23.9909Z" fill="white"/>
<path d="M16.5001 22.8576C14.208 22.8576 12.1136 21.627 10.9878 19.6706C10.7941 19.334 10.3829 19.169 10.0271 19.3245V19.3245C9.67126 19.48 9.50614 19.8966 9.69304 20.237C11.0479 22.7044 13.6488 24.2639 16.5001 24.2639C19.3514 24.2639 21.9523 22.7044 23.3072 20.237C23.4941 19.8966 23.329 19.48 22.9731 19.3245V19.3245C22.6173 19.1691 22.2061 19.334 22.0124 19.6706C20.8866 21.627 18.7922 22.8576 16.5001 22.8576Z" fill="white"/>
<path d="M12.2637 12.9668C12.7999 12.9668 13.2674 13.2666 13.5074 13.7074C13.6931 14.0484 13.9936 14.3819 14.3819 14.3819V14.3819C14.7702 14.3819 15.094 14.0622 14.9981 13.6859C14.6874 12.4656 13.5793 11.5605 12.2637 11.5605C10.9481 11.5605 9.83998 12.4656 9.52925 13.6858C9.43341 14.0622 9.75719 14.3819 10.1455 14.3819V14.3819C10.5338 14.3819 10.8343 14.0484 11.02 13.7074C11.26 13.2666 11.7275 12.9668 12.2637 12.9668Z" fill="white"/>
<path d="M20.7364 12.9668C21.2726 12.9668 21.7401 13.2666 21.9801 13.7074C22.1658 14.0484 22.4662 14.3819 22.8545 14.3819V14.3819C23.2429 14.3819 23.5666 14.0622 23.4708 13.6859C23.1601 12.4656 22.0519 11.5605 20.7364 11.5605C19.4208 11.5605 18.3126 12.4656 18.0019 13.6858C17.9061 14.0622 18.2298 14.3819 18.6182 14.3819V14.3819C19.0065 14.3819 19.3069 14.0484 19.4926 13.7074C19.7326 13.2666 20.2001 12.9668 20.7364 12.9668Z" fill="white"/>
</g>
<defs>
<clipPath id="clip0">
<rect width="24" height="24" fill="white" transform="translate(4.5 4.5)"/>
</clipPath>
</defs>
</svg>
