<svg width="33" height="34" viewBox="0 0 33 34" fill="none" xmlns="http://www.w3.org/2000/svg">
<rect y="0.5" width="33" height="33" rx="11" fill="#FF3750"/>
<g clip-path="url(#clip0)">
<path d="M5.04148 23.5125C5.39679 24.4283 6.04241 25.7418 7.09997 26.7994C8.15753 27.857 9.47112 28.5026 10.3868 28.8579C11.2753 29.2027 12.2867 28.9041 12.8476 28.1366C13.3489 27.4507 14.0122 26.6583 14.7563 25.84C15.6301 27.1028 17.0871 27.9222 18.7274 27.9222C20.992 27.9222 22.9273 26.353 23.43 24.1894C28.9249 20.5237 29.7227 12.7904 25.0174 8.08511C23.028 6.09562 20.3946 5 17.6023 5C11.8384 5 7.1491 9.71034 7.1491 15.5001C7.1491 16.8213 7.39093 18.1025 7.86793 19.3163C7.11778 19.99 6.39506 20.5897 5.7628 21.0518C4.99395 21.6137 4.69736 22.6255 5.04148 23.5125ZM24.9114 20.8694C24.8314 20.37 24.6378 19.8942 24.345 19.479C25.0566 18.2765 25.4306 16.9118 25.4306 15.5001C25.4306 11.1836 21.9189 7.67191 17.6024 7.67191C12.6012 7.67191 8.82115 12.3447 9.98216 17.2939C9.65506 17.6257 9.32206 17.9542 8.98849 18.2745C8.7011 17.3833 8.55536 16.454 8.55536 15.5001C8.55536 10.4858 12.6138 6.40627 17.6023 6.40627C22.6167 6.40627 26.6962 10.4858 26.6962 15.5001C26.6962 17.4526 26.0545 19.3306 24.9114 20.8694ZM12.4722 18.099C12.1092 18.099 11.8102 17.8639 11.7107 17.5318C12.0307 17.1935 12.3408 16.8556 12.6373 16.5226C12.7747 16.5513 12.9021 16.6157 13.0089 16.7132C13.5464 17.2037 13.1944 18.099 12.4722 18.099ZM15.6826 12.8714C14.7955 12.5272 13.7837 12.8239 13.2218 13.5928C12.6954 14.313 11.991 15.1504 11.2013 16.0123C10.9051 12.2602 13.8753 9.07817 17.6023 9.07817C21.2881 9.07817 24.2582 12.1995 24.0091 15.9345C22.8903 14.459 20.7816 14.1862 19.3265 15.3144C18.3629 14.2037 17.059 13.4055 15.6826 12.8714ZM15.7501 24.7811C17.2835 23.1957 18.9904 21.6395 20.3066 20.6776C21.0755 20.1156 21.3721 19.1037 21.028 18.2167C20.8323 17.7124 20.5479 17.0873 20.1557 16.4509C20.9089 15.8426 22.0164 15.8862 22.7195 16.5893C23.3914 17.2612 23.4689 18.34 22.8998 19.0987C22.6895 19.3791 22.7141 19.7695 22.98 20.0332C23.9277 20.9759 23.6382 22.538 22.4871 23.1137C22.2905 23.2119 22.1459 23.3964 22.1056 23.6402C21.8235 25.3528 20.3787 26.5159 18.7274 26.5159C17.4799 26.5159 16.3577 25.8562 15.7501 24.7811V24.7811ZM6.59254 22.1871C7.94884 21.1959 9.49662 19.7714 10.6863 18.584C11.0869 19.1415 11.7379 19.5053 12.4722 19.5053C13.687 19.5053 14.6753 18.5169 14.6753 17.3021C14.6753 16.5383 14.2746 15.8077 13.5928 15.4059C13.8726 15.0638 14.1296 14.7338 14.3571 14.4225C14.5417 14.1699 14.8762 14.067 15.1739 14.1824C15.9636 14.4888 17.0906 15.0398 17.9751 15.9243C18.8595 16.8087 19.4105 17.9358 19.7169 18.7255C19.8311 19.0196 19.7323 19.3554 19.4768 19.5422C17.0485 21.317 13.4878 24.8773 11.7122 27.3068C11.5255 27.5623 11.1898 27.6609 10.8955 27.5469C10.1058 27.2404 8.97874 26.6895 8.09429 25.8051C7.20985 24.9206 6.65892 23.7935 6.35249 23.0038C6.2384 22.7097 6.33707 22.3739 6.59254 22.1871V22.1871Z" fill="white"/>
<path d="M8.83252 22.9273C8.83252 24.1421 9.82084 25.1304 11.0357 25.1304C12.2505 25.1304 13.2388 24.1421 13.2388 22.9273C13.2388 21.7124 12.2505 20.7241 11.0357 20.7241C9.82084 20.7241 8.83252 21.7124 8.83252 22.9273ZM10.2388 22.9273C10.2388 22.4879 10.5963 22.1304 11.0357 22.1304C11.4751 22.1304 11.8325 22.4879 11.8325 22.9273C11.8325 23.3667 11.4751 23.7242 11.0357 23.7242C10.5963 23.7242 10.2388 23.3667 10.2388 22.9273Z" fill="white"/>
<path d="M15.1579 19.7895C15.2468 19.3611 15.6825 19.1345 16.0514 19.2547C16.4291 19.3674 16.6333 19.7739 16.5196 20.1313C16.4069 20.5002 16.0206 20.7118 15.6431 20.5996C15.2901 20.492 15.086 20.1328 15.1579 19.7895V19.7895Z" fill="white"/>
<path d="M16.4599 17.6164C16.0565 17.5322 15.8333 17.1452 15.9078 16.7895C15.9963 16.363 16.4275 16.1354 16.8012 16.2547C17.181 16.368 17.3825 16.7761 17.2695 17.1313C17.1592 17.4922 16.7955 17.6863 16.4599 17.6164V17.6164Z" fill="white"/>
</g>
<defs>
<clipPath id="clip0">
<rect width="24" height="24" fill="white" transform="translate(4.5 5)"/>
</clipPath>
</defs>
</svg>
