<svg width="80" height="80" viewBox="0 0 80 80" fill="none" xmlns="http://www.w3.org/2000/svg">
<rect y="4.16666" width="75.8333" height="75.8333" rx="17" fill="#F0B4A0"/>
<g clip-path="url(#clip0)">
<path d="M37.9141 66.2417C37.5198 66.2406 37.1332 66.131 36.7963 65.9246C36.222 65.5701 22.6414 57.2185 15.4404 46.6468C8.9249 37.0141 11.0309 30.8515 12.8836 28.0095C15.848 23.4699 21.962 21.2126 28.107 22.4003C30.0937 22.7442 31.9893 23.4951 33.6762 24.6064C35.3631 25.7178 36.8056 27.1661 37.9141 28.8615C39.0239 27.1659 40.4675 25.7176 42.1554 24.6062C43.8434 23.4949 45.7398 22.7441 47.7275 22.4003C53.9033 21.2126 59.9865 23.4699 62.9385 27.9971C64.7912 30.839 66.9095 37.0266 60.3941 46.5908C53.1931 57.1625 39.6125 65.5266 39.0381 65.8686C38.7052 66.0958 38.316 66.225 37.9141 66.2417ZM24.8832 26.4425C21.3691 26.4425 18.1207 27.9225 16.515 30.3975C14.3473 33.7245 15.2366 38.6061 18.9853 44.1345C24.5435 52.2622 34.5483 59.252 37.8956 61.4534C41.2923 59.2457 51.3033 52.2436 56.8306 44.1345C60.5979 38.6061 61.4872 33.7245 59.3009 30.3975C57.3494 27.3628 52.9152 25.8206 48.5427 26.6788C46.4059 27.0643 41.2923 28.7309 40.0571 35.0304C39.9579 35.5224 39.6928 35.9648 39.3068 36.2825C38.9207 36.6002 38.4374 36.7738 37.9388 36.7738C37.4402 36.7738 36.957 36.6002 36.5709 36.2825C36.1848 35.9648 35.9197 35.5224 35.8205 35.0304C34.5298 28.7309 29.4286 27.0643 27.2917 26.6788C26.4981 26.5234 25.6917 26.4443 24.8832 26.4425Z" fill="white"/>
</g>
<circle cx="71.1666" cy="8.83333" r="7.33333" fill="#FF3750" stroke="#FAF5ED" stroke-width="3"/>
<defs>
<clipPath id="clip0">
<rect width="53.7727" height="44.1212" fill="white" transform="translate(11.0304 22.0906)"/>
</clipPath>
</defs>
</svg>
