<svg width="96" height="96" viewBox="0 0 96 96" fill="none" xmlns="http://www.w3.org/2000/svg">
<g filter="url(#filter0_d)">
<rect x="10" y="6.16666" width="75.8333" height="75.8333" rx="17" fill="#F0B4A0"/>
<g clip-path="url(#clip0)">
<path d="M47.9141 68.2417C47.5198 68.2406 47.1332 68.131 46.7963 67.9246C46.222 67.5701 32.6414 59.2185 25.4404 48.6468C18.9249 39.0141 21.0309 32.8515 22.8836 30.0095C25.848 25.4699 31.962 23.2126 38.107 24.4003C40.0937 24.7442 41.9893 25.4951 43.6762 26.6064C45.3631 27.7178 46.8056 29.1661 47.9141 30.8615C49.0239 29.1659 50.4675 27.7176 52.1554 26.6062C53.8434 25.4949 55.7398 24.7441 57.7275 24.4003C63.9033 23.2126 69.9865 25.4699 72.9385 29.9971C74.7912 32.839 76.9095 39.0266 70.3941 48.5908C63.1931 59.1625 49.6125 67.5266 49.0381 67.8686C48.7052 68.0958 48.316 68.225 47.9141 68.2417ZM34.8832 28.4425C31.3691 28.4425 28.1207 29.9225 26.515 32.3975C24.3473 35.7245 25.2366 40.6061 28.9853 46.1345C34.5435 54.2622 44.5483 61.252 47.8956 63.4534C51.2923 61.2457 61.3033 54.2436 66.8306 46.1345C70.5979 40.6061 71.4872 35.7245 69.3009 32.3975C67.3494 29.3628 62.9152 27.8206 58.5427 28.6788C56.4059 29.0643 51.2923 30.7309 50.0571 37.0304C49.9579 37.5224 49.6928 37.9648 49.3068 38.2825C48.9207 38.6002 48.4374 38.7738 47.9388 38.7738C47.4402 38.7738 46.957 38.6002 46.5709 38.2825C46.1848 37.9648 45.9197 37.5224 45.8205 37.0304C44.5298 30.7309 39.4286 29.0643 37.2917 28.6788C36.4981 28.5234 35.6917 28.4443 34.8832 28.4425Z" fill="white"/>
</g>
</g>
<circle cx="81.1666" cy="10.8333" r="7.33333" fill="#FF3750" stroke="#FAF5ED" stroke-width="3"/>
<defs>
<filter id="filter0_d" x="0" y="0.166656" width="95.8333" height="95.8333" filterUnits="userSpaceOnUse" color-interpolation-filters="sRGB">
<feFlood flood-opacity="0" result="BackgroundImageFix"/>
<feColorMatrix in="SourceAlpha" type="matrix" values="0 0 0 0 0 0 0 0 0 0 0 0 0 0 0 0 0 0 127 0" result="hardAlpha"/>
<feOffset dy="4"/>
<feGaussianBlur stdDeviation="5"/>
<feComposite in2="hardAlpha" operator="out"/>
<feColorMatrix type="matrix" values="0 0 0 0 0 0 0 0 0 0 0 0 0 0 0 0 0 0 0.1 0"/>
<feBlend mode="normal" in2="BackgroundImageFix" result="effect1_dropShadow"/>
<feBlend mode="normal" in="SourceGraphic" in2="effect1_dropShadow" result="shape"/>
</filter>
<clipPath id="clip0">
<rect width="53.7727" height="44.1212" fill="white" transform="translate(21.0304 24.0906)"/>
</clipPath>
</defs>
</svg>
