<svg width="33" height="33" viewBox="0 0 33 33" fill="none" xmlns="http://www.w3.org/2000/svg">
<rect width="33" height="33" rx="11" fill="#F0B4A0"/>
<path d="M26.2369 18.1225C26.0716 17.9082 25.7639 17.8683 25.5494 18.0336C25.3349 18.1989 25.2951 18.5067 25.4604 18.7211C25.9643 19.3748 26.2307 20.1579 26.2307 20.9856C26.2307 21.2563 26.4502 21.4758 26.7209 21.4758C26.9916 21.4758 27.2111 21.2562 27.2111 20.9856C27.2111 19.9393 26.8742 18.9493 26.2369 18.1225Z" fill="white"/>
<path d="M24.5896 14.834C25.5849 14.1623 26.2407 13.0242 26.2407 11.7359C26.2407 9.67598 24.5648 8.0001 22.5049 8.0001C20.445 8.0001 18.7691 9.67598 18.7691 11.7359C18.7691 13.0236 19.4242 14.1612 20.4188 14.8331C19.6942 15.0784 19.0159 15.4519 18.4137 15.9416C17.9041 15.4515 17.2202 15.1692 16.5 15.1692C15.7799 15.1692 15.096 15.4516 14.5868 15.9416C13.9843 15.4519 13.3059 15.0784 12.5813 14.8331C13.5758 14.1612 14.231 13.0236 14.231 11.7358C14.231 9.67588 12.5551 8 10.4952 8C8.4355 8 6.75986 9.67588 6.75986 11.7358C6.75986 13.0241 7.41548 14.1621 8.4106 14.8339C5.85259 15.7031 4.0062 18.1261 4.00068 20.9731C4.00054 20.9775 4 20.9816 4 20.9859C4 21.7385 4.42764 22.8492 6.46504 23.8668C7.9168 24.5919 9.91182 25.1369 12.2345 25.4429C13.5969 25.6226 15.032 25.7138 16.5 25.7138C17.9684 25.7138 19.4037 25.6227 20.7661 25.4429C23.0885 25.1369 25.0834 24.5919 26.5351 23.8668C28.5724 22.8491 29 21.7385 29 20.9859C29 18.1334 27.1516 15.7045 24.5896 14.834ZM19.7495 11.7359C19.7495 10.2166 20.9856 8.98052 22.5049 8.98052C24.0242 8.98052 25.2603 10.2166 25.2603 11.7359C25.2603 13.255 24.0242 14.4908 22.5049 14.4908C20.9856 14.4908 19.7495 13.255 19.7495 11.7359ZM15.0374 16.9154C15.3705 16.4359 15.9171 16.1496 16.5 16.1496C17.0832 16.1496 17.63 16.4359 17.963 16.9154C17.9631 16.9156 17.9632 16.9157 17.9632 16.9158C18.171 17.2146 18.2808 17.5654 18.2808 17.9305C18.2808 18.9125 17.4819 19.7113 16.5 19.7113C15.5182 19.7113 14.7196 18.9124 14.7196 17.9304C14.7196 17.5648 14.8293 17.2141 15.0374 16.9154ZM7.74019 11.7359C7.74019 10.2166 8.97603 8.98052 10.4951 8.98052C12.0144 8.98052 13.2504 10.2166 13.2504 11.7359C13.2504 13.255 12.0144 14.4908 10.4951 14.4908C8.97603 14.4908 7.74019 13.255 7.74019 11.7359ZM11.8085 24.3922C9.83174 24.0912 8.14424 23.6096 6.90317 22.9897C5.66685 22.3723 4.98462 21.6629 4.98066 20.9918C4.98066 20.9898 4.98096 20.9879 4.98096 20.9859C4.98091 17.9451 7.45459 15.4712 10.4951 15.4712C11.7887 15.4712 13.0228 15.9181 14.0104 16.7366C13.8323 17.1066 13.7393 17.5124 13.7393 17.9305C13.7393 18.7839 14.1285 19.548 14.7385 20.0549C13.0251 20.7516 11.813 22.4326 11.8085 24.3922ZM20.2118 24.5234C19.0194 24.6625 17.7732 24.7335 16.5 24.7335C15.2271 24.7335 13.9811 24.6625 12.7887 24.5234V24.403C12.7887 22.3566 14.4536 20.6918 16.5 20.6918C18.5467 20.6918 20.2118 22.3566 20.2118 24.403V24.5234ZM26.097 22.9897C24.856 23.6096 23.1687 24.0911 21.1921 24.3921C21.1876 22.4326 19.9754 20.7516 18.2619 20.0549C18.8721 19.548 19.2614 18.7838 19.2614 17.9304C19.2614 17.5127 19.1683 17.1069 18.99 16.7365C19.9772 15.918 21.2112 15.4711 22.505 15.4711C25.5458 15.4711 28.0196 17.9451 28.0196 20.9858C28.0196 21.6588 27.3368 22.3704 26.097 22.9897Z" fill="white"/>
<path d="M24.768 16.9712C24.1372 16.9712 24.136 17.9516 24.768 17.9516C25.3988 17.9516 25.3998 16.9712 24.768 16.9712Z" fill="white"/>
</svg>
