<svg width="33" height="33" viewBox="0 0 33 33" fill="none" xmlns="http://www.w3.org/2000/svg">
<rect width="33" height="33" rx="11" fill="#F0B4A0"/>
<path d="M28.9778 20.5714C28.791 19.4168 28.3346 18.33 27.6504 17.4101C26.9661 16.4902 26.0756 15.7664 25.06 15.3045L24.6722 15.1289L24.9941 14.8415C25.439 14.4439 25.7959 13.9475 26.0396 13.3874C26.2833 12.8272 26.4078 12.2171 26.4042 11.6003C26.4156 11.0529 26.3237 10.5086 26.134 9.99937C25.9442 9.49013 25.6604 9.02619 25.2993 8.63478C24.9381 8.24337 24.5068 7.93239 24.0307 7.72007C23.5546 7.50776 23.0433 7.39839 22.5269 7.39839C22.0104 7.39839 21.4991 7.50776 21.023 7.72007C20.5469 7.93239 20.1156 8.24337 19.7544 8.63478C19.3933 9.02619 19.1095 9.49013 18.9197 9.99937C18.73 10.5086 18.6381 11.0529 18.6495 11.6003C18.6474 12.2171 18.7733 12.8268 19.0183 13.3863C19.2633 13.9457 19.6214 14.4412 20.0671 14.8375L20.391 15.1249L20.0031 15.3005C19.6759 15.4516 19.361 15.6312 19.0618 15.8374C18.2854 16.3609 17.6209 17.0509 17.1113 17.8631L16.9683 18.0927L16.7536 17.941C16.2302 17.5717 15.6686 17.2671 15.0799 17.0329L14.6281 16.8553L15.0197 16.5539C15.6582 16.0613 16.1776 15.4156 16.5356 14.6695C16.8936 13.9234 17.0799 13.098 17.0793 12.2609C17.0793 9.35903 14.8954 7 12.2108 7C9.52606 7 7.34405 9.35903 7.34405 12.2609C7.3435 13.098 7.52983 13.9234 7.8878 14.6695C8.24577 15.4156 8.76522 16.0613 9.40369 16.5539L9.79528 16.8553L9.34156 17.0329C7.9739 17.5881 6.76536 18.5097 5.83388 19.7077C4.90239 20.9058 4.27978 22.3393 4.02678 23.8685C3.98286 24.1304 3.99382 24.3994 4.05889 24.6564C4.12396 24.9133 4.24154 25.152 4.40331 25.3554C4.56087 25.5566 4.75822 25.7186 4.98141 25.83C5.20459 25.9414 5.44814 25.9995 5.69483 26H18.7267C18.9736 26.0008 19.2176 25.944 19.4414 25.8336C19.6652 25.7232 19.8635 25.562 20.022 25.3614C20.1833 25.1577 20.3006 24.919 20.3656 24.6621C20.4307 24.4053 20.4419 24.1364 20.3985 23.8745C20.3326 23.4828 20.2426 23.0962 20.1293 22.7169L20.0238 22.3597H27.579C27.7866 22.3589 27.9915 22.3095 28.179 22.2149C28.3664 22.1204 28.5319 21.9831 28.6634 21.8128C28.7984 21.6429 28.8965 21.4437 28.9508 21.2292C29.0051 21.0147 29.0144 20.7901 28.9778 20.5714ZM19.6266 11.6003C19.6167 11.19 19.6845 10.7817 19.8258 10.3995C19.9671 10.0174 20.1791 9.66905 20.4494 9.37513C20.7197 9.0812 21.0428 8.84761 21.3996 8.68811C21.7563 8.52862 22.1396 8.44645 22.5269 8.44645C22.9141 8.44645 23.2974 8.52862 23.6541 8.68811C24.0109 8.84761 24.334 9.0812 24.6043 9.37513C24.8746 9.66905 25.0866 10.0174 25.2279 10.3995C25.3692 10.7817 25.437 11.19 25.4271 11.6003C25.437 12.0107 25.3692 12.4189 25.2279 12.8011C25.0866 13.1833 24.8746 13.5316 24.6043 13.8255C24.334 14.1194 24.0109 14.353 23.6541 14.5125C23.2974 14.672 22.9141 14.7542 22.5269 14.7542C22.1396 14.7542 21.7563 14.672 21.3996 14.5125C21.0428 14.353 20.7197 14.1194 20.4494 13.8255C20.1791 13.5316 19.9671 13.1833 19.8258 12.8011C19.6845 12.4189 19.6167 12.0107 19.6266 11.6003V11.6003ZM8.33057 12.2609C8.33057 9.93183 10.0664 8.03582 12.2108 8.03582C14.3551 8.03582 16.1004 9.93183 16.1004 12.2609C16.1119 13.3674 15.7088 14.4336 14.9796 15.2254C14.2503 16.0172 13.2545 16.4698 12.2108 16.484C11.1688 16.4667 10.1757 16.0127 9.44856 15.2213C8.72145 14.43 8.31949 13.3656 8.33057 12.2609V12.2609ZM19.2727 24.6908C19.206 24.7757 19.1226 24.8441 19.0282 24.891C18.9338 24.9379 18.8309 24.9622 18.7267 24.9622H5.69483C5.59041 24.9623 5.48728 24.9378 5.39287 24.8905C5.29846 24.8432 5.21512 24.7743 5.14885 24.6888C5.07867 24.6014 5.02773 24.4986 4.99973 24.3878C4.97172 24.277 4.96735 24.1609 4.98694 24.0481C5.6214 20.2561 8.65815 17.5179 12.2089 17.5179C15.7596 17.5179 18.8001 20.2661 19.4383 24.0501C19.4574 24.1632 19.4524 24.2795 19.4238 24.3903C19.3951 24.5011 19.3435 24.6038 19.2727 24.6908V24.6908ZM27.9104 21.1482C27.8697 21.2014 27.8184 21.2443 27.7601 21.2737C27.7017 21.303 27.6379 21.3181 27.5734 21.3179H19.5908L19.5193 21.1702C19.0941 20.3265 18.5443 19.5604 17.8908 18.901L17.7439 18.7473L17.8569 18.5477C18.3506 17.7035 19.0391 17.0066 19.8573 16.5226C20.6755 16.0387 21.5965 15.7836 22.5334 15.7815C23.8513 15.7923 25.1235 16.2953 26.1262 17.202C27.1289 18.1088 27.7979 19.3612 28.0158 20.7391C28.0286 20.8113 28.0258 20.8856 28.0075 20.9565C27.9892 21.0274 27.956 21.0929 27.9104 21.1482V21.1482Z" fill="white"/>
</svg>
