<svg width="33" height="33" viewBox="0 0 33 33" fill="none" xmlns="http://www.w3.org/2000/svg">
<rect width="33" height="33" rx="11" fill="#F0B4A0"/>
<path d="M18.719 11.6582C18.719 11.5018 18.657 11.3517 18.5466 11.2411C18.4362 11.1305 18.2864 11.0684 18.1302 11.0684C17.974 11.0684 17.8243 11.1305 17.7138 11.2411C17.6034 11.3517 17.5414 11.5018 17.5414 11.6582V18.1142C17.5414 18.2707 17.6034 18.4207 17.7138 18.5313C17.8243 18.6419 17.974 18.7041 18.1302 18.7041C18.2864 18.7041 18.4362 18.6419 18.5466 18.5313C18.657 18.4207 18.719 18.2707 18.719 18.1142V11.6582Z" fill="white"/>
<path d="M21.9402 11.6582C21.9402 11.5018 21.8782 11.3517 21.7678 11.2411C21.6573 11.1305 21.5076 11.0684 21.3514 11.0684C21.1952 11.0684 21.0455 11.1305 20.935 11.2411C20.8246 11.3517 20.7626 11.5018 20.7626 11.6582V14.8873C20.7626 14.9648 20.7778 15.0415 20.8074 15.113C20.837 15.1846 20.8804 15.2496 20.935 15.3044C20.9897 15.3592 21.0546 15.4026 21.1261 15.4323C21.1975 15.4619 21.2741 15.4772 21.3514 15.4772C21.4287 15.4772 21.5053 15.4619 21.5767 15.4323C21.6482 15.4026 21.7131 15.3592 21.7678 15.3044C21.8225 15.2496 21.8658 15.1846 21.8954 15.113C21.925 15.0415 21.9402 14.9648 21.9402 14.8873V11.6582Z" fill="white"/>
<path d="M15.4978 11.6582C15.4978 11.5018 15.4358 11.3517 15.3253 11.2411C15.2149 11.1305 15.0651 11.0684 14.909 11.0684C14.7528 11.0684 14.603 11.1305 14.4926 11.2411C14.3822 11.3517 14.3201 11.5018 14.3201 11.6582V14.2974H12.2765V11.6582C12.2765 11.5018 12.2145 11.3517 12.1041 11.2411C11.9936 11.1305 11.8439 11.0684 11.6877 11.0684C11.5315 11.0684 11.3818 11.1305 11.2713 11.2411C11.1609 11.3517 11.0989 11.5018 11.0989 11.6582V18.1142C11.0989 18.2707 11.1609 18.4207 11.2713 18.5313C11.3818 18.6419 11.5315 18.7041 11.6877 18.7041C11.8439 18.7041 11.9936 18.6419 12.1041 18.5313C12.2145 18.4207 12.2765 18.2707 12.2765 18.1142V15.4772H14.3201V18.1142C14.3201 18.2707 14.3822 18.4207 14.4926 18.5313C14.603 18.6419 14.7528 18.7041 14.909 18.7041C15.0651 18.7041 15.2149 18.6419 15.3253 18.5313C15.4358 18.4207 15.4978 18.2707 15.4978 18.1142V11.6582Z" fill="white"/>
<path d="M21.3514 18.7046C21.6766 18.7046 21.9402 18.4405 21.9402 18.1148C21.9402 17.789 21.6766 17.5249 21.3514 17.5249C21.0262 17.5249 20.7626 17.789 20.7626 18.1148C20.7626 18.4405 21.0262 18.7046 21.3514 18.7046Z" fill="white"/>
<path d="M22.9643 7.84193H10.0749C8.27032 7.83074 6.53051 8.51503 5.21559 9.75319C3.90067 10.9914 3.11131 12.6886 3.0109 14.4936C2.91049 16.2986 3.50671 18.0731 4.67616 19.45C5.84561 20.8268 7.49875 21.7005 9.29341 21.8903L9.48608 21.9098V24.5685C9.48651 24.6752 9.51568 24.7797 9.57052 24.8711C9.62535 24.9625 9.70382 25.0374 9.79762 25.0878C9.89142 25.1382 9.99707 25.1623 10.1034 25.1576C10.2098 25.1528 10.3129 25.1194 10.4018 25.0608L15.0865 21.938H22.9643C24.8303 21.938 26.6198 21.1954 27.9393 19.8737C29.2587 18.5519 30 16.7592 30 14.89C30 13.0207 29.2587 11.228 27.9393 9.90625C26.6198 8.58449 24.8303 7.84193 22.9643 7.84193V7.84193ZM22.9643 20.7517H14.909C14.7925 20.7518 14.6787 20.7865 14.5821 20.8515L10.6659 23.4669V21.3416C10.6653 21.185 10.6028 21.0349 10.492 20.9244C10.3813 20.8138 10.2313 20.7517 10.0749 20.7517C8.52213 20.7517 7.03295 20.1338 5.93496 19.0339C4.83698 17.934 4.22014 16.4422 4.22014 14.8867C4.22014 13.3312 4.83698 11.8394 5.93496 10.7395C7.03295 9.63958 8.52213 9.02166 10.0749 9.02166H22.9643C24.5171 9.02166 26.0063 9.63958 27.1042 10.7395C28.2022 11.8394 28.8191 13.3312 28.8191 14.8867C28.8191 16.4422 28.2022 17.934 27.1042 19.0339C26.0063 20.1338 24.5171 20.7517 22.9643 20.7517Z" fill="white"/>
</svg>
