<svg width="33" height="33" viewBox="0 0 33 33" fill="none" xmlns="http://www.w3.org/2000/svg">
<rect width="33" height="33" rx="11" fill="#F0B4A0"/>
<path d="M16.4994 4.97656C16.2298 4.97656 16.0111 5.19517 16.0111 5.46484V8.36978C16.0111 8.63945 16.2298 8.85806 16.4994 8.85806C16.769 8.85806 16.9877 8.63945 16.9877 8.36978V5.46484C16.9877 5.19517 16.769 4.97656 16.4994 4.97656Z" fill="white"/>
<path d="M13.7326 9.14556L12.5644 7.97833C12.3735 7.7877 12.0644 7.78785 11.8738 7.97862C11.6832 8.16939 11.6834 8.47852 11.8741 8.66915L13.0424 9.83638C13.1378 9.93165 13.2627 9.97925 13.3875 9.97925C13.5126 9.97925 13.6376 9.9315 13.7329 9.83609C13.9235 9.64532 13.9234 9.33619 13.7326 9.14556Z" fill="white"/>
<path d="M21.1259 7.97933C20.9351 7.78865 20.6259 7.78885 20.4353 7.97957L19.1933 9.22259C19.0027 9.41336 19.0028 9.72249 19.1935 9.91312C19.2889 10.0084 19.4139 10.056 19.5387 10.056C19.6638 10.056 19.7888 10.0083 19.8841 9.91287L21.1262 8.66985C21.3167 8.47908 21.3166 8.16995 21.1259 7.97933Z" fill="white"/>
<path d="M25.8018 17.8671H25.4077C25.7293 17.4479 25.921 16.9241 25.921 16.3562V15.6671C25.921 14.2954 24.8052 13.1796 23.4336 13.1796C22.062 13.1796 20.9461 14.2954 20.9461 15.667V16.2027L17.2728 12.5293C17.0689 12.3255 16.7691 12.26 16.5 12.3572C16.2311 12.26 15.9312 12.3255 15.7273 12.5293L12.054 16.2027V15.667C12.0539 14.2954 10.938 13.1796 9.56641 13.1796C8.19482 13.1796 7.07896 14.2954 7.07896 15.667V16.3561C7.07896 16.9241 7.2707 17.4478 7.59229 17.867H7.19824C5.43472 17.8671 4 19.3018 4 21.0653V27.535C4 27.8047 4.21865 28.0233 4.48828 28.0233H6.55127C6.6001 28.0233 6.64717 28.0159 6.69165 28.0026C6.73613 28.0159 6.7832 28.0233 6.83203 28.0233H12.3008C12.5704 28.0233 12.7891 27.8047 12.7891 27.535V25.8749C12.7891 25.6052 12.5704 25.3866 12.3008 25.3866C12.0312 25.3866 11.8125 25.6052 11.8125 25.8749V27.0468H7.32031V21.4829C7.32031 21.2133 7.10166 20.9947 6.83203 20.9947C6.5624 20.9947 6.34375 21.2133 6.34375 21.4829V27.0468H4.97656V21.0653C4.97656 19.8403 5.97319 18.8436 7.19824 18.8436H10.5918C10.7262 18.8436 10.8479 18.7893 10.9361 18.7015C10.9365 18.7012 10.9368 18.701 10.9371 18.7007L16.0088 13.6289C15.9756 14.6429 15.6602 15.6197 15.0915 16.4642L11.8958 21.2102C11.8416 21.2908 11.8125 21.3858 11.8125 21.4829V22.0175C11.8125 22.2871 12.0312 22.5057 12.3008 22.5057C12.5705 22.5057 12.7891 22.2871 12.7891 22.0175V21.632L15.9016 17.0096C16.1394 16.6564 16.3388 16.2833 16.5 15.8959C16.6613 16.2833 16.8607 16.6564 17.0985 17.0096L20.2109 21.632V27.535C20.2109 27.8047 20.4296 28.0233 20.6992 28.0233H26.168C26.2168 28.0233 26.2639 28.0159 26.3083 28.0026C26.3528 28.0159 26.3999 28.0233 26.4487 28.0233H28.5117C28.7813 28.0233 29 27.8047 29 27.535V21.0653C29 19.3018 27.5653 17.8671 25.8018 17.8671ZM11.0773 16.3561C11.0773 17.1893 10.3996 17.8671 9.56641 17.8671C8.73325 17.8671 8.05552 17.1893 8.05552 16.3562V15.6671C8.05552 14.8339 8.7333 14.1561 9.56641 14.1561C10.3995 14.1561 11.0773 14.8339 11.0773 15.667V16.3561ZM21.9227 15.667C21.9227 14.8339 22.6005 14.1561 23.4336 14.1561C24.2667 14.1561 24.9445 14.8339 24.9445 15.667V16.3561C24.9445 17.1893 24.2667 17.8671 23.4336 17.8671C22.6004 17.8671 21.9227 17.1893 21.9227 16.3562V15.667ZM28.0234 27.0468H26.6562V23.4335C26.6562 23.1638 26.4376 22.9452 26.168 22.9452C25.8983 22.9452 25.6797 23.1638 25.6797 23.4335V27.0468H21.1875V21.4829C21.1875 21.3858 21.1585 21.2908 21.1042 21.2102L17.9085 16.4643C17.3399 15.6197 17.0245 14.643 16.9912 13.6289L22.0629 18.7007C22.0694 18.7071 22.0754 18.7125 22.0813 18.7174C22.1679 18.7956 22.2823 18.8437 22.4082 18.8437H25.8018C27.0268 18.8437 28.0234 19.8404 28.0234 21.0654V27.0468V27.0468Z" fill="white"/>
<path d="M26.5131 21.1377C26.4224 21.0469 26.2964 20.9946 26.168 20.9946C26.0396 20.9946 25.9136 21.0469 25.8228 21.1377C25.7319 21.2285 25.6797 21.3545 25.6797 21.4829C25.6797 21.6113 25.7319 21.7373 25.8228 21.8281C25.9136 21.9189 26.0396 21.9712 26.168 21.9712C26.2964 21.9712 26.4224 21.9189 26.5131 21.8281C26.604 21.7373 26.6562 21.6113 26.6562 21.4829C26.6562 21.3545 26.604 21.229 26.5131 21.1377Z" fill="white"/>
<path d="M12.6459 23.7231C12.5552 23.6323 12.4292 23.5801 12.3008 23.5801C12.1724 23.5801 12.0464 23.6323 11.9556 23.7231C11.8647 23.814 11.8125 23.9399 11.8125 24.0684C11.8125 24.1968 11.8647 24.3228 11.9556 24.4136C12.0464 24.5044 12.1724 24.5566 12.3008 24.5566C12.4292 24.5566 12.5552 24.5044 12.6459 24.4136C12.7368 24.3228 12.7891 24.1968 12.7891 24.0684C12.7891 23.9399 12.7368 23.814 12.6459 23.7231Z" fill="white"/>
</svg>
