<svg width="33" height="33" viewBox="0 0 33 33" fill="none" xmlns="http://www.w3.org/2000/svg">
<rect width="33" height="33" rx="11" fill="#F0B4A0"/>
<path d="M27.594 21.5805L27.4002 21.513V21.3123C27.4342 19.4821 26.9717 17.6753 26.0586 16.0721C25.1456 14.4689 23.814 13.1253 22.1967 12.1755C21.0884 11.5292 19.8707 11.0779 18.5998 10.8423L18.2316 10.7711L18.3944 10.4448C18.5326 10.1729 18.6055 9.87415 18.6075 9.57108C18.6161 9.2981 18.5679 9.02624 18.4659 8.77162C18.3638 8.51699 18.2099 8.28479 18.0134 8.08877C17.8168 7.89276 17.5816 7.73692 17.3216 7.6305C17.0617 7.52407 16.7823 7.46924 16.5 7.46924C16.2177 7.46924 15.9383 7.52407 15.6783 7.6305C15.4184 7.73692 15.1831 7.89276 14.9866 8.08877C14.79 8.28479 14.6362 8.51699 14.5341 8.77162C14.4321 9.02624 14.3839 9.2981 14.3924 9.57108C14.3938 9.87402 14.466 10.1727 14.6037 10.4448L14.7665 10.7711L14.3982 10.8423C13.1274 11.0771 11.9097 11.5278 10.8013 12.1736C9.18381 13.1233 7.85193 14.4668 6.93856 16.07C6.02519 17.6732 5.56225 19.4801 5.59591 21.3105V21.5111L5.40211 21.5786C4.93402 21.7386 4.53955 22.0537 4.28855 22.4682C4.03754 22.8826 3.94619 23.3695 4.03067 23.8429C4.11515 24.3162 4.37 24.7453 4.75011 25.0543C5.13023 25.3633 5.61108 25.5322 6.10754 25.5311H26.8924C27.3891 25.5326 27.8702 25.3639 28.2505 25.0548C28.6308 24.7457 28.8856 24.3163 28.9697 23.8427C29.0538 23.3692 28.9617 22.8821 28.7099 22.4679C28.458 22.0538 28.0627 21.7394 27.594 21.5805V21.5805ZM16.499 8.51545C16.7874 8.51098 17.0657 8.61751 17.2729 8.81161C17.4801 9.00571 17.599 9.27148 17.6037 9.55045C17.6083 9.82943 17.4982 10.0988 17.2976 10.2992C17.0969 10.4996 16.8222 10.6147 16.5339 10.6192H16.4738C16.1855 10.616 15.9103 10.502 15.7087 10.3025C15.5072 10.1029 15.3959 9.83411 15.3992 9.55514C15.4025 9.27617 15.5203 9.0099 15.7266 8.81492C15.9328 8.61994 16.2107 8.51222 16.499 8.51545V8.51545ZM6.61529 21.1717C6.61526 18.6433 7.65019 16.2179 9.4937 14.4259C11.3372 12.6338 13.8392 11.6211 16.4525 11.6092H16.5358C19.1521 11.6166 21.6586 12.6274 23.5059 14.4199C25.3532 16.2124 26.3905 18.6404 26.3905 21.1717V21.453H6.60948L6.61529 21.1717ZM26.8963 24.5467H6.10754C5.96052 24.5527 5.81376 24.5299 5.6761 24.4796C5.53843 24.4293 5.41271 24.3525 5.30648 24.254C5.20026 24.1555 5.11573 24.0372 5.05799 23.9062C5.00025 23.7753 4.97048 23.6344 4.97048 23.492C4.97048 23.3496 5.00025 23.2087 5.05799 23.0778C5.11573 22.9468 5.20026 22.8285 5.30648 22.73C5.41271 22.6315 5.53843 22.5548 5.6761 22.5045C5.81376 22.4542 5.96052 22.4313 6.10754 22.4373H26.8924C27.1736 22.4488 27.4393 22.5649 27.6341 22.7615C27.8288 22.958 27.9375 23.2197 27.9375 23.492C27.9375 23.7643 27.8288 24.026 27.6341 24.2226C27.4393 24.4191 27.1736 24.5352 26.8924 24.5467H26.8963Z" fill="white"/>
<path d="M16.499 14.7031C17.4386 14.7034 18.3676 14.8953 19.2254 15.2661C20.0833 15.637 20.8507 16.1786 21.4777 16.8556C21.5698 16.9497 21.6957 17.0061 21.8295 17.013C21.9632 17.02 22.0947 16.9771 22.1967 16.8931C22.2966 16.8055 22.3567 16.6833 22.364 16.553C22.3712 16.4228 22.325 16.295 22.2355 16.1975V16.1975C21.5123 15.4184 20.6279 14.7951 19.6396 14.3681C18.6514 13.9411 17.5814 13.7198 16.499 13.7188C16.3695 13.7265 16.248 13.7817 16.1591 13.8732C16.0702 13.9646 16.0208 14.0854 16.0208 14.2109C16.0208 14.3365 16.0702 14.4573 16.1591 14.5487C16.248 14.6402 16.3695 14.6954 16.499 14.7031V14.7031Z" fill="white"/>
</svg>
