<svg width="33" height="33" viewBox="0 0 33 33" fill="none" xmlns="http://www.w3.org/2000/svg">
<rect width="33" height="33" rx="11" fill="#F0B4A0"/>
<path d="M28.569 17.4755C28.3951 17.1356 28.2135 16.786 28.2135 16.4989C28.2135 16.2118 28.3951 15.868 28.569 15.5223C28.817 15.038 29.0748 14.536 28.9713 14.0126C28.8678 13.4891 28.4049 13.0809 27.9948 12.7391C27.7116 12.4989 27.4088 12.2509 27.317 12.0067C27.2252 11.7626 27.2448 11.3661 27.2741 10.9911C27.319 10.4423 27.3639 9.87586 27.0631 9.42859C26.7623 8.98133 26.2155 8.79968 25.6959 8.63172C25.3385 8.51648 24.9694 8.39734 24.7799 8.20789C24.5905 8.01843 24.4713 7.64929 24.3561 7.29187C24.1881 6.76648 24.0143 6.22351 23.5592 5.92468C23.1041 5.62586 22.5436 5.66883 21.9967 5.71375C21.6217 5.74304 21.233 5.77429 20.9811 5.67078C20.7291 5.56726 20.4889 5.28015 20.2487 4.99304C19.9069 4.58484 19.5182 4.12976 18.9752 4.02234C18.4323 3.91492 17.9498 4.17664 17.4713 4.42468C17.1256 4.59851 16.776 4.78015 16.4948 4.78015C16.2135 4.78015 15.8639 4.59851 15.5182 4.42468C15.0397 4.17664 14.5416 3.91883 14.0123 4.02234C13.483 4.12586 13.0826 4.58875 12.7408 4.9989C12.5006 5.27429 12.2526 5.5614 12.0026 5.66883C11.7526 5.77625 11.3619 5.74109 10.9869 5.71179C10.7701 5.69422 10.5455 5.67664 10.3268 5.68054C10.2342 5.689 10.1483 5.73225 10.0864 5.80157C10.0244 5.87088 9.9911 5.96111 9.99308 6.05404C9.99507 6.14697 10.0322 6.23569 10.0971 6.30231C10.1619 6.36892 10.2496 6.40847 10.3424 6.41297C10.5381 6.41268 10.7337 6.42246 10.9283 6.44226C11.3893 6.47937 11.8678 6.51648 12.2838 6.34461C12.6998 6.17273 12.9967 5.81531 13.2936 5.4657C13.5905 5.11609 13.8639 4.79968 14.151 4.74109C14.4381 4.6825 14.8112 4.88562 15.1862 5.07703C15.6061 5.28992 16.0377 5.51258 16.4948 5.51258C16.9518 5.51258 17.3834 5.28992 17.7994 5.07703C18.1725 4.88172 18.5592 4.6864 18.8326 4.74109C19.1061 4.79578 19.4186 5.13172 19.6901 5.4657C19.9616 5.79968 20.2936 6.17664 20.6998 6.34461C21.1061 6.51258 21.5944 6.47937 22.067 6.44226C22.4889 6.40711 22.9264 6.37195 23.1647 6.53211C23.403 6.69226 23.526 7.1239 23.6608 7.51453C23.8014 7.95398 23.9479 8.40906 24.2643 8.72351C24.5807 9.03797 25.0338 9.18445 25.4733 9.32703C25.8795 9.45593 26.2994 9.5907 26.4616 9.83289C26.6237 10.0751 26.5866 10.5087 26.5514 10.9325C26.5143 11.3934 26.4752 11.872 26.6491 12.288C26.8229 12.704 27.1783 13.0009 27.528 13.2977C27.8776 13.5946 28.194 13.8622 28.2526 14.1532C28.3112 14.4442 28.108 14.8153 27.9166 15.1884C27.7037 15.6044 27.4811 16.036 27.4811 16.493C27.4811 16.9501 27.7037 17.3817 27.9166 17.7977C28.1119 18.1727 28.3073 18.5575 28.2526 18.8329C28.1979 19.1083 27.9381 19.3387 27.653 19.5829L25.8287 19.0145C25.983 18.439 26.0843 17.8507 26.1315 17.2567C26.1323 17.1637 26.0978 17.0738 26.0349 17.0052C25.972 16.9366 25.8855 16.8945 25.7927 16.8873C25.6999 16.8801 25.6079 16.9084 25.5352 16.9665C25.4625 17.0245 25.4145 17.108 25.401 17.2001C25.3598 17.7413 25.2682 18.2774 25.1276 18.8016L16.6041 16.1493C16.5403 16.1296 16.4724 16.1278 16.4076 16.1439C16.3428 16.1599 16.2836 16.1934 16.2364 16.2406C16.1892 16.2878 16.1558 16.347 16.1397 16.4117C16.1236 16.4765 16.1255 16.5445 16.1451 16.6083L18.7975 25.1337C17.023 25.6073 15.1458 25.5226 13.4212 24.8912C11.6966 24.2597 10.2084 23.1123 9.15928 21.6049C8.11012 20.0975 7.55092 18.3034 7.55779 16.4669C7.56466 14.6304 8.13726 12.8405 9.19766 11.3411C10.2581 9.84157 11.7548 8.70524 13.484 8.08674C15.2133 7.46824 17.0912 7.39761 18.862 7.88446C20.6329 8.37131 22.2107 9.392 23.3807 10.8076C24.5508 12.2232 25.2562 13.9649 25.401 15.7958C25.4145 15.8878 25.4625 15.9713 25.5352 16.0294C25.6079 16.0875 25.6999 16.1157 25.7927 16.1086C25.8855 16.1014 25.972 16.0592 26.0349 15.9906C26.0978 15.9221 26.1323 15.8322 26.1315 15.7391C25.9733 13.7602 25.209 11.8782 23.9427 10.3492C22.6764 8.82033 20.9696 7.71887 19.0548 7.19485C17.1399 6.67084 15.1101 6.74975 13.2418 7.42083C11.3734 8.0919 9.75729 9.32254 8.61349 10.9451C7.46969 12.5678 6.85381 14.5035 6.8497 16.4887C6.8456 18.4739 7.45348 20.4122 8.59056 22.0395C9.72765 23.6668 11.3387 24.9041 13.2042 25.5829C15.0698 26.2617 17.0993 26.349 19.0162 25.8329L19.5846 27.6571C19.3405 27.9423 19.0885 28.2059 18.8346 28.2567C18.5807 28.3075 18.1725 28.1122 17.7994 27.9208C17.3834 27.7079 16.9518 27.4872 16.4948 27.4872C16.0377 27.4872 15.6061 27.7079 15.1901 27.9208C14.817 28.1161 14.4303 28.3114 14.1549 28.2567C13.8795 28.202 13.569 27.8661 13.2994 27.5321C13.0299 27.1981 12.6959 26.8212 12.2897 26.6532C11.8834 26.4852 11.3951 26.5184 10.9323 26.5575C10.5104 26.5907 10.0729 26.6259 9.8346 26.4657C9.59632 26.3055 9.45764 25.8798 9.32874 25.4891C9.18616 25.0477 9.04163 24.5946 8.72522 24.2782C8.40882 23.9618 7.95569 23.8173 7.51624 23.6747C7.11975 23.5302 6.69007 23.4012 6.53382 23.1591C6.37757 22.9169 6.40882 22.4833 6.44397 22.0614C6.48108 21.5985 6.51819 21.12 6.34632 20.6942C6.17444 20.2684 5.81702 19.9813 5.46741 19.6845C5.1178 19.3876 4.79553 19.1298 4.73694 18.8427C4.67835 18.5555 4.88147 18.1825 5.07288 17.8075C5.28577 17.3876 5.50647 16.9559 5.50647 16.4989C5.50647 16.0419 5.28577 15.6102 5.07288 15.1942C4.87757 14.8212 4.68225 14.4345 4.73694 14.161C4.79163 13.8876 5.12757 13.5751 5.46155 13.3036C5.79553 13.0321 6.17249 12.7001 6.34046 12.2938C6.50843 11.8876 6.47522 11.3993 6.43811 10.9364C6.40296 10.5145 6.3678 10.077 6.52796 9.83875C6.68811 9.60047 7.11975 9.46765 7.51038 9.33289C7.94983 9.19226 8.40491 9.04578 8.71936 8.72937C9.03382 8.41297 9.1803 7.95984 9.32288 7.52039C9.37837 7.33097 9.44356 7.14452 9.51819 6.96179C9.53756 6.91781 9.54807 6.87044 9.54912 6.82239C9.55018 6.77434 9.54176 6.72655 9.52435 6.68175C9.50694 6.63695 9.48088 6.59602 9.44765 6.5613C9.41442 6.52658 9.37468 6.49874 9.33069 6.47937C9.2867 6.46001 9.23933 6.4495 9.19128 6.44844C9.14323 6.44738 9.09544 6.4558 9.05065 6.47321C9.00585 6.49062 8.96492 6.51668 8.9302 6.54991C8.89547 6.58314 8.86763 6.62288 8.84827 6.66687C8.7615 6.87228 8.68587 7.08222 8.62171 7.29578C8.50647 7.6532 8.38733 8.02234 8.19788 8.21179C8.00843 8.40125 7.63928 8.52039 7.28186 8.63562C6.75647 8.80359 6.2135 8.97742 5.91468 9.4325C5.61585 9.88758 5.65882 10.4481 5.70374 10.995C5.73303 11.37 5.76428 11.7587 5.66077 12.0106C5.55725 12.2626 5.27014 12.5028 4.98303 12.743C4.58069 13.0868 4.12561 13.4755 4.01819 14.0184C3.91077 14.5614 4.17249 15.0438 4.42053 15.5223C4.59436 15.868 4.776 16.2177 4.776 16.4989C4.776 16.7802 4.59632 17.1298 4.42249 17.4755C4.17249 17.954 3.91468 18.452 4.01819 18.9794C4.12171 19.5067 4.58264 19.911 4.99475 20.2528C5.27014 20.493 5.55725 20.7411 5.66468 20.9911C5.7721 21.2411 5.73694 21.6317 5.70764 22.0067C5.66272 22.5555 5.6178 23.122 5.91858 23.5692C6.21936 24.0165 6.76624 24.1962 7.28577 24.3641C7.64319 24.4794 8.01233 24.5985 8.20178 24.788C8.39124 24.9774 8.51038 25.3466 8.62561 25.704C8.79358 26.2294 8.96741 26.7723 9.42249 27.0712C9.87757 27.37 10.4381 27.327 10.985 27.2821C11.3619 27.2528 11.7506 27.2216 12.0026 27.3251C12.2545 27.4286 12.4948 27.7157 12.735 28.0028C13.0768 28.4071 13.4655 28.8641 14.0084 28.9794C14.0889 28.9949 14.1706 29.0028 14.2526 29.0028C14.6881 29.0028 15.11 28.788 15.5182 28.577C15.858 28.4032 16.2076 28.2235 16.4948 28.2235C16.7819 28.2235 17.1256 28.4032 17.4713 28.577C17.9557 28.8251 18.4479 29.0829 18.983 28.9794C19.5182 28.8759 19.9127 28.4149 20.2545 28.0028L20.278 27.9735C20.3169 27.9267 20.3433 27.8708 20.3546 27.811C20.3658 27.7512 20.3617 27.6895 20.3424 27.6317L20.0807 26.786C20.7428 26.0946 21.1412 25.493 21.2955 24.9462C21.3907 24.6282 21.3939 24.2897 21.3047 23.97C21.2155 23.6503 21.0376 23.3624 20.7916 23.1395C20.0104 22.3583 19.6686 21.3427 19.7877 20.8368C19.8798 20.5001 20.0041 20.1731 20.1588 19.8602C20.3932 19.3427 20.651 18.7743 20.6237 18.1669L27.6276 20.3485C27.6865 20.3666 27.749 20.3696 27.8094 20.3573C27.8697 20.345 27.9261 20.3178 27.9733 20.2782L28.0026 20.2528C28.4049 19.911 28.8639 19.5223 28.9791 18.9794C29.0944 18.4364 28.8248 17.954 28.5768 17.4696L28.569 17.4755ZM19.4908 19.5595C19.3173 19.9132 19.178 20.2827 19.0748 20.663C18.8795 21.5028 19.3815 22.7606 20.2741 23.6532C20.6979 24.079 20.9557 24.6864 19.8287 25.9774L17.0514 17.0555L19.8483 17.9266C19.9948 18.452 19.7604 18.9657 19.4908 19.5595Z" fill="white"/>
<path d="M11.1805 21.1298C11.2225 21.1581 11.2696 21.178 11.3192 21.1884C11.663 21.2702 12.0213 21.2693 12.3647 21.1859C12.7081 21.1024 13.0268 20.9388 13.2948 20.7084C13.5627 20.478 13.7722 20.1874 13.9062 19.8604C14.0401 19.5333 14.0946 19.1792 14.0653 18.8271C14.0613 18.7432 14.029 18.6632 13.9737 18.6C13.9184 18.5369 13.8432 18.4943 13.7606 18.4794C13.4175 18.3989 13.0603 18.4008 12.718 18.4849C12.3758 18.569 12.0584 18.7329 11.7916 18.9632C11.5249 19.1936 11.3165 19.4838 11.1835 19.8101C11.0505 20.1364 10.9966 20.4896 11.0262 20.8407C11.028 20.898 11.0432 20.954 11.0707 21.0042C11.0982 21.0545 11.1371 21.0975 11.1844 21.1298H11.1805ZM12.2684 19.5146C12.5618 19.2691 12.9373 19.1442 13.3192 19.165C13.2888 19.5493 13.1072 19.906 12.8144 20.1567C12.5215 20.4075 12.1412 20.532 11.7567 20.5029C11.7948 20.1202 11.9779 19.7666 12.2684 19.5146V19.5146Z" fill="white"/>
<path d="M14.1004 14.4407C14.1832 14.4315 14.2604 14.3944 14.3193 14.3355C14.3782 14.2765 14.4154 14.1993 14.4246 14.1165C14.4799 13.7674 14.4515 13.4102 14.3419 13.0741C14.2323 12.7381 14.0445 12.4329 13.794 12.1835C13.5435 11.9342 13.2375 11.7478 12.9009 11.6397C12.5644 11.5317 12.207 11.505 11.8582 11.5618C11.7756 11.5711 11.6987 11.6083 11.6401 11.6673C11.5815 11.7262 11.5447 11.8034 11.5359 11.886C11.4866 12.235 11.5177 12.5905 11.6267 12.9256C11.7357 13.2607 11.9197 13.5665 12.1648 13.8196V13.8196C12.3788 14.0283 12.6322 14.1922 12.9101 14.3019C13.1881 14.4115 13.4852 14.4647 13.784 14.4583C13.8897 14.4582 13.9953 14.4523 14.1004 14.4407V14.4407ZM12.6824 13.3001C12.4159 13.0257 12.2625 12.661 12.2527 12.2786C12.6368 12.2786 13.0052 12.4306 13.2775 12.7015C13.5498 12.9723 13.7038 13.3399 13.7059 13.7239C13.3234 13.7172 12.9576 13.5658 12.6824 13.3001V13.3001Z" fill="white"/>
<path d="M19.034 11.8408C18.8048 12.1081 18.6397 12.4243 18.5513 12.7652C18.463 13.1061 18.4537 13.4626 18.5242 13.8076C18.5383 13.8896 18.5797 13.9644 18.6418 14.0198C18.7039 14.0751 18.783 14.1078 18.866 14.1123C19.3827 14.1484 19.8973 14.0184 20.3348 13.7412C20.489 13.6377 20.6289 13.5142 20.7508 13.374C20.9801 13.1063 21.1452 12.7898 21.2335 12.4486C21.3218 12.1075 21.3311 11.7506 21.2606 11.4053C21.2465 11.3235 21.2049 11.249 21.1428 11.1939C21.0807 11.1389 21.0017 11.1067 20.9188 11.1025C20.5692 11.0746 20.2178 11.1266 19.8913 11.2545C19.5648 11.3824 19.2716 11.5829 19.034 11.8408V11.8408ZM20.2059 12.8877C19.9466 13.1701 19.59 13.3438 19.2078 13.374C19.1875 12.99 19.3199 12.6136 19.576 12.3268C19.8321 12.0399 20.1912 11.866 20.575 11.8428C20.5875 12.2251 20.4557 12.5981 20.2059 12.8877V12.8877Z" fill="white"/>
</svg>
