<svg width="33" height="33" viewBox="0 0 33 33" fill="none" xmlns="http://www.w3.org/2000/svg">
<rect width="33" height="33" rx="11" fill="#FFCB00"/>
<path d="M27.7903 18.2571C28.2186 17.9328 28.5 17.4239 28.5 16.8469C28.5 15.8687 27.7041 15.0728 26.7258 15.0728C25.7475 15.0728 24.9516 15.8687 24.9516 16.8469C24.9516 17.3969 25.2085 17.8834 25.6027 18.2088C23.709 20.5004 19.9214 21.8147 16.9464 21.8147H16.352C13.3948 21.8147 9.61287 20.5117 7.71945 18.2397L7.56581 18.0552C7.86281 17.7379 8.04839 17.3146 8.04839 16.8469C8.04839 15.8687 7.25248 15.0728 6.27419 15.0728C5.2959 15.0728 4.5 15.8687 4.5 16.8469C4.5 17.4243 4.78139 17.9331 5.20968 18.2571V25.7179H4.85484C4.65887 25.7179 4.5 25.8768 4.5 26.0728V26.0728C4.5 26.2687 4.65887 26.4276 4.85484 26.4276H28.1452C28.3411 26.4276 28.5 26.2687 28.5 26.0728V26.0728C28.5 25.8768 28.3411 25.7179 28.1452 25.7179H27.7903V18.2571ZM27.0806 25.7179H26.371V18.5853C26.4856 18.6087 26.6045 18.6211 26.7258 18.6211C26.8472 18.6211 26.966 18.6087 27.0806 18.5853V25.7179ZM26.7258 15.7824C27.3127 15.7824 27.7903 16.26 27.7903 16.8469C27.7903 17.4339 27.3127 17.9115 26.7258 17.9115C26.1389 17.9115 25.6613 17.4339 25.6613 16.8469C25.6613 16.26 26.1389 15.7824 26.7258 15.7824ZM16.352 22.5244H16.9464C19.8876 22.5244 23.6561 21.3236 25.6613 19.2095V25.7179H7.33871V18.8809C9.36235 21.1976 13.2667 22.5244 16.352 22.5244ZM6.27419 15.7824C6.8611 15.7824 7.33871 16.26 7.33871 16.8469C7.33871 17.4339 6.8611 17.9115 6.27419 17.9115C5.68729 17.9115 5.20968 17.4339 5.20968 16.8469C5.20968 16.26 5.68729 15.7824 6.27419 15.7824ZM5.91935 18.5853C6.03397 18.6087 6.15284 18.6211 6.27419 18.6211C6.39555 18.6211 6.51442 18.6087 6.62903 18.5853V25.7179H5.91935V18.5853Z" fill="white" stroke="white" stroke-width="0.2"/>
<path d="M9.40318 17.9276H23.5967C23.793 17.9276 23.9516 17.7686 23.9516 17.5728V6.92759C23.9516 6.73172 23.793 6.57275 23.5967 6.57275H9.40318C9.20695 6.57275 9.04834 6.73172 9.04834 6.92759V17.5728C9.04834 17.7686 9.20695 17.9276 9.40318 17.9276ZM9.75802 7.28243H23.2419V17.2179H9.75802V7.28243Z" fill="white" stroke="white" stroke-width="0.2"/>
<path d="M18.5251 9.87017C18.3864 9.73143 18.1621 9.73143 18.0234 9.87017L16.5 11.3935L14.9767 9.87017C14.838 9.73143 14.6137 9.73143 14.475 9.87017L11.3854 12.9598H10.8226C10.6266 12.9598 10.4678 13.1186 10.4678 13.3146V13.3146C10.4678 13.5106 10.6266 13.6694 10.8226 13.6694H22.1775C22.3734 13.6694 22.5323 13.5106 22.5323 13.3146V13.3146C22.5323 13.1186 22.3734 12.9598 22.1775 12.9598H21.6147L18.5251 9.87017ZM18.2742 10.6228L20.6112 12.9598H18.0663L17.0018 11.8952L18.2742 10.6228ZM14.7258 10.6228L17.0628 12.9598H12.3889L14.7258 10.6228Z" fill="white" stroke="white" stroke-width="0.2"/>
<path d="M16.5001 10.1212C17.087 10.1212 17.5646 9.64361 17.5646 9.0567C17.5646 8.4698 17.087 7.99219 16.5001 7.99219C15.9132 7.99219 15.4355 8.4698 15.4355 9.0567C15.4355 9.64361 15.9132 10.1212 16.5001 10.1212ZM16.5001 8.70186C16.6959 8.70186 16.8549 8.86119 16.8549 9.0567C16.8549 9.25222 16.6959 9.41154 16.5001 9.41154C16.3042 9.41154 16.1452 9.25222 16.1452 9.0567C16.1452 8.86119 16.3042 8.70186 16.5001 8.70186Z" fill="white" stroke="white" stroke-width="0.2"/>
<path d="M12.5967 14.7342C12.5967 14.5383 12.7555 14.3794 12.9515 14.3794H20.0483C20.2443 14.3794 20.4031 14.5383 20.4031 14.7342V14.7342C20.4031 14.9302 20.2443 15.0891 20.0483 15.0891H12.9515C12.7555 15.0891 12.5967 14.9302 12.5967 14.7342V14.7342Z" fill="white" stroke="white" stroke-width="0.2"/>
<path d="M14.7258 16.1532C14.7258 15.9572 14.8847 15.7983 15.0807 15.7983H17.9194C18.1154 15.7983 18.2742 15.9572 18.2742 16.1532V16.1532C18.2742 16.3492 18.1154 16.508 17.9194 16.508H15.0807C14.8847 16.508 14.7258 16.3492 14.7258 16.1532V16.1532Z" fill="white" stroke="white" stroke-width="0.2"/>
</svg>
