<svg width="33" height="33" viewBox="0 0 33 33" fill="none" xmlns="http://www.w3.org/2000/svg">
<rect width="33" height="33" rx="11" fill="#FFCB00"/>
<g clip-path="url(#clip0)">
<path d="M23.0966 16.8218C21.8886 16.8218 20.9058 17.8045 20.9058 19.0125V22.9998L19.7904 19.9L20.6875 16.7969C20.8304 16.3023 20.7086 15.7802 20.3615 15.4C20.0144 15.0199 19.5053 14.8512 18.9999 14.9487L17.3833 15.2608V10.243L18.1082 6.14423C18.1804 5.73548 18.0689 5.31863 17.8021 5.00048C17.5353 4.68234 17.1443 4.5 16.7293 4.5H14.785C14.3698 4.5 13.9788 4.68239 13.712 5.00053C13.4453 5.31867 13.3337 5.73544 13.4059 6.14428L14.1308 10.2431V14.4051L12.1499 13.2368C11.5582 12.8877 10.8343 12.9459 10.3058 13.385C9.7773 13.8241 9.58751 14.525 9.82221 15.1708L11.5458 19.9124L7.93446 26.079C7.60165 26.6473 7.64637 27.3514 8.04832 27.873C8.35858 28.2755 8.82827 28.5 9.31816 28.5C9.46287 28.5 9.6093 28.4804 9.75401 28.44L15.8781 26.7302L19.9914 28.3079C20.5858 28.5358 21.2374 28.4007 21.6921 27.9553C22.0182 27.6359 22.1859 27.2118 22.1756 26.7765C22.179 26.75 22.1814 26.723 22.1814 26.6955V19.0125C22.1814 18.5078 22.592 18.0972 23.0966 18.0972C23.6012 18.0972 24.0118 18.5077 24.0118 19.0125V22.0413C24.0118 22.3935 24.2974 22.6791 24.6496 22.6791C25.0018 22.6791 25.2874 22.3935 25.2874 22.0413V19.0125C25.2873 17.8045 24.3045 16.8218 23.0966 16.8218ZM14.6892 5.82023C14.7064 5.79989 14.7367 5.77561 14.7849 5.77561H16.7292C16.7773 5.77561 16.8077 5.79984 16.8248 5.82023C16.842 5.84058 16.8605 5.87475 16.8521 5.92214L16.2107 9.54914H15.3033L14.6619 5.92214C14.6536 5.87475 14.6722 5.84058 14.6892 5.82023ZM16.1078 10.8247V16.0334V19.7218H15.4062V15.5217V10.8247H16.1078ZM20.7995 27.044C20.7538 27.0888 20.6279 27.1859 20.4482 27.1169L16.138 25.4637C16.0101 25.4147 15.8699 25.4082 15.7381 25.4449L9.41093 27.2114C9.21579 27.2657 9.09968 27.1476 9.05866 27.0943C9.01751 27.041 8.93294 26.8981 9.03513 26.7237L10.402 24.3896H15.5966C15.9488 24.3896 16.2344 24.1041 16.2344 23.7518C16.2344 23.3996 15.9488 23.1141 15.5966 23.1141H11.149L12.7979 20.2984C12.8938 20.1346 12.9118 19.9366 12.847 19.7582L11.0209 14.735C10.9489 14.5368 11.0668 14.411 11.1208 14.3661C11.1566 14.3364 11.2321 14.2858 11.3317 14.2858C11.3828 14.2858 11.4402 14.2991 11.5018 14.3355L14.1306 15.886V19.7989H14.0668C13.7147 19.7989 13.4291 20.0844 13.4291 20.4367C13.4291 20.789 13.7147 21.0745 14.0668 21.0745H17.4471C17.7993 21.0745 18.0849 20.789 18.0849 20.4367C18.0849 20.0844 17.7993 19.7989 17.4471 19.7989H17.3833V16.5598L19.2416 16.2011C19.3335 16.1835 19.3924 16.2304 19.4195 16.26C19.4465 16.2896 19.488 16.3527 19.4621 16.4425L18.5075 19.7443C18.4702 19.8734 18.4745 20.011 18.5201 20.1374L20.8796 26.6944C20.9448 26.8753 20.8453 26.9992 20.7995 27.044Z" fill="white"/>
<path d="M18.1349 23.6274C18.1273 23.5866 18.1145 23.5464 18.0986 23.5082C18.0827 23.4699 18.0628 23.4329 18.0399 23.3978C18.0169 23.3634 17.9902 23.3309 17.9608 23.3015C17.8129 23.1529 17.5922 23.0853 17.3855 23.1268C17.3447 23.1351 17.3045 23.1471 17.2656 23.1631C17.2273 23.1791 17.1903 23.1989 17.1559 23.2218C17.1208 23.2454 17.0883 23.2716 17.059 23.3016C17.0296 23.3309 17.0028 23.3634 16.9792 23.3979C16.9568 23.4329 16.9371 23.4699 16.9212 23.5082C16.9053 23.5465 16.8925 23.5867 16.8848 23.6275C16.8765 23.6689 16.8721 23.7104 16.8721 23.7518C16.8721 23.7939 16.8765 23.8354 16.8848 23.8769C16.8925 23.9177 16.9052 23.9579 16.9212 23.9961C16.9371 24.0344 16.9569 24.0714 16.9792 24.1064C17.0028 24.1409 17.0296 24.174 17.059 24.2034C17.0883 24.2327 17.1208 24.2595 17.1559 24.2825C17.1904 24.3054 17.2273 24.3252 17.2656 24.3411C17.3045 24.3571 17.3447 24.3692 17.3855 24.3775C17.4264 24.3858 17.4685 24.3896 17.5099 24.3896C17.6776 24.3896 17.8421 24.322 17.9608 24.2034C18.0794 24.0841 18.1477 23.9202 18.1477 23.7518C18.1476 23.7104 18.1433 23.6689 18.1349 23.6274Z" fill="white"/>
</g>
<defs>
<clipPath id="clip0">
<rect width="24" height="24" fill="white" transform="translate(4.5 4.5)"/>
</clipPath>
</defs>
</svg>
