<svg width="33" height="33" viewBox="0 0 33 33" fill="none" xmlns="http://www.w3.org/2000/svg">
<rect width="33" height="33" rx="11" fill="#FFCB00"/>
<g clip-path="url(#clip0)">
<path d="M28.5 13.5371C28.5 12.8034 28.2339 12.0959 27.7507 11.5448C27.5801 11.3501 27.2839 11.3307 27.0892 11.5013C26.8946 11.672 26.8751 11.9681 27.0458 12.1628C27.379 12.5429 27.5625 13.0309 27.5625 13.5371C27.5625 14.6872 26.6268 15.6229 25.4767 15.6229H19.8446L23.8316 12.1311C24.0264 11.9605 24.046 11.6644 23.8755 11.4697C23.7049 11.2749 23.4087 11.2553 23.214 11.4258L20.2866 13.9896C20.2425 13.1222 19.7441 12.373 19.0254 11.975C18.9759 11.2043 18.5803 10.5267 17.9925 10.096C18.1134 9.04664 19.0068 8.229 20.088 8.229C20.3469 8.229 20.5568 8.01914 20.5568 7.76025C20.5568 7.50136 20.3469 7.2915 20.088 7.2915C18.6329 7.2915 17.4135 8.31689 17.1124 9.68288C16.9162 9.63394 16.7112 9.60755 16.5 9.60755C16.2889 9.60755 16.0839 9.63394 15.8877 9.68288C15.5867 8.31689 14.3672 7.2915 12.912 7.2915C12.6532 7.2915 12.4433 7.50136 12.4433 7.76025C12.4433 8.01914 12.6532 8.229 12.912 8.229C13.9933 8.229 14.8867 9.04664 15.0076 10.096C14.4198 10.5267 14.0242 11.2043 13.9747 11.975C13.256 12.3731 12.7576 13.1223 12.7135 13.9896L9.66356 11.3185C9.07102 10.7996 8.31098 10.5138 7.52334 10.5138C5.85623 10.5138 4.5 11.8701 4.5 13.5371C4.5 15.2041 5.85623 16.5604 7.5233 16.5604H7.77797C7.52391 16.9201 7.374 17.3583 7.374 17.8312C7.374 19.0261 8.34609 19.9982 9.54098 19.9982C10.128 19.9982 10.6979 19.7553 11.1044 19.3317L11.9291 18.4725C11.8227 19.6711 12.1887 20.894 13.0044 21.853L16.143 25.5432C16.2321 25.6479 16.3626 25.7082 16.5 25.7082C16.6375 25.7082 16.768 25.6479 16.8571 25.5432L19.9957 21.853C20.8114 20.894 21.1774 19.6711 21.071 18.4725L21.8957 19.3317C22.3022 19.7552 22.872 19.9981 23.4591 19.9981C24.654 19.9981 25.626 19.0261 25.626 17.8312C25.626 17.3583 25.4761 16.92 25.2221 16.5603H25.4767C27.1438 16.5604 28.5 15.2041 28.5 13.5371V13.5371ZM18.8287 16.5604C19.1621 16.5604 19.4727 16.7342 19.6393 17.0141C19.9463 17.5301 20.1135 18.0993 20.1458 18.6722H12.8542C12.8866 18.0993 13.0537 17.5302 13.3608 17.0142C13.5274 16.7343 13.838 16.5604 14.1713 16.5604H18.8287V16.5604ZM14.9766 11.6701C15.1772 11.0193 15.7843 10.5451 16.5 10.5451C17.2157 10.5451 17.8228 11.0193 18.0234 11.6701H14.9766ZM15.1554 12.6076H17.8446C18.6759 12.6076 19.3522 13.2839 19.3522 14.1152C19.3522 14.9465 18.6759 15.6229 17.8446 15.6229H15.1554C14.3241 15.6229 13.6478 14.9465 13.6478 14.1152C13.6478 13.2839 14.3241 12.6076 15.1554 12.6076ZM5.4375 13.5371C5.4375 12.387 6.37317 11.4513 7.5233 11.4513C8.08359 11.4513 8.62434 11.6546 9.04584 12.0237L13.1554 15.6228H7.5233C6.37317 15.6229 5.4375 14.6872 5.4375 13.5371V13.5371ZM10.428 18.6826C10.1974 18.9229 9.87403 19.0607 9.54098 19.0607C8.86303 19.0607 8.3115 18.5092 8.3115 17.8312C8.3115 17.1305 8.88159 16.5604 9.58233 16.5604H12.4649L10.428 18.6826ZM16.5 24.516L14.9205 22.659H18.0795L16.5 24.516ZM19.2816 21.2456L18.8769 21.7214H14.1231L13.7184 21.2456C13.3093 20.7646 13.0422 20.2001 12.9218 19.6096H20.0782C19.9578 20.2001 19.6907 20.7646 19.2816 21.2456ZM24.6885 17.8312C24.6885 18.5092 24.137 19.0607 23.4591 19.0607C23.126 19.0607 22.8027 18.9229 22.572 18.6826L20.5352 16.5604H23.4177C24.1185 16.5604 24.6885 17.1305 24.6885 17.8312Z" fill="white"/>
<path d="M25.4766 11.4512C25.6003 11.4512 25.7208 11.401 25.808 11.3138C25.8956 11.2266 25.9453 11.1057 25.9453 10.9824C25.9453 10.8591 25.8956 10.7382 25.808 10.651C25.7208 10.5638 25.6003 10.5137 25.4766 10.5137C25.3533 10.5137 25.2323 10.5638 25.1452 10.651C25.058 10.7382 25.0078 10.8591 25.0078 10.9824C25.0078 11.1057 25.058 11.2266 25.1452 11.3138C25.2323 11.401 25.3533 11.4512 25.4766 11.4512Z" fill="white"/>
</g>
<defs>
<clipPath id="clip0">
<rect width="24" height="24" fill="white" transform="translate(4.5 4.5)"/>
</clipPath>
</defs>
</svg>
