<svg width="33" height="33" viewBox="0 0 33 33" fill="none" xmlns="http://www.w3.org/2000/svg">
<rect width="33" height="33" rx="11" fill="#FFCB00"/>
<g clip-path="url(#clip0)">
<path d="M23.6672 21.3883C24.0377 20.7594 23.9533 19.9343 23.4138 19.3949L20.0349 16.0156C21.7069 16.1774 23.3906 15.3579 24.5741 14.1745C26.5121 12.2363 27.1626 9.2225 25.444 7.50432C25.444 7.50432 25.444 7.50416 25.4438 7.50416C25.4438 7.50416 25.4438 7.50416 25.4438 7.504C23.6654 5.72623 20.6281 6.51979 18.7738 8.37414C17.5632 9.58459 16.7738 11.2762 16.9321 12.9129L13.5534 9.53412C13.0138 8.99499 12.189 8.91055 11.5602 9.28098L8.75987 6.48117C8.11932 5.83998 7.08111 5.83934 6.44008 6.48085C5.79889 7.12172 5.79841 8.15993 6.43992 8.8008L9.23988 11.6011C8.86946 12.2301 8.95389 13.0551 9.49302 13.5947L13.2423 17.3438L7.17099 22.5949C6.22362 23.3979 6.04114 24.9312 7.03368 25.9239C8.02014 26.9107 9.55102 26.7442 10.3611 25.7885L15.605 19.7063L19.3536 23.4548C19.8953 23.9963 20.7206 24.0775 21.3472 23.7081L24.1579 26.5189C24.7986 27.16 25.8368 27.1606 26.4778 26.5191C27.1192 25.8784 27.1195 24.8402 26.478 24.1992L23.6672 21.3883ZM24.851 8.09729C24.8778 8.9889 23.0029 11.1052 22.2539 11.8542C21.3456 12.7627 19.3198 14.4775 18.4968 14.4514C18.4699 13.5597 20.3398 11.4484 21.0936 10.6946C21.853 9.93514 23.9817 8.06621 24.851 8.09729ZM23.9942 13.5945C22.5948 14.9935 20.7416 15.5267 19.399 15.0408C20.5586 14.5228 21.9347 13.3335 22.8339 12.4344C23.7328 11.5354 24.921 10.1607 25.4401 9.00059C25.978 10.4921 25.2362 12.3525 23.9942 13.5945V13.5945ZM19.3538 8.95429C20.7541 7.55399 22.6062 7.02111 23.9488 7.50753C22.7884 8.02615 21.4132 9.21465 20.5136 10.1144C19.6144 11.0136 18.4256 12.389 17.9072 13.5493C17.4212 12.2064 17.9546 10.3532 19.3538 8.95429ZM7.02007 7.061C7.3397 6.74105 7.85848 6.7396 8.17972 7.061L10.9432 9.82411L9.78318 10.9844L7.01991 8.22066C6.70011 7.90118 6.69835 7.3824 7.02007 7.061ZM9.73768 25.2556C9.23251 25.8515 8.25823 25.9886 7.61383 25.3439C6.9728 24.7029 7.10514 23.7259 7.70451 23.218L13.8239 17.9254L15.0236 19.1247L9.73768 25.2556ZM19.9338 22.8748L10.0732 13.0147C9.75354 12.6947 9.75354 12.1742 10.0732 11.8544L11.8133 10.1143C12.1329 9.79479 12.6535 9.79447 12.9736 10.1141C12.988 10.1287 22.8101 19.9513 22.8337 19.9749C23.1537 20.2947 23.1537 20.815 22.8337 21.135L21.0939 22.8748C20.7741 23.1946 20.2536 23.1946 19.9338 22.8748ZM25.8979 25.9391C25.5774 26.2597 25.0588 26.2599 24.7382 25.939L21.964 23.1648L23.1237 22.0051L25.898 24.7793C26.2178 25.0989 26.2196 25.6176 25.8979 25.9391V25.9391Z" fill="white"/>
<path d="M16.2837 17.0747C16.2837 17.3013 16.1001 17.4849 15.8735 17.4849C15.647 17.4849 15.4634 17.3013 15.4634 17.0747C15.4634 16.8482 15.647 16.6646 15.8735 16.6646C16.1001 16.6646 16.2837 16.8482 16.2837 17.0747Z" fill="white"/>
<path d="M11.8132 12.434C11.653 12.274 11.3934 12.274 11.2332 12.434C11.073 12.5942 11.073 12.8539 11.2332 13.0142L14.2783 16.0593C14.4387 16.2195 14.6982 16.2195 14.8584 16.0593C15.0187 15.8992 15.0187 15.6395 14.8584 15.4793L11.8132 12.434Z" fill="white"/>
</g>
<defs>
<clipPath id="clip0">
<rect width="21" height="21" fill="white" transform="translate(6 6)"/>
</clipPath>
</defs>
</svg>
