<svg width="75" height="75" viewBox="0 0 75 75" fill="none" xmlns="http://www.w3.org/2000/svg">
<rect width="75" height="75" rx="15" fill="#FFCB00"/>
<g clip-path="url(#clip0)">
<path d="M64.0306 23.0792C63.9042 22.8107 63.6862 22.596 63.4159 22.4737C63.1455 22.3513 62.8404 22.3293 62.5553 22.4115C62.2682 22.504 62.0248 22.6982 61.8711 22.9578C61.7173 23.2173 61.6639 23.5241 61.7208 23.8203V56.3628C61.7208 58.1321 60.8529 58.9934 59.0504 58.9934H40.5849C40.4108 58.9975 40.237 59.0109 40.0642 59.0335C39.8773 59.0335 39.4367 59.1136 39.3966 59.0335C39.3131 58.7934 39.2924 58.536 39.3365 58.2857C39.3544 58.0635 39.3544 57.8402 39.3365 57.618C39.3622 57.5984 39.3918 57.5848 39.4233 57.5779C40.7331 57.1479 42.0716 56.811 43.4289 56.5697C47.0205 55.9555 50.6789 56.3628 54.1103 56.8235C55.764 57.0481 57.3994 57.3917 59.0037 57.8517C59.1966 57.9212 59.403 57.9453 59.6068 57.9221C59.8105 57.8989 60.0062 57.8292 60.1786 57.7181C60.3429 57.5824 60.4736 57.4106 60.5604 57.216C60.6473 57.0214 60.688 56.8094 60.6793 56.5965V19.5606C60.6893 19.4138 60.6893 19.2666 60.6793 19.1199C60.6616 18.8952 60.5763 18.6811 60.4344 18.5058C60.2926 18.3306 60.101 18.2025 59.8849 18.1384C59.1972 17.9321 58.4904 17.7956 57.7753 17.7311C57.4945 17.7038 57.2139 17.7846 56.9906 17.957C56.7673 18.1295 56.6182 18.3806 56.5737 18.6592C56.5092 18.9394 56.5542 19.2337 56.6994 19.4818C56.8445 19.73 57.079 19.9134 57.3547 19.9946C57.6307 20.0934 57.9176 20.1584 58.2093 20.1882L58.3361 20.2282C58.3462 20.2812 58.3462 20.3355 58.3361 20.3885C58.3361 32.006 58.3361 43.6235 58.3361 55.2411C55.4828 54.5826 52.5801 54.1606 49.6575 53.9792C45.8856 53.6743 42.0918 54.1656 38.5221 55.4213C38.4224 55.457 38.3165 55.4719 38.2108 55.465C38.1052 55.4581 38.0021 55.4296 37.9079 55.3813C35.3955 54.3673 32.7059 53.8656 29.997 53.9057C26.0143 53.9491 22.0463 54.3965 18.154 55.2411H18.0472V55.1342C18.0472 41.28 18.0472 30.6039 18.0472 20.522C18.0472 20.1815 18.0472 20.1481 18.441 20.068C22.1301 19.2761 25.8847 18.8291 29.6565 18.7327C32.0608 18.674 34.454 19.0774 36.7062 19.9211C36.9599 20.0146 37 20.0747 37 20.3417C36.9822 30.98 36.9733 41.625 36.9733 52.2766V52.9443C36.9647 53.1903 36.9826 53.4365 37.0267 53.6787C37.0572 53.8386 37.1219 53.99 37.2164 54.1226C37.3108 54.2551 37.4329 54.3656 37.5741 54.4465C37.719 54.5254 37.8787 54.5733 38.043 54.5871C38.2074 54.6009 38.3728 54.5803 38.5288 54.5267C38.7347 54.4505 38.9317 54.3519 39.1162 54.2329C44.0078 51.332 49.1567 48.8891 54.4975 46.9352C54.841 46.8717 55.146 46.676 55.3469 46.3901C55.5479 46.1043 55.6288 45.7511 55.5723 45.4062V11.0077C55.6064 10.7001 55.5378 10.3899 55.3771 10.1254C55.2165 9.86095 54.973 9.65703 54.6844 9.54546H54.1637L53.8633 9.64561L53.5094 9.7925C49.257 11.5038 45.1435 13.5418 41.2058 15.8884L41.0456 15.9818C40.7251 16.1688 40.378 16.3624 40.0776 16.5827C39.9507 16.6646 39.8412 16.7708 39.7557 16.8952C39.6701 17.0196 39.61 17.1598 39.579 17.3076C39.5479 17.4554 39.5465 17.6079 39.5748 17.7562C39.6031 17.9046 39.6605 18.0458 39.7438 18.1718C39.8964 18.4187 40.136 18.5994 40.4152 18.6785C40.6944 18.7576 40.9931 18.7293 41.2525 18.5991C41.4286 18.5146 41.6002 18.421 41.7666 18.3187C44.8283 16.4719 47.9934 14.8022 51.2463 13.3178C51.7804 13.0775 52.3211 12.8504 52.8819 12.6168L53.1957 12.4832V44.6384C53.1957 44.8521 53.1957 44.8521 53.0755 44.8988C48.3425 46.6616 43.7591 48.8028 39.3699 51.3018V19.6941C39.3699 19.5606 39.3699 19.427 39.3699 19.3002C39.3702 19.0542 39.2982 18.8137 39.1629 18.6083C39.0276 18.403 38.8349 18.2419 38.6089 18.1451C36.4994 17.1927 34.2405 16.6143 31.933 16.4359C30.1395 16.3381 28.3413 16.3694 26.5522 16.5293C23.3113 16.727 20.0955 17.2232 16.9456 18.0116C15.8975 18.2786 15.6572 18.5924 15.6572 19.6874V56.4095C15.6471 56.5317 15.6471 56.6545 15.6572 56.7767C15.6679 56.9638 15.7195 57.1462 15.8083 57.3111C15.8971 57.4761 16.021 57.6196 16.1712 57.7315C16.3251 57.83 16.4984 57.8941 16.6793 57.9195C16.8601 57.9448 17.0444 57.9308 17.2194 57.8784C20.6581 57.04 24.1665 56.5192 27.7005 56.3227C30.4469 56.0684 33.2165 56.345 35.8584 57.1373L35.9853 57.1773C36.9666 57.5045 36.9666 57.5045 36.9599 58.6729C36.9509 58.7438 36.9509 58.8156 36.9599 58.8866C36.9599 58.9333 36.9599 58.9667 36.9599 58.98H36.7597C31.419 58.98 26.0916 58.98 20.7776 58.98H17.2861C15.5037 58.98 14.6158 58.1121 14.6158 56.3094V23.8537C14.6321 23.676 14.6321 23.4972 14.6158 23.3196C14.5774 23.0523 14.4445 22.8076 14.2412 22.63C14.0378 22.4523 13.7776 22.3535 13.5076 22.3514C13.2372 22.3246 12.9665 22.3993 12.7481 22.5609C12.5298 22.7226 12.3793 22.9597 12.3259 23.2261C12.2815 23.4186 12.2635 23.6163 12.2725 23.8137V56.5297C12.2633 57.0122 12.324 57.4934 12.4528 57.9585C12.7179 58.9712 13.3228 59.862 14.1662 60.4819C15.0096 61.1018 16.0403 61.4131 17.0858 61.3636H59.1973C59.8292 61.3887 60.4599 61.289 61.0532 61.0702C61.6466 60.8514 62.191 60.5177 62.6554 60.0884C63.4158 59.3333 63.9161 58.3559 64.084 57.2975V23.1593L64.0306 23.0792Z" fill="white"/>
<path d="M21.9993 43.4499C22.0791 43.4598 22.1598 43.4598 22.2396 43.4499L22.5668 43.3832L22.7403 43.3431C25.0137 42.8206 27.3453 42.5962 29.6766 42.6754C30.7219 42.7118 31.7624 42.8346 32.7875 43.0427C32.9418 43.0885 33.1038 43.1024 33.2636 43.0835C33.4234 43.0645 33.5776 43.0131 33.7169 42.9324C33.8561 42.8517 33.9774 42.7434 34.0733 42.6142C34.1692 42.4849 34.2377 42.3374 34.2746 42.1808C34.3115 42.0241 34.316 41.8616 34.2878 41.7031C34.2596 41.5446 34.1994 41.3936 34.1108 41.2592C34.0222 41.1249 33.9071 41.01 33.7725 40.9218C33.638 40.8335 33.4868 40.7736 33.3283 40.7459L32.9678 40.639H32.8877C31.3047 40.3331 29.6924 40.2055 28.081 40.2585C26.7387 40.2931 25.4003 40.4202 24.0755 40.639C23.3545 40.7525 22.5801 40.9195 21.7122 41.1331C21.5613 41.1687 21.4191 41.2344 21.2941 41.3261C21.169 41.4179 21.0638 41.5339 20.9846 41.6673C20.9044 41.8052 20.8531 41.958 20.8336 42.1163C20.8141 42.2747 20.8268 42.4354 20.8711 42.5886C20.9354 42.8379 21.0816 43.0583 21.2862 43.2145C21.4908 43.3707 21.7419 43.4536 21.9993 43.4499V43.4499Z" fill="white"/>
<path d="M20.8444 47.6496C20.8916 47.9155 21.036 48.1543 21.2494 48.3196C21.4629 48.4849 21.7302 48.565 21.9993 48.5443C22.1521 48.5419 22.3042 48.524 22.4533 48.4909C26.4588 47.6229 29.7233 47.5094 32.7475 48.137C32.9133 48.1749 33.085 48.1791 33.2525 48.1493C33.4199 48.1194 33.5797 48.0562 33.7222 47.9634C33.8478 47.8807 33.9556 47.7737 34.0393 47.6488C34.123 47.5238 34.1809 47.3833 34.2095 47.2357C34.2441 47.0754 34.245 46.9097 34.2121 46.7491C34.1793 46.5884 34.1133 46.4364 34.0185 46.3027C33.9237 46.1689 33.8021 46.0563 33.6614 45.9721C33.5208 45.8879 33.3641 45.8339 33.2015 45.8135C31.9963 45.5394 30.7655 45.3939 29.5297 45.3795V45.3795C26.9755 45.3342 24.4257 45.6079 21.9392 46.1941C20.7309 46.4879 20.771 47.3091 20.8444 47.6496Z" fill="white"/>
<path d="M21.2917 27.8798C21.5042 28.0238 21.7561 28.0985 22.0127 28.0934C22.154 28.0907 22.2948 28.0751 22.4333 28.0467C25.7955 27.1825 29.3047 27.0549 32.7208 27.6728C32.8945 27.7124 33.0743 27.7169 33.2497 27.6859C33.4252 27.655 33.5926 27.5892 33.7422 27.4925C33.8676 27.4063 33.9742 27.2956 34.0556 27.1671C34.1371 27.0386 34.1917 26.8949 34.2162 26.7447C34.2456 26.5836 34.2416 26.4182 34.2044 26.2587C34.1672 26.0991 34.0976 25.949 33.9999 25.8175C33.9023 25.686 33.7786 25.576 33.6367 25.4943C33.4947 25.4126 33.3375 25.361 33.1748 25.3426C31.7198 25.0354 30.2357 24.8876 28.7487 24.902V24.902C26.445 24.8959 24.1493 25.1717 21.9126 25.7232C21.7523 25.7364 21.5963 25.7818 21.454 25.8568C21.3117 25.9317 21.186 26.0346 21.0843 26.1593C20.9827 26.2839 20.9073 26.4279 20.8627 26.5824C20.818 26.7369 20.805 26.8989 20.8244 27.0585C20.8365 27.2215 20.8847 27.3798 20.9656 27.5218C21.0464 27.6639 21.1578 27.7861 21.2917 27.8798V27.8798Z" fill="white"/>
<path d="M22.0262 38.3155C22.1537 38.3138 22.2809 38.3026 22.4067 38.2821L22.567 38.2421H22.6604C25.0961 37.6741 27.5999 37.4538 30.0974 37.5878C30.9853 37.6412 31.8398 37.7747 32.7677 37.9216C32.9519 37.9605 33.1425 37.9585 33.3258 37.9159C33.5092 37.8732 33.681 37.7908 33.8292 37.6746C33.9545 37.5637 34.0541 37.4268 34.121 37.2734C34.1879 37.12 34.2204 36.9539 34.2164 36.7866C34.2164 36.1189 33.8225 35.7316 33.0481 35.5714C31.5408 35.284 30.0096 35.1409 28.4751 35.1441H27.941L26.6059 35.2242C25.0116 35.347 23.4292 35.5926 21.8727 35.9586C21.7052 35.9789 21.5437 36.0339 21.3988 36.1203C21.2538 36.2067 21.1286 36.3225 21.0311 36.4603C20.9336 36.598 20.8661 36.7547 20.8328 36.9201C20.7995 37.0855 20.8013 37.2561 20.8379 37.4208C20.8912 37.6901 21.0418 37.9303 21.2611 38.0953C21.4803 38.2604 21.7528 38.3388 22.0262 38.3155V38.3155Z" fill="white"/>
<path d="M20.8444 32.3065C20.8973 32.5738 21.0458 32.8128 21.262 32.9786C21.4782 33.1445 21.7475 33.226 22.0194 33.2078H22.2464L22.5668 33.141C25.1304 32.5367 27.7687 32.3118 30.3976 32.4734C31.1926 32.5423 31.9836 32.6515 32.7675 32.8005H32.8744C33.177 32.8437 33.4846 32.7686 33.7332 32.5907C33.9819 32.4129 34.1525 32.1461 34.2095 31.8458C34.2699 31.5575 34.2159 31.2571 34.059 31.0079C33.902 30.7588 33.6544 30.5804 33.3684 30.5104C32.6409 30.3128 31.8967 30.1832 31.1453 30.1232C28.944 29.9312 26.7278 30.0006 24.5429 30.3301C23.6106 30.4624 22.6859 30.6429 21.7724 30.871C21.6145 30.8991 21.4642 30.9594 21.3307 31.0482C21.1971 31.1369 21.0833 31.2522 20.9963 31.3869C20.9092 31.5215 20.8508 31.6727 20.8247 31.8309C20.7986 31.9891 20.8053 32.151 20.8444 32.3065V32.3065Z" fill="white"/>
<path d="M41.3861 44.4982C41.4454 44.6328 41.5317 44.7538 41.6396 44.8537C41.7476 44.9536 41.8749 45.0303 42.0136 45.0791C42.1398 45.125 42.2733 45.1476 42.4075 45.1458C42.6393 45.144 42.8677 45.0892 43.0751 44.9856L43.9029 44.585C46.045 43.5001 48.2446 42.5328 50.492 41.6873C50.7233 41.6057 50.9247 41.4563 51.07 41.2586C51.2152 41.0609 51.2976 40.8241 51.3065 40.5789V40.392C51.2859 40.299 51.2592 40.2076 51.2263 40.1182C51.1649 39.966 51.0723 39.8283 50.9544 39.714C50.8365 39.5997 50.696 39.5115 50.5419 39.4548C50.3878 39.3982 50.2235 39.3745 50.0597 39.3853C49.8959 39.3961 49.7361 39.441 49.5908 39.5173C47.3309 40.3428 45.1237 41.3061 42.9816 42.4017L42.0403 42.8624C41.8854 42.921 41.7443 43.0112 41.6261 43.1272C41.5079 43.2432 41.4151 43.3826 41.3535 43.5364C41.292 43.6902 41.2631 43.8551 41.2688 44.0207C41.2744 44.1863 41.3143 44.3489 41.3861 44.4982V44.4982Z" fill="white"/>
<path d="M51.2597 24.942C51.22 24.7918 51.1497 24.6514 51.0532 24.5296C50.9567 24.4078 50.8361 24.3073 50.699 24.2343C50.5097 24.1508 50.305 24.1076 50.0981 24.1076C49.8912 24.1076 49.6866 24.1508 49.4973 24.2343C47.0875 25.1453 44.7315 26.1931 42.4409 27.3724L42.0203 27.5793C41.8677 27.6406 41.7294 27.7327 41.614 27.8499C41.4987 27.9671 41.4087 28.1068 41.3498 28.2603C41.2909 28.4139 41.2643 28.5779 41.2717 28.7422C41.2791 28.9065 41.3203 29.0675 41.3928 29.2151C41.4583 29.3662 41.5582 29.4998 41.6845 29.6053C41.8109 29.7108 41.9602 29.7852 42.1205 29.8227C42.2096 29.8473 42.3018 29.8586 42.3942 29.8561C42.6493 29.8511 42.9001 29.7896 43.1285 29.6758L43.7961 29.3353C45.9518 28.2375 48.1672 27.2612 50.4319 26.4109C50.6708 26.338 50.8807 26.1917 51.0317 25.9927C51.1827 25.7938 51.2671 25.5523 51.2731 25.3026V25.1757C51.2741 25.0976 51.2696 25.0195 51.2597 24.942V24.942Z" fill="white"/>
<path d="M42.4075 40.0314C42.639 40.0331 42.8676 39.9805 43.0751 39.8779L44.1433 39.3638C46.2218 38.3168 48.3544 37.3807 50.5321 36.5595C50.7614 36.4811 50.9602 36.3325 51.1004 36.1348C51.2406 35.9371 51.315 35.7002 51.3132 35.4579V35.4579C51.3147 35.2161 51.2348 34.9809 51.0862 34.7902C50.9106 34.5609 50.6614 34.3992 50.3804 34.3323C50.0995 34.2654 49.8041 34.2974 49.5441 34.423C47.2293 35.2799 44.9687 36.2765 42.7747 37.4075L42.0203 37.7747C41.7104 37.9262 41.4712 38.1918 41.3528 38.5158C41.3031 38.6668 41.2846 38.8264 41.2984 38.9847C41.3121 39.1431 41.3579 39.297 41.4329 39.4372C41.5261 39.6154 41.6661 39.7648 41.8378 39.8695C42.0095 39.9742 42.2065 40.0302 42.4075 40.0314V40.0314Z" fill="white"/>
<path d="M49.6041 19.0398C47.2769 19.8925 45.0049 20.8893 42.8014 22.0243L41.9803 22.4249C41.7704 22.5226 41.5918 22.6767 41.4645 22.8701C41.3372 23.0635 41.2661 23.2884 41.2593 23.5199L41.306 23.7936C41.3381 23.9617 41.4092 24.12 41.5136 24.2556C41.6179 24.3913 41.7526 24.5006 41.9068 24.5748C42.0572 24.6448 42.2217 24.6791 42.3875 24.6749C42.674 24.6676 42.9549 24.5945 43.2086 24.4613L44.0965 24.034C46.1429 22.9914 48.247 22.0663 50.3986 21.2631C50.5688 21.2105 50.7268 21.1243 50.8633 21.0096C50.9997 20.895 51.1118 20.7541 51.193 20.5955C51.2525 20.4562 51.2832 20.3063 51.2832 20.1548C51.2832 20.0033 51.2525 19.8534 51.193 19.7141C51.1374 19.5621 51.0512 19.4232 50.9397 19.3059C50.8282 19.1886 50.6938 19.0954 50.5449 19.0322C50.3959 18.9689 50.2355 18.937 50.0737 18.9383C49.9119 18.9396 49.7521 18.9742 49.6041 19.0398V19.0398Z" fill="white"/>
<path d="M50.105 29.1684C49.9006 29.1774 49.6994 29.2226 49.5108 29.3019C47.1825 30.1678 44.9086 31.1733 42.7014 32.3131L41.9871 32.6603C41.8434 32.7254 41.714 32.8185 41.6066 32.9341C41.4429 33.0943 41.3298 33.2992 41.2816 33.5231C41.2333 33.7471 41.252 33.9803 41.3352 34.1938C41.4185 34.4072 41.5626 34.5915 41.7497 34.7237C41.9368 34.8558 42.1587 34.93 42.3877 34.9371H42.4611C42.7462 34.9202 43.0231 34.8355 43.2689 34.6901L43.5893 34.5365C45.7954 33.4068 48.0619 32.3993 50.3787 31.5186C50.5313 31.4731 50.6756 31.4032 50.8059 31.3116C51.0083 31.1689 51.16 30.9655 51.2393 30.7309C51.3186 30.4963 51.3213 30.2426 51.247 30.0063C51.1727 29.7701 51.0253 29.5636 50.826 29.4166C50.6268 29.2695 50.386 29.1897 50.1384 29.1884L50.105 29.1684Z" fill="white"/>
</g>
<defs>
<clipPath id="clip0">
<rect width="51.8182" height="51.8182" fill="white" transform="translate(12.2727 9.54546)"/>
</clipPath>
</defs>
</svg>
