<svg width="80" height="80" viewBox="0 0 80 80" fill="none" xmlns="http://www.w3.org/2000/svg">
<rect y="4.375" width="75.625" height="75.625" rx="15" fill="#FFCB00"/>
<g clip-path="url(#clip0)">
<path d="M64.5644 27.6466C64.4369 27.3759 64.2171 27.1594 63.9445 27.0361C63.6719 26.9127 63.3642 26.8905 63.0767 26.9734C62.7872 27.0666 62.5418 27.2625 62.3868 27.5242C62.2318 27.7859 62.1779 28.0952 62.2353 28.3939V61.2076C62.2353 62.9916 61.3602 63.8601 59.5427 63.8601H40.9233C40.7477 63.8643 40.5724 63.8778 40.3983 63.9005C40.2098 63.9005 39.7655 63.9813 39.7251 63.9005C39.6409 63.6585 39.62 63.3989 39.6645 63.1465C39.6825 62.9224 39.6825 62.6973 39.6645 62.4732C39.6904 62.4535 39.7202 62.4398 39.752 62.4329C41.0727 61.9992 42.4224 61.6595 43.7909 61.4163C47.4125 60.7969 51.1014 61.2076 54.5614 61.6721C56.2289 61.8986 57.8779 62.2451 59.4955 62.7089C59.6901 62.7789 59.8982 62.8032 60.1036 62.7799C60.3091 62.7565 60.5064 62.6862 60.6803 62.5742C60.8459 62.4374 60.9777 62.2641 61.0653 62.0679C61.1529 61.8717 61.1939 61.6579 61.1852 61.4432V24.0987C61.1952 23.9507 61.1952 23.8023 61.1852 23.6543C61.1673 23.4277 61.0812 23.2118 60.9382 23.0352C60.7952 22.8585 60.602 22.7293 60.3841 22.6647C59.6907 22.4566 58.978 22.319 58.257 22.254C57.9738 22.2264 57.6909 22.3079 57.4657 22.4818C57.2406 22.6557 57.0902 22.9089 57.0453 23.1898C56.9803 23.4724 57.0257 23.769 57.172 24.0193C57.3184 24.2695 57.5548 24.4544 57.8329 24.5363C58.1111 24.636 58.4005 24.7015 58.6945 24.7315L58.8224 24.7719C58.8326 24.8253 58.8326 24.8801 58.8224 24.9335C58.8224 36.6478 58.8224 48.3622 58.8224 60.0765C55.9453 59.4126 53.0184 58.987 50.0714 58.8041C46.2682 58.4967 42.4428 58.9921 38.8433 60.2583C38.7428 60.2943 38.636 60.3092 38.5294 60.3023C38.4229 60.2953 38.319 60.2666 38.224 60.2179C35.6907 59.1955 32.9786 58.6896 30.2471 58.73C26.2313 58.7738 22.2302 59.225 18.3054 60.0765H18.1977V59.9688C18.1977 45.9991 18.1977 35.234 18.1977 25.0681C18.1977 24.7248 18.1977 24.6911 18.5949 24.6103C22.3146 23.8118 26.1006 23.3611 29.9038 23.2639C32.3282 23.2047 34.7413 23.6115 37.0123 24.4622C37.2681 24.5565 37.3085 24.6171 37.3085 24.8864C37.2905 35.6133 37.2816 46.347 37.2816 57.0873V57.7606C37.2729 58.0087 37.291 58.2569 37.3354 58.5011C37.3661 58.6624 37.4314 58.8151 37.5267 58.9487C37.6219 59.0823 37.745 59.1938 37.8874 59.2754C38.0335 59.3549 38.1945 59.4032 38.3602 59.4171C38.5259 59.431 38.6927 59.4102 38.85 59.3562C39.0577 59.2793 39.2563 59.18 39.4424 59.0599C44.3747 56.1349 49.5665 53.6716 54.9518 51.7014C55.2982 51.6374 55.6057 51.4401 55.8083 51.1518C56.0109 50.8636 56.0925 50.5074 56.0356 50.1597V15.4745C56.0699 15.1644 56.0007 14.8516 55.8388 14.5849C55.6768 14.3182 55.4312 14.1126 55.1403 14.0001H54.6152L54.3123 14.1011L53.9555 14.2492C49.6677 15.9747 45.5199 18.0298 41.5493 20.3959L41.3878 20.4901C41.0647 20.6786 40.7146 20.8739 40.4117 21.096C40.2837 21.1786 40.1734 21.2856 40.0871 21.4111C40.0008 21.5366 39.9403 21.6779 39.909 21.8269C39.8777 21.9759 39.8762 22.1297 39.9048 22.2793C39.9333 22.4289 39.9912 22.5713 40.0751 22.6983C40.2291 22.9472 40.4706 23.1295 40.7521 23.2092C41.0337 23.289 41.3349 23.2604 41.5965 23.1292C41.774 23.044 41.947 22.9496 42.1148 22.8465C45.202 20.9842 48.3935 19.3006 51.6735 17.8039C52.2121 17.5615 52.7573 17.3326 53.3228 17.097L53.6391 16.9624V49.3855C53.6391 49.6009 53.6391 49.6009 53.518 49.6481C48.7455 51.4255 44.1239 53.5846 39.6982 56.1044V24.2333C39.6982 24.0987 39.6982 23.964 39.6982 23.8361C39.6984 23.5881 39.6258 23.3456 39.4894 23.1385C39.3529 22.9314 39.1587 22.769 38.9308 22.6714C36.8038 21.7111 34.526 21.1279 32.1993 20.9479C30.3908 20.8494 28.5776 20.8809 26.7737 21.0422C23.5057 21.2415 20.2631 21.7418 17.087 22.5368C16.0302 22.8061 15.7878 23.1225 15.7878 24.2266V61.2547C15.7777 61.3779 15.7777 61.5017 15.7878 61.625C15.7986 61.8136 15.8507 61.9975 15.9402 62.1638C16.0298 62.3302 16.1547 62.4749 16.3062 62.5877C16.4613 62.687 16.636 62.7517 16.8184 62.7773C17.0008 62.8028 17.1866 62.7887 17.363 62.7358C20.8304 61.8904 24.3681 61.3653 27.9315 61.1672C30.7008 60.9108 33.4935 61.1896 36.1574 61.9885L36.2853 62.0289C37.2748 62.3588 37.2748 62.3588 37.2681 63.537C37.2589 63.6085 37.2589 63.6809 37.2681 63.7524C37.2681 63.7995 37.2681 63.8332 37.2681 63.8467H37.0662C31.6809 63.8467 26.3092 63.8467 20.9509 63.8467H17.4303C15.633 63.8467 14.7377 62.9714 14.7377 61.1537V28.4276C14.7542 28.2484 14.7542 28.0682 14.7377 27.889C14.6991 27.6195 14.5651 27.3728 14.36 27.1937C14.155 27.0145 13.8925 26.9149 13.6203 26.9128C13.3477 26.8858 13.0747 26.961 12.8545 27.124C12.6343 27.287 12.4826 27.5261 12.4288 27.7948C12.384 27.9889 12.3659 28.1882 12.375 28.3872V61.3759C12.3656 61.8624 12.4269 62.3477 12.5567 62.8166C12.824 63.8377 13.4339 64.736 14.2844 65.361C15.1348 65.9861 16.1742 66.3 17.2284 66.2501H59.6908C60.3279 66.2754 60.9639 66.1748 61.5622 65.9542C62.1605 65.7336 62.7094 65.3972 63.1777 64.9642C63.9444 64.2029 64.4489 63.2173 64.6182 62.1501V27.7274L64.5644 27.6466Z" fill="white"/>
<path d="M22.1829 48.1871C22.2634 48.197 22.3448 48.197 22.4253 48.1871L22.7551 48.1198L22.9301 48.0794C25.2224 47.5525 27.5735 47.3262 29.9242 47.4061C30.9782 47.4428 32.0274 47.5667 33.061 47.7764C33.2166 47.8227 33.3799 47.8367 33.5411 47.8176C33.7022 47.7985 33.8577 47.7466 33.9981 47.6653C34.1385 47.5839 34.2608 47.4747 34.3575 47.3444C34.4542 47.214 34.5233 47.0653 34.5605 46.9074C34.5977 46.7494 34.6022 46.5855 34.5738 46.4257C34.5454 46.2659 34.4847 46.1136 34.3953 45.9781C34.306 45.8427 34.1899 45.7269 34.0542 45.6379C33.9186 45.5488 33.7661 45.4885 33.6063 45.4605L33.2428 45.3528H33.162C31.5658 45.0443 29.9401 44.9156 28.3153 44.969C26.9618 45.0039 25.6123 45.1321 24.2764 45.3528C23.5494 45.4672 22.7686 45.6355 21.8935 45.851C21.7413 45.8869 21.5979 45.9531 21.4718 46.0456C21.3457 46.1381 21.2396 46.2551 21.1597 46.3896C21.0789 46.5287 21.0271 46.6827 21.0075 46.8424C20.9878 47.0021 21.0007 47.1641 21.0453 47.3186C21.1102 47.57 21.2576 47.7922 21.4639 47.9497C21.6702 48.1072 21.9234 48.1908 22.1829 48.1871Z" fill="white"/>
<path d="M21.0184 52.4218C21.066 52.6898 21.2116 52.9306 21.4268 53.0973C21.642 53.264 21.9115 53.3448 22.1829 53.3239C22.3369 53.3214 22.4903 53.3034 22.6407 53.27C26.6796 52.3948 29.9713 52.2804 33.0207 52.9132C33.1878 52.9514 33.361 52.9556 33.5298 52.9256C33.6987 52.8955 33.8597 52.8318 34.0035 52.7382C34.1301 52.6548 34.2389 52.5469 34.3233 52.4209C34.4076 52.2949 34.466 52.1533 34.4949 52.0044C34.5298 51.8428 34.5307 51.6757 34.4975 51.5137C34.4643 51.3517 34.3979 51.1985 34.3023 51.0636C34.2067 50.9287 34.084 50.8152 33.9422 50.7303C33.8004 50.6454 33.6424 50.5909 33.4784 50.5704C32.2632 50.294 31.0222 50.1473 29.7761 50.1328C27.2006 50.0871 24.6295 50.363 22.1223 50.9541C20.9039 51.2503 20.9443 52.0784 21.0184 52.4218Z" fill="white"/>
<path d="M21.4694 32.4872C21.6836 32.6325 21.9376 32.7077 22.1964 32.7027C22.3389 32.6999 22.4809 32.6842 22.6205 32.6556C26.0107 31.7841 29.5492 31.6555 32.9937 32.2785C33.1689 32.3185 33.3502 32.323 33.5271 32.2918C33.704 32.2605 33.8728 32.1942 34.0237 32.0968C34.15 32.0098 34.2575 31.8982 34.3397 31.7686C34.4218 31.639 34.4769 31.4942 34.5016 31.3427C34.5312 31.1803 34.5272 31.0134 34.4897 30.8526C34.4521 30.6918 34.382 30.5404 34.2835 30.4078C34.185 30.2752 34.0604 30.1643 33.9172 30.0819C33.7741 29.9996 33.6156 29.9475 33.4515 29.9289C31.9844 29.6191 30.4879 29.4701 28.9885 29.4846C26.6656 29.4785 24.3508 29.7566 22.0954 30.3127C21.9338 30.326 21.7765 30.3718 21.633 30.4474C21.4895 30.5229 21.3627 30.6267 21.2603 30.7524C21.1578 30.8781 21.0818 31.0232 21.0368 31.179C20.9917 31.3349 20.9786 31.4982 20.9982 31.6592C21.0104 31.8235 21.059 31.9831 21.1405 32.1263C21.222 32.2695 21.3344 32.3928 21.4694 32.4872Z" fill="white"/>
<path d="M22.2098 43.0099C22.3384 43.0082 22.4666 42.9969 22.5935 42.9762L22.7551 42.9359H22.8493C25.3053 42.3632 27.83 42.141 30.3482 42.2761C31.2435 42.3299 32.1051 42.4646 33.0408 42.6127C33.2266 42.6519 33.4187 42.6499 33.6036 42.6069C33.7885 42.5639 33.9618 42.4808 34.1111 42.3636C34.2375 42.2518 34.3379 42.1138 34.4054 41.9591C34.4728 41.8044 34.5056 41.6369 34.5016 41.4682C34.5016 40.795 34.1044 40.4045 33.3236 40.2429C31.8037 39.9531 30.2597 39.8088 28.7125 39.812H28.1739L26.8276 39.8928C25.2201 40.0167 23.6245 40.2642 22.055 40.6334C21.8861 40.6538 21.7233 40.7093 21.5772 40.7964C21.431 40.8835 21.3047 41.0003 21.2064 41.1392C21.1081 41.2781 21.04 41.436 21.0065 41.6028C20.9729 41.7697 20.9747 41.9417 21.0116 42.1078C21.0653 42.3793 21.2172 42.6214 21.4383 42.7879C21.6594 42.9543 21.9341 43.0334 22.2098 43.0099Z" fill="white"/>
<path d="M21.0183 36.9508C21.0717 37.2204 21.2213 37.4613 21.4394 37.6286C21.6574 37.7958 21.9289 37.878 22.203 37.8596H22.4319L22.755 37.7923C25.34 37.1829 28.0003 36.9561 30.6511 37.1191C31.4527 37.1886 32.2503 37.2987 33.0408 37.449H33.1485C33.4536 37.4925 33.7638 37.4167 34.0145 37.2374C34.2653 37.0581 34.4373 36.7891 34.4948 36.4862C34.5557 36.1956 34.5012 35.8927 34.343 35.6414C34.1847 35.3902 33.935 35.2103 33.6466 35.1398C32.9131 34.9405 32.1627 34.8098 31.405 34.7493C29.1854 34.5557 26.9507 34.6257 24.7476 34.958C23.8076 35.0913 22.8751 35.2733 21.954 35.5033C21.7948 35.5317 21.6432 35.5925 21.5086 35.682C21.374 35.7715 21.2592 35.8878 21.1714 36.0235C21.0836 36.1593 21.0248 36.3117 20.9984 36.4712C20.9721 36.6307 20.9788 36.794 21.0183 36.9508Z" fill="white"/>
<path d="M41.7312 49.2441C41.791 49.3798 41.878 49.5018 41.9868 49.6026C42.0957 49.7033 42.224 49.7807 42.364 49.8298C42.4912 49.8761 42.6258 49.8989 42.7611 49.8971C42.9949 49.8952 43.2251 49.84 43.4343 49.7355L44.269 49.3316C46.4289 48.2377 48.6469 47.2623 50.913 46.4097C51.1462 46.3275 51.3493 46.1768 51.4958 45.9775C51.6423 45.7782 51.7253 45.5394 51.7342 45.2922V45.1037C51.7135 45.0099 51.6866 44.9177 51.6535 44.8276C51.5915 44.6741 51.4981 44.5352 51.3792 44.42C51.2604 44.3048 51.1187 44.2158 50.9633 44.1587C50.8079 44.1016 50.6423 44.0777 50.4771 44.0886C50.3119 44.0994 50.1508 44.1448 50.0042 44.2217C47.7255 45.0541 45.4999 46.0254 43.34 47.1301L42.3909 47.5946C42.2347 47.6537 42.0924 47.7447 41.9732 47.8617C41.854 47.9787 41.7604 48.1192 41.6984 48.2743C41.6363 48.4294 41.6072 48.5957 41.6129 48.7626C41.6185 48.9296 41.6588 49.0935 41.7312 49.2441Z" fill="white"/>
<path d="M51.6871 29.5249C51.6471 29.3735 51.5762 29.2319 51.4789 29.1091C51.3816 28.9863 51.26 28.8849 51.1217 28.8113C50.9308 28.7271 50.7244 28.6836 50.5158 28.6836C50.3072 28.6836 50.1009 28.7271 49.91 28.8113C47.4801 29.73 45.1045 30.7864 42.7948 31.9755L42.3707 32.1842C42.2168 32.246 42.0774 32.3389 41.961 32.457C41.8447 32.5752 41.754 32.7161 41.6946 32.8709C41.6352 33.0257 41.6084 33.1912 41.6158 33.3568C41.6233 33.5225 41.6649 33.6848 41.7379 33.8337C41.804 33.986 41.9047 34.1207 42.0321 34.2271C42.1595 34.3335 42.3101 34.4085 42.4717 34.4463C42.5615 34.4711 42.6545 34.4825 42.7477 34.48C43.0049 34.475 43.2578 34.4129 43.4881 34.2982L44.1613 33.9549C46.3349 32.8479 48.5688 31.8635 50.8524 31.0061C51.0933 30.9326 51.3049 30.785 51.4571 30.5844C51.6094 30.3838 51.6946 30.1403 51.7006 29.8885V29.7606C51.7016 29.6818 51.6971 29.6031 51.6871 29.5249Z" fill="white"/>
<path d="M42.7611 44.7401C42.9945 44.7418 43.225 44.6888 43.4342 44.5853L44.5113 44.0669C46.6071 43.0112 48.7575 42.0673 50.9533 41.2393C51.1845 41.1602 51.385 41.0104 51.5263 40.811C51.6677 40.6116 51.7428 40.3729 51.7409 40.1285C51.7425 39.8847 51.6618 39.6475 51.512 39.4552C51.335 39.224 51.0837 39.0609 50.8004 38.9935C50.5171 38.926 50.2193 38.9583 49.957 39.0849C47.623 39.949 45.3435 40.954 43.1313 42.0943L42.3706 42.4646C42.0582 42.6174 41.8169 42.8852 41.6975 43.2119C41.6474 43.3642 41.6288 43.525 41.6426 43.6847C41.6565 43.8444 41.7027 43.9996 41.7783 44.141C41.8723 44.3206 42.0135 44.4713 42.1866 44.5768C42.3597 44.6824 42.5583 44.7388 42.7611 44.7401Z" fill="white"/>
<path d="M50.0177 23.5735C47.671 24.4334 45.3801 25.4385 43.1583 26.5829L42.3303 26.9869C42.1187 27.0854 41.9386 27.2408 41.8102 27.4358C41.6818 27.6308 41.6102 27.8576 41.6033 28.091L41.6504 28.367C41.6828 28.5365 41.7545 28.6961 41.8597 28.8329C41.9649 28.9697 42.1007 29.0799 42.2562 29.1547C42.4078 29.2253 42.5737 29.2599 42.7409 29.2557C43.0298 29.2483 43.313 29.1746 43.5689 29.0402L44.4642 28.6094C46.5276 27.5581 48.6492 26.6253 50.8187 25.8154C50.9904 25.7624 51.1497 25.6754 51.2873 25.5598C51.4249 25.4442 51.5379 25.3022 51.6198 25.1422C51.6798 25.0017 51.7107 24.8506 51.7107 24.6979C51.7107 24.5451 51.6798 24.394 51.6198 24.2535C51.5637 24.1002 51.4768 23.9601 51.3644 23.8418C51.2519 23.7236 51.1164 23.6296 50.9662 23.5659C50.816 23.5021 50.6543 23.4699 50.4911 23.4712C50.328 23.4725 50.1668 23.5074 50.0177 23.5735Z" fill="white"/>
<path d="M50.5226 33.7865C50.3165 33.7956 50.1137 33.8412 49.9235 33.9212C47.5758 34.7942 45.2829 35.8082 43.0574 36.9575L42.3371 37.3076C42.1921 37.3732 42.0617 37.467 41.9534 37.5836C41.7883 37.7452 41.6743 37.9517 41.6257 38.1775C41.577 38.4034 41.5958 38.6385 41.6798 38.8538C41.7637 39.069 41.909 39.2548 42.0977 39.3881C42.2864 39.5213 42.5101 39.5962 42.741 39.6033H42.815C43.1025 39.5862 43.3817 39.5008 43.6295 39.3542L43.9526 39.1994C46.1771 38.0602 48.4625 37.0443 50.7986 36.1563C50.9525 36.1105 51.098 36.04 51.2294 35.9476C51.4334 35.8037 51.5865 35.5986 51.6664 35.3621C51.7463 35.1255 51.749 34.8697 51.6741 34.6314C51.5992 34.3932 51.4506 34.185 51.2497 34.0368C51.0488 33.8885 50.8059 33.808 50.5563 33.8067L50.5226 33.7865Z" fill="white"/>
</g>
<circle cx="71.1666" cy="8.83333" r="7.33333" fill="#FF3750" stroke="#FAF5ED" stroke-width="3"/>
<defs>
<clipPath id="clip0">
<rect width="52.25" height="52.25" fill="white" transform="translate(12.375 14.0001)"/>
</clipPath>
</defs>
</svg>
