<svg width="33" height="33" viewBox="0 0 33 33" fill="none" xmlns="http://www.w3.org/2000/svg">
<rect width="33" height="33" rx="11" fill="#FFCB00"/>
<g clip-path="url(#clip0)">
<path d="M26.3432 15.1873C25.981 15.1873 25.687 15.4812 25.687 15.8435V23.2744L20.4373 25.3742V18.4683C20.4373 18.1061 20.1433 17.8121 19.7811 17.8121C19.4189 17.8121 19.1249 18.1061 19.1249 18.4683V25.3729L13.8752 23.2731V12.8761L16.9161 14.0927C17.2482 14.2266 17.634 14.0638 17.7692 13.7265C17.9044 13.3906 17.7403 13.0086 17.403 12.8735L13.475 11.3012C13.475 11.3012 13.475 11.3012 13.4736 11.3012L13.4631 11.2972C13.307 11.2343 13.1324 11.2343 12.9762 11.2972L12.9644 11.3012C12.9644 11.3012 12.9644 11.3012 12.9631 11.3012L6.41283 13.9221C6.16478 14.0218 6.00073 14.262 6.00073 14.531V26.3428C6.00073 26.5607 6.10966 26.7641 6.28946 26.8862C6.39971 26.961 6.52701 26.999 6.65694 26.999C6.73962 26.999 6.82231 26.9833 6.90105 26.9518L13.219 24.4254L19.5252 26.9478C19.5252 26.9478 19.5252 26.9478 19.5265 26.9478L19.5383 26.9531C19.6945 27.0161 19.8691 27.0161 20.0252 26.9531L20.037 26.9478C20.037 26.9478 20.037 26.9478 20.0384 26.9478L26.5886 24.3283C26.8354 24.2272 26.9994 23.987 26.9994 23.718V15.8435C26.9994 15.4812 26.7054 15.1873 26.3432 15.1873ZM12.5628 23.2731L7.31315 25.3729V14.9746L12.5628 12.8748V23.2731Z" fill="white"/>
<path d="M22.4059 8.625C21.3205 8.625 20.4373 9.50826 20.4373 10.5936C20.4373 11.679 21.3205 12.5623 22.4059 12.5623C23.4912 12.5623 24.3745 11.679 24.3745 10.5936C24.3745 9.50826 23.4912 8.625 22.4059 8.625ZM22.4059 11.2498C22.0437 11.2498 21.7497 10.9559 21.7497 10.5936C21.7497 10.2314 22.0437 9.93742 22.4059 9.93742C22.7681 9.93742 23.0621 10.2314 23.0621 10.5936C23.0621 10.9559 22.7681 11.2498 22.4059 11.2498Z" fill="white"/>
<path d="M22.406 6C19.873 6 17.8125 8.0605 17.8125 10.5935C17.8125 12.9506 21.4978 17.1254 21.9177 17.5939C22.0424 17.7317 22.2196 17.8118 22.406 17.8118C22.5923 17.8118 22.7695 17.7317 22.8942 17.5939C23.3142 17.1254 26.9994 12.9506 26.9994 10.5935C26.9994 8.0605 24.9389 6 22.406 6ZM22.406 16.1542C20.9728 14.4546 19.1249 11.8455 19.1249 10.5935C19.1249 8.78495 20.5974 7.31242 22.406 7.31242C24.2145 7.31242 25.687 8.78495 25.687 10.5935C25.687 11.8442 23.8391 14.4546 22.406 16.1542Z" fill="white"/>
</g>
<defs>
<clipPath id="clip0">
<rect width="21" height="21" fill="white" transform="translate(6 6)"/>
</clipPath>
</defs>
</svg>
