<svg width="33" height="33" viewBox="0 0 33 33" fill="none" xmlns="http://www.w3.org/2000/svg">
<rect width="33" height="33" rx="11" fill="#FFCB00"/>
<g clip-path="url(#clip0)">
<path d="M16.5146 9.79785C12.4347 9.79785 9.11548 13.117 9.11548 17.1969C9.11548 21.2768 12.4347 24.596 16.5146 24.596C20.5944 24.596 23.9137 21.2768 23.9137 17.1969C23.9137 13.117 20.5944 9.79785 16.5146 9.79785ZM16.5146 23.6194C12.9731 23.6194 10.092 20.7383 10.092 17.1969C10.092 13.6555 12.9731 10.7744 16.5146 10.7744C20.056 10.7744 22.9371 13.6555 22.9371 17.1969C22.9371 20.7383 20.056 23.6194 16.5146 23.6194Z" fill="white"/>
<path d="M20.8946 14.81C20.7653 14.5733 20.4688 14.4862 20.232 14.6154C20.2241 14.6197 20.2168 14.6247 20.2092 14.6294C19.9902 14.7649 19.9126 15.0492 20.0375 15.2779C20.3566 15.8624 20.5252 16.526 20.5252 17.1967C20.5252 19.4081 18.7261 21.2073 16.5146 21.2073C14.3031 21.2073 12.504 19.4081 12.504 17.1967C12.504 14.9852 14.3031 13.186 16.5146 13.186C16.7268 13.186 16.9398 13.2027 17.1476 13.2357C17.4053 13.2766 17.6467 13.1079 17.7007 12.8562C17.7026 12.8474 17.7048 12.8388 17.7063 12.8298C17.7484 12.5635 17.5667 12.3133 17.3004 12.2711C17.0422 12.2302 16.7778 12.2095 16.5146 12.2095C13.7646 12.2095 11.5273 14.4467 11.5273 17.1967C11.5273 19.9466 13.7646 22.1839 16.5146 22.1839C19.2645 22.1839 21.5018 19.9466 21.5018 17.1967C21.5018 16.3629 21.2918 15.5376 20.8946 14.81Z" fill="white"/>
<path d="M19.6342 13.1165C19.6118 13.094 19.5869 13.0735 19.56 13.0559C19.5336 13.0383 19.5053 13.0232 19.4755 13.011C19.4462 12.9988 19.4155 12.9895 19.3842 12.9832C19.3212 12.9705 19.2563 12.9705 19.1933 12.9832C19.1621 12.9895 19.1318 12.9988 19.102 13.011C19.0727 13.0232 19.0444 13.0383 19.018 13.0559C18.9912 13.0735 18.9663 13.094 18.9433 13.1165C18.9208 13.1389 18.9008 13.1638 18.8828 13.1907C18.8652 13.217 18.85 13.2454 18.8378 13.2751C18.8301 13.2936 18.824 13.3127 18.8187 13.3321C18.8156 13.3435 18.8124 13.3549 18.8101 13.3665C18.8038 13.3977 18.8008 13.4299 18.8008 13.4616C18.8008 13.4938 18.8037 13.5256 18.8101 13.5574C18.8164 13.5886 18.8257 13.6189 18.8379 13.6486C18.8501 13.678 18.8652 13.7063 18.8828 13.7327C18.9009 13.7595 18.9209 13.7844 18.9434 13.8069C18.9663 13.8293 18.9912 13.8498 19.0181 13.8679C19.0444 13.8855 19.0728 13.9006 19.102 13.9128C19.1318 13.925 19.1621 13.9343 19.1934 13.9407C19.2251 13.947 19.2573 13.9499 19.2891 13.9499C19.3208 13.9499 19.353 13.947 19.3843 13.9407C19.4155 13.9344 19.4463 13.925 19.4756 13.9128C19.5012 13.9023 19.5253 13.8893 19.5484 13.8748C19.5522 13.8725 19.5563 13.8704 19.56 13.8679C19.5869 13.8498 19.6118 13.8293 19.6342 13.8069C19.6567 13.7844 19.6772 13.7595 19.6948 13.7327C19.7124 13.7063 19.7275 13.678 19.7397 13.6486C19.7519 13.6189 19.7612 13.5881 19.7675 13.5574C19.7739 13.5256 19.7773 13.4938 19.7773 13.4616C19.7773 13.3332 19.725 13.2072 19.6342 13.1165Z" fill="white"/>
<path d="M28.9876 24.19L27.4039 11.2923C27.2937 10.3947 27.0118 9.54044 26.566 8.75343C26.2924 8.27027 25.96 7.82101 25.578 7.41808L25.5354 7.37311C25.21 7.02979 24.7233 6.93829 24.2953 7.14C23.8673 7.34166 23.6281 7.7754 23.6857 8.24493L25.6932 24.5946C25.6997 24.6471 25.7085 24.6987 25.7196 24.7494C25.8864 25.5093 26.5651 26.0521 27.3392 26.052C27.4063 26.052 27.4744 26.048 27.5426 26.0396C28.0819 25.9733 28.5295 25.654 28.7808 25.2152C28.8073 25.1691 28.8315 25.1216 28.8535 25.0729C28.8755 25.0242 28.8952 24.9744 28.9124 24.9235C28.9902 24.6947 29.0189 24.4455 28.9876 24.19ZM24.6551 8.12589C24.6527 8.10631 24.6463 8.05411 24.7117 8.0233C24.7296 8.01485 24.7453 8.01158 24.759 8.01158C24.7952 8.01158 24.8169 8.03453 24.8267 8.04488L24.8693 8.08985C25.1968 8.43536 25.4818 8.82052 25.7164 9.23468C26.0985 9.90938 26.3402 10.6418 26.4347 11.4113L27.2788 18.2854L25.9229 18.4518L24.6551 8.12589ZM27.9761 24.642C27.8871 24.8674 27.6807 25.0387 27.4237 25.0702C27.0497 25.1164 26.7084 24.8494 26.6625 24.4755L26.0419 19.4211L27.3977 19.2546L28.0183 24.3091C28.0327 24.4258 28.0164 24.5395 27.9761 24.642Z" fill="white"/>
<path d="M10.0218 7.50292C9.75402 7.46992 9.51052 7.66044 9.47765 7.92807L9.03356 11.5449C8.96432 12.1085 8.50881 12.5338 7.94509 12.5682L7.6214 12.5284L8.20544 7.77192C8.2383 7.50429 8.04797 7.26064 7.78029 7.22773C7.51257 7.19458 7.26901 7.38525 7.23615 7.65288L6.65212 12.4094L6.32814 12.3696C5.78957 12.1998 5.45055 11.677 5.51974 11.1134L5.96384 7.49667C5.9967 7.22905 5.80636 6.9854 5.53869 6.95249C5.27106 6.91928 5.02741 7.11 4.99455 7.37763L4.55046 10.9944C4.43937 11.8993 4.90124 12.7477 5.68034 13.1547L4.01921 23.845C4.01901 23.8461 4.01882 23.8474 4.01862 23.8486C3.95119 24.3056 4.06823 24.7597 4.34816 25.1271C4.62809 25.4945 5.03478 25.7279 5.49289 25.7842L5.50177 25.7852C5.57253 25.7939 5.64313 25.7982 5.7132 25.7982C6.09938 25.7982 6.47062 25.6677 6.77638 25.421C7.13766 25.1295 7.35983 24.7144 7.40197 24.2522L8.38381 13.4867C9.2383 13.2804 9.89181 12.5689 10.0029 11.6639L10.447 8.04711C10.4798 7.77949 10.2895 7.53583 10.0218 7.50292ZM6.42951 24.1636C6.41154 24.3603 6.31701 24.5369 6.16325 24.661C6.00949 24.7851 5.81701 24.8404 5.62116 24.8161L5.61227 24.815C5.41716 24.7911 5.24406 24.6917 5.12497 24.5353C5.00612 24.3794 4.95627 24.1868 4.98449 23.9928L6.632 13.3909L7.0173 13.4382C7.0175 13.4382 7.01764 13.4382 7.01784 13.4383C7.01799 13.4383 7.01813 13.4383 7.01828 13.4383L7.40329 13.4855L6.42951 24.1636Z" fill="white"/>
</g>
<defs>
<clipPath id="clip0">
<rect width="25" height="25" fill="white" transform="translate(4 4)"/>
</clipPath>
</defs>
</svg>
