<svg width="33" height="33" viewBox="0 0 33 33" fill="none" xmlns="http://www.w3.org/2000/svg">
<rect width="33" height="33" rx="11" fill="#FFCB00"/>
<path d="M26.6401 13.6629L25.613 12.6358C25.1333 12.156 24.3526 12.1561 23.8728 12.6358L21.7095 14.7992V7.8457C21.7095 6.82798 20.8815 6 19.8638 6H7.84619C6.82847 6 6.00049 6.82798 6.00049 7.8457V25.1543C6.00049 26.172 6.82847 27 7.84619 27H19.8638C20.8815 27 21.7095 26.172 21.7095 25.1543V20.2721L26.6401 15.403C27.1198 14.9233 27.1198 14.1426 26.6401 13.6629ZM19.2819 20.94L17.4312 21.8037L18.2941 19.9548L22.8868 15.3621L23.9022 16.3774L19.2819 20.94ZM20.479 25.1543C20.479 25.4935 20.203 25.7695 19.8638 25.7695H7.84619C7.50695 25.7695 7.23096 25.4935 7.23096 25.1543V7.8457C7.23096 7.50646 7.50695 7.23047 7.84619 7.23047H19.8638C20.203 7.23047 20.479 7.50646 20.479 7.8457V16.0296C17.0674 19.4413 17.2902 19.1962 17.2248 19.3361L15.6007 22.8165C15.4913 23.051 15.5402 23.3288 15.7232 23.5117C15.9061 23.6947 16.184 23.7436 16.4184 23.6342L19.8987 22.01C20.0263 21.9504 20.0473 21.9134 20.479 21.4871V25.1543ZM24.7777 15.5129L23.7568 14.492L24.7429 13.5059L25.7697 14.5333L24.7777 15.5129Z" fill="white"/>
<path d="M9.28149 11.209H18.469C18.8088 11.209 19.0842 10.9335 19.0842 10.5938C19.0842 10.254 18.8088 9.97852 18.469 9.97852H9.28149C8.94172 9.97852 8.66626 10.254 8.66626 10.5938C8.66626 10.9335 8.94172 11.209 9.28149 11.209Z" fill="white"/>
<path d="M9.28149 14.4902H16.5002C16.84 14.4902 17.1155 14.2148 17.1155 13.875C17.1155 13.5352 16.84 13.2598 16.5002 13.2598H9.28149C8.94172 13.2598 8.66626 13.5352 8.66626 13.875C8.66626 14.2148 8.94172 14.4902 9.28149 14.4902Z" fill="white"/>
<path d="M14.5315 16.541H9.28149C8.94172 16.541 8.66626 16.8165 8.66626 17.1562C8.66626 17.496 8.94172 17.7715 9.28149 17.7715H14.5315C14.8713 17.7715 15.1467 17.496 15.1467 17.1562C15.1467 16.8165 14.8713 16.541 14.5315 16.541Z" fill="white"/>
</svg>
