<svg width="33" height="33" viewBox="0 0 33 33" fill="none" xmlns="http://www.w3.org/2000/svg">
<rect width="33" height="33" rx="11" fill="#FFCB00"/>
<g clip-path="url(#clip0)">
<path d="M19.1533 5.54199C14.5509 5.54199 10.8066 9.28632 10.8066 13.8887C10.8066 15.9593 11.5648 17.8559 12.8177 19.3163L11.6373 20.4967C11.3812 20.3741 11.0989 20.3092 10.8066 20.3092C10.2937 20.3092 9.81135 20.5084 9.44781 20.8703C9.44781 20.8703 6.06514 24.1674 6.06321 24.1693C5.31226 24.9203 5.31226 26.1422 6.06321 26.8931C6.42704 27.257 6.91072 27.4574 7.42509 27.4574C7.93792 27.4574 8.42027 27.2582 8.78376 26.8963C8.78376 26.8963 12.1666 23.5992 12.1685 23.5973C12.7603 23.0055 12.8854 22.1213 12.5444 21.4055L13.7256 20.2243C15.1861 21.4772 17.0827 22.2354 19.1533 22.2354C23.7556 22.2354 27.5 18.4911 27.5 13.8887C27.5 9.28632 23.7556 5.54199 19.1533 5.54199V5.54199ZM11.2629 22.6868C11.2629 22.6868 7.88095 25.9832 7.87898 25.9851C7.75763 26.1065 7.59643 26.1733 7.42509 26.1733C7.25375 26.1733 7.09251 26.1065 6.9712 25.9851C6.72174 25.7357 6.72093 25.3302 6.96876 25.0798C6.96876 25.0798 10.3507 21.7834 10.3527 21.7814C10.603 21.5311 11.0102 21.5311 11.2605 21.7814C11.5099 22.031 11.5107 22.4363 11.2629 22.6868ZM19.1533 20.9513C15.259 20.9513 12.0907 17.783 12.0907 13.8887C12.0907 9.99438 15.259 6.8261 19.1533 6.8261C23.0476 6.8261 26.2159 9.99438 26.2159 13.8887C26.2159 17.783 23.0476 20.9513 19.1533 20.9513Z" fill="white"/>
<path d="M23.0056 10.0366H15.301C14.9464 10.0366 14.6589 10.3241 14.6589 10.6787V11.9628C14.6589 12.3174 14.9464 12.6048 15.301 12.6048C15.6556 12.6048 15.943 12.3174 15.943 11.9628V11.3207H18.5113V17.7413H17.8692C17.5146 17.7413 17.2271 18.0287 17.2271 18.3833C17.2271 18.7379 17.5146 19.0254 17.8692 19.0254H20.4374C20.792 19.0254 21.0795 18.7379 21.0795 18.3833C21.0795 18.0287 20.792 17.7413 20.4374 17.7413H19.7954V11.3207H22.3636V11.9628C22.3636 12.3174 22.651 12.6048 23.0056 12.6048C23.3602 12.6048 23.6477 12.3174 23.6477 11.9628V10.6787C23.6477 10.3241 23.3602 10.0366 23.0056 10.0366Z" fill="white"/>
</g>
<defs>
<clipPath id="clip0">
<rect width="22" height="22" fill="white" transform="translate(5.5 5.5)"/>
</clipPath>
</defs>
</svg>
