<svg width="33" height="33" viewBox="0 0 33 33" fill="none" xmlns="http://www.w3.org/2000/svg">
<rect width="33" height="33" rx="11" fill="#FFCB00"/>
<path d="M23.8261 5H8.39067C7.62384 5 7 5.62384 7 6.39067V26.6298C7 27.3966 7.62384 28.0204 8.39067 28.0204H23.8261C24.593 28.0204 25.2168 27.3966 25.2168 26.6298V6.39067C25.2168 5.62384 24.593 5 23.8261 5ZM23.8665 26.6298C23.8665 26.6521 23.8484 26.6701 23.8261 26.6701H8.39067C8.36837 26.6701 8.35029 26.6521 8.35029 26.6298V19.8859H23.8665V26.6298V26.6298ZM23.8665 18.5356H8.35029V6.39067C8.35029 6.36837 8.36837 6.35029 8.39067 6.35029H23.8261C23.8484 6.35029 23.8665 6.36837 23.8665 6.39067V18.5356V18.5356Z" fill="white"/>
<path d="M14.3592 21.4858H10.8573C10.4844 21.4858 10.1821 21.7881 10.1821 22.161C10.1821 22.5339 10.4844 22.8361 10.8573 22.8361H14.3592C14.7321 22.8361 15.0344 22.5339 15.0344 22.161C15.0344 21.7881 14.7321 21.4858 14.3592 21.4858Z" fill="white"/>
<path d="M17.075 23.6348H10.8573C10.4844 23.6348 10.1821 23.937 10.1821 24.3099C10.1821 24.6828 10.4844 24.9851 10.8573 24.9851H17.075C17.4479 24.9851 17.7501 24.6828 17.7501 24.3099C17.7501 23.937 17.4479 23.6348 17.075 23.6348Z" fill="white"/>
<path d="M21.3129 23.6348H19.6334C19.2605 23.6348 18.9583 23.937 18.9583 24.3099C18.9583 24.6828 19.2605 24.9851 19.6334 24.9851H21.3129C21.6858 24.9851 21.988 24.6828 21.988 24.3099C21.988 23.937 21.6858 23.6348 21.3129 23.6348Z" fill="white"/>
<path d="M16.7552 15.7756L14.6771 8.99679C14.6178 8.81173 14.4826 8.66898 14.2715 8.56898C14.0603 8.46899 13.8175 8.41895 13.5436 8.41895C13.2694 8.41895 13.0269 8.46894 12.8157 8.56898C12.6045 8.66898 12.4693 8.81173 12.41 8.99679L10.3431 15.7756C10.3281 15.8349 10.3208 15.8756 10.3208 15.8978C10.3208 16.0906 10.4412 16.2573 10.682 16.3979C10.9227 16.5387 11.1727 16.6091 11.4322 16.6091C11.7506 16.6091 11.9395 16.5018 11.9989 16.2868L12.3767 14.8977H14.7216L15.0994 16.2868C15.1586 16.5018 15.3476 16.6091 15.6662 16.6091C15.9254 16.6091 16.1754 16.5387 16.4163 16.3979C16.657 16.2573 16.7774 16.0906 16.7774 15.8979C16.7774 15.8756 16.77 15.835 16.7552 15.7756ZM12.7324 13.5641L13.5436 10.5859L14.3548 13.5641H12.7324Z" fill="white"/>
<path d="M21.117 11.8752C20.6984 11.4604 20.063 11.2529 19.2112 11.2529C18.7666 11.2529 18.3388 11.3401 17.9276 11.5141C17.5164 11.6882 17.3109 11.8975 17.3109 12.142C17.3109 12.3642 17.3626 12.5625 17.4665 12.7365C17.5701 12.9106 17.711 12.9976 17.8887 12.9976C17.9405 12.9976 18.0813 12.9292 18.311 12.7921C18.5406 12.6551 18.8333 12.5865 19.189 12.5865C19.4779 12.5865 19.689 12.6719 19.8224 12.8426C19.9557 13.0135 20.0224 13.2152 20.0224 13.4481V13.5644H19.6224V13.5644C18.7851 13.5644 18.1425 13.6858 17.6943 13.9284C17.246 14.1711 17.022 14.5886 17.022 15.1808C17.022 15.6825 17.157 16.0645 17.4276 16.3268C17.698 16.5894 18.0369 16.7204 18.4444 16.7204C19.0593 16.7204 19.6224 16.4065 20.1336 15.7786V16.0398C20.1336 16.198 20.2076 16.3323 20.3558 16.4431C20.5039 16.5539 20.6853 16.6093 20.9003 16.6093C21.1448 16.6093 21.3466 16.5576 21.506 16.4537C21.6652 16.3501 21.7449 16.2242 21.7449 16.0758V13.431C21.7448 12.8087 21.5355 12.2902 21.117 11.8752ZM19.7445 15.0986C19.5593 15.2909 19.374 15.387 19.1889 15.387C18.9 15.387 18.7555 15.2429 18.7555 14.9543C18.7555 14.7963 18.8184 14.6744 18.9444 14.5886C19.0703 14.5028 19.2128 14.4495 19.3723 14.4288C19.5315 14.4083 19.7334 14.3979 19.9779 14.3979H20.0223V14.4391H20.0224C20.0224 14.6863 19.9296 14.9061 19.7445 15.0986Z" fill="white"/>
</svg>
