<svg width="75" height="75" viewBox="0 0 75 75" fill="none" xmlns="http://www.w3.org/2000/svg">
<rect width="75" height="75" rx="15" fill="#30CDD7"/>
<g clip-path="url(#clip0)">
<path d="M13.6362 59.1474C13.9122 58.5982 14.3104 58.118 14.8011 57.7428C22.3724 50.835 29.7808 43.7775 37.2648 36.7891C38.4296 35.7299 39.3382 35.7414 40.4098 36.8466C43.6539 40.2027 46.9096 43.5703 50.1478 46.9148C52.0756 48.9123 52.0756 51.6294 50.1769 53.529C49.7374 53.9578 49.2146 54.2941 48.6401 54.5177C48.0655 54.7413 47.4511 54.8475 46.8338 54.83H34.9584C34.545 54.86 34.1332 54.7528 33.7883 54.5255C33.4434 54.2983 33.1849 53.9638 33.0539 53.5751C32.9328 53.2192 32.9272 52.8348 33.0379 52.4757C33.1486 52.1165 33.37 51.8005 33.6713 51.5718C34.09 51.2791 34.5983 51.1387 35.1098 51.1746H46.5368C46.7172 51.1862 46.8981 51.1862 47.0785 51.1746C47.2338 51.1588 47.3825 51.1038 47.5103 51.0151C47.6381 50.9263 47.7408 50.8067 47.8085 50.6676C47.8763 50.5285 47.9068 50.3745 47.8973 50.2204C47.8878 50.0663 47.8385 49.9172 47.7541 49.7873C47.6563 49.6379 47.5431 49.499 47.4163 49.3728C44.6381 46.4946 41.8484 43.6163 39.0819 40.738C38.7907 40.4387 38.6567 40.5135 38.4063 40.738C31.2426 47.4214 24.1197 54.168 16.9036 60.788C15.8203 61.7781 14.0847 61.4673 13.7061 60.0799C13.7061 60.0799 13.6595 60.0396 13.6362 60.0224V59.1474Z" fill="white"/>
<path d="M55.7272 35.8738C52.4262 35.8241 49.1515 35.2846 46.0126 34.2735C43.4558 33.5194 41.0096 32.4544 38.5169 31.5219C36.5056 30.7216 34.37 30.2699 32.2035 30.1864C28.1266 30.0943 25.797 32.345 24.9641 35.9026C24.9233 36.081 24.9 36.2537 24.8651 36.4322C24.8375 36.6753 24.7602 36.9104 24.638 37.1232C24.5158 37.336 24.3511 37.522 24.154 37.67C23.9568 37.818 23.7314 37.9249 23.4912 37.9843C23.251 38.0436 23.0012 38.0541 22.7568 38.0152C22.5129 37.9886 22.2772 37.9123 22.0646 37.7912C21.852 37.6701 21.6671 37.5068 21.5216 37.3116C21.376 37.1163 21.273 36.8934 21.2189 36.6569C21.1649 36.4203 21.161 36.1752 21.2075 35.9371C21.5153 33.5365 22.5977 31.2978 24.2943 29.5531C26.4085 27.4002 29.0527 26.531 32.0288 26.5195C34.806 26.5836 37.5456 27.1696 40.101 28.2464C42.7828 29.3691 45.5265 30.3416 48.3189 31.1592C50.9653 31.924 53.7167 32.2737 56.4727 32.1954C57.8376 32.1741 59.1828 31.8702 60.4215 31.3031C60.6697 31.1793 60.9056 31.0328 61.1262 30.8656C61.5086 30.5967 61.9807 30.4829 62.4455 30.5475C62.9102 30.6122 63.3322 30.8504 63.6246 31.2132C63.9171 31.576 64.0577 32.0357 64.0177 32.4979C63.9776 32.9601 63.7599 33.3895 63.4093 33.6978C62.4784 34.4479 61.3932 34.9882 60.2293 35.2809C59.6775 35.4344 59.1175 35.5574 58.5519 35.6493C57.6185 35.8033 56.6735 35.8784 55.7272 35.8738V35.8738Z" fill="white"/>
<path d="M48.2607 13.6364C46.8455 13.633 45.4611 14.0443 44.2823 14.8183C43.1036 15.5924 42.1834 16.6944 41.6381 17.9851C41.0928 19.2759 40.9469 20.6975 41.2188 22.0702C41.4906 23.4429 42.1681 24.7051 43.1655 25.6974C44.1629 26.6897 45.4356 27.3675 46.8226 27.6451C48.2097 27.9227 49.6488 27.7878 50.9583 27.2572C52.2677 26.7267 53.3887 25.8244 54.1795 24.6643C54.9702 23.5043 55.3954 22.1387 55.4011 20.7399C55.4027 18.8634 54.6524 17.0627 53.3143 15.7315C51.9762 14.4003 50.1592 13.647 48.2607 13.6364V13.6364ZM48.2607 24.1593C47.5679 24.1673 46.8883 23.9715 46.3083 23.5969C45.7283 23.2223 45.2741 22.6857 45.0033 22.0553C44.7326 21.4249 44.6575 20.7292 44.7877 20.0566C44.9179 19.384 45.2475 18.7648 45.7345 18.2777C46.2216 17.7906 46.8441 17.4576 47.5231 17.3211C48.202 17.1845 48.9068 17.2505 49.5477 17.5107C50.1886 17.7709 50.7368 18.2135 51.1226 18.7824C51.5084 19.3512 51.7144 20.0205 51.7145 20.7054C51.7145 21.6164 51.3503 22.4906 50.7013 23.1375C50.0522 23.7844 49.1708 24.1517 48.2491 24.1593H48.2607Z" fill="white"/>
</g>
<defs>
<clipPath id="clip0">
<rect width="50.4545" height="47.7273" fill="white" transform="translate(13.6362 13.6364)"/>
</clipPath>
</defs>
</svg>
