<svg width="80" height="80" viewBox="0 0 80 80" fill="none" xmlns="http://www.w3.org/2000/svg">
<rect y="4.375" width="75.625" height="75.625" rx="15" fill="#30CDD7"/>
<g clip-path="url(#clip0)">
<path d="M13.75 64.0154C14.0282 63.4617 14.4298 62.9775 14.9245 62.5991C22.559 55.6338 30.0291 48.5174 37.5754 41.4708C38.75 40.4028 39.6661 40.4144 40.7467 41.5288C44.0178 44.9129 47.3006 48.3085 50.5658 51.6809C52.5097 53.6951 52.5097 56.4348 50.5952 58.3503C50.152 58.7826 49.6249 59.1217 49.0456 59.3472C48.4662 59.5726 47.8466 59.6797 47.2243 59.6621H35.2499C34.833 59.6923 34.4178 59.5843 34.07 59.3551C33.7222 59.1259 33.4616 58.7887 33.3295 58.3967C33.2074 58.0379 33.2018 57.6503 33.3134 57.2881C33.425 56.926 33.6483 56.6073 33.952 56.3767C34.3742 56.0816 34.8867 55.94 35.4026 55.9762H46.9248C47.1066 55.9879 47.289 55.9879 47.4709 55.9762C47.6276 55.9602 47.7775 55.9049 47.9064 55.8154C48.0352 55.7259 48.1388 55.6052 48.2071 55.465C48.2754 55.3247 48.3062 55.1695 48.2966 55.0141C48.287 54.8587 48.2372 54.7083 48.1521 54.5773C48.0536 54.4267 47.9394 54.2867 47.8115 54.1594C45.0103 51.2572 42.1972 48.3549 39.4077 45.4527C39.1141 45.1508 38.979 45.2263 38.7265 45.4527C31.5031 52.1917 24.3208 58.9946 17.0446 65.6697C15.9523 66.6681 14.2022 66.3546 13.8205 64.9558C13.8205 64.9558 13.7735 64.9151 13.75 64.8977V64.0154Z" fill="white"/>
<path d="M56.1918 40.5479C52.8633 40.4978 49.5612 39.9538 46.3962 38.9343C43.8181 38.1739 41.3515 37.1 38.838 36.1597C36.81 35.3528 34.6565 34.8973 32.472 34.8131C28.3612 34.7202 26.0121 36.9898 25.1723 40.5769C25.1312 40.7569 25.1077 40.931 25.0725 41.1109C25.0447 41.3561 24.9668 41.5932 24.8435 41.8077C24.7202 42.0223 24.5542 42.2099 24.3554 42.3591C24.1567 42.5084 23.9293 42.6162 23.6871 42.676C23.4449 42.7358 23.193 42.7464 22.9466 42.7072C22.7006 42.6803 22.463 42.6034 22.2487 42.4813C22.0343 42.3592 21.8479 42.1945 21.7011 41.9977C21.5543 41.8008 21.4504 41.576 21.3959 41.3375C21.3414 41.099 21.3375 40.8519 21.3844 40.6118C21.6948 38.1911 22.7862 35.9338 24.497 34.1746C26.6287 32.0037 29.2949 31.1272 32.2959 31.1156C35.0963 31.1802 37.8586 31.7712 40.4354 32.857C43.1395 33.989 45.906 34.9696 48.7217 35.794C51.3902 36.5652 54.1645 36.9178 56.9435 36.8388C58.3198 36.8174 59.6762 36.5109 60.9252 35.9391C61.1754 35.8143 61.4133 35.6666 61.6358 35.498C62.0214 35.2269 62.4974 35.1121 62.966 35.1773C63.4346 35.2424 63.8601 35.4826 64.155 35.8485C64.4499 36.2143 64.5917 36.6779 64.5513 37.1439C64.5109 37.6099 64.2914 38.0429 63.9379 38.3538C62.9993 39.1102 61.905 39.6549 60.7314 39.95C60.175 40.1048 59.6104 40.2288 59.04 40.3215C58.0989 40.4768 57.146 40.5525 56.1918 40.5479Z" fill="white"/>
<path d="M48.6631 18.1252C47.2361 18.1217 45.8401 18.5365 44.6515 19.317C43.4629 20.0974 42.5351 21.2087 41.9853 22.5102C41.4354 23.8117 41.2883 25.2451 41.5624 26.6292C41.8365 28.0134 42.5196 29.2862 43.5254 30.2867C44.5311 31.2873 45.8144 31.9707 47.213 32.2506C48.6116 32.5306 50.0627 32.3945 51.3831 31.8595C52.7034 31.3245 53.8337 30.4147 54.6311 29.245C55.4285 28.0754 55.8572 26.6983 55.863 25.2879C55.8645 23.3958 55.108 21.58 53.7587 20.2377C52.4095 18.8955 50.5774 18.1359 48.6631 18.1252ZM48.6631 28.7358C47.9645 28.7438 47.2792 28.5464 46.6944 28.1687C46.1095 27.7909 45.6515 27.2499 45.3785 26.6142C45.1055 25.9786 45.0298 25.2771 45.1611 24.5989C45.2924 23.9206 45.6247 23.2963 46.1158 22.8052C46.6069 22.314 47.2347 21.9783 47.9193 21.8406C48.6039 21.7029 49.3145 21.7694 49.9607 22.0318C50.607 22.2941 51.1597 22.7405 51.5488 23.314C51.9378 23.8876 52.1455 24.5625 52.1456 25.2531C52.1456 26.1717 51.7784 27.0532 51.1239 27.7055C50.4695 28.3578 49.5807 28.7281 48.6513 28.7358H48.6631Z" fill="white"/>
</g>
<circle cx="71.1666" cy="8.83333" r="7.33333" fill="#FF3750" stroke="#FAF5ED" stroke-width="3"/>
<defs>
<clipPath id="clip0">
<rect width="50.875" height="48.125" fill="white" transform="translate(13.75 18.1252)"/>
</clipPath>
</defs>
</svg>
