<svg width="33" height="33" viewBox="0 0 33 33" fill="none" xmlns="http://www.w3.org/2000/svg">
<rect width="33" height="33" rx="11" fill="#30CDD7"/>
<g clip-path="url(#clip0)">
<path d="M23.7986 24.0005C24.3929 24.0017 24.9807 23.87 25.5232 23.6143C26.0656 23.3585 26.5504 22.9845 26.9455 22.5169C27.3406 22.0492 27.637 21.4987 27.8152 20.9015C27.9933 20.3043 28.0492 19.6741 27.9791 19.0525C27.9089 18.431 27.7144 17.8321 27.4083 17.2955C27.1022 16.759 26.6915 16.2969 26.2034 15.9398C25.7153 15.5827 25.1608 15.3388 24.5765 15.2241C23.9922 15.1094 23.3915 15.1265 22.814 15.2743L22.7055 15.3015L20.8965 10.7044L22.522 10.1328C22.5908 10.1088 22.6544 10.0707 22.7092 10.0208C22.764 9.97081 22.8089 9.90994 22.8414 9.84166C22.8738 9.77338 22.8931 9.69903 22.8981 9.62287C22.9032 9.54672 22.8939 9.47026 22.8709 9.39788C22.8478 9.32468 22.8112 9.25702 22.7632 9.19883C22.7152 9.14063 22.6566 9.09307 22.591 9.05889C22.5254 9.0247 22.454 9.00459 22.3809 8.9997C22.3078 8.99482 22.2346 9.00527 22.1653 9.03044L19.93 9.81705C19.7968 9.87757 19.6917 9.99101 19.6375 10.1327C19.5833 10.2744 19.5844 10.4329 19.6405 10.5737L20.1264 11.8013L13.9009 13.5051L13.1669 11.7006H14.304C14.4438 11.6905 14.5748 11.6249 14.6704 11.517C14.7661 11.4091 14.8193 11.267 14.8193 11.1194C14.8193 10.9718 14.7661 10.8298 14.6704 10.7219C14.5748 10.614 14.4438 10.5484 14.304 10.5383H11.3915C11.3159 10.5329 11.24 10.5439 11.1686 10.5706C11.0971 10.5973 11.0317 10.6392 10.9763 10.6937C10.9209 10.7482 10.8767 10.8141 10.8465 10.8874C10.8163 10.9606 10.8007 11.0396 10.8007 11.1194C10.8007 11.1993 10.8163 11.2783 10.8465 11.3515C10.8767 11.4247 10.9209 11.4907 10.9763 11.5451C11.0317 11.5996 11.0971 11.6416 11.1686 11.6683C11.24 11.695 11.3159 11.706 11.3915 11.7006H11.9782L12.9524 14.0903L11.5052 15.8677L11.3993 15.8051C10.8459 15.4466 10.2211 15.2281 9.57406 15.1669C8.927 15.1056 8.27526 15.2032 7.67005 15.452C7.06484 15.7008 6.52264 16.094 6.08606 16.6007C5.64948 17.1075 5.3304 17.7139 5.1539 18.3724C4.97739 19.031 4.94827 19.7236 5.06882 20.396C5.18936 21.0684 5.45629 21.7021 5.84864 22.2475C6.24099 22.7929 6.74806 23.2351 7.33002 23.5392C7.91198 23.8434 8.55298 24.0013 9.20265 24.0005C10.2004 23.9935 11.1637 23.6155 11.9226 22.9332C12.6815 22.251 13.1872 21.3083 13.3504 20.2716L13.3685 20.1573H15.7719C15.8586 20.1571 15.9441 20.1353 16.0214 20.0936C16.0986 20.052 16.1654 19.9918 16.2164 19.9178L20.7466 13.3854L21.6873 15.7615L21.5942 15.8214C20.8152 16.3263 20.2139 17.0852 19.8819 17.9829C19.5499 18.8805 19.5052 19.8679 19.7547 20.7947C20.0041 21.7216 20.5341 22.5373 21.264 23.1179C21.994 23.6985 22.8839 24.0122 23.7986 24.0114V24.0005ZM12.2159 20.326C12.0681 20.9884 11.7275 21.5856 11.2418 22.0343C10.7561 22.4829 10.1495 22.7606 9.5067 22.8285C8.86389 22.8965 8.21699 22.7513 7.65632 22.4132C7.09566 22.0752 6.64924 21.5611 6.3794 20.9429C6.10956 20.3247 6.02978 19.6331 6.1512 18.9648C6.27262 18.2965 6.58917 17.6848 7.05666 17.2152C7.52414 16.7456 8.11921 16.4414 8.75876 16.3453C9.39831 16.2491 10.0504 16.3657 10.624 16.6788L10.7687 16.7577L8.784 19.2074C8.71781 19.292 8.67566 19.3947 8.66241 19.5034C8.64915 19.6122 8.66532 19.7227 8.70906 19.8223C8.7528 19.9218 8.82233 20.0063 8.90965 20.066C8.99697 20.1258 9.09853 20.1584 9.20265 20.16H12.2521L12.2159 20.326ZM10.4069 18.9951L13.4228 15.2825L14.9346 18.9951H10.4069ZM15.9011 18.4071L14.3505 14.5966L19.5242 13.1676L15.9011 18.4071ZM21.9896 16.9346L22.1214 16.8339L23.2947 19.798C23.3223 19.8689 23.3631 19.9333 23.4145 19.9875C23.466 20.0417 23.5271 20.0846 23.5944 20.1137C23.6609 20.1441 23.7326 20.1597 23.8051 20.1597C23.8775 20.1597 23.9492 20.1441 24.0157 20.1137C24.0837 20.0844 24.1453 20.0409 24.1971 19.986C24.2488 19.931 24.2895 19.8656 24.3167 19.7938C24.344 19.7219 24.3572 19.645 24.3557 19.5677C24.3541 19.4903 24.3378 19.414 24.3077 19.3434L23.1344 16.3767L23.2973 16.3494C23.4629 16.3201 23.6306 16.3055 23.7986 16.3059C24.5376 16.3035 25.2532 16.5791 25.8163 17.0831C26.3795 17.5871 26.7532 18.2864 26.8702 19.055C26.9872 19.8235 26.8398 20.6108 26.4545 21.275C26.0692 21.9392 25.4713 22.4366 24.7686 22.6777C24.066 22.9187 23.3046 22.8876 22.6218 22.5898C21.939 22.292 21.3796 21.7472 21.0444 21.0535C20.7092 20.3598 20.6203 19.5629 20.7936 18.8062C20.9669 18.0495 21.391 17.3829 21.9896 16.9265V16.9346Z" fill="white"/>
</g>
<defs>
<clipPath id="clip0">
<rect width="23" height="15" fill="white" transform="translate(5 9)"/>
</clipPath>
</defs>
</svg>
