<svg width="33" height="33" viewBox="0 0 33 33" fill="none" xmlns="http://www.w3.org/2000/svg">
<rect width="33" height="33" rx="11" fill="#30CDD7"/>
<path d="M10.3164 11.7464C11.6158 11.7464 12.6729 10.6892 12.6729 9.38983C12.6729 8.09048 11.6158 7.03331 10.3164 7.03331C9.01701 7.03331 7.95984 8.09041 7.95984 9.38977C7.95984 10.6891 9.01701 11.7464 10.3164 11.7464ZM10.3164 8.16356C10.9926 8.16356 11.5427 8.71369 11.5427 9.38977C11.5427 10.066 10.9926 10.616 10.3164 10.616C9.64028 10.616 9.0901 10.0659 9.0901 9.38977C9.0901 8.71369 9.64028 8.16356 10.3164 8.16356ZM12.6369 21.2637C12.6781 21.4092 12.6593 21.5651 12.5847 21.6967L10.1477 25.991H10.704C11.0161 25.991 11.2691 26.244 11.2691 26.5561C11.2691 26.8682 11.0161 27.1212 10.704 27.1212H9.1804C9.17914 27.1212 9.17788 27.1215 9.17663 27.1215C9.16972 27.1215 9.16281 27.1204 9.15597 27.1202C9.1419 27.1197 9.12784 27.119 9.11402 27.1175C9.10511 27.1165 9.09619 27.1149 9.08734 27.1135C9.07409 27.1114 9.0609 27.1089 9.04797 27.1058C9.03993 27.104 9.03202 27.102 9.02404 27.0997C9.00797 27.0952 8.99227 27.0899 8.97682 27.084C8.97205 27.0822 8.96715 27.0807 8.96244 27.0787C8.94153 27.0701 8.92132 27.0603 8.90179 27.0493C8.90066 27.0487 8.89946 27.0483 8.89833 27.0477C8.89318 27.0448 8.8886 27.0414 8.88358 27.0383C8.8741 27.0325 8.86455 27.0267 8.85545 27.0205C8.84779 27.0152 8.84056 27.0095 8.83328 27.0039C8.82625 26.9985 8.81922 26.9932 8.8125 26.9875C8.80433 26.9806 8.79667 26.9734 8.78901 26.9661C8.78355 26.9609 8.77809 26.9558 8.77281 26.9505C8.76515 26.9427 8.75793 26.9346 8.75083 26.9263C8.74594 26.9207 8.74104 26.9151 8.73639 26.9093C8.72993 26.9013 8.7239 26.8929 8.71787 26.8846C8.71303 26.8778 8.7082 26.8711 8.70368 26.8641C8.69872 26.8564 8.69413 26.8487 8.68955 26.8409C8.68465 26.8325 8.67988 26.8242 8.67542 26.8156C8.67191 26.8087 8.66864 26.8017 8.66544 26.7948C8.66079 26.7849 8.65633 26.7749 8.65231 26.7647C8.6498 26.7584 8.64761 26.7521 8.64541 26.7458C8.64151 26.7349 8.63781 26.7239 8.63454 26.7127C8.63266 26.7062 8.63115 26.6996 8.62952 26.6931C8.62682 26.6822 8.62412 26.6712 8.62205 26.66C8.6206 26.6522 8.61954 26.6442 8.61841 26.6363C8.61696 26.6264 8.61552 26.6165 8.61464 26.6064C8.6137 26.5962 8.61345 26.5861 8.61307 26.5758C8.61282 26.5693 8.61206 26.5628 8.61206 26.5562C8.61206 26.5545 8.61232 26.5529 8.61232 26.5512C8.61238 26.54 8.61326 26.5289 8.61401 26.5177C8.61451 26.51 8.61476 26.5022 8.61558 26.4946C8.61659 26.4853 8.61834 26.476 8.61985 26.4667C8.62136 26.4573 8.62261 26.4478 8.62456 26.4385C8.62588 26.4324 8.6277 26.4264 8.62921 26.4203C8.63228 26.408 8.6353 26.3955 8.63919 26.3836C8.64026 26.3802 8.6417 26.377 8.64283 26.3736C8.64786 26.359 8.65319 26.3445 8.65935 26.3304C8.66041 26.3279 8.6618 26.3255 8.66293 26.323C8.66965 26.3083 8.6768 26.2938 8.68465 26.2798C8.68509 26.279 8.68534 26.2782 8.68578 26.2775L11.3191 21.6373L8.08072 19.8571C7.80977 19.7082 7.70962 19.3697 7.85385 19.0976C7.85555 19.0563 7.86139 19.0146 7.87263 18.973L8.92935 15.0642C9.01079 14.7629 9.32105 14.5849 9.62239 14.6661C9.92366 14.7476 10.1019 15.0579 10.0204 15.3592L9.01431 19.0807L12.3655 20.9228C12.4979 20.9954 12.5957 21.1183 12.6369 21.2637ZM17.2848 6.78597L15.7206 10.4734C15.11 11.9128 14.0154 13.8263 11.5698 13.8263H10.8024H9.76034C8.37245 13.8263 7.44219 14.623 6.64975 16.4904L5.08554 20.1778C4.99424 20.3931 4.78508 20.5223 4.56506 20.5223C4.49147 20.5223 4.41662 20.5078 4.3446 20.4773C4.05726 20.3555 3.92314 20.0237 4.04502 19.7363L5.60923 16.0489C6.22007 14.6095 7.31485 12.696 9.76028 12.696H10.8024H11.5696C12.9578 12.696 13.888 11.8993 14.6802 10.032L16.2444 6.34454C16.3662 6.05721 16.6981 5.92321 16.9853 6.04496C17.2726 6.16684 17.4068 6.49857 17.2848 6.78597ZM21.9464 11.7464C23.2458 11.7464 24.3029 10.6892 24.3029 9.38983C24.3029 8.09048 23.2458 7.03331 21.9464 7.03331C20.647 7.03331 19.5899 8.09041 19.5899 9.38977C19.5899 10.6891 20.647 11.7464 21.9464 11.7464ZM21.9464 8.16356C22.6226 8.16356 23.1726 8.71369 23.1726 9.38977C23.1726 10.066 22.6226 10.616 21.9464 10.616C21.2702 10.616 20.7201 10.0659 20.7201 9.38977C20.7201 8.71369 21.2702 8.16356 21.9464 8.16356ZM24.6562 19.0972C24.8005 19.3694 24.7003 19.7079 24.4294 19.8568L21.1909 21.637L23.8242 26.2772C23.8246 26.2779 23.8249 26.2787 23.8253 26.2794C23.8332 26.2936 23.8404 26.3081 23.8471 26.3228C23.8482 26.3253 23.8495 26.3277 23.8506 26.3301C23.8568 26.3442 23.8622 26.3587 23.8671 26.3734C23.8683 26.3768 23.8696 26.38 23.8707 26.3833C23.8746 26.3954 23.8776 26.4077 23.8807 26.4201C23.8822 26.4262 23.8841 26.4322 23.8853 26.4382C23.8873 26.4475 23.8885 26.457 23.89 26.4664C23.8916 26.4757 23.8933 26.485 23.8943 26.4944C23.8951 26.502 23.8953 26.5098 23.8959 26.5174C23.8966 26.5286 23.8975 26.5398 23.8976 26.551C23.8976 26.5527 23.8978 26.5543 23.8978 26.556C23.8978 26.5626 23.8971 26.569 23.8968 26.5756C23.8965 26.5858 23.8962 26.596 23.8953 26.6061C23.8944 26.6163 23.8929 26.6261 23.8915 26.636C23.8904 26.6439 23.8894 26.6519 23.8878 26.6598C23.8858 26.671 23.8831 26.6819 23.8804 26.6929C23.8787 26.6994 23.8772 26.706 23.8754 26.7125C23.8722 26.7237 23.8684 26.7347 23.8645 26.7456C23.8622 26.752 23.86 26.7582 23.8576 26.7644C23.8535 26.7747 23.849 26.7847 23.8444 26.7946C23.8411 26.8016 23.8379 26.8085 23.8344 26.8153C23.83 26.8239 23.8252 26.8323 23.8203 26.8406C23.8157 26.8485 23.8111 26.8563 23.8062 26.8638C23.8016 26.8708 23.7968 26.8776 23.792 26.8843C23.786 26.8927 23.7799 26.901 23.7734 26.9091C23.7688 26.9149 23.7639 26.9205 23.759 26.9261C23.7518 26.9343 23.7447 26.9424 23.737 26.9502C23.7317 26.9556 23.7263 26.9607 23.7208 26.9659C23.7132 26.9731 23.7054 26.9803 23.6973 26.9872C23.6906 26.9929 23.6835 26.9982 23.6766 27.0036C23.6692 27.0092 23.662 27.0149 23.6544 27.0202C23.6453 27.0265 23.6357 27.0323 23.6263 27.0381C23.6212 27.0411 23.6166 27.0446 23.6115 27.0475C23.6104 27.0481 23.6092 27.0485 23.608 27.0491C23.5885 27.0601 23.5682 27.0699 23.5473 27.0785C23.5427 27.0804 23.538 27.0818 23.5334 27.0836C23.5178 27.0896 23.5018 27.0949 23.4854 27.0995C23.4777 27.1016 23.47 27.1036 23.4622 27.1055C23.4489 27.1086 23.4354 27.1111 23.4217 27.1133C23.4131 27.1147 23.4046 27.1163 23.396 27.1173C23.3819 27.1188 23.3676 27.1195 23.3532 27.12C23.3465 27.1202 23.3398 27.1213 23.3331 27.1213C23.3318 27.1213 23.3306 27.121 23.3293 27.121H21.8058C21.4937 27.121 21.2407 26.8681 21.2407 26.5559C21.2407 26.2438 21.4937 25.9908 21.8058 25.9908H22.3619L19.925 21.6965C19.8504 21.565 19.8315 21.409 19.8727 21.2635C19.9139 21.1181 20.0117 20.9952 20.1443 20.9223L23.4955 19.0801L22.4893 15.3587C22.4079 15.0574 22.5861 14.7471 22.8874 14.6656C23.1889 14.5844 23.499 14.7624 23.5804 15.0637L24.6373 18.9725C24.6486 19.0143 24.6544 19.056 24.6562 19.0972ZM28.9528 6.82534L27.3467 10.5127C26.7205 11.95 25.599 13.8607 23.1006 13.8607H21.2429C18.7443 13.8607 17.6228 11.95 16.9966 10.5128C16.8719 10.2267 17.0028 9.89367 17.2889 9.76897C17.5751 9.64439 17.9081 9.77519 18.0327 10.0613C18.8479 11.9322 19.8079 12.7304 21.2426 12.7304H23.1005C24.5353 12.7304 25.4953 11.9322 26.3105 10.0613L27.9165 6.37399C28.0412 6.08785 28.3742 5.95699 28.6603 6.08157C28.9466 6.20621 29.0775 6.53926 28.9528 6.82534ZM19.1707 19.2563C19.3642 19.5012 19.3225 19.8567 19.0776 20.0502C18.9739 20.1322 18.8503 20.1719 18.7276 20.1719C18.5606 20.1719 18.3954 20.0983 18.2839 19.9571L17.7989 19.3434C17.6054 19.0985 17.6471 18.743 17.892 18.5496C18.1368 18.356 18.4922 18.3977 18.6857 18.6426L19.1707 19.2563ZM15.3528 15.4991L14.868 16.1128C14.7565 16.2539 14.5912 16.3276 14.4242 16.3276C14.3015 16.3276 14.178 16.2878 14.0743 16.2059C13.8294 16.0124 13.7877 15.657 13.9812 15.4121L14.466 14.7984C14.6594 14.5535 15.0148 14.5119 15.2597 14.7053C15.5047 14.8989 15.5464 15.2542 15.3528 15.4991ZM28.3787 15.4991L27.8938 16.1128C27.7823 16.2539 27.6169 16.3276 27.45 16.3276C27.3273 16.3276 27.2038 16.2878 27.1 16.2059C26.8551 16.0124 26.8134 15.6571 27.0069 15.4122L27.4918 14.7985C27.6853 14.5535 28.0406 14.5118 28.2856 14.7054C28.5304 14.8989 28.5722 15.2542 28.3787 15.4991ZM4.37901 11.4198C4.18548 11.1749 4.22724 10.8195 4.47206 10.6261C4.71689 10.4325 5.07229 10.4742 5.26588 10.7191L5.75076 11.3328C5.94428 11.5777 5.90253 11.9331 5.6577 12.1266C5.55397 12.2086 5.43039 12.2482 5.3077 12.2482C5.14074 12.2482 4.9754 12.1747 4.86389 12.0334L4.37901 11.4198ZM6.23558 23.4051C6.4291 23.65 6.38734 24.0054 6.14246 24.199C6.03872 24.2809 5.91515 24.3206 5.79252 24.3206C5.62555 24.3206 5.46022 24.247 5.3487 24.1058L4.86389 23.4922C4.67036 23.2473 4.71212 22.8919 4.95701 22.6983C5.20183 22.5049 5.55723 22.5466 5.75076 22.7915L6.23558 23.4051Z" fill="white"/>
</svg>
