<svg width="33" height="33" viewBox="0 0 33 33" fill="none" xmlns="http://www.w3.org/2000/svg">
<rect width="33" height="33" rx="11" fill="#30CDD7"/>
<g clip-path="url(#clip0)">
<path d="M24.7754 9.92545C24.0785 8.63654 23.197 7.55082 22.28 6.85505C21.1973 6.03346 20.1127 5.79382 19.2263 6.18012C18.6426 6.43437 18.1995 6.93045 17.922 7.62934C17.0111 7.39629 16.0734 7.39112 15.1589 7.61547C14.8807 6.92397 14.4393 6.43265 13.8601 6.18028C12.9798 5.79644 11.9028 6.03043 10.8275 6.83909C9.92079 7.52083 9.04559 8.58695 8.34924 9.85469C6.95729 10.6049 6.03943 12.0697 6.03943 13.7216C6.03943 15.7821 7.46584 17.5334 9.41688 17.9939C9.00748 21.483 9.03016 21.2706 9.03016 21.3263C9.03016 24.6779 13.2045 27 16.5156 27C19.8191 27 24.0011 24.6834 24.0011 21.3263C24.0011 21.2691 24.0218 21.4696 23.6138 17.9862C25.5433 17.5157 26.9605 15.7781 26.9605 13.7216C26.9606 12.1473 26.1282 10.7104 24.7754 9.92545V9.92545ZM7.27012 13.7216C7.27012 12.513 7.97504 11.3938 9.06602 10.8704C9.18482 10.8134 9.2822 10.7198 9.34378 10.6033C9.97153 9.4162 10.7611 8.42869 11.5671 7.82259C11.9757 7.51538 12.753 7.04002 13.3684 7.30834C13.6725 7.44084 13.8708 7.72754 14.0004 8.0325C11.7769 9.10173 10.2611 11.2767 9.89519 13.9251C9.89256 13.944 9.76499 15.0284 9.56185 16.7595C8.23824 16.3782 7.27012 15.1425 7.27012 13.7216V13.7216ZM16.5 20.6174L15.5757 19.8408C15.3901 19.6849 15.378 19.4813 15.4284 19.3427C15.4638 19.2456 15.5648 19.0828 15.8437 19.0828H17.1564C17.4352 19.0828 17.536 19.2452 17.5713 19.342C17.6219 19.4809 17.6099 19.6849 17.4244 19.8408L16.5 20.6174ZM17.1154 25.7406V21.7077L18.216 20.783C19.3997 19.7886 18.7727 17.8521 17.1564 17.8521C15.3526 17.8521 15.9648 17.8507 15.8344 17.8521C14.2261 17.8599 13.6016 19.7896 14.784 20.783L15.8847 21.7077V25.7377C13.2127 25.4772 10.2903 23.6256 10.2611 21.3604C11.0335 14.7758 11.1105 14.1239 11.1117 14.112C11.4792 11.9404 12.8442 9.75102 14.8962 8.97584C15.0161 8.94737 16.3732 8.33889 18.0735 8.95898C18.0968 8.96952 18.1211 8.97821 18.146 8.98593C19.9641 9.68285 21.4068 11.5215 21.8849 13.9254C21.9858 14.6325 21.9149 14.0685 22.7702 21.3604C22.7409 23.6345 19.7957 25.4916 17.1154 25.7406V25.7406ZM23.4693 16.7527C23.3804 15.9943 23.1462 13.9607 23.0954 13.7033C22.6329 11.3548 21.2419 9.11933 19.0761 8.05641C19.2055 7.74165 19.406 7.44412 19.7179 7.3083C20.3389 7.03776 21.1236 7.52235 21.5362 7.83535C22.3471 8.45067 23.1381 9.44837 23.7647 10.6456C23.822 10.7629 23.9155 10.8597 24.0326 10.9208C25.0795 11.4678 25.7299 12.541 25.7299 13.7216C25.7299 15.1533 24.7922 16.3666 23.4693 16.7527V16.7527Z" fill="white"/>
<path d="M13.9846 13.2363C13.6448 13.2363 13.3693 13.5118 13.3693 13.8517V14.5748C13.3693 14.9147 13.6448 15.1902 13.9846 15.1902C14.3244 15.1902 14.5999 14.9147 14.5999 14.5748V13.8517C14.5999 13.5118 14.3244 13.2363 13.9846 13.2363Z" fill="white"/>
<path d="M18.6852 13.2363C18.3453 13.2363 18.0698 13.5118 18.0698 13.8517V14.5748C18.0698 14.9147 18.3453 15.1902 18.6852 15.1902C19.025 15.1902 19.3005 14.9147 19.3005 14.5748V13.8517C19.3005 13.5118 19.025 13.2363 18.6852 13.2363Z" fill="white"/>
</g>
<defs>
<clipPath id="clip0">
<rect width="21" height="21" fill="white" transform="translate(6 6)"/>
</clipPath>
</defs>
</svg>
