<svg width="33" height="33" viewBox="0 0 33 33" fill="none" xmlns="http://www.w3.org/2000/svg">
<rect width="33" height="33" rx="11" fill="#30CDD7"/>
<path d="M25.6331 15.3369L28.7695 9.19509C28.8924 8.95457 28.9679 8.69157 28.9918 8.42109C29.0157 8.15061 28.9874 7.87796 28.9086 7.61869C28.8298 7.35943 28.702 7.11864 28.5325 6.91006C28.363 6.70149 28.1551 6.52922 27.9207 6.40308C27.6863 6.27695 27.43 6.19942 27.1665 6.17493C26.9029 6.15044 26.6372 6.17946 26.3845 6.26034C26.1319 6.34122 25.8973 6.47238 25.694 6.64632C25.4908 6.82026 25.3229 7.03358 25.2 7.27409L22.0636 13.4189C21.9153 13.7119 21.8378 14.0373 21.8378 14.3675C21.8378 14.6977 21.9153 15.023 22.0636 15.316L21.0927 17.2191L19.7265 16.5211C19.6304 16.4717 19.5195 16.4621 19.4166 16.4943C19.3138 16.5265 19.227 16.598 19.1742 16.6941L16.593 21.3266C16.2059 22.0244 15.9978 22.8116 15.9884 23.6145C15.6533 23.4547 15.2882 23.3722 14.9187 23.3729H14.8664C14.7726 23.0029 14.562 22.6751 14.2675 22.4409C13.973 22.2067 13.6112 22.0792 13.2386 22.0783V18.6301H13.6601C14.8848 18.6293 16.0592 18.1296 16.9252 17.2409C17.7913 16.3522 18.2782 15.147 18.2789 13.8902V12.1691C18.2789 11.8257 18.146 11.4964 17.9094 11.2537C17.6728 11.0109 17.352 10.8745 17.0174 10.8745H13.7647C13.0269 10.8727 12.2991 11.0492 11.64 11.3896C10.981 11.7301 10.4094 12.225 9.97137 12.8343C9.50171 12.679 9.01141 12.5995 8.51798 12.5986H5.25949C4.92568 12.5986 4.60554 12.7347 4.3695 12.9769C4.13346 13.2191 4.00085 13.5476 4.00085 13.8902V15.6143C4.00239 16.8709 4.48952 18.0756 5.35539 18.9642C6.22126 19.8527 7.39519 20.3526 8.61972 20.3542H10.7184V22.1439C10.4303 22.2155 10.1657 22.3637 9.95102 22.5735C9.5247 22.4404 9.06435 22.4863 8.67093 22.701C8.2775 22.9157 7.98312 23.2818 7.85233 23.7189L7.81745 23.8561C7.60502 23.7948 7.3829 23.777 7.16377 23.8038C6.94463 23.8305 6.73279 23.9013 6.54033 24.0121C6.34787 24.1229 6.17856 24.2716 6.04209 24.4495C5.90561 24.6275 5.80463 24.8313 5.74492 25.0493V25.0881H5.25949C5.20389 25.0885 5.14892 25.1001 5.09773 25.1224C5.04655 25.1447 5.00017 25.1772 4.96126 25.2179C4.92236 25.2587 4.89169 25.3069 4.87104 25.3599C4.85038 25.4129 4.84014 25.4695 4.84091 25.5266V25.5266C4.84091 25.6405 4.88501 25.7497 4.96351 25.8303C5.04201 25.9109 5.14847 25.9561 5.25949 25.9561H6.14896C6.24764 25.9561 6.34228 25.9159 6.41205 25.8443C6.48183 25.7727 6.52103 25.6756 6.52103 25.5743V25.5743C6.51652 25.3662 6.58284 25.163 6.70858 24.9997C6.83432 24.8363 7.01161 24.7231 7.20993 24.6794C7.40878 24.6444 7.61326 24.6835 7.78649 24.7896C7.95972 24.8957 8.09029 25.0619 8.15464 25.2581C8.18101 25.344 8.23317 25.419 8.30366 25.4726C8.37414 25.5262 8.45934 25.5555 8.54705 25.5564C8.61668 25.5573 8.68545 25.5405 8.7472 25.5075C8.80896 25.4744 8.86178 25.4262 8.90094 25.3671C8.94009 25.308 8.96437 25.2399 8.9716 25.1688C8.97884 25.0977 8.96879 25.0259 8.94237 24.9598C8.87823 24.7596 8.7798 24.5727 8.65169 24.408C8.62913 24.2975 8.628 24.1836 8.64837 24.0726C8.66874 23.9617 8.71021 23.856 8.77041 23.7615C8.8306 23.6671 8.90835 23.5857 8.99921 23.5221C9.09006 23.4585 9.19224 23.4139 9.2999 23.3908C9.35732 23.3789 9.41574 23.3729 9.47431 23.3729H9.52373C9.68662 23.3841 9.84284 23.4437 9.97339 23.5443C10.1039 23.6449 10.2032 23.7822 10.2591 23.9397C10.2874 24.0255 10.3408 24.1003 10.4121 24.1537C10.4834 24.2071 10.5691 24.2365 10.6574 24.2379V24.2379C10.7268 24.2384 10.7952 24.2212 10.8565 24.1879C10.9179 24.1547 10.9703 24.1064 11.0091 24.0474C11.048 23.9884 11.072 23.9205 11.0791 23.8496C11.0862 23.7788 11.0761 23.7072 11.0498 23.6414C10.9668 23.4285 10.8433 23.2348 10.6864 23.0716C10.8376 22.9744 11.0152 22.9295 11.193 22.9435C11.3709 22.9574 11.5397 23.0295 11.6747 23.1492C11.6633 23.1743 11.6536 23.2002 11.6457 23.2267C11.6227 23.2917 11.6155 23.3615 11.6244 23.43C11.6334 23.4985 11.6583 23.5638 11.6971 23.6203C11.7359 23.6768 11.7874 23.7229 11.8473 23.7546C11.9072 23.7863 11.9736 23.8027 12.041 23.8024V23.8024C12.1291 23.8017 12.2147 23.7725 12.2857 23.719C12.3567 23.6654 12.4094 23.5902 12.4363 23.5041C12.495 23.3346 12.604 23.1882 12.7478 23.0854C12.8917 22.9826 13.0633 22.9286 13.2386 22.9309C13.4139 22.9332 13.5841 22.9917 13.7253 23.0983C13.8666 23.2048 13.9718 23.354 14.0263 23.525C13.6233 23.6797 13.2655 23.9378 12.9872 24.2746C12.7089 24.6114 12.5192 25.0157 12.4363 25.449C12.4238 25.5088 12.4244 25.5707 12.4381 25.6303C12.4518 25.6898 12.4783 25.7454 12.5156 25.7931C12.5529 25.8409 12.6001 25.8794 12.6538 25.9061C12.7074 25.9327 12.7662 25.9468 12.8258 25.9472H12.8665C12.9612 25.9452 13.0524 25.9097 13.1244 25.8466C13.1965 25.7836 13.2451 25.6968 13.2618 25.6011C13.3264 25.2819 13.4781 24.9881 13.699 24.7539C13.92 24.5197 14.2013 24.3547 14.5101 24.2781C14.8189 24.2015 15.1426 24.2165 15.4434 24.3214C15.7442 24.4262 16.0098 24.6166 16.2093 24.8703C15.8363 25.0846 15.5567 25.4366 15.4274 25.8547C15.4087 25.9189 15.4049 25.9866 15.4165 26.0526C15.4281 26.1185 15.4546 26.1807 15.4939 26.2341C15.5333 26.2876 15.5843 26.3308 15.643 26.3602C15.7016 26.3896 15.7662 26.4045 15.8314 26.4035C15.9195 26.4028 16.0052 26.3736 16.0761 26.3201C16.1471 26.2665 16.1998 26.1913 16.2267 26.1053C16.2859 25.9385 16.3937 25.7944 16.5354 25.6926C16.6771 25.5908 16.8459 25.5362 17.0188 25.5362C17.1918 25.5362 17.3606 25.5908 17.5023 25.6926C17.644 25.7944 17.7518 25.9385 17.8109 26.1053C17.8377 26.1909 17.89 26.2657 17.9604 26.3192C18.0308 26.3727 18.1158 26.4022 18.2034 26.4035V26.4035C18.2691 26.4056 18.3343 26.3916 18.3937 26.3625C18.453 26.3335 18.5047 26.2903 18.5446 26.2367C18.5844 26.183 18.6111 26.1203 18.6225 26.0538C18.634 25.9874 18.6298 25.9191 18.6103 25.8547C18.5923 25.7944 18.57 25.7356 18.5434 25.6787C18.7211 25.5852 18.9179 25.5365 19.1175 25.5365C19.3172 25.5365 19.514 25.5852 19.6916 25.6787L19.6393 25.807C19.6137 25.8729 19.6042 25.9442 19.6117 26.0147C19.6191 26.0853 19.6432 26.1529 19.6818 26.2117C19.7205 26.2705 19.7726 26.3187 19.8336 26.3522C19.8946 26.3856 19.9626 26.4032 20.0317 26.4035V26.4035C20.1195 26.4015 20.2045 26.3718 20.2753 26.3184C20.346 26.2651 20.399 26.1906 20.427 26.1053C20.4855 25.9381 20.5928 25.7936 20.7343 25.6915C20.8759 25.5893 21.0447 25.5345 21.2177 25.5345C21.3907 25.5345 21.5595 25.5893 21.701 25.6915C21.8425 25.7936 21.9499 25.9381 22.0083 26.1053C22.036 26.1909 22.0889 26.2655 22.1597 26.319C22.2305 26.3724 22.3158 26.402 22.4036 26.4035V26.4035C22.471 26.4036 22.5375 26.3871 22.5973 26.3554C22.6572 26.3237 22.7088 26.2778 22.7478 26.2214C22.7869 26.165 22.8121 26.0998 22.8215 26.0314C22.8309 25.9629 22.8242 25.8931 22.8019 25.8278L22.7728 25.7473C22.9421 25.5992 23.1618 25.5261 23.3836 25.544C23.6054 25.5619 23.8112 25.6693 23.9559 25.8428C24.0829 25.995 24.1539 26.1882 24.1564 26.3886C24.1557 26.4462 24.166 26.5034 24.1867 26.5569C24.2075 26.6104 24.2383 26.6592 24.2775 26.7004C24.3166 26.7417 24.3633 26.7747 24.4148 26.7974C24.4664 26.8202 24.5218 26.8323 24.5779 26.8331H27.5167C27.5717 26.8335 27.6263 26.8226 27.6773 26.8012C27.7283 26.7797 27.7746 26.7481 27.8135 26.7082C27.8524 26.6682 27.8833 26.6207 27.9042 26.5684C27.9251 26.5161 27.9356 26.4601 27.9352 26.4035C27.9356 26.3469 27.9251 26.2907 27.9042 26.2383C27.8833 26.1858 27.8526 26.1381 27.8137 26.0979C27.7748 26.0577 27.7285 26.0258 27.6775 26.004C27.6265 25.9822 27.5719 25.971 27.5167 25.971H24.9442C24.8818 25.722 24.7659 25.4905 24.605 25.2934C24.444 25.0964 24.2421 24.9389 24.014 24.8324C23.7859 24.726 23.5375 24.6733 23.287 24.6784C23.0365 24.6834 22.7903 24.7459 22.5664 24.8614C22.6681 24.6949 22.7603 24.5226 22.8426 24.3453L24.9587 19.6741C25.0049 19.5722 25.0104 19.4559 24.974 19.3499C24.9376 19.244 24.8622 19.1569 24.7639 19.1073L23.1856 18.296L24.1448 16.4167C24.4582 16.3697 24.7563 16.2474 25.015 16.0597C25.2736 15.8721 25.4854 15.6244 25.6331 15.3369ZM12.3985 22.311C12.3259 22.3552 12.256 22.404 12.1892 22.4571C12.0044 22.3039 11.7891 22.1939 11.5585 22.135V19.9246C11.5589 19.868 11.5483 19.8118 11.5274 19.7594C11.5066 19.7069 11.4758 19.6592 11.4369 19.619C11.398 19.5788 11.3517 19.5469 11.3007 19.5251C11.2498 19.5033 11.1951 19.4921 11.1399 19.4921H10.2998C9.29763 19.4921 8.33648 19.0836 7.62781 18.3563C6.91915 17.6291 6.52103 16.6428 6.52103 15.6143V15.6143C6.52103 15.5577 6.51011 15.5016 6.48889 15.4493C6.46767 15.397 6.43658 15.3495 6.3974 15.3095C6.35823 15.2696 6.31174 15.238 6.26062 15.2166C6.2095 15.1952 6.15476 15.1844 6.09955 15.1848V15.1848C6.04458 15.1848 5.99015 15.1959 5.93936 15.2175C5.88858 15.2391 5.84244 15.2707 5.80357 15.3106C5.7647 15.3505 5.73387 15.3978 5.71283 15.45C5.6918 15.5021 5.68097 15.5579 5.68097 15.6143V15.6143C5.68046 16.3137 5.83116 17.0045 6.12219 17.6369C6.41322 18.2692 6.83735 18.8275 7.36399 19.2714C6.62636 19.0047 5.98754 18.5097 5.53563 17.8547C5.08372 17.1997 4.84099 16.4169 4.84091 15.6143V13.8902C4.84167 13.7765 4.88602 13.6677 4.96435 13.5873C5.04269 13.507 5.14871 13.4614 5.25949 13.4607H8.51508C9.54456 13.4622 10.5314 13.8826 11.2594 14.6296C11.9873 15.3767 12.397 16.3894 12.3985 17.4458V22.311ZM10.7678 13.1862C11.1316 12.7319 11.5891 12.3662 12.1074 12.1155C12.6257 11.8648 13.1917 11.7354 13.7647 11.7365H17.0174C17.1292 11.7365 17.2364 11.7821 17.3154 11.8632C17.3945 11.9443 17.4389 12.0543 17.4389 12.1691V13.8902C17.4392 14.6936 17.1963 15.4773 16.7438 16.133C16.2913 16.7886 15.6515 17.2839 14.9129 17.5502C15.4381 17.1043 15.8614 16.5452 16.1527 15.9128C16.4441 15.2803 16.5964 14.5898 16.5988 13.8902C16.598 13.776 16.5533 13.6668 16.4743 13.5863C16.3954 13.5058 16.2886 13.4607 16.1773 13.4607V13.4607C16.0666 13.4614 15.9605 13.507 15.8822 13.5873C15.8039 13.6677 15.7595 13.7765 15.7588 13.8902V13.8902C15.7589 14.6924 15.5166 15.4749 15.0652 16.1299C14.6139 16.7849 13.9757 17.2801 13.2386 17.5473V17.4458C13.2387 16.5733 13.0093 15.7169 12.5744 14.9672C12.1395 14.2174 11.5153 13.6021 10.7678 13.1862V13.1862ZM24.0227 19.692L22.081 23.9665C21.9584 24.2334 21.8073 24.4855 21.6304 24.7182C21.392 24.6559 21.1432 24.6482 20.9016 24.6956C20.66 24.7431 20.4315 24.8445 20.2323 24.9926C19.898 24.7767 19.5111 24.6619 19.1161 24.6615H19.0579L20.1218 22.66C20.1503 22.61 20.1687 22.5545 20.1758 22.497C20.1829 22.4395 20.1785 22.3811 20.1631 22.3254C20.1476 22.2697 20.1213 22.2177 20.0857 22.1727C20.0501 22.1277 20.0061 22.0905 19.9561 22.0634V22.0634C19.9071 22.0347 19.853 22.0163 19.7969 22.0095C19.7408 22.0027 19.684 22.0075 19.6298 22.0236C19.5755 22.0397 19.525 22.0669 19.4812 22.1035C19.4374 22.14 19.4012 22.1852 19.3748 22.2364L17.9534 24.9598C17.7024 24.7826 17.4088 24.6794 17.1046 24.6615C17.0397 24.5443 16.9659 24.4326 16.8837 24.3274C16.7348 23.4408 16.891 22.5286 17.3255 21.7472L19.6974 17.4757L20.6857 17.9828L19.9009 19.5399C19.8095 19.7199 19.7638 19.9207 19.7678 20.1237C19.7718 20.3267 19.8255 20.5254 19.9239 20.7015C20.0223 20.8777 20.1623 21.0256 20.3309 21.1317C20.4996 21.2378 20.6916 21.2987 20.8892 21.3087C21.1126 21.3219 21.3349 21.2672 21.5282 21.1515C21.7215 21.0359 21.8774 20.8644 21.9763 20.6584L22.7902 19.0626L24.0227 19.692ZM21.2351 20.2558C21.2074 20.3106 21.1657 20.3567 21.1146 20.3893C21.0634 20.4218 21.0046 20.4396 20.9444 20.4407C20.8788 20.4411 20.8147 20.4203 20.7613 20.381C20.6924 20.335 20.6428 20.2641 20.6224 20.1824C20.6019 20.1006 20.6121 20.014 20.6509 19.9396L22.6449 16.029C22.7743 16.1268 22.9137 16.2098 23.0606 16.2765L23.2379 16.3451L21.2351 20.2558ZM23.3861 15.4831C23.2432 15.422 23.1137 15.3322 23.005 15.2191C22.8964 15.1059 22.8109 14.9716 22.7535 14.8241C22.6961 14.6766 22.6679 14.5188 22.6708 14.3599C22.6736 14.2011 22.7073 14.0444 22.7699 13.8992C22.7817 13.8704 22.7953 13.8425 22.8106 13.8156L25.9441 7.6738C26.0782 7.38544 26.3185 7.16357 26.6121 7.05701C26.9056 6.95044 27.2284 6.9679 27.5094 7.10556C27.7904 7.24321 28.0066 7.48978 28.1104 7.79102C28.2143 8.09226 28.1973 8.4235 28.0631 8.71186L28.0253 8.79538L24.8889 14.9372C24.7508 15.2051 24.5198 15.41 24.2416 15.5116C23.9634 15.6132 23.6581 15.6041 23.3861 15.4861V15.4831Z" fill="white"/>
</svg>
