<svg width="33" height="33" viewBox="0 0 33 33" fill="none" xmlns="http://www.w3.org/2000/svg">
<rect width="33" height="33" rx="11" fill="#30CDD7"/>
<g clip-path="url(#clip0)">
<path d="M24.7756 11.6999H8.22681C7.99487 11.6911 7.76359 11.7307 7.54679 11.8161C7.33 11.9016 7.13213 12.0313 6.96503 12.1974C6.79792 12.3635 6.66501 12.5627 6.57422 12.783C6.48344 13.0033 6.43665 13.2402 6.43665 13.4795C6.43665 13.7189 6.48344 13.9558 6.57422 14.1761C6.66501 14.3964 6.79792 14.5955 6.96503 14.7616C7.13213 14.9278 7.33 15.0574 7.54679 15.1429C7.76359 15.2284 7.99487 15.2679 8.22681 15.2591H12.5368V19.5143C10.9078 19.1807 10.0188 18.6911 9.97687 18.4199C9.97687 18.3551 10.2096 18.0455 11.1219 17.6999C11.1974 17.6767 11.2675 17.6379 11.3281 17.5859C11.3886 17.5339 11.4383 17.4697 11.4741 17.3973C11.5098 17.3248 11.531 17.2457 11.5362 17.1646C11.5414 17.0835 11.5306 17.0021 11.5044 16.9255C11.4782 16.8488 11.4371 16.7785 11.3838 16.7187C11.3304 16.6589 11.2658 16.6109 11.1939 16.5776C11.122 16.5443 11.0443 16.5264 10.9655 16.525C10.8867 16.5236 10.8085 16.5388 10.7355 16.5695C9.46721 17.0423 8.82723 17.6615 8.82723 18.4199C8.8319 18.6063 8.87307 18.7897 8.94826 18.9592C9.02345 19.1287 9.1311 19.2808 9.26475 19.4063C10.2236 20.3999 13.0814 21.0599 16.3813 21.0599H16.6141C19.9652 21.0599 22.7556 20.4119 23.7376 19.4039C23.8737 19.2802 23.9837 19.1291 24.0609 18.9598C24.1382 18.7906 24.181 18.6069 24.1868 18.4199C24.1868 17.6615 23.5422 17.0423 22.2668 16.5791C22.1935 16.5418 22.1134 16.5207 22.0317 16.5175C21.9499 16.5142 21.8684 16.5287 21.7925 16.5601C21.7166 16.5915 21.648 16.639 21.5911 16.6996C21.5342 16.7602 21.4903 16.8325 21.4623 16.9118C21.4343 16.991 21.4229 17.0755 21.4287 17.1596C21.4345 17.2438 21.4575 17.3257 21.496 17.4001C21.5346 17.4744 21.588 17.5396 21.6526 17.5912C21.7173 17.6429 21.7918 17.6799 21.8712 17.6999C22.8021 18.0359 23.0092 18.3455 23.0162 18.4199C22.9836 18.6887 22.1063 19.1783 20.4563 19.5119V15.2591H24.7756C25.2223 15.2422 25.6452 15.0473 25.9554 14.7154C26.2656 14.3835 26.439 13.9405 26.439 13.4795C26.439 13.0186 26.2656 12.5755 25.9554 12.2436C25.6452 11.9117 25.2223 11.7169 24.7756 11.6999V11.6999ZM24.7756 14.0591H19.8884C19.7341 14.0591 19.5862 14.1223 19.477 14.2349C19.3679 14.3474 19.3066 14.5 19.3066 14.6591V19.6991C18.3846 19.8129 17.4565 19.8666 16.528 19.8599C15.5831 19.8695 14.6387 19.8166 13.7004 19.7015V14.6615C13.7007 14.5826 13.6859 14.5045 13.6567 14.4315C13.6276 14.3586 13.5848 14.2923 13.5307 14.2366C13.4766 14.1808 13.4123 14.1366 13.3416 14.1066C13.2709 14.0765 13.1951 14.0612 13.1186 14.0615H8.23147C8.15462 14.0666 8.07758 14.0554 8.00509 14.0286C7.93261 14.0018 7.86623 13.9599 7.81006 13.9056C7.75388 13.8513 7.70911 13.7857 7.6785 13.7128C7.64789 13.6399 7.6321 13.5613 7.6321 13.4819C7.6321 13.4025 7.64789 13.3239 7.6785 13.2511C7.70911 13.1782 7.75388 13.1126 7.81006 13.0583C7.86623 13.0039 7.93261 12.9621 8.00509 12.9353C8.07758 12.9084 8.15462 12.8972 8.23147 12.9023H24.7756C24.9184 12.9118 25.0523 12.977 25.1502 13.0847C25.2481 13.1923 25.3026 13.3344 25.3026 13.4819C25.3026 13.6295 25.2481 13.7716 25.1502 13.8792C25.0523 13.9869 24.9184 14.052 24.7756 14.0615V14.0591Z" fill="white"/>
<path d="M16.507 10.5C17.0824 10.5 17.6448 10.3241 18.1232 9.99441C18.6016 9.66477 18.9744 9.19623 19.1946 8.64805C19.4148 8.09987 19.4724 7.49667 19.3601 6.91473C19.2479 6.33279 18.9708 5.79824 18.564 5.37868C18.1572 4.95912 17.6388 4.6734 17.0745 4.55765C16.5103 4.44189 15.9254 4.5013 15.3938 4.72836C14.8622 4.95543 14.4079 5.33994 14.0883 5.83329C13.7686 6.32664 13.598 6.90666 13.598 7.5C13.5993 8.29526 13.9061 9.05759 14.4514 9.61992C14.9967 10.1823 15.7359 10.4987 16.507 10.5V10.5ZM16.507 5.7C16.8522 5.7 17.1897 5.80557 17.4767 6.00336C17.7638 6.20114 17.9875 6.48226 18.1196 6.81117C18.2517 7.14008 18.2862 7.502 18.2189 7.85116C18.1516 8.20033 17.9853 8.52106 17.7412 8.77279C17.4971 9.02453 17.1861 9.19596 16.8475 9.26542C16.509 9.33487 16.158 9.29922 15.8391 9.16298C15.5202 9.02675 15.2476 8.79604 15.0558 8.50003C14.864 8.20402 14.7616 7.85601 14.7616 7.5C14.7616 7.02261 14.9455 6.56477 15.2728 6.22721C15.6002 5.88964 16.0441 5.7 16.507 5.7V5.7Z" fill="white"/>
<path d="M19.9978 22.2598C19.8435 22.2598 19.6955 22.323 19.5864 22.4355C19.4773 22.548 19.416 22.7006 19.416 22.8598V26.5798C19.416 26.7707 19.3425 26.9539 19.2115 27.0889C19.0806 27.2239 18.903 27.2998 18.7178 27.2998C18.5327 27.2998 18.3551 27.2239 18.2242 27.0889C18.0932 26.9539 18.0197 26.7707 18.0197 26.5798V22.8598C18.0197 22.7006 17.9584 22.548 17.8493 22.4355C17.7402 22.323 17.5922 22.2598 17.4379 22.2598C17.2836 22.2598 17.1356 22.323 17.0265 22.4355C16.9174 22.548 16.8561 22.7006 16.8561 22.8598V26.5798C16.8561 27.089 17.0522 27.5773 17.4014 27.9374C17.7505 28.2975 18.2241 28.4998 18.7178 28.4998C19.2116 28.4998 19.6852 28.2975 20.0343 27.9374C20.3835 27.5773 20.5796 27.089 20.5796 26.5798V22.8598C20.5796 22.7006 20.5183 22.548 20.4092 22.4355C20.3001 22.323 20.1521 22.2598 19.9978 22.2598V22.2598Z" fill="white"/>
<path d="M15.5762 22.2598C15.4219 22.2598 15.2739 22.323 15.1648 22.4355C15.0557 22.548 14.9944 22.7006 14.9944 22.8598V26.5798C14.9944 26.7707 14.9208 26.9539 14.7899 27.0889C14.659 27.2239 14.4814 27.2998 14.2962 27.2998C14.111 27.2998 13.9335 27.2239 13.8025 27.0889C13.6716 26.9539 13.5981 26.7707 13.5981 26.5798V22.8598C13.5981 22.7006 13.5368 22.548 13.4276 22.4355C13.3185 22.323 13.1706 22.2598 13.0162 22.2598C12.8619 22.2598 12.714 22.323 12.6049 22.4355C12.4957 22.548 12.4344 22.7006 12.4344 22.8598V26.5798C12.4344 27.089 12.6306 27.5773 12.9797 27.9374C13.3289 28.2975 13.8024 28.4998 14.2962 28.4998C14.79 28.4998 15.2635 28.2975 15.6127 27.9374C15.9618 27.5773 16.158 27.089 16.158 26.5798V22.8598C16.158 22.7006 16.0967 22.548 15.9876 22.4355C15.8785 22.323 15.7305 22.2598 15.5762 22.2598V22.2598Z" fill="white"/>
</g>
<defs>
<clipPath id="clip0">
<rect width="20" height="24" fill="white" transform="translate(6.5 4.5)"/>
</clipPath>
</defs>
</svg>
