<svg width="33" height="33" viewBox="0 0 33 33" fill="none" xmlns="http://www.w3.org/2000/svg">
<rect width="33" height="33" rx="11" fill="#30CDD7"/>
<path d="M27.0218 23.4986H25.8716L19.9196 10.5401L20.1731 9.63522C20.3119 9.12756 20.2497 8.58407 20.0001 8.12339C19.7506 7.6627 19.3339 7.32224 18.8411 7.17631C18.8044 7.16251 18.7669 7.15101 18.7288 7.14188L18.3031 7.04352C17.8212 6.93569 17.3174 7.02022 16.8938 7.28C16.4703 7.53978 16.1585 7.95539 16.0218 8.44264L15.1466 11.5728H14.587L14.1088 10.5401L14.3598 9.63522C14.4993 9.12788 14.4378 8.58437 14.1886 8.12357C13.9395 7.66278 13.523 7.32219 13.0303 7.17631C12.9974 7.16296 12.9639 7.15146 12.9298 7.14188L12.4898 7.04107C12.0106 6.93495 11.5101 7.01819 11.0878 7.27424C10.6656 7.5303 10.3525 7.94039 10.2109 8.42297L5.51919 25.355C5.50116 25.4183 5.49568 25.4846 5.50307 25.5501C5.51046 25.6156 5.53058 25.6788 5.56223 25.7362C5.59237 25.7956 5.63401 25.8481 5.68459 25.8904C5.73517 25.9326 5.79363 25.9638 5.85636 25.9821C5.89969 25.996 5.9449 26.0026 5.99028 26.0017C6.09857 26.0054 6.20486 25.9711 6.29175 25.9046C6.37863 25.838 6.44097 25.7431 6.46854 25.6353L6.98506 23.7666H11.7677L11.3229 25.36C11.3036 25.4234 11.2971 25.4902 11.3036 25.5563C11.3102 25.6224 11.3297 25.6864 11.361 25.7446C11.3922 25.8027 11.4347 25.8537 11.4857 25.8946C11.5367 25.9354 11.5952 25.9651 11.6577 25.9821C11.7194 26.0019 11.7843 26.0086 11.8486 26.0019C11.9129 25.9951 11.9752 25.9751 12.0317 25.9429C12.0883 25.9107 12.1379 25.8671 12.1776 25.8147C12.2173 25.7622 12.2462 25.7021 12.2627 25.6378L14.4985 17.5677L18.2338 25.7067C18.2723 25.7936 18.3347 25.8672 18.4133 25.9183C18.4918 25.9694 18.5832 25.9958 18.6761 25.9943H27.0218C27.1486 25.9943 27.2703 25.9425 27.36 25.8503C27.4497 25.7581 27.5001 25.633 27.5001 25.5026V24.0002C27.5013 23.9348 27.4899 23.8698 27.4664 23.809C27.443 23.7481 27.4079 23.6928 27.3634 23.6461C27.3189 23.5993 27.2657 23.5622 27.2071 23.5369C27.1484 23.5116 27.0854 23.4985 27.0218 23.4986ZM12.3918 21.5314L12.0498 22.7609H7.26723L7.6068 21.5314H12.3918ZM13.004 19.2889L12.674 20.5184H7.89136L8.23093 19.2889H13.004ZM13.6257 17.0513L13.2838 18.2807H8.4868L8.82636 17.0513H13.6257ZM9.71832 13.808L10.0579 12.5785H12.2101L12.7768 13.808H9.71832ZM20.7183 24.5042V24.996H18.9846L12.9561 11.8605C12.9161 11.7747 12.8534 11.7021 12.7752 11.6513C12.6969 11.6004 12.6063 11.5732 12.5138 11.5728H10.3353L10.4692 11.0811H13.2909L19.3194 24.2067C19.3594 24.2926 19.4221 24.3651 19.5004 24.416C19.5786 24.4669 19.6692 24.4941 19.7618 24.4944L20.7183 24.5042ZM21.1966 23.4986H20.0727L15.0653 12.5785H18.0018L23.7027 24.9887H21.7011V24.0051C21.7031 23.9384 21.6919 23.8721 21.6681 23.81C21.6443 23.748 21.6086 23.6916 21.5629 23.6442C21.5173 23.5968 21.4628 23.5595 21.4027 23.5344C21.3426 23.5094 21.2782 23.4972 21.2133 23.4986H21.1966ZM16.1653 11.5728L16.2992 11.0811H19.0898L25.1088 24.2067C25.149 24.2924 25.2117 24.3648 25.2899 24.4156C25.3681 24.4665 25.4586 24.4938 25.5511 24.4944H26.5077V24.9862H24.7835L18.7551 11.8605C18.7151 11.7747 18.6523 11.7021 18.5741 11.6513C18.4959 11.6004 18.4052 11.5732 18.3127 11.5728H16.1653ZM18.0783 8.02463L18.504 8.12299C18.7509 8.18156 18.9651 8.33848 19.0996 8.55931C19.2341 8.78013 19.2779 9.04681 19.2214 9.3008C19.2191 9.32025 19.2143 9.33928 19.207 9.35736L19.0061 10.0803H16.579L16.9568 8.71558C17.0236 8.47297 17.1784 8.26599 17.3894 8.13741C17.6003 8.00882 17.8512 7.96845 18.0903 8.02463H18.0783ZM10.7609 10.0803L11.1483 8.71558C11.2161 8.4744 11.371 8.26899 11.5813 8.14144C11.7916 8.0139 12.0413 7.97386 12.2794 8.02955L12.717 8.13036C12.9639 8.18894 13.1781 8.34586 13.3126 8.56668C13.4471 8.78751 13.4909 9.05419 13.4344 9.30818C13.431 9.32738 13.4262 9.34629 13.4201 9.36474L13.2192 10.0877L10.7609 10.0803ZM13.7955 16.0431H9.10136L9.44093 14.8137H13.2311L13.7955 16.0431Z" fill="white"/>
</svg>
