<svg width="33" height="33" viewBox="0 0 33 33" fill="none" xmlns="http://www.w3.org/2000/svg">
<rect width="33" height="33" rx="11" fill="#30CDD7"/>
<g clip-path="url(#clip0)">
<path d="M6.75033 13.9157C6.66259 14.4266 6.70112 14.9506 6.86271 15.4439C7.02429 15.9371 7.30422 16.3852 7.67901 16.7506L17.0555 25.9356C17.2373 26.1152 17.4536 26.2578 17.692 26.3551C17.9303 26.4524 18.186 26.5025 18.4442 26.5025H27.9913V21.6322C27.9911 20.8356 27.6921 20.0668 27.1512 19.472C26.6104 18.8772 25.8653 18.4979 25.0578 18.4062L22.454 18.1227C22.2727 18.1042 22.1045 18.0219 21.9805 17.891C21.8565 17.7601 21.7852 17.5896 21.7799 17.4111L21.5108 11.4267L20.883 11.3729C19.9562 11.3006 19.0872 10.9024 18.4364 10.2516C17.7857 9.60093 17.3969 8.74159 17.3419 7.8321V7.60815L17.1799 7.44939C16.5568 6.84108 15.7131 6.49951 14.8336 6.49951C13.9541 6.49951 13.1104 6.84108 12.4873 7.44939L7.73398 12.0929C7.21662 12.5826 6.87205 13.2211 6.75033 13.9157V13.9157ZM13.3292 8.29135C13.5241 8.09874 13.7563 7.94613 14.0121 7.84245C14.268 7.73877 14.5423 7.68611 14.8191 7.68752C15.2959 7.68769 15.7587 7.8455 16.1326 8.13543L16.1557 8.15244V8.18079C16.2906 9.27151 16.7877 10.2885 17.5705 11.0752C18.3025 11.8113 19.2497 12.3065 20.2813 12.4926H20.3391L20.3767 13.3431H17.9003C17.7468 13.3535 17.603 13.4206 17.498 13.5308C17.393 13.641 17.3346 13.7862 17.3346 13.937C17.3346 14.0878 17.393 14.2329 17.498 14.3432C17.603 14.4534 17.7468 14.5205 17.9003 14.5309H20.4346L20.4983 16.0022H17.8945C17.741 16.0126 17.5972 16.0797 17.4922 16.1899C17.3872 16.3002 17.3288 16.4453 17.3288 16.5961C17.3288 16.7469 17.3872 16.892 17.4922 17.0023C17.5972 17.1125 17.741 17.1796 17.8945 17.19H20.5474V17.4565C20.566 17.9139 20.7514 18.3497 21.0699 18.6847C21.3884 19.0197 21.8189 19.2316 22.2833 19.2821L24.8871 19.5656C25.4008 19.6228 25.8751 19.8634 26.2193 20.2414C26.5635 20.6195 26.7536 21.1086 26.7531 21.6152V22.6585H19.2311L12.7072 16.2347L12.7332 16.1893C13.0569 15.6534 13.2793 15.0647 13.39 14.4515C13.5406 13.6169 13.4823 12.7589 13.2203 11.9512C12.9583 11.1434 12.5003 10.4099 11.8856 9.81368L11.8335 9.76548L13.3292 8.29135ZM8.53536 12.9887L10.9684 10.6018L11.0205 10.6528C11.4965 11.1151 11.8505 11.6838 12.0521 12.3101C12.2537 12.9363 12.2969 13.6012 12.1778 14.2474C12.0454 14.9663 11.7232 15.6387 11.2433 16.1978L11.1131 16.3651L18.7537 23.8406H26.7878V25.3119H18.4442C18.3453 25.312 18.2475 25.293 18.1561 25.2561C18.0648 25.2191 17.9818 25.1649 17.9118 25.0965L8.57008 15.9398C8.36651 15.7503 8.20378 15.5227 8.09152 15.2705C7.97927 15.0183 7.91976 14.7466 7.91653 14.4715C7.91329 14.1963 7.96639 13.9234 8.07268 13.6687C8.17897 13.414 8.3363 13.1828 8.53536 12.9887V12.9887Z" fill="white"/>
<path d="M7.05113 19.9965H5.60459C5.45108 20.0069 5.30731 20.074 5.20232 20.1843C5.09733 20.2945 5.03894 20.4397 5.03894 20.5904C5.03894 20.7412 5.09733 20.8864 5.20232 20.9966C5.30731 21.1069 5.45108 21.1739 5.60459 21.1843H7.05113C7.13424 21.19 7.21765 21.1788 7.29617 21.1515C7.37469 21.1242 7.44664 21.0814 7.50755 21.0257C7.56846 20.97 7.61703 20.9026 7.65023 20.8277C7.68344 20.7528 7.70058 20.6721 7.70058 20.5904C7.70058 20.5088 7.68344 20.428 7.65023 20.3532C7.61703 20.2783 7.56846 20.2109 7.50755 20.1552C7.44664 20.0995 7.37469 20.0567 7.29617 20.0294C7.21765 20.0021 7.13424 19.9909 7.05113 19.9965Z" fill="white"/>
<path d="M9.76491 22.6587H5.60465C5.44429 22.6587 5.29049 22.7211 5.1771 22.8322C5.0637 22.9433 5 23.094 5 23.2512C5 23.4083 5.0637 23.559 5.1771 23.6701C5.29049 23.7812 5.44429 23.8437 5.60465 23.8437H9.76491C9.92527 23.8437 10.0791 23.7812 10.1925 23.6701C10.3059 23.559 10.3696 23.4083 10.3696 23.2512C10.3696 23.094 10.3059 22.9433 10.1925 22.8322C10.0791 22.7211 9.92527 22.6587 9.76491 22.6587Z" fill="white"/>
<path d="M12.4757 25.312H5.60459C5.45108 25.3224 5.30731 25.3895 5.20232 25.4997C5.09733 25.6099 5.03894 25.7551 5.03894 25.9059C5.03894 26.0567 5.09733 26.2018 5.20232 26.312C5.30731 26.4223 5.45108 26.4894 5.60459 26.4998H12.4757C12.5588 26.5054 12.6422 26.4942 12.7207 26.4669C12.7992 26.4396 12.8712 26.3968 12.9321 26.3411C12.993 26.2854 13.0416 26.218 13.0748 26.1431C13.108 26.0683 13.1251 25.9875 13.1251 25.9059C13.1251 25.8242 13.108 25.7435 13.0748 25.6686C13.0416 25.5937 12.993 25.5263 12.9321 25.4706C12.8712 25.4149 12.7992 25.3721 12.7207 25.3448C12.6422 25.3175 12.5588 25.3063 12.4757 25.312Z" fill="white"/>
</g>
<defs>
<clipPath id="clip0">
<rect width="23" height="20" fill="white" transform="translate(5 6.5)"/>
</clipPath>
</defs>
</svg>
