<svg width="33" height="33" viewBox="0 0 33 33" fill="none" xmlns="http://www.w3.org/2000/svg">
<rect width="33" height="33" rx="11" fill="#30CDD7"/>
<path d="M23.0068 27H20.5602C20.2763 27 20.0462 26.7699 20.0462 26.486V24.5287H12.954V26.486C12.954 26.7699 12.7238 27 12.44 27H9.99338C9.70952 27 9.47937 26.7699 9.47937 26.486V26.0402H7.54684C7.26298 26.0402 7.03284 25.81 7.03284 25.5262V20.3941C7.03284 20.1102 7.26298 19.8801 7.54684 19.8801H9.47931V19.4343C9.47931 19.1504 9.70945 18.9203 9.99331 18.9203H12.4399C12.7238 18.9203 12.9539 19.1504 12.9539 19.4343V21.3916H20.0462V19.4343C20.0462 19.1504 20.2763 18.9203 20.5602 18.9203H23.0068C23.2906 18.9203 23.5208 19.1504 23.5208 19.4343V19.8801H25.4532C25.7371 19.8801 25.9672 20.1102 25.9672 20.3941V25.5261C25.9672 25.81 25.7371 26.0401 25.4532 26.0401H23.5208V26.4859C23.5208 26.7699 23.2907 27 23.0068 27ZM21.0742 25.972H22.4928V19.9483H21.0742V25.972ZM10.5074 25.972H11.926V19.9483H10.5074V25.972ZM23.5208 25.0121H24.9392V20.9081H23.5208V25.0121ZM8.06085 25.0121H9.47931V20.9081H8.06085V25.0121ZM12.954 23.5007H20.0462V22.4196H12.954V23.5007ZM15.3449 20.3521C15.2594 20.3521 15.1727 20.3307 15.0929 20.2857C14.8456 20.1463 14.7582 19.8328 14.8976 19.5855C15.8146 17.9592 17.0527 16.5843 18.5094 15.5261C17.8737 14.6457 17.1474 13.8445 16.3453 13.1343C14.3523 15.2804 11.6322 16.7256 8.60987 17.092C8.67682 17.3625 8.75784 17.6297 8.85299 17.8931C8.94943 18.1601 8.81123 18.4547 8.5442 18.5512C8.27705 18.6477 7.98259 18.5093 7.88615 18.2423C7.52821 17.2513 7.3467 16.2121 7.3467 15.1533C7.3467 10.1061 11.4529 6 16.5001 6C21.5472 6 25.6534 10.1061 25.6534 15.1533C25.6534 16.0643 25.5182 16.9653 25.2515 17.8313C25.1679 18.1026 24.8801 18.2547 24.609 18.1713C24.3377 18.0877 24.1855 17.8001 24.269 17.5287C24.5055 16.7609 24.6254 15.9617 24.6254 15.1533C24.6254 14.8405 24.6076 14.5318 24.5731 14.2281C22.9108 14.4207 21.3346 14.9684 19.936 15.8127C20.2388 16.2948 20.5153 16.7927 20.7631 17.3034C20.8869 17.5588 20.7804 17.8663 20.525 17.9902C20.2696 18.1139 19.962 18.0075 19.8382 17.752C19.6086 17.2787 19.3562 16.8213 19.0825 16.3808C17.7571 17.3505 16.6298 18.6066 15.7932 20.0904C15.6986 20.2579 15.5243 20.3521 15.3449 20.3521ZM10.2792 9.93169C9.09111 11.3448 8.37471 13.167 8.37471 15.1533C8.37471 15.4639 8.39232 15.7727 8.42733 16.0785C11.2066 15.756 13.7109 14.4411 15.551 12.4797C14.0028 11.2937 12.217 10.4213 10.2792 9.93169ZM17.0081 12.3607C17.8835 13.1348 18.6745 14.0096 19.3604 14.9591C20.8765 14.0353 22.5869 13.4326 24.3916 13.2144C23.75 10.6036 21.843 8.48457 19.3609 7.54786C18.9225 9.33699 18.107 10.9687 17.0081 12.3607ZM11.0965 9.0902C12.9393 9.63363 14.689 10.5267 16.2161 11.7058C17.2293 10.4166 17.9788 8.90406 18.3762 7.24666C17.7739 7.10376 17.1455 7.02801 16.5001 7.02801C14.4273 7.02801 12.5335 7.80801 11.0965 9.0902Z" fill="white"/>
</svg>
