<svg width="33" height="33" viewBox="0 0 33 33" fill="none" xmlns="http://www.w3.org/2000/svg">
<rect width="33" height="33" rx="11" fill="#30CDD7"/>
<g clip-path="url(#clip0)">
<path d="M24.4402 19.0889C24.3109 18.865 24.0246 18.7883 23.8006 18.9175L23.2956 19.2092L22.4812 17.7986L22.9862 17.5071C23.2103 17.3778 23.287 17.0912 23.1576 16.8673C23.0283 16.6434 22.7419 16.5666 22.518 16.6959L22.013 16.9876L21.1985 15.577L21.7035 15.2855C21.9276 15.1562 22.0044 14.8696 21.8751 14.6457C21.7456 14.4217 21.4592 14.345 21.2353 14.4743L20.7303 14.766L19.9158 13.3553L20.4209 13.0638C20.645 12.9346 20.7217 12.648 20.5924 12.4241C20.463 12.2001 20.1766 12.1234 19.9527 12.2527L19.4476 12.5444L18.811 11.4417C18.6817 11.2178 18.3953 11.141 18.1714 11.2703C17.9475 11.3996 17.8706 11.6861 18 11.9101L18.6365 13.0126L18.1315 13.3043C17.9075 13.4335 17.8306 13.7199 17.9601 13.9438C18.0469 14.0942 18.2042 14.178 18.366 14.178C18.4455 14.178 18.5261 14.1579 18.5997 14.1152L19.1049 13.8237L19.9191 15.2342L19.4141 15.5259C19.1902 15.6551 19.1133 15.9415 19.2427 16.1655C19.3294 16.3158 19.4868 16.3997 19.6487 16.3997C19.7282 16.3997 19.8087 16.3795 19.8823 16.3368L20.3875 16.0453L21.2018 17.4558L20.6968 17.7475C20.4729 17.8768 20.3959 18.1631 20.5254 18.3871C20.612 18.5374 20.7695 18.6213 20.9314 18.6213C21.0108 18.6213 21.0914 18.6011 21.165 18.5585L21.6702 18.267L22.4845 19.6774L21.9794 19.9691C21.7555 20.0984 21.6786 20.3848 21.8081 20.6087C21.8947 20.759 22.0521 20.8429 22.214 20.8429C22.2935 20.8429 22.374 20.8228 22.4477 20.7801L22.9528 20.4886L23.5893 21.5911C23.6761 21.7414 23.8334 21.8253 23.9953 21.8253C24.0747 21.8253 24.1553 21.8051 24.2291 21.7625C24.453 21.6332 24.5297 21.3468 24.4005 21.1229L23.7638 20.0202L24.2688 19.7287C24.4928 19.5994 24.5697 19.3129 24.4402 19.0889V19.0889Z" fill="white"/>
<path d="M27.804 15.2242C27.7168 14.9806 27.4489 14.8539 27.2052 14.9409C26.9619 15.0281 26.835 15.2961 26.9221 15.5396C27.9673 18.4618 27.7265 21.6153 26.2613 24.1912C26.0696 24.5283 25.7105 24.737 25.3229 24.737C25.3205 24.737 25.3181 24.737 25.3158 24.737C21.685 24.7136 18.2413 22.6412 16.3289 19.3288C14.7321 16.563 14.4181 13.305 15.403 10.4678C15.4044 10.4636 15.4063 10.4598 15.4077 10.4555C15.4083 10.4537 15.4087 10.4521 15.409 10.4502C15.6027 9.8958 15.8457 9.35728 16.1389 8.84184C16.3306 8.50475 16.6897 8.29601 17.0773 8.29601H17.0843C20.0482 8.31505 22.8999 9.68358 24.908 12.0506C25.0753 12.2478 25.3707 12.2721 25.5681 12.1048C25.7653 11.9374 25.7894 11.6419 25.6221 11.4447C23.4371 8.86931 20.3274 7.3803 17.0903 7.35942C16.3615 7.3543 15.6851 7.74541 15.3248 8.37895C15.0749 8.81804 14.8584 9.27251 14.6746 9.73851C14.0013 9.5609 13.3062 9.47081 12.6024 9.47081C11.7841 9.47081 10.9942 9.59312 10.2489 9.81981C10.2249 9.82512 10.2013 9.83208 10.1786 9.84123C8.48709 10.3726 7.03305 11.4452 6.01975 12.855C5.98825 12.8883 5.96152 12.926 5.94064 12.9674C5.06339 14.2326 4.53696 15.7583 4.50308 17.4031C4.49942 17.4348 4.49906 17.4666 4.5018 17.4981C4.50162 17.5229 4.50089 17.5474 4.50089 17.5721C4.50089 19.3678 5.08847 21.0286 6.0809 22.3731C6.10342 22.4151 6.13236 22.4535 6.1666 22.487C7.12295 23.736 8.43362 24.6998 9.94754 25.2263C9.97061 25.2363 9.99441 25.245 10.0188 25.2512C10.8305 25.5249 11.6993 25.6736 12.6024 25.6736C13.4915 25.6736 14.3633 25.5278 15.1869 25.2506C15.2116 25.2442 15.2356 25.2356 15.2591 25.2254C16.4531 24.8108 17.5438 24.1192 18.4365 23.1929C20.3999 24.7572 22.8131 25.6575 25.3097 25.6736H25.3227C26.0465 25.6736 26.7172 25.2838 27.0754 24.6541C28.6756 21.8407 28.9412 18.4036 27.804 15.2242V15.2242ZM12.6024 19.9512L10.3463 18.312L11.208 15.6599H14.0498C14.1939 16.5722 14.4463 17.476 14.8062 18.3499L12.6024 19.9512ZM9.42386 18.12L7.53 18.7401L5.44608 17.226C5.50906 15.9088 5.92966 14.6836 6.61227 13.6456H9.16183L10.3485 15.2741L9.42386 18.12ZM5.48728 18.4137L6.88547 19.4295L6.35208 21.0713C5.90054 20.268 5.59952 19.3693 5.48728 18.4137V18.4137ZM14.3683 10.6268C13.9762 11.9457 13.8339 13.3358 13.9403 14.7234H11.106L9.92575 13.1036L10.7202 10.6586C11.3203 10.4951 11.9513 10.4072 12.6024 10.4072C13.2019 10.4072 13.7938 10.4812 14.3683 10.6268ZM9.60293 11.0662L9.06918 12.709H7.34579C7.97989 12.024 8.74582 11.4628 9.60293 11.0662ZM7.01749 22.0547L7.80319 19.6361L9.71408 19.0106L12.134 20.7688V22.7657L10.0618 24.2712C8.85916 23.8134 7.8107 23.0411 7.01749 22.0547ZM11.2035 24.5993L12.6024 23.5831L14.0006 24.599C13.5439 24.6898 13.0761 24.7368 12.6024 24.7368C12.1237 24.737 11.6561 24.6894 11.2035 24.5993V24.5993ZM15.1428 24.2712L13.0706 22.7657V20.7688L15.2047 19.2182C15.3036 19.4132 15.4077 19.6062 15.5178 19.797C16.1237 20.8464 16.872 21.781 17.7262 22.5793C16.9914 23.331 16.1085 23.9048 15.1428 24.2712V24.2712Z" fill="white"/>
<path d="M26.4766 13.9386C26.6002 13.9386 26.7205 13.8884 26.808 13.8009C26.8952 13.7143 26.9448 13.5934 26.9448 13.4698C26.9448 13.3466 26.8952 13.2258 26.808 13.1386C26.7205 13.0516 26.6002 13.0015 26.4766 13.0015C26.3534 13.0015 26.2331 13.0516 26.1456 13.1386C26.0584 13.2258 26.0088 13.3466 26.0088 13.4698C26.0088 13.5934 26.0584 13.7143 26.1456 13.8009C26.2331 13.8884 26.3534 13.9386 26.4766 13.9386Z" fill="white"/>
</g>
<defs>
<clipPath id="clip0">
<rect width="24" height="24" fill="white" transform="translate(4.5 4.5)"/>
</clipPath>
</defs>
</svg>
