<svg width="25" height="20" viewBox="0 0 25 20" fill="none" xmlns="http://www.w3.org/2000/svg">
<g clip-path="url(#clip0)">
<path d="M1.62891 19.0704C1.74779 18.8403 1.91937 18.639 2.13076 18.4818C5.39284 15.5873 8.58465 12.63 11.8091 9.70167C12.3109 9.25784 12.7024 9.26266 13.1641 9.72579C14.5618 11.1321 15.9645 12.5432 17.3596 13.9446C18.1902 14.7816 18.1902 15.9201 17.3722 16.7161C17.1828 16.8958 16.9576 17.0367 16.7101 17.1304C16.4625 17.2241 16.1978 17.2686 15.9318 17.2613H10.8154C10.6373 17.2738 10.4599 17.2289 10.3113 17.1337C10.1627 17.0385 10.0513 16.8983 9.99487 16.7354C9.9427 16.5863 9.94029 16.4253 9.98798 16.2748C10.0357 16.1243 10.1311 15.9918 10.2609 15.896C10.4412 15.7733 10.6603 15.7145 10.8807 15.7296H15.8039C15.8816 15.7344 15.9595 15.7344 16.0372 15.7296C16.1042 15.7229 16.1682 15.6999 16.2233 15.6627C16.2784 15.6255 16.3226 15.5754 16.3518 15.5171C16.381 15.4588 16.3941 15.3943 16.39 15.3297C16.3859 15.2652 16.3647 15.2027 16.3283 15.1482C16.2862 15.0857 16.2374 15.0275 16.1828 14.9746C14.9858 13.7685 13.7839 12.5625 12.592 11.3564C12.4665 11.231 12.4088 11.2623 12.3009 11.3564C9.21448 14.1569 6.14563 16.9839 3.03662 19.7578C2.56989 20.1727 1.82212 20.0424 1.65902 19.4611C1.65902 19.4611 1.63894 19.4442 1.62891 19.437V19.0704Z" fill="#30CDD7"/>
<path d="M19.7634 9.31814C18.3412 9.29731 16.9303 9.07127 15.5779 8.64757C14.4763 8.33158 13.4224 7.88534 12.3484 7.49457C11.4819 7.15926 10.5618 6.96995 9.62838 6.93496C7.87188 6.89637 6.86816 7.83951 6.50933 9.3302C6.49177 9.40498 6.48173 9.47734 6.46668 9.55212C6.45479 9.65401 6.4215 9.75252 6.36884 9.84167C6.31617 9.93083 6.24522 10.0088 6.16029 10.0708C6.07536 10.1328 5.97821 10.1776 5.87474 10.2025C5.77126 10.2274 5.66361 10.2318 5.55831 10.2155C5.45324 10.2043 5.3517 10.1723 5.26011 10.1216C5.16852 10.0709 5.08886 10.0024 5.02615 9.92061C4.96344 9.8388 4.91904 9.74539 4.89575 9.64626C4.87247 9.54714 4.87079 9.44445 4.89084 9.34467C5.02344 8.33874 5.4898 7.40067 6.22076 6.66963C7.13164 5.76749 8.27085 5.40326 9.5531 5.39844C10.7497 5.4253 11.93 5.67088 13.031 6.12207C14.1864 6.59252 15.3685 7.00001 16.5716 7.34261C17.7117 7.6631 18.8972 7.80961 20.0846 7.77679C20.6726 7.76789 21.2522 7.64052 21.7859 7.40291C21.8928 7.35103 21.9945 7.28966 22.0895 7.21959C22.2543 7.10691 22.4577 7.05921 22.6579 7.0863C22.8581 7.11339 23.0399 7.21321 23.1659 7.36523C23.2919 7.51724 23.3525 7.7099 23.3353 7.90356C23.318 8.09722 23.2242 8.27716 23.0731 8.40636C22.6721 8.72066 22.2045 8.94704 21.7031 9.06969C21.4654 9.13401 21.2241 9.18555 20.9804 9.22407C20.5782 9.28859 20.1711 9.32006 19.7634 9.31814Z" fill="#30CDD7"/>
<path d="M16.5467 8.77613e-06C15.937 -0.00141708 15.3405 0.170931 14.8327 0.495273C14.3248 0.819615 13.9284 1.28139 13.6934 1.82226C13.4585 2.36312 13.3956 2.95878 13.5128 3.53398C13.6299 4.10918 13.9218 4.6381 14.3515 5.05389C14.7812 5.46968 15.3296 5.75369 15.9271 5.87002C16.5247 5.98636 17.1448 5.92979 17.709 5.70748C18.2731 5.48517 18.7561 5.10708 19.0968 4.62101C19.4375 4.13493 19.6206 3.56268 19.6231 2.97657C19.6238 2.19028 19.3005 1.43572 18.724 0.877919C18.1475 0.32012 17.3647 0.00447247 16.5467 8.77613e-06ZM16.5467 4.40937C16.2482 4.41272 15.9554 4.33069 15.7056 4.17371C15.4557 4.01673 15.26 3.79189 15.1433 3.52775C15.0267 3.2636 14.9943 2.97209 15.0504 2.69024C15.1065 2.40839 15.2485 2.14894 15.4583 1.94484C15.6682 1.74074 15.9364 1.60122 16.2289 1.54399C16.5215 1.48677 16.8251 1.51442 17.1012 1.62345C17.3773 1.73248 17.6135 1.91795 17.7797 2.15631C17.946 2.39466 18.0347 2.67514 18.0347 2.9621C18.0348 3.34386 17.8779 3.71016 17.5982 3.98123C17.3186 4.25231 16.9388 4.40619 16.5417 4.40937H16.5467Z" fill="#30CDD7"/>
</g>
<defs>
<clipPath id="clip0">
<rect width="25" height="20" fill="white"/>
</clipPath>
</defs>
</svg>
