<svg width="25" height="20" viewBox="0 0 25 20" fill="none" xmlns="http://www.w3.org/2000/svg">
<g clip-path="url(#clip0)">
<path d="M12.4976 20.013C12.3142 20.0125 12.1345 19.9628 11.9779 19.8693C11.7108 19.7086 5.39694 15.9228 2.04906 11.1307C-0.980108 6.76426 -0.00101088 3.97074 0.860365 2.68251C2.23857 0.624726 5.08111 -0.398529 7.938 0.139878C8.8617 0.295748 9.74298 0.636113 10.5273 1.1399C11.3116 1.64369 11.9822 2.30017 12.4976 3.0687C13.0135 2.30008 13.6847 1.64358 14.4694 1.13981C15.2542 0.636036 16.1359 0.295707 17.06 0.139878C19.9312 -0.398529 22.7594 0.624726 24.1319 2.67687C24.9932 3.96511 25.9781 6.7699 22.9489 11.1053C19.601 15.8974 13.2871 19.6888 13.0201 19.8439C12.8653 19.9469 12.6844 20.0055 12.4976 20.013ZM6.43921 1.97215C4.80547 1.97215 3.29519 2.64305 2.54866 3.76496C1.54085 5.27307 1.95431 7.48589 3.69716 9.99188C6.28129 13.6762 10.9327 16.8446 12.4889 17.8425C14.0681 16.8418 18.7224 13.6677 21.2922 9.99188C23.0437 7.48589 23.4571 5.27307 22.4407 3.76496C21.5334 2.38935 19.4718 1.69026 17.439 2.07927C16.4455 2.25404 14.0681 3.0095 13.4939 5.86503C13.4477 6.08806 13.3245 6.28858 13.145 6.43261C12.9655 6.57663 12.7408 6.65531 12.509 6.65531C12.2772 6.65531 12.0525 6.57663 11.8731 6.43261C11.6936 6.28858 11.5703 6.08806 11.5242 5.86503C10.9241 3.0095 8.55245 2.25404 7.559 2.07927C7.19003 2.00885 6.81508 1.97298 6.43921 1.97215Z" fill="#F0B4A0"/>
</g>
<defs>
<clipPath id="clip0">
<rect width="25" height="20" fill="white"/>
</clipPath>
</defs>
</svg>
