<svg width="21" height="21" viewBox="0 0 21 21" fill="none" xmlns="http://www.w3.org/2000/svg">
<g clip-path="url(#clip0)">
<path d="M0 13.5C0.0839952 13.1711 0.263238 12.8753 0.514548 12.6509C0.669368 12.5216 0.850754 12.4291 1.04538 12.3803C1.24 12.3315 1.44292 12.3276 1.63922 12.3689C1.83552 12.4102 2.02022 12.4956 2.17974 12.6189C2.33926 12.7422 2.46956 12.9003 2.56105 13.0814C2.77854 13.5583 3.02256 14.0222 3.29194 14.4709C4.19955 15.8761 5.51723 16.9579 7.06042 17.5647C8.28524 18.0825 9.60801 18.3175 10.9332 18.2528C12.2584 18.1881 13.5528 17.8253 14.7231 17.1906C16.2962 16.3779 17.5538 15.0506 18.2928 13.4228C18.4201 13.0693 18.6545 12.7658 18.9623 12.5559C19.2125 12.4051 19.5039 12.3401 19.7933 12.3707C20.0827 12.4013 20.3547 12.5258 20.569 12.7258C20.7833 12.9257 20.9284 13.1904 20.9828 13.4807C21.0373 13.771 20.9982 14.0714 20.8714 14.3373C19.8559 16.6728 18.069 18.5746 15.8194 19.7142C13.8707 20.7331 11.6747 21.1618 9.49283 20.9494C6.8033 20.7543 4.27154 19.5873 2.3564 17.6597C1.39913 16.6951 0.639053 15.5478 0.119866 14.2839C0.0760128 14.177 0.04093 14.0671 0 13.9543V13.5Z" fill="#FF3750"/>
<path d="M13.1559 3.82703C13.209 2.89242 13.5838 2.00645 14.2147 1.32391C14.8456 0.64137 15.6926 0.205636 16.6078 0.092827C17.5229 -0.0199821 18.4479 0.197305 19.2213 0.706731C19.9947 1.21616 20.5673 1.98534 20.8391 2.87991C20.9364 3.22596 20.9904 3.58307 20.9999 3.94282C21.0102 4.0952 20.9903 4.24812 20.9416 4.39261C20.8929 4.53709 20.8162 4.67023 20.7161 4.7842C20.616 4.89816 20.4944 4.99065 20.3586 5.05624C20.2228 5.12182 20.0754 5.15917 19.9252 5.1661C19.775 5.17302 19.6249 5.14938 19.4838 5.09657C19.3426 5.04375 19.2134 4.96282 19.1035 4.85854C18.9936 4.75426 18.9054 4.62872 18.8439 4.48931C18.7825 4.3499 18.7491 4.19943 18.7458 4.04674C18.6844 3.15603 18.2605 2.59488 17.477 2.3633C17.2492 2.30658 17.0123 2.2994 16.7817 2.34221C16.551 2.38502 16.3319 2.47686 16.1386 2.6117C15.9454 2.74655 15.7824 2.92136 15.6604 3.12467C15.5383 3.32798 15.46 3.55519 15.4305 3.7914C15.4406 4.16875 15.3112 4.53627 15.0679 4.82166C14.8972 4.98734 14.6799 5.09493 14.4462 5.1295C14.2125 5.16406 13.974 5.12389 13.7638 5.01454C13.5536 4.9052 13.3822 4.73212 13.2732 4.51932C13.1643 4.30652 13.1233 4.06457 13.1559 3.82703Z" fill="#FF3750"/>
<path d="M4.48487 -5.54198e-05C5.53196 -0.0103565 6.54036 0.401413 7.28898 1.14498C8.0376 1.88854 8.46535 2.90323 8.47846 3.96658C8.48391 4.25703 8.38025 4.5387 8.18856 4.75433C7.99686 4.96996 7.73152 5.10338 7.44644 5.12747C7.29916 5.14468 7.14997 5.13138 7.00789 5.08837C6.86581 5.04535 6.7338 4.97352 6.61984 4.87721C6.50588 4.78091 6.41234 4.66213 6.34487 4.52807C6.2774 4.394 6.23741 4.24743 6.22731 4.09722C6.21887 3.68109 6.08635 3.27734 5.84725 2.93929C5.63868 2.66895 5.35393 2.46959 5.03096 2.36777C4.70798 2.26595 4.36212 2.26652 4.03948 2.3694C3.71683 2.47228 3.43272 2.67258 3.22501 2.94361C3.01731 3.21464 2.89588 3.54352 2.8769 3.88641C2.88072 4.05991 2.85007 4.23241 2.78678 4.39361C2.72348 4.55481 2.62885 4.7014 2.50853 4.82463C2.35292 4.98418 2.15267 5.09115 1.93505 5.131C1.71743 5.17084 1.49301 5.14162 1.29233 5.04731C1.08301 4.9647 0.90459 4.81732 0.782334 4.62602C0.660078 4.43472 0.600184 4.20921 0.611137 3.98142C0.613689 3.10352 0.901248 2.25097 1.42927 1.55586C1.95728 0.860748 2.69628 0.361872 3.53178 0.13652C3.73643 0.0830776 3.94693 0.0504182 4.15743 0.0177588C4.26618 0.00590058 4.37549 -4.5974e-05 4.48487 -5.54198e-05Z" fill="#FF3750"/>
</g>
<defs>
<clipPath id="clip0">
<rect width="21" height="21" fill="white"/>
</clipPath>
</defs>
</svg>
