<svg width="23" height="23" viewBox="0 0 23 23" fill="none" xmlns="http://www.w3.org/2000/svg">
<g clip-path="url(#clip0)">
<path d="M22.9729 6.00709C22.9167 5.88791 22.82 5.79262 22.7 5.73831C22.58 5.684 22.4446 5.67423 22.318 5.71073C22.1906 5.75175 22.0826 5.83799 22.0143 5.95318C21.9461 6.06837 21.9224 6.20456 21.9476 6.33604V20.7803C21.9476 21.5657 21.5624 21.9479 20.7624 21.9479H12.5663C12.489 21.9498 12.4118 21.9557 12.3351 21.9657C12.2522 21.9657 12.0566 22.0013 12.0388 21.9657C12.0018 21.8592 11.9926 21.7449 12.0122 21.6338C12.0201 21.5352 12.0201 21.4361 12.0122 21.3375C12.0236 21.3288 12.0367 21.3227 12.0507 21.3197C12.632 21.1288 13.2261 20.9793 13.8286 20.8722C15.4228 20.5995 17.0466 20.7803 18.5696 20.9848C19.3036 21.0845 20.0295 21.237 20.7416 21.4412C20.8273 21.472 20.9188 21.4827 21.0093 21.4724C21.0997 21.4622 21.1866 21.4312 21.2631 21.3819C21.336 21.3217 21.394 21.2454 21.4326 21.159C21.4711 21.0727 21.4892 20.9785 21.4854 20.884V4.4453C21.4898 4.38018 21.4898 4.31483 21.4854 4.24971C21.4775 4.14996 21.4396 4.05493 21.3767 3.97716C21.3137 3.89938 21.2287 3.84252 21.1328 3.81407C20.8275 3.72249 20.5138 3.66193 20.1964 3.6333C20.0718 3.62116 19.9472 3.65702 19.8481 3.73356C19.749 3.8101 19.6828 3.92157 19.663 4.04523C19.6344 4.1696 19.6544 4.3002 19.7188 4.41036C19.7833 4.52051 19.8873 4.60191 20.0097 4.63793C20.1322 4.68181 20.2596 4.71067 20.389 4.72388L20.4453 4.74166C20.4498 4.76515 20.4498 4.78929 20.4453 4.81278C20.4453 9.96934 20.4453 15.1259 20.4453 20.2824C19.1788 19.9902 17.8904 19.8029 16.5932 19.7223C14.919 19.587 13.2351 19.8051 11.6507 20.3625C11.6064 20.3783 11.5594 20.3849 11.5125 20.3818C11.4656 20.3788 11.4199 20.3661 11.3781 20.3447C10.2629 19.8946 9.0691 19.6719 7.86671 19.6897C6.09897 19.709 4.33774 19.9076 2.61008 20.2824H2.56267V20.235C2.56267 14.0857 2.56267 9.34699 2.56267 4.87205C2.56267 4.72091 2.56267 4.7061 2.73749 4.67053C4.3749 4.31904 6.04144 4.12061 7.71559 4.07783C8.78276 4.05179 9.84501 4.23087 10.8447 4.60534C10.9573 4.64682 10.9751 4.6735 10.9751 4.79204C10.9672 9.51394 10.9632 14.2388 10.9632 18.9666V19.263C10.9594 19.3722 10.9673 19.4815 10.9869 19.589C11.0004 19.6599 11.0292 19.7272 11.0711 19.786C11.113 19.8448 11.1672 19.8939 11.2299 19.9298C11.2942 19.9648 11.3651 19.986 11.438 19.9922C11.511 19.9983 11.5844 19.9892 11.6536 19.9653C11.745 19.9315 11.8325 19.8878 11.9144 19.8349C14.0855 18.5474 16.3709 17.4631 18.7415 16.5958C18.894 16.5676 19.0293 16.4807 19.1185 16.3539C19.2077 16.227 19.2436 16.0702 19.2186 15.9172V0.649014C19.2337 0.512504 19.2032 0.374823 19.1319 0.25743C19.0607 0.140037 18.9525 0.0495248 18.8245 0L18.5933 0L18.46 0.044453L18.3029 0.109651C16.4155 0.869219 14.5897 1.77383 12.8418 2.81536L12.7707 2.85685C12.6285 2.93983 12.4744 3.02577 12.3411 3.12357C12.2847 3.15989 12.2362 3.20703 12.1982 3.26225C12.1602 3.31748 12.1335 3.37969 12.1198 3.44529C12.106 3.51089 12.1054 3.57858 12.1179 3.64442C12.1305 3.71027 12.156 3.77297 12.1929 3.82889C12.2607 3.93845 12.367 4.01868 12.4909 4.05379C12.6149 4.08889 12.7475 4.07632 12.8626 4.01856C12.9407 3.98104 13.0169 3.93949 13.0908 3.89409C14.4497 3.07436 15.8546 2.33324 17.2984 1.6744C17.5355 1.56771 17.7755 1.46695 18.0244 1.36323L18.1637 1.30396V15.5763C18.1637 15.6712 18.1637 15.6712 18.1103 15.6919C16.0095 16.4743 13.9752 17.4248 12.027 18.534V4.50457C12.027 4.4453 12.027 4.38603 12.027 4.32973C12.0271 4.22057 11.9951 4.11379 11.9351 4.02264C11.875 3.9315 11.7895 3.86 11.6892 3.81703C10.7529 3.39431 9.75024 3.1376 8.72603 3.05837C7.92996 3.01499 7.13181 3.02886 6.33773 3.09986C4.8992 3.1876 3.47183 3.40784 2.07375 3.75776C1.60853 3.87631 1.50186 4.01559 1.50186 4.50161V20.8011C1.49739 20.8553 1.49739 20.9098 1.50186 20.9641C1.50662 21.0471 1.52951 21.128 1.56893 21.2013C1.60835 21.2745 1.66334 21.3382 1.73002 21.3878C1.7983 21.4316 1.87521 21.46 1.95551 21.4713C2.0358 21.4825 2.11757 21.4763 2.19524 21.453C3.72154 21.0809 5.2788 20.8498 6.84739 20.7625C8.06639 20.6497 9.29573 20.7724 10.4684 21.1241L10.5247 21.1419C10.9602 21.2871 10.9602 21.2871 10.9573 21.8057C10.9533 21.8372 10.9533 21.869 10.9573 21.9005C10.9573 21.9213 10.9573 21.9361 10.9573 21.942H10.8684C8.49787 21.942 6.13327 21.942 3.7746 21.942H2.22487C1.43371 21.942 1.03961 21.5568 1.03961 20.7566V6.35086C1.04684 6.272 1.04684 6.19264 1.03961 6.11377C1.02259 5.99514 0.963602 5.88653 0.873348 5.80769C0.783093 5.72884 0.667559 5.68498 0.547724 5.68406C0.427722 5.67215 0.30758 5.7053 0.210648 5.77705C0.113717 5.84879 0.0469222 5.95403 0.0232461 6.07229C0.00351004 6.15773 -0.0044654 6.24547 -0.000459147 6.33308V20.8544C-0.0045669 21.0686 0.0223816 21.2822 0.079546 21.4886C0.197209 21.9381 0.465695 22.3335 0.840055 22.6086C1.21441 22.8838 1.67192 23.0219 2.13597 23H20.8275C21.108 23.0111 21.388 22.9669 21.6513 22.8697C21.9147 22.7726 22.1563 22.6245 22.3625 22.434C22.7 22.0988 22.922 21.665 22.9966 21.1952V6.04265L22.9729 6.00709Z" fill="#FFCB00"/>
<path d="M4.31725 15.0485C4.35268 15.0528 4.3885 15.0528 4.42393 15.0485L4.56912 15.0188L4.64616 15.001C5.65521 14.7691 6.69013 14.6695 7.72488 14.7047C8.18886 14.7208 8.65071 14.7754 9.10571 14.8677C9.17417 14.8881 9.24608 14.8942 9.31701 14.8858C9.38794 14.8774 9.45641 14.8546 9.51821 14.8188C9.58001 14.7829 9.63385 14.7349 9.67641 14.6775C9.71898 14.6201 9.74938 14.5547 9.76575 14.4851C9.78212 14.4156 9.78412 14.3434 9.77162 14.2731C9.75912 14.2028 9.73238 14.1357 9.69306 14.0761C9.65373 14.0165 9.60263 13.9655 9.54291 13.9263C9.48318 13.8871 9.41608 13.8605 9.34572 13.8482L9.18571 13.8008H9.15015C8.44753 13.665 7.73192 13.6084 7.01669 13.6319C6.42088 13.6473 5.82684 13.7037 5.23879 13.8008C4.91877 13.8512 4.57505 13.9253 4.18984 14.0201C4.12284 14.0359 4.05972 14.0651 4.00423 14.1058C3.94874 14.1465 3.90202 14.198 3.86685 14.2572C3.83129 14.3184 3.80849 14.3862 3.79983 14.4565C3.79118 14.5268 3.79684 14.5981 3.81648 14.6662C3.84503 14.7768 3.90992 14.8746 4.00073 14.944C4.09155 15.0133 4.20302 15.0501 4.31725 15.0485Z" fill="#FFCB00"/>
<path d="M3.80463 16.9128C3.8256 17.0308 3.88968 17.1368 3.98441 17.2102C4.07915 17.2836 4.19778 17.3191 4.31726 17.3099C4.38505 17.3089 4.45256 17.3009 4.51875 17.2862C6.29665 16.901 7.74563 16.8506 9.08794 17.1292C9.16153 17.146 9.23776 17.1478 9.31208 17.1346C9.3864 17.1214 9.4573 17.0933 9.52056 17.0521C9.57632 17.0154 9.62419 16.9679 9.66133 16.9124C9.69848 16.857 9.72416 16.7946 9.73687 16.7291C9.75223 16.6579 9.75263 16.5844 9.73803 16.5131C9.72344 16.4418 9.69417 16.3743 9.65209 16.315C9.61 16.2556 9.55603 16.2056 9.4936 16.1683C9.43116 16.1309 9.36163 16.1069 9.28943 16.0978C8.75453 15.9762 8.20823 15.9116 7.6597 15.9052C6.526 15.8851 5.39422 16.0066 4.29059 16.2668C3.75426 16.3972 3.77204 16.7617 3.80463 16.9128Z" fill="#FFCB00"/>
<path d="M4.00329 8.13808C4.0976 8.20201 4.2094 8.23514 4.32331 8.23291C4.38604 8.23171 4.44853 8.22476 4.50999 8.21217C6.00235 7.82858 7.55995 7.77197 9.07621 8.04621C9.15329 8.06379 9.23312 8.06577 9.31098 8.05203C9.38884 8.03829 9.46316 8.0091 9.52957 7.96619C9.5852 7.92791 9.63252 7.87878 9.66867 7.82174C9.70483 7.7647 9.72907 7.70093 9.73995 7.63428C9.753 7.56276 9.75121 7.48932 9.7347 7.41852C9.71818 7.34773 9.68729 7.28108 9.64394 7.22272C9.6006 7.16436 9.54572 7.11554 9.48272 7.07928C9.41971 7.04302 9.34993 7.0201 9.2777 7.01193C8.63189 6.87556 7.97315 6.80997 7.31313 6.81634C6.29063 6.81367 5.27164 6.93608 4.27886 7.18086C4.20772 7.18672 4.13849 7.20688 4.07532 7.24014C4.01215 7.2734 3.95634 7.31907 3.91125 7.37441C3.86615 7.42975 3.83268 7.49363 3.81286 7.56222C3.79303 7.63081 3.78725 7.70269 3.79587 7.77356C3.80124 7.84591 3.82264 7.91615 3.85852 7.97919C3.8944 8.04224 3.94385 8.09651 4.00329 8.13808Z" fill="#FFCB00"/>
<path d="M4.3293 12.7698C4.38589 12.769 4.44234 12.764 4.4982 12.7549L4.56932 12.7372H4.6108C5.69191 12.4851 6.80325 12.3873 7.91175 12.4467C8.30585 12.4704 8.68514 12.5297 9.09702 12.5949C9.17879 12.6122 9.26335 12.6113 9.34475 12.5924C9.42615 12.5734 9.50241 12.5369 9.56816 12.4853C9.62379 12.4361 9.66799 12.3753 9.69768 12.3072C9.72737 12.2391 9.74182 12.1654 9.74002 12.0911C9.74002 11.7948 9.56519 11.6229 9.22147 11.5517C8.55244 11.4242 7.87278 11.3607 7.19171 11.3621H6.95466L6.36202 11.3976C5.6544 11.4522 4.95203 11.5611 4.26115 11.7236C4.18679 11.7326 4.11514 11.7571 4.05081 11.7954C3.98647 11.8338 3.93088 11.8852 3.88762 11.9463C3.84435 12.0074 3.81437 12.077 3.7996 12.1504C3.78483 12.2238 3.7856 12.2995 3.80186 12.3726C3.82549 12.4922 3.89237 12.5988 3.98969 12.672C4.08701 12.7453 4.20793 12.7801 4.3293 12.7698Z" fill="#FFCB00"/>
<path d="M3.80475 10.1027C3.82824 10.2214 3.89413 10.3274 3.9901 10.4011C4.08608 10.4747 4.20557 10.5109 4.32626 10.5028H4.42701L4.56924 10.4732C5.70711 10.2049 6.87817 10.1051 8.04502 10.1768C8.39789 10.2074 8.74898 10.2559 9.09694 10.322H9.14435C9.27867 10.3412 9.41521 10.3078 9.52558 10.2289C9.63595 10.15 9.71166 10.0315 9.73698 9.89823C9.76379 9.77029 9.73983 9.63695 9.67016 9.52635C9.60049 9.41576 9.49058 9.33657 9.36362 9.30552C9.04074 9.21782 8.71041 9.16028 8.37689 9.13363C7.39984 9.04841 6.41613 9.07925 5.44633 9.2255C5.03256 9.28419 4.6221 9.36432 4.21663 9.46555C4.14657 9.47804 4.07983 9.50481 4.02057 9.54421C3.9613 9.58361 3.91078 9.63478 3.87215 9.69455C3.83351 9.75432 3.80759 9.8214 3.79599 9.89162C3.7844 9.96184 3.78738 10.0337 3.80475 10.1027Z" fill="#FFCB00"/>
<path d="M12.9225 15.5139C12.9488 15.5737 12.9871 15.6274 13.035 15.6717C13.083 15.7161 13.1395 15.7501 13.201 15.7718C13.257 15.7922 13.3163 15.8022 13.3759 15.8014C13.4788 15.8006 13.5801 15.7762 13.6722 15.7303L14.0396 15.5525C14.9904 15.0709 15.9667 14.6416 16.9642 14.2663C17.0669 14.2301 17.1563 14.1638 17.2208 14.076C17.2853 13.9883 17.3218 13.8832 17.3258 13.7743V13.6914C17.3166 13.6501 17.3048 13.6095 17.2902 13.5699C17.2629 13.5023 17.2218 13.4411 17.1695 13.3904C17.1172 13.3397 17.0548 13.3005 16.9864 13.2754C16.918 13.2503 16.8451 13.2398 16.7724 13.2445C16.6997 13.2493 16.6287 13.2693 16.5642 13.3031C15.5611 13.6695 14.5815 14.0971 13.6307 14.5834L13.2129 14.7879C13.1441 14.8139 13.0815 14.8539 13.029 14.9054C12.9766 14.9569 12.9354 15.0188 12.9081 15.087C12.8807 15.1553 12.8679 15.2285 12.8704 15.302C12.8729 15.3755 12.8906 15.4477 12.9225 15.5139Z" fill="#FFCB00"/>
<path d="M17.3049 6.83397C17.2873 6.76729 17.2561 6.70497 17.2133 6.65092C17.1704 6.59686 17.1169 6.55223 17.056 6.51984C16.972 6.48277 16.8812 6.46362 16.7893 6.46362C16.6975 6.46362 16.6067 6.48277 16.5226 6.51984C15.453 6.92421 14.4073 7.38926 13.3906 7.9127L13.2039 8.00457C13.1362 8.03176 13.0748 8.07264 13.0236 8.12465C12.9724 8.17666 12.9324 8.23868 12.9063 8.30684C12.8801 8.37499 12.8683 8.4478 12.8716 8.52073C12.8749 8.59365 12.8932 8.66511 12.9254 8.73063C12.9544 8.79767 12.9988 8.85698 13.0549 8.90381C13.111 8.95063 13.1772 8.98369 13.2484 9.00032C13.2879 9.01123 13.3288 9.01623 13.3698 9.01513C13.4831 9.01294 13.5944 8.98561 13.6958 8.93512L13.9921 8.78398C14.9489 8.29673 15.9323 7.86337 16.9375 7.48595C17.0435 7.45359 17.1367 7.38865 17.2037 7.30033C17.2707 7.21202 17.3082 7.10484 17.3108 6.994V6.93769C17.3113 6.90302 17.3093 6.86836 17.3049 6.83397Z" fill="#FFCB00"/>
<path d="M13.3759 13.5314C13.4786 13.5321 13.5801 13.5087 13.6722 13.4632L14.1463 13.235C15.0689 12.7703 16.0155 12.3548 16.982 11.9903C17.0838 11.9555 17.1721 11.8895 17.2343 11.8018C17.2965 11.714 17.3295 11.6089 17.3287 11.5013C17.3294 11.394 17.2939 11.2896 17.228 11.205C17.15 11.1032 17.0394 11.0314 16.9147 11.0017C16.79 10.972 16.6589 10.9863 16.5435 11.042C15.5161 11.4223 14.5127 11.8647 13.5388 12.3667L13.204 12.5297C13.0665 12.5969 12.9603 12.7148 12.9077 12.8586C12.8857 12.9257 12.8774 12.9965 12.8836 13.0668C12.8897 13.1371 12.91 13.2054 12.9433 13.2676C12.9847 13.3467 13.0468 13.413 13.123 13.4595C13.1992 13.5059 13.2866 13.5308 13.3759 13.5314Z" fill="#FFCB00"/>
<path d="M16.5702 4.21424C15.5372 4.59275 14.5287 5.03517 13.5507 5.53894L13.1862 5.71676C13.0931 5.76013 13.0138 5.82855 12.9573 5.91437C12.9008 6.0002 12.8693 6.10005 12.8662 6.20278L12.887 6.32428C12.9012 6.3989 12.9328 6.46914 12.9791 6.52935C13.0254 6.58957 13.0852 6.63809 13.1536 6.67101C13.2204 6.7021 13.2934 6.71731 13.367 6.71547C13.4941 6.71221 13.6188 6.67977 13.7315 6.62063L14.1256 6.43097C15.0338 5.9682 15.9678 5.55758 16.9228 5.2011C16.9983 5.17774 17.0685 5.13948 17.129 5.08859C17.1896 5.03769 17.2394 4.97518 17.2754 4.90475C17.3018 4.84292 17.3154 4.77639 17.3154 4.70915C17.3154 4.64192 17.3018 4.57539 17.2754 4.51356C17.2507 4.4461 17.2124 4.38442 17.163 4.33235C17.1135 4.28028 17.0538 4.23893 16.9877 4.21087C16.9216 4.18281 16.8504 4.16863 16.7786 4.16921C16.7068 4.16979 16.6358 4.18512 16.5702 4.21424Z" fill="#FFCB00"/>
<path d="M16.7922 8.70972C16.7015 8.71371 16.6122 8.73378 16.5285 8.76899C15.4951 9.1533 14.4858 9.59962 13.5061 10.1055L13.189 10.2596C13.1252 10.2885 13.0678 10.3298 13.0201 10.3812C12.9475 10.4523 12.8973 10.5432 12.8759 10.6426C12.8545 10.742 12.8628 10.8455 12.8997 10.9403C12.9366 11.035 13.0006 11.1168 13.0837 11.1755C13.1667 11.2341 13.2652 11.2671 13.3668 11.2702H13.3994C13.526 11.2627 13.6489 11.2251 13.758 11.1606L13.9002 11.0924C14.8794 10.591 15.8854 10.1438 16.9137 9.75288C16.9815 9.7327 17.0455 9.70167 17.1034 9.66101C17.1932 9.59765 17.2605 9.50739 17.2957 9.40326C17.3309 9.29912 17.3321 9.1865 17.2991 9.08164C17.2662 8.97679 17.2007 8.88512 17.1123 8.81987C17.0239 8.75461 16.917 8.71916 16.8071 8.71861L16.7922 8.70972Z" fill="#FFCB00"/>
</g>
<defs>
<clipPath id="clip0">
<rect width="23" height="23" fill="white"/>
</clipPath>
</defs>
</svg>
