<svg width="23" height="23" viewBox="0 0 23 23" fill="none" xmlns="http://www.w3.org/2000/svg">
<g clip-path="url(#clip0)">
<path d="M22.9997 0.515119C22.9727 0.352714 22.8828 0.207488 22.7496 0.110915C22.6163 0.0143426 22.4504 -0.0257954 22.2878 -0.000799713C21.9884 -0.000799713 21.689 0.0158428 21.3929 0.0158428C20.4145 0.0368185 19.4382 0.114615 18.4688 0.248839C17.2154 0.40778 15.9708 0.629964 14.7397 0.914541C12.6935 1.3575 10.7061 2.03894 8.81843 2.94493C7.2485 3.68861 5.80672 4.67732 4.54709 5.87402C3.53061 6.84898 2.75947 8.05107 2.29689 9.38177C1.8343 10.7125 1.69344 12.1339 1.88583 13.5296C2.0933 15.119 2.73181 16.6212 3.73208 17.8733C3.91837 18.1096 3.9217 18.1063 3.69882 18.3293L0.415478 21.5746C0.322505 21.6617 0.236835 21.7564 0.159331 21.8575C0.0825438 21.9497 0.0304075 22.0599 0.00780743 22.1778C-0.0147926 22.2957 -0.00711655 22.4174 0.0301164 22.5314C0.0673493 22.6455 0.13292 22.7483 0.220685 22.8301C0.30845 22.9119 0.415536 22.9701 0.531909 22.9992H0.89118C1.09905 22.9424 1.28616 22.8268 1.43009 22.6664L4.75667 19.3378C4.94296 19.1514 4.95959 19.1481 5.16251 19.3179C5.5896 19.6699 6.0536 19.9746 6.54637 20.2266C7.98651 20.9864 9.60894 21.3321 11.2335 21.2251C12.5208 21.1534 13.7778 20.8061 14.9194 20.2066C15.9532 19.6544 16.8732 18.9113 17.6305 18.0164C18.6971 16.7718 19.5819 15.3822 20.2585 13.8891C20.973 12.3327 21.5388 10.7123 21.9485 9.04942C22.2771 7.75134 22.5315 6.43555 22.7102 5.10846C22.8461 4.19324 22.9272 3.2707 22.9531 2.3458C22.9415 2.15294 22.9549 1.95939 22.993 1.76997V1.54696C22.9597 1.517 22.9697 1.48039 22.9697 1.44377V1.27735C22.9697 1.23075 22.9697 1.18082 22.993 1.14421L22.9997 0.515119ZM8.69534 4.57257C9.54184 4.12245 10.415 3.7245 11.31 3.38097C11.4764 3.31772 11.5063 3.34768 11.5063 3.52076C11.5063 5.81411 11.5063 8.10745 11.5063 10.4041C11.5116 10.4516 11.5066 10.4997 11.4917 10.545C11.4768 10.5904 11.4522 10.632 11.4198 10.6671C10.4651 11.6157 9.51701 12.5677 8.56561 13.5163C8.54369 13.5301 8.52025 13.5412 8.49575 13.5496V13.3499C8.49575 10.5317 8.49575 7.71358 8.49575 4.89544C8.48833 4.82836 8.50278 4.76067 8.53695 4.70249C8.57112 4.6443 8.62319 4.59873 8.68536 4.57257H8.69534ZM5.06604 17.0179C4.97955 17.1044 4.93631 17.1444 4.83651 17.0179C4.21623 16.252 3.75491 15.37 3.47959 14.4236C3.20426 13.4771 3.12046 12.4851 3.23309 11.5059C3.42893 9.56134 4.37539 7.77003 5.87107 6.51309C6.27331 6.15251 6.69893 5.81893 7.14516 5.51454V5.76751C7.14516 8.7432 7.14516 11.7189 7.14516 14.6946C7.15025 14.7694 7.13855 14.8444 7.11092 14.914C7.08329 14.9837 7.04043 15.0464 6.98548 15.0973C6.34012 15.7331 5.70142 16.3755 5.06604 17.0179ZM12.95 19.5043C11.7736 19.8787 10.5223 19.9531 9.30981 19.7205C8.09734 19.488 6.96217 18.956 6.00746 18.1729C5.91099 18.0996 5.90434 18.063 6.00746 17.9765C6.67278 17.3108 7.34364 16.6451 8.02005 15.9794C8.04758 15.9498 8.08113 15.9265 8.11843 15.911C8.15573 15.8955 8.19591 15.8882 8.23628 15.8895H17.4143H17.4842C16.3265 17.5771 14.9294 18.9251 12.95 19.5043ZM19.6265 11.7422C19.2803 12.6462 18.8781 13.5278 18.4223 14.3817C18.4036 14.4327 18.3688 14.4762 18.3232 14.5057C18.2776 14.5351 18.2236 14.5488 18.1695 14.5448H9.55028H9.46711L9.6035 14.395C10.5194 13.483 11.4209 12.5732 12.308 11.6656C12.35 11.6196 12.4015 11.5832 12.4589 11.559C12.5164 11.5349 12.5784 11.5236 12.6407 11.5258C14.9183 11.5258 17.1959 11.5258 19.4735 11.5258C19.6564 11.5258 19.7097 11.5458 19.6265 11.7422ZM20.222 9.98473C20.182 10.1179 20.1321 10.1745 19.9824 10.1745C17.9865 10.1745 15.9839 10.1745 13.9746 10.1745H13.8649L13.8116 10.1046C13.881 10.0637 13.9466 10.0169 14.0079 9.96476L17.6073 6.36997C17.6919 6.30195 17.7616 6.21717 17.812 6.12095C17.8623 6.02473 17.8923 5.91913 17.9 5.81078C17.9045 5.68656 17.8741 5.56357 17.8123 5.45575C17.7505 5.34792 17.6597 5.25956 17.5503 5.20067C17.4409 5.14178 17.3172 5.11471 17.1932 5.12254C17.0693 5.13036 16.9499 5.17276 16.8488 5.24493C16.765 5.30761 16.687 5.3778 16.6159 5.45463L12.8968 9.17923C12.817 9.14927 12.8469 9.08936 12.8469 9.04276C12.8469 7.04566 12.8469 5.04855 12.8469 3.03147C12.8432 3.00478 12.8448 2.9776 12.8517 2.95154C12.8586 2.92547 12.8705 2.90104 12.887 2.87966C12.9034 2.85828 12.9239 2.84038 12.9473 2.82702C12.9707 2.81365 12.9965 2.80508 13.0232 2.80181C14.911 2.25076 16.8417 1.85885 18.7949 1.63017C19.6797 1.52699 20.5646 1.44377 21.4561 1.39717C21.5825 1.39717 21.6358 1.39717 21.6291 1.55361C21.4884 4.40907 21.0161 7.23846 20.222 9.98473Z" fill="#1E96A5"/>
</g>
<defs>
<clipPath id="clip0">
<rect width="23" height="23" fill="white"/>
</clipPath>
</defs>
</svg>
